<?xml version="1.0" encoding="UTF-8"?>
<!DOCTYPE svg PUBLIC "-//W3C//DTD SVG 1.1//EN" "http://www.w3.org/Graphics/SVG/1.1/DTD/svg11.dtd">
<!-- Creator: CorelDRAW -->
<svg xmlns="http://www.w3.org/2000/svg" xml:space="preserve" width="141.342mm" height="145.555mm" version="1.1" style="shape-rendering:geometricPrecision; text-rendering:geometricPrecision; image-rendering:optimizeQuality; fill-rule:evenodd; clip-rule:evenodd"
viewBox="0 0 14134.24 14555.55"
 xmlns:xlink="http://www.w3.org/1999/xlink"
 xmlns:xodm="http://www.corel.com/coreldraw/odm/2003">
 <defs>
  <style type="text/css">
   <![CDATA[
    .str0 {stroke:#8B8B8C;stroke-width:20;stroke-miterlimit:22.9256}
    .fil17 {fill:#474443;fill-rule:nonzero}
    .fil9 {fill:#21343A;fill-rule:nonzero}
    .fil6 {fill:#243840;fill-rule:nonzero}
    .fil7 {fill:#2F4C55;fill-rule:nonzero}
    .fil11 {fill:#3A616C;fill-rule:nonzero}
    .fil2 {fill:#488EFE;fill-rule:nonzero}
    .fil15 {fill:#5683CC;fill-rule:nonzero}
    .fil1 {fill:#A9ABA8;fill-rule:nonzero}
    .fil16 {fill:#B6B6B7;fill-rule:nonzero}
    .fil12 {fill:#C8CAC9;fill-rule:nonzero}
    .fil14 {fill:#DDDEDC;fill-rule:nonzero}
    .fil8 {fill:#E5E7E6;fill-rule:nonzero}
    .fil0 {fill:#ECEDEC;fill-rule:nonzero}
    .fil10 {fill:#F099B9;fill-rule:nonzero}
    .fil5 {fill:#F3A69F;fill-rule:nonzero}
    .fil13 {fill:#FBC726;fill-rule:nonzero}
    .fil3 {fill:#FEFEFE;fill-rule:nonzero}
    .fil4 {fill:#757475;fill-rule:nonzero;fill-opacity:0.200000}
   ]]>
  </style>
 </defs>
 <g id="Layer_x0020_1">
  <metadata id="CorelCorpID_0Corel-Layer"/>
  <polygon class="fil0" points="5811.46,3038.79 5811.46,3021.15 1396.85,3021.15 1396.85,35.27 5793.82,35.27 5793.82,3038.79 5811.46,3038.79 5811.46,3021.15 5811.46,3038.79 5829.1,3038.79 5829.1,0 1361.58,0 1361.58,3056.43 5829.1,3056.43 5829.1,3038.79 "/>
  <path class="fil1" d="M1710.88 196.92c0,49.11 -39.81,88.9 -88.91,88.9 -49.11,0 -88.93,-39.79 -88.93,-88.9 0,-49.1 39.82,-88.93 88.93,-88.93 49.1,0 88.91,39.83 88.91,88.93z"/>
  <path class="fil0" d="M2073.97 196.92c0,49.11 -39.81,88.9 -88.91,88.9 -49.11,0 -88.93,-39.79 -88.93,-88.9 0,-49.1 39.82,-88.93 88.93,-88.93 49.1,0 88.91,39.83 88.91,88.93z"/>
  <path class="fil2" d="M2437.07 196.92c0,49.11 -39.81,88.9 -88.94,88.9 -49.11,0 -88.91,-39.79 -88.91,-88.9 0,-49.1 39.8,-88.93 88.91,-88.93 49.13,0 88.94,39.83 88.94,88.93z"/>
  <polygon class="fil0" points="1379.21,388.72 5811.47,388.72 5811.47,353.45 1379.21,353.45 "/>
  <polygon class="fil0" points="2761.4,8344.73 219.79,8691.3 -0,7079.49 2541.6,6732.89 "/>
  <path class="fil3" d="M2541.6 6732.89c-89.28,112.18 -181.05,220.45 -271.3,331.19 -91.31,108.72 -183.01,217.52 -275.21,325.33 -96.23,112.64 -192.98,224.22 -289.81,335.28 -2.98,3.6 -5.63,7.12 -8.65,10.72 -85.77,97.93 -171.94,195.9 -258.11,293.94l-12.85 13.9 -15.77 -10.02c-109.25,-71.33 -218.13,-142.74 -327.07,-214.67 -3.78,-2.11 -7.65,-4.76 -11.51,-7.41 -123.4,-81.06 -246.51,-162.66 -369.44,-245.87 -117.26,-78.74 -234.72,-159 -351.81,-239.36 -116.61,-82.52 -234.01,-162.24 -350.07,-246.41 120.62,69.25 239.92,142.95 359.7,214.42 119.6,73.1 239.21,146.23 358.25,221.02 132.55,82.44 265.31,166.47 397.82,251.56l0.83 0.39c99.21,63.18 198.48,126.89 297.76,190.61 78.21,-87.92 156.72,-176.38 235.46,-263.32l0.62 -1.13c104.94,-116.98 210,-233.39 315.9,-348.89 94.78,-103.4 189.98,-206.34 285.73,-308.26 96.63,-101.04 191.83,-203.94 289.52,-303l0.01 -0.02z"/>
  <path class="fil3" d="M1124.59 7802.69l-2.68 3.07c-11.8,13.3 -23.59,26.56 -35.45,39.44 -56.4,62.51 -114.64,122.91 -174.23,182 -72.49,72.88 -147.25,143.33 -222.43,213.43 -75.73,69.03 -151.91,137.72 -230.28,204.4 -78.39,66.71 -157.68,132.32 -240.67,193.78 67.9,-78.07 139.46,-151.95 212,-224.44 72.86,-72.96 147.61,-143.41 222.43,-213.47 76.07,-69.46 152.22,-138.18 230.6,-204.85 62.33,-53.17 125.91,-105.79 191.39,-155.93 15.12,-11.79 30.28,-23.18 45.81,-34.65l3.51 -2.78z"/>
  <path class="fil3" d="M2748.25 8293.9c-96.4,-37.01 -190.77,-78.96 -283.76,-122.28 -93.39,-43.25 -185.14,-89.04 -276.97,-135.22 -91.23,-47.45 -182.12,-95.28 -271.48,-146.12 -72.85,-40.99 -145.09,-83.22 -215.78,-128.37 -15.3,-9.6 -30.23,-19.23 -45.15,-28.86l-3.42 -2.26 4.08 1.41c18.1,7.23 35.78,14.15 53.47,21.45 76.51,30.76 151.47,64.49 226.18,99.03 93.36,43.25 185.14,89.04 276.64,135.67 91.21,47.42 182.11,95.29 271.46,146.09 89.67,50.38 178.41,102.41 264.73,159.46z"/>
  <g id="_2069936554384">
   <polygon class="fil0" points="13890.54,2738.08 11587.79,2353.8 11831.5,893.45 14134.24,1277.72 "/>
   <path class="fil3" d="M14134.24 1277.72c-107.88,73.41 -216.85,142.77 -325.15,214.67 -108.69,69.92 -217.74,139.73 -326.99,208.59 -114.02,71.9 -228.18,142.81 -342.34,213.26 -3.56,2.33 -6.81,4.65 -10.4,6.98 -100.97,61.98 -202.29,123.93 -303.64,185.88l-14.92 8.61 -11.01 -12.95c-75.74,-91.47 -151.13,-182.91 -226.41,-274.81 -2.72,-2.86 -5.36,-6.21 -8.01,-9.56 -85.41,-103.72 -170.39,-207.89 -254.81,-313.41 -80.68,-100.01 -161.15,-201.51 -241.27,-302.9 -79.09,-103.18 -159.63,-204.18 -237.8,-308.64 86.18,92.74 170,188.95 254.84,283.42 84.25,95.82 168.45,191.63 251.82,288.71 92.95,107.42 185.66,216.26 277.91,325.97l0.6 0.6c69.22,81.67 138.33,163.83 207.44,245.98 91.68,-55.31 183.79,-111.05 275.66,-165.38l0.88 -0.81c122.77,-73.38 245.45,-146.26 368.72,-218.09 110.25,-64.31 220.77,-128.09 331.47,-190.89 111.27,-61.73 221.79,-125.51 333.41,-185.24l0 0.01z"/>
   <path class="fil3" d="M12613.99 1825.42l-3.17 1.94c-13.87,8.36 -27.66,16.72 -41.45,24.73 -65.9,39.12 -132.79,75.95 -200.52,111.19 -82.69,43.78 -166.65,84.85 -250.97,125.56 -84.42,39.54 -169.16,78.74 -255.27,115.53 -86.11,36.83 -172.75,72.5 -261.44,103.51 80.04,-49.53 162.21,-94.48 244.78,-137.9 83.01,-43.75 167.01,-84.81 250.93,-125.52 84.84,-39.9 169.55,-79.1 255.69,-115.89 68.51,-29.42 138.01,-58 208.43,-83.93 16.33,-6.17 32.56,-11.99 49.14,-17.74l3.84 -1.48 0.01 0z"/>
   <path class="fil3" d="M13892.84 2690.31c-73.84,-58.17 -144.54,-120.08 -213.72,-182.81 -69.46,-62.79 -136.91,-127.35 -204.29,-192.26 -66.5,-65.83 -132.57,-131.97 -196.53,-200.2 -52.28,-55.28 -103.68,-111.48 -152.93,-169.83 -10.72,-12.45 -21.1,-24.87 -31.5,-37.25l-2.33 -2.86 3.17 2.29c13.76,11.19 27.24,21.98 40.68,33.09 58.21,47.38 114.26,96.91 169.9,147.04 69.46,62.8 136.87,127.39 203.87,192.58 66.5,65.83 132.61,131.94 196.56,200.2 64.35,67.98 127.46,137.13 187.12,210.01z"/>
  </g>
  <path class="fil4" d="M13760.86 13661.12c0,493.96 -2996.9,894.43 -6693.72,894.43 -3696.86,0 -6693.75,-400.47 -6693.75,-894.43 0,-494 2996.89,-894.44 6693.75,-894.44 3696.82,0 6693.72,400.44 6693.72,894.44z"/>
  <path class="fil5" d="M526.38 14003.34c75.99,24.52 2243.69,1.59 2325.82,-51.47 31.24,-19.99 46.32,-335.91 53.69,-718.11 1.61,-82.58 2.75,-167.79 3.44,-254.38 5.1,-562.05 -2.62,-1158.59 -2.62,-1158.59l-1450.08 11.15 42.53 1158.27 9.15 254.27c0,0 -826.04,379.94 -909.86,447.89 -83.35,67.94 -148.05,286.42 -72.06,310.97l-0.01 0z"/>
  <path class="fil0" d="M526.44 14003.27c75.91,24.67 2243.52,1.59 2325.66,-51.26 31.31,-20.35 46.55,-336.02 53.6,-718.22 1.96,-82.54 3.14,-167.82 3.52,-254.27 0.79,-89.19 1.17,-179.18 1.57,-267.59l-1421.99 0 10.17 278.17 9.38 254.25c0,0 -826.2,380.25 -909.92,447.91 -83.33,68.09 -147.88,286.36 -71.99,311.01z"/>
  <path class="fil2" d="M519.81 14006.48c76.43,24.7 2256.23,1.66 2338.82,-51.74 38.16,-24.67 52.65,-488.46 57.45,-977.91l-1418.05 10.9 9.18 255.67c0,0 -830.64,382.13 -914.91,450.38 -83.84,68.34 -148.9,288.05 -72.49,312.7z"/>
  <path class="fil6" d="M550.16 13918.96c365.3,-12.82 1839.93,-30.14 2202,-15.04l0.01 2.3c-361.8,20.63 -1836.51,25.97 -2201.97,18.73 -7.7,-0.14 -7.76,-5.72 -0.04,-5.99z"/>
  <path class="fil6" d="M1454.83 13162.75c143.52,-28.33 319.62,-8.15 430.57,93.13 4.3,3.91 -1.34,9.98 -6.01,8.57 -142.35,-43.21 -275.12,-70.51 -423.77,-83.53 -10.49,-0.93 -11.06,-16.13 -0.79,-18.17z"/>
  <path class="fil6" d="M1351.72 13226.39c143.5,-28.36 319.6,-8.11 430.57,93.17 4.3,3.91 -1.35,9.95 -6.03,8.53 -142.34,-43.21 -275.12,-70.52 -423.77,-83.54 -10.47,-0.91 -11.03,-16.12 -0.77,-18.16z"/>
  <path class="fil6" d="M1248.58 13290.06c143.49,-28.4 319.62,-8.19 430.57,93.09 4.28,3.95 -1.35,10.02 -6.01,8.61 -142.34,-43.24 -275.12,-70.52 -423.8,-83.58 -10.48,-0.91 -11.03,-16.12 -0.76,-18.12z"/>
  <path class="fil6" d="M1145.46 13353.71c143.51,-28.36 319.61,-8.16 430.57,93.13 4.31,3.95 -1.34,9.94 -6.01,8.54 -142.35,-43.19 -275.13,-70.53 -423.79,-83.54 -10.47,-0.92 -11.04,-16.12 -0.77,-18.13z"/>
  <path class="fil6" d="M1214.55 12921.83c-27.01,-157.51 143.23,-76.48 186.41,-37.99 27.75,24.74 53,53.3 77.07,81.56 50.45,59.17 91.52,124.43 135.56,188.11 -57.26,-24.6 -116.11,-44.03 -174.25,-66.47 -69.25,-26.75 -209.9,-78.39 -224.79,-165.21zm37.82 115.29c102.54,78.03 235.25,108.95 354.45,151.66 12.37,4.41 22.05,-7.27 22.36,-18.2l3.34 -5.22c-40.43,-119.7 -126.86,-246.37 -224.92,-327.07 -60.56,-49.77 -166.16,-83.67 -221.83,-5.25 -52.69,74.16 6.73,158.53 66.6,204.08z"/>
  <path class="fil6" d="M1804.09 13128.56c-61.76,8.15 -123.53,13.26 -184.97,23.71 57.77,-51.54 113.01,-105.33 175.93,-151.07 30.02,-21.79 61.29,-43.6 94.06,-61.13 50.99,-27.26 235.5,-66.07 172.29,80.65 -34.84,80.93 -183.72,98.1 -257.32,107.84l0.01 0zm306.13 -187.41c-35.7,-89.28 -146.29,-81.13 -216.86,-46.95 -114.26,55.39 -228.01,158.26 -295.42,265.15l2.03 5.82c-2.26,10.72 4.41,24.35 17.46,22.93 125.89,-13.55 262.17,-12.38 380.14,-64.16 68.89,-30.24 146.45,-98.3 112.65,-182.79z"/>
  <path class="fil7" d="M3342.9 5614.62c0,0 -422.88,3560.93 -431.89,3608.94 -1.34,6.35 120.12,3805.62 120.12,3805.62l-1581.25 0c0,0 -42.84,-3329.39 15.9,-3892.36 74.75,-718.15 545.96,-3522.2 545.96,-3522.2l1331.17 0 -0.01 0z"/>
  <path class="fil6" d="M2940.2 12704.21c-242.9,-5.04 -173.13,-7.03 -416.09,-9.35 -118.89,-1.17 -900.21,-7.97 -1011.29,10.44l0 4.9c111.1,18.42 892.4,11.61 1011.29,10.48 242.96,-2.33 173.19,-4.34 416.09,-9.39 4.57,-0.07 4.57,-7.01 0,-7.08z"/>
  <path class="fil6" d="M2702.15 8931.93c22.13,-201.23 51.04,-401.78 77.45,-602.46 53.17,-404.25 106.43,-808.42 160.92,-1212.5 61.78,-458.11 127.49,-915.53 192.53,-1373.11 0.77,-5.57 9.52,-5.5 8.84,0.21 -49,408.52 -98.1,816.9 -148.59,1225.23 -50.04,404.46 -103.52,808.48 -156.25,1212.6 -52.29,400.58 -121.4,802.67 -119.54,1207.63 0.95,203.69 9.8,407.46 15.44,611.08 5.64,203.83 11.45,407.67 16.89,611.54 12.34,461.32 29.82,1448.53 25.23,1910.08 -0.04,6 -8.76,5.57 -9.14,-0.22 -27.94,-411.3 -36.73,-1349.08 -50.29,-1761.06 -13.41,-407.53 -27.95,-815.22 -36.71,-1222.89 -4.36,-202.92 1.03,-404.32 23.22,-606.11l0 -0.02z"/>
  <path class="fil5" d="M4331.63 13930.5c76.66,-22.34 1858.53,-1256.99 1896.74,-1346.98 14.64,-34.08 -150.03,-304.09 -358.28,-624.7 -44.98,-69.21 -91.83,-140.44 -139.8,-212.51 -311.01,-468.2 -651.94,-957.76 -651.94,-957.76l-1194.33 822.46 684.82 935.11 150.14 205.4c0,0 -470.78,777.87 -502.08,881.08 -30.9,103.01 38.03,320.19 114.73,297.89l0 0.01z"/>
  <path class="fil0" d="M4331.63 13930.38c76.66,-22.16 1858.35,-1256.91 1896.78,-1346.73 14.5,-34.35 -149.93,-304.3 -358.46,-624.69 -44.66,-69.4 -91.51,-140.7 -139.7,-212.48 -49.35,-74.31 -99.48,-149.02 -148.77,-222.43l-1177.29 797.52 164.4 224.58 150.35 205.21c0,0 -470.78,778.19 -502.11,881.2 -30.83,103.08 38.17,320 114.8,297.81l0 0.01z"/>
  <path class="fil2" d="M4327.96 13936.81c77.12,-22.43 1868.93,-1264 1907.33,-1354.55 17.78,-41.77 -230.33,-433.9 -500.84,-841.85l-1167.97 804.3 151.03 206.51c0,0 -473.43,782.22 -504.9,886.03 -31.11,103.54 38.24,321.98 115.36,299.54l-0.01 0.02z"/>
  <path class="fil6" d="M4303.98 13847.34c295.27,-215.56 1506.46,-1056.82 1814.69,-1247.46l1.3 1.91c-287.97,219.98 -1505.92,1051.48 -1812.57,1250.46 -6.49,4.18 -9.63,-0.39 -3.42,-4.91z"/>
  <path class="fil6" d="M4628.91 12713.84c102.91,-103.93 260.04,-185.99 408.7,-164.33 5.78,0.82 4.51,9 -0.18,10.45 -142.1,44.06 -267.34,95.88 -397.72,168.48 -9.17,5.12 -18.17,-7.15 -10.8,-14.6z"/>
  <path class="fil6" d="M4579.24 12824.4c102.91,-104 260.03,-186.02 408.7,-164.4 5.75,0.84 4.48,9.03 -0.18,10.47 -142.1,44.04 -267.34,95.89 -397.72,168.53 -9.21,5.08 -18.17,-7.15 -10.8,-14.6z"/>
  <path class="fil6" d="M4529.54 12934.88c102.9,-103.96 260.03,-185.94 408.69,-164.36 5.75,0.88 4.48,9.04 -0.18,10.49 -142.06,44.03 -267.33,95.91 -397.68,168.52 -9.21,5.08 -18.21,-7.19 -10.83,-14.65z"/>
  <path class="fil6" d="M4479.83 13045.45c102.9,-103.97 260.07,-185.99 408.73,-164.35 5.75,0.84 4.48,8.98 -0.18,10.43 -142.1,44.07 -267.33,95.92 -397.72,168.49 -9.17,5.15 -18.17,-7.17 -10.83,-14.57z"/>
  <path class="fil6" d="M4294.83 12649.13c-110.7,-115.24 75.74,-143.6 133.07,-135.98 36.8,4.93 73.73,14.43 109.54,24.3 74.93,20.7 145.52,51.68 217.7,79.72 -61.17,11.76 -120.83,28.65 -181.54,42.7 -72.32,16.68 -217.74,52.84 -278.77,-10.74zm95.98 74.26c128.63,7.13 255.87,-41.76 378.5,-73.27 12.73,-3.24 14.22,-18.34 8.32,-27.58l-0.17 -6.21c-100.61,-76.41 -243.21,-132.78 -369.64,-144.57 -78.07,-7.3 -184.51,23.84 -186.62,120.02 -2.01,90.95 94.51,127.49 169.61,131.61z"/>
  <path class="fil6" d="M4898.89 12489.65c-46.56,41.41 -94.86,80.26 -139.84,123.36 18.88,-75.07 34.47,-150.56 60.93,-223.7 12.66,-34.91 26.28,-70.48 43.6,-103.39 26.92,-51.15 157.94,-186.79 187.86,-29.85 16.54,86.54 -97.05,184.26 -152.55,233.58zm148.38 -326.82c-79.65,-53.9 -166.65,14.89 -205.88,82.77 -63.57,109.95 -100.05,258.86 -95.92,385.15l4.98 3.71c4.12,10.15 17.28,17.71 27.3,9.2 96.63,-81.84 210.11,-157.3 278.73,-266.34 40.11,-63.65 66.11,-163.52 -9.21,-214.5l0 0.01z"/>
  <path class="fil7" d="M2011.73 5614.62c0,0 246.03,758.89 524.56,1141.66 0,0 72.68,2805.99 186.08,3128.28 187.89,534.04 1649.1,2692.39 1649.1,2692.39l1339 -924.74c0,0 -1400.38,-2026.88 -1473.55,-2220.79 -48.61,-128.77 -190.15,-2352.99 -169.75,-2408.8 245.52,-673.2 -124.64,-1408.01 -124.64,-1408.01l-1930.81 0 0.01 0.01z"/>
  <path class="fil6" d="M5424.77 11370.1c-202.81,133.81 -146.51,92.54 -347.84,228.61 -98.49,66.53 -745.45,504.65 -826.45,582.85l2.79 4.07c101.91,-47.92 741.14,-497.21 838.34,-565.69 198.68,-139.91 140.12,-101.88 337.18,-244.01 3.71,-2.64 -0.21,-8.33 -4.02,-5.83z"/>
  <path class="fil6" d="M3897.78 6941.35c19.93,-87.49 42.02,-174.66 55.28,-263.49 13.41,-89.79 16.51,-180.73 11.29,-271.29 -10.55,-183.41 -51.08,-364.42 -99.02,-541.27 -12.03,-44.31 -24.63,-88.37 -37.75,-132.36 -2.37,-7.97 10.05,-10.97 12.45,-3.1 53.87,173.88 108.73,347.59 136.21,528.02 26.67,174.9 22.15,348.72 -13.55,521.94 -36.58,177.27 -88.16,350.24 -81.24,533.15 3.56,94.83 116.48,1857.86 116.34,1949.3 -0.1,89.82 3.92,180.23 35.6,265.29 30.66,82.09 79.23,156.53 124.74,230.89 48.16,78.85 96.94,157.24 145.91,235.55 193.04,308.44 634.75,932.29 840.56,1232.35 26.11,38.03 52.29,76.02 78.57,113.91 2.71,3.95 -3.71,7.3 -6.42,3.57 -216.19,-298.1 -668.68,-918.5 -867.94,-1228.26 -97.69,-151.91 -197.56,-304.02 -286.42,-461.33 -41.95,-74.26 -74.12,-152.05 -85.23,-237.14 -11.15,-85.19 -130.6,-2126.86 -123.48,-2218.53 6.78,-86.89 24.8,-172.41 44.1,-257.21l0 0.01z"/>
  <path class="fil6" d="M3286.88 5872.05c33.3,136.77 28.39,307.55 125.62,419.88 48.15,55.59 118.18,83.46 188.67,98.14 80.85,16.86 163.37,18.8 245.55,13.55 3.6,-0.22 3.74,5.04 0.64,6.03 -146.72,46.78 -350.41,38.91 -461.47,-81.99 -51.08,-55.59 -73.69,-128.8 -84.67,-202 -12.41,-82.58 -19.58,-169.51 -20.39,-252.94 -0.03,-3.46 5.22,-3.99 6.04,-0.67l0.01 0z"/>
  <path class="fil6" d="M2526.65 6761.29c1.11,-13.48 20.1,-12.53 21.31,0.53 5.84,62.02 4.82,124.49 6.71,186.76 1.77,58.95 3.02,117.9 4.62,176.87 3.22,121.11 5.8,242.29 8.61,363.43 5.61,242.36 12.64,484.54 22.75,726.69 10.1,242.11 21.07,484.26 33.3,726.26 6.11,120.93 13.44,241.8 20.43,362.66 6.71,116.45 13.8,233.18 36.02,348.05 45.38,234.24 137.75,465.14 262.55,670.48 2.97,4.9 -4.55,8.54 -7.8,4.2 -130.97,-175.78 -222.86,-370 -273.94,-581.24 -54.76,-226.41 -60.5,-461.08 -73.56,-692.36 -27.62,-488.92 -45.53,-977.97 -57.78,-1467.49 -3.46,-137.4 -6.47,-274.99 -6.87,-412.47 -0.19,-67.09 -0.55,-134.23 -0.09,-201.33 0.45,-70.23 -1.95,-141.04 3.74,-211.06l0 0.02z"/>
  <path class="fil6" d="M2279.46 6642.8c161.09,52.88 316.57,127.95 465.26,206.66 5.81,3.07 1.98,11.71 -4.33,9.1 -156.74,-64.17 -316.54,-125.59 -469.37,-197.95 -12.02,-5.64 -3.92,-21.87 8.44,-17.81z"/>
  <path class="fil6" d="M2232.26 5619.06c0.45,-5.18 9.95,-6.35 9.91,-0.74 -1.27,177.41 10.6,333.55 26.3,499.36 7.26,77.01 72.21,502.46 212.19,471.45 23.45,-5.18 35.39,-27.2 39.09,-60.89 4.41,-40.5 -11.57,-90.2 -18.59,-130.49 -15.53,-89.04 -28.03,-178.4 -36.03,-268.39 -14.97,-167.93 -15.71,-335.88 5.7,-503.31 0.69,-5.5 9.03,-5.08 9.01,0.49 -0.19,232.48 6.18,464.54 42.63,694.8 17.53,110.66 75.97,277.28 -45.41,294.32 -123.62,17.32 -203.56,-261.72 -218.65,-338.07 -42.12,-213.04 -43.78,-443.01 -26.15,-658.53z"/>
  <path class="fil6" d="M2476.96 6600.6c12.64,28.57 22.82,58.31 31.47,88.19 6.73,23.21 15.87,48.26 13.08,72.46 -0.54,4.73 -7.04,5.15 -9.67,2.01 -16.41,-19.86 -23.36,-47.02 -32.54,-70.55 -10.64,-27.27 -21.91,-54.37 -31.73,-81.92 -6.54,-18.27 21.58,-27.83 29.39,-10.19z"/>
  <path class="fil5" d="M1568.87 3832.18c-190.17,318.69 -900.33,1709.25 -736.69,2105.31 100.71,243.77 382.37,152.33 536.2,61.31 180.22,-106.64 459.77,-1669.87 477.87,-1981.44 17.2,-296.72 -90.53,-498.37 -277.37,-185.18l-0.01 0z"/>
  <path class="fil2" d="M917.45 5104.86l825.4 -203.41c0,0 86.84,-453.25 113.18,-929.92 26.33,-476.67 -145.51,-417.3 -466.52,89.99 -321.03,507.3 -472.06,1043.34 -472.06,1043.34z"/>
  <path class="fil6" d="M1708.47 4748.24c-296.76,98.39 -618.8,154.02 -674.62,167.99l-0.28 -4.44c55.18,-10.69 420.07,-117.16 674.58,-168.49l0.32 4.94z"/>
  <path class="fil8" d="M1742.86 4901.38c0.97,-5.11 50.15,-263.24 85.42,-593.23 -35.58,333.2 -85.31,593.2 -85.31,593.2l-0.11 0.03z"/>
  <path class="fil2" d="M1369.11 4993.52l52.84 -163.09c91.54,-22.93 190.36,-50.31 286.52,-82.2l-0.32 -4.94c-85.82,17.32 -184.2,40.89 -279.02,64.95l185.85 -573.69c10.5,-3.7 20.81,-7.83 31.05,-12.17 28.54,-13.55 56.71,-28.19 81.97,-50.13 -32.94,4.02 -62.94,14.99 -92.21,27.45 -3.76,1.76 -7.54,3.6 -11.28,5.43l178.09 -549.8c44.64,31.11 63.3,134.65 53.43,316.08 -6.4,115.67 -16.34,229.94 -27.74,336.72 -35.26,329.99 -84.45,588.12 -85.42,593.23l-373.76 92.15 0 0.01z"/>
  <path class="fil8" d="M1614.98 4234.56l9.53 -29.42c3.74,-1.83 7.52,-3.67 11.28,-5.43 29.27,-12.46 59.27,-23.43 92.21,-27.45 -25.26,21.94 -53.43,36.58 -81.97,50.13 -10.24,4.34 -20.55,8.47 -31.05,12.17z"/>
  <path class="fil9" d="M1421.95 4830.44l7.18 -22.19c94.82,-24.06 193.2,-47.63 279.02,-64.95l0.32 4.94c-96.16,31.89 -194.98,59.27 -286.52,82.2z"/>
  <path class="fil2" d="M1886.32 6038.16l2136.41 -423.54c0,0 -703.3,-1445.29 -1735.58,-2006.31 -238.88,-129.86 -608.49,-35.3 -645.35,192.51 -126.82,783.7 244.52,2237.35 244.52,2237.35l0 -0.01z"/>
  <path class="fil5" d="M2268.98 3721.37c435.03,-137.52 1565.52,-444.22 1747.77,-785.11 239.15,-447.29 64.87,-1449.1 -55.74,-1617.42 -66.57,-92.88 -698.15,159.35 -764.47,261.94 -66.31,102.62 53.83,879.33 29.77,967.46 -24.06,88.09 -804.93,573.83 -1148.11,853.62 -432.91,352.84 -150.42,427.35 190.78,319.51z"/>
  <path class="fil2" d="M3417.86 3379.99l-708.71 -469.47c0,0 -260.2,185.98 -628.72,489.48 -368.53,303.49 -345.8,493.99 244.82,386.56 590.62,-107.46 1092.59,-406.58 1092.59,-406.58l0.02 0.01z"/>
  <path class="fil6" d="M2619.74 3039.6c273.36,151.66 532.43,350.91 580.54,382.48l-3.11 3.25c-45.22,-33.38 -370.7,-229.7 -580.85,-382.17l3.42 -3.56z"/>
  <path class="fil6" d="M2325.27 3786.56c30.19,-11.47 60.57,-19.19 91.29,-26.25 30.8,-6.49 61.67,-12.45 94,-14.04 -28.74,14.92 -59.27,24.06 -90.21,31.26 -31.08,6.42 -62.73,11.11 -95.08,9.03z"/>
  <path class="fil6" d="M2372.87 3805.16c22.58,-17.04 46.5,-28.22 70.66,-41.94 -7.6,12.27 -19.84,20.14 -31.6,27.37 -12.36,6.39 -24.99,12.31 -39.06,14.57z"/>
  <path class="fil5" d="M1071.79 6088.59c-256.08,-22.79 -306.52,-396.42 -176.9,-520.77 325.05,-311.83 997.89,-529.97 1264.14,-602.87 118.29,-32.38 987.82,251.25 879.75,440.38 -173.96,304.48 -1451.1,729.15 -1966.99,683.26z"/>
  <path class="fil5" d="M2169.52 5269c0,0 -24.36,-260.07 82.57,-565.54 44.85,-128.12 188.27,-334.08 254.98,-406.08 99.8,-107.67 585.93,-494.24 682.19,-378.35 87.14,104.83 -372.68,383.89 -372.68,383.89 0,0 439.08,-322.61 520.78,-177.05 81.7,145.56 -479.73,391.8 -479.73,391.8 0,0 458.55,-321.38 519.1,-157.94 45.72,123.51 -450.22,375.18 -450.22,375.18 0,0 396.07,-273.48 448.56,-148.49 58.03,138.12 -385.18,399.14 -385.18,399.14 51.05,33.23 147.5,269.55 27.29,452.82 -20.87,31.82 -847.65,-169.37 -847.65,-169.37l-0.01 -0.01z"/>
  <path class="fil6" d="M2657.57 4404.81c50.19,-39.76 100.75,-80.36 154.33,-115.53 53.56,-35.13 108.39,-68.48 165,-98.5 138.84,-73.62 237.27,-98.03 231.34,-95.85 -139.92,51.3 -333.63,174.2 -387.21,209.38 -53.44,35.09 -108.67,67.52 -162.2,102.58l-1.25 -2.08 -0.01 0z"/>
  <path class="fil6" d="M2781.03 4600.53c66.3,-47.97 130.37,-98.07 198.81,-143.15 68.11,-44.88 136.67,-81.46 207.69,-121.54 5.47,-3.06 5.33,0.89 -0.07,4.2 -69.34,42.87 -130.16,87.81 -199.01,131.52 -68.6,43.5 -139.43,84.66 -206.39,130.63l-1.03 -1.66z"/>
  <path class="fil6" d="M2856.78 4787.58c97.59,-78.53 211.98,-145.98 323.2,-202.64 5.54,-2.82 4.78,2.26 -0.7,5.47 -107.86,63.01 -195.35,118.71 -319.77,200.59l-2.73 -3.42z"/>
  <path class="fil6" d="M3299.29 4252.66c15.46,-17.99 30.98,-37.61 40.01,-59.76 8.89,-21.87 7.76,-42.09 1.52,-64.28l-2.09 0.74c11.12,22.09 -0.63,50.38 -12.66,69.57 -11.75,18.66 -26.07,35.98 -40.99,52.21 -15.45,16.83 -32.39,32.35 -50.03,46.85 -17.64,14.5 -34.71,29.35 -53.91,41.88l-0.12 0.07 -0.02 0.03 -0.05 0.04 -0.02 0.07 -0.24 1.09 0.02 0.04 1.34 0.63c31.06,-16.26 66.23,-23.92 101.12,-25.5 16.51,-0.74 34.19,-0.36 49.32,7.02 13.02,6.28 23.99,17.71 29.84,30.9 6.43,14.57 7.24,31.75 1.73,46.71 -5.32,14.57 -15.62,26.49 -25.71,38.03 -23.08,26.46 -47.63,51.71 -73.56,75.39 -14.36,13.08 -29.14,25.75 -44.27,37.88 -15.1,12.14 -31.4,23.08 -45.72,36.13l3.35 2.96c13.51,-4.06 111.76,-41.98 155.01,-27.62 24.31,8.04 39.51,25.65 41.45,50.69 1.94,25.23 -8.71,48.12 -21.87,68.97 -16.55,26.18 -61.14,76.91 -82.83,98.96l1.73 1.37c22.4,-22.15 70.66,-69.95 90.1,-94.86 16.12,-20.67 28.01,-46.21 26.7,-72.96 -1.23,-24.37 -13.93,-48.15 -36.12,-59.33 -22.62,-11.36 -49.75,-7.98 -73.66,-3.32 -17.4,3.39 -75.78,23.18 -87.39,28.54 11.19,-6.95 63.01,-46.25 77.79,-58.81 29.39,-25.01 57.19,-51.96 82.83,-80.82 22.62,-25.43 38.77,-56.27 25.54,-90.56 -12.41,-32.24 -43.78,-47.02 -76.73,-47.37 -26.1,-0.32 -51.18,4.97 -75.07,14 6.85,-4.27 13.59,-8.71 19.94,-13.69 19.65,-15.34 37.46,-32.98 53.72,-51.89z"/>
  <path class="fil6" d="M987.78 5488.11c46.9,-43.21 98.46,-81 151.26,-116.7 52.73,-35.87 107.75,-68.33 164.08,-98.24 56.55,-29.46 114.03,-57.37 173.54,-80.4 59.02,-24.1 119.67,-44.14 181.21,-60.43 -57.89,26.67 -116.2,51.29 -173.06,79.05 -57.06,27.24 -113.57,55.46 -169.32,85.13 -56.08,29.07 -110.83,60.57 -165.68,92.04 -54.65,31.89 -108.55,65.05 -162.03,99.55z"/>
  <path class="fil5" d="M1782.45 3996.82c117.4,2.39 265.64,-227.05 311.63,-381.71 3.11,-10.62 -26.11,-89.96 -64.34,-209.73 -22.9,-72.77 -46.7,-154.34 -63.04,-230.36 -3.28,-15.59 -451.76,218.3 -451.76,218.3 0,0 81.11,149.22 108.78,281.9 2.19,11.12 3.31,21.66 3.43,31.89l0.41 5.33c3.09,61.28 41.41,281.98 154.89,284.38z"/>
  <path class="fil6" d="M1677.04 3704.44c-17.74,4.27 -34.07,6.95 -49.44,7.94l-0.44 -5.33c-0.08,-10.19 -1.25,-20.74 -3.52,-31.89 -27.66,-132.54 -108.67,-281.8 -108.67,-281.8 0,0 364.01,-189.9 438.53,-216.14 4.16,90.98 3.32,460.54 -276.46,527.21l0 0.01z"/>
  <path class="fil5" d="M1795.27 2600.88c113.67,140.55 216.05,637.76 143.73,787.05 -104.81,216.47 -369.63,340.08 -577.05,192.72 -201.05,-142.77 -323.01,-793.15 -233.55,-938.42 131.76,-213.93 498.97,-248.92 666.86,-41.35l0.01 0z"/>
  <path class="fil6" d="M1532.43 3051.73l3.2 2.4c6,33.69 18.54,71.26 51.15,75.96l0.12 1.94c-38.03,2.61 -54.2,-47.45 -54.47,-80.3z"/>
  <path class="fil6" d="M1554.94 3010.46c52.96,-15.42 79.94,91.61 30.88,105.93 -48.27,14.07 -75.25,-92.99 -30.88,-105.93z"/>
  <path class="fil6" d="M1333.82 3096.99l-1.83 3.57c9.41,32.88 14.66,72.14 -12.56,90.7l0.75 1.8c35.28,-14.4 27.81,-66.43 13.64,-96.07z"/>
  <path class="fil6" d="M1295.47 3069.83c-54.35,9.38 -31.56,117.41 18.8,108.69 49.55,-8.57 26.76,-116.59 -18.8,-108.69z"/>
  <path class="fil6" d="M1583.8 2936.38c-15.31,2.46 -29.85,2.15 -45.23,2.99 -17.36,0.96 -31.11,3.5 -46.73,-5.75 -8.35,-4.94 -11.69,-18.87 -7.66,-27.44 9.46,-20.01 30.44,-26.46 51.3,-28.44 22.62,-2.18 40.62,1.94 59.53,14.5 18.3,12.21 8.98,40.92 -11.21,44.14z"/>
  <path class="fil6" d="M1240.48 3026.37c14.23,-6.14 26.32,-14.22 39.75,-21.77 15.19,-8.5 28.12,-13.72 36.31,-29.91 4.41,-8.68 -0.22,-22.23 -8.26,-27.27 -18.69,-11.82 -39.86,-6 -58.53,3.52 -20.26,10.31 -33.25,23.43 -42.43,44.21 -8.89,20.11 14.39,39.33 33.16,31.22z"/>
  <path class="fil6" d="M1628.53 3342.85c-6,9.77 -11.22,22.47 -23,26.52 -11.3,3.85 -26.13,2.09 -37.73,0.64l-1.02 2.05c11.81,10.54 31.93,13.97 46.63,7.37 14.35,-6.39 18.5,-21.24 18.69,-35.88l-3.57 -0.7z"/>
  <path class="fil6" d="M1568.64 3252.36c-11.3,33.48 -34.63,56.09 -62.69,69.25 -12.5,5.96 -26.25,9.91 -40.15,12.1l-7.97 1.06 -7.55 0.7c-4.01,0.43 -6.95,-2.26 -8.53,-5.75l-0.04 -0.24 -0.57 -3.46 -0.04 -0.25 -0.67 -2.93c-7.13,-25.36 -14.46,-64.8 -14.46,-64.8 -8.14,7.02 -50.31,40.43 -52.91,26.88 -21.26,-112.08 -44.89,-236.71 -42.35,-352.71 -0.11,-3.81 5.67,-4.37 6.25,-0.67 24.7,106.89 30.42,217.42 53.5,325.19 13.71,-9.59 35.77,-26.49 49.21,-29.6 3.87,0.15 12.76,76.49 16.88,87.6l0.52 1.16c44.28,-5.29 73.34,-26.42 107.72,-65.72l3.85 2.19z"/>
  <path class="fil6" d="M1480.78 3317.41c0,0 29.59,22.47 61.7,24.34 11.85,0.71 23.85,-1.13 34.98,-7.9 22.96,-13.76 16.94,-36.76 6.68,-54.96 -8.38,-14.96 -19.85,-26.6 -19.85,-26.6 0,0 -26.38,44.52 -83.52,65.12l0.01 0z"/>
  <path class="fil10" d="M1542.48 3341.75c11.85,0.71 23.85,-1.13 34.98,-7.9 22.96,-13.76 16.94,-36.76 6.68,-54.96 -25.85,10.51 -46.94,36.3 -41.67,62.86l0.01 0z"/>
  <path class="fil6" d="M1994.48 2961.14c-125.28,55.56 -247.84,-73.41 -262.43,-207.61 0,0 -325.32,169.09 -441.03,-99.34 0,0 -24.03,143.4 -177.59,203.59l-1.56 114.97c-38.72,2.57 -112.13,-83.54 -54.65,-192.76 0,0 -43.6,-138.89 27.48,-257.49 71.08,-118.57 190.8,-100.9 190.8,-100.9 0,0 55.92,-95.92 187.68,-125.41 131.74,-29.46 225.14,66.57 225.14,66.57 0,0 181.01,-28.93 253.38,80.89 72.38,109.78 39.41,212.94 39.41,212.94 0,0 59.59,31.85 75.17,142.27 10.04,71.02 -24.21,145.59 -61.8,162.28z"/>
  <path class="fil6" d="M1289.75 2627.09c5.85,23.22 13.09,46.01 23.5,67.28 9.33,21.73 21.83,41.8 35.88,60.32 28.8,36.48 69.29,62.87 114.78,69.82 45.45,10.3 92.35,-2.47 137.44,-14.01 21.89,-8.67 44.6,-15.87 66.15,-25.85 21.43,-10.31 42.66,-21.14 64.55,-31.12 -19.9,13.23 -40.49,25.61 -60.87,38.52 -21.07,11.57 -43.68,20.36 -65.61,30.7 -45.78,14.49 -94.81,27.94 -144.6,18.34 -49.17,-8.82 -94.08,-38.24 -122.17,-78.67 -27.96,-40.46 -44.16,-87.66 -49.05,-135.33z"/>
  <path class="fil6" d="M1688.32 2362.76c43.07,-15.17 89.46,-21.63 135.86,-18.28 46.25,3.11 93.24,20.57 127.69,54.26 16.5,17.46 29.55,37.29 39.45,58.42 10.6,20.85 17.68,43.71 20.59,66.96 6.27,46.46 -4.3,95.07 -30.8,132.47 20.26,-40.71 26.39,-87.28 18,-130.46 -8.45,-42.65 -28.94,-84.98 -59.16,-115.53 -15.09,-15.49 -33.46,-27.52 -53.38,-36.45 -20.27,-8.18 -41.67,-13.97 -63.76,-16.82 -44.14,-5.86 -89.83,-3.04 -134.49,5.43z"/>
  <path class="fil6" d="M1275.5 2421.6c-36.87,0.25 -73.4,5.47 -107.44,16.94 -33.94,11.57 -65.2,30.16 -88.68,56.33 -23.55,26.11 -38.31,59.31 -46.43,94.3 -7.74,35.09 -9.6,71.9 -6.75,108.69 -9.78,-35.77 -11.38,-73.8 -5.96,-111.12 5.44,-37.36 20.92,-74.05 46.62,-103.12 26.08,-28.5 60.84,-48.3 97.49,-57.4 36.56,-9.45 74.69,-11.32 111.15,-4.62z"/>
  <path class="fil6" d="M1171 2849.45c33.02,-27.62 62.2,-58 83.45,-93.34 11.15,-17.4 18.78,-36.55 24.89,-56.2 6.65,-19.83 7.77,-40.75 9.92,-62.34 4.82,20.92 7.07,43.36 2.7,65.16 -3.46,21.87 -11.47,43.18 -23.11,62.05 -11.7,18.84 -25.92,36.06 -42.68,50.2 -16.66,14.19 -34.9,26.57 -55.17,34.47z"/>
  <path class="fil11" d="M1218.37 3017.51c-44.97,9.53 -68.85,77.33 -53.21,151.13 15.64,73.84 64.96,126.12 109.92,116.6 44.97,-9.53 68.82,-77.3 53.17,-151.1 -15.64,-73.83 -64.92,-126.15 -109.88,-116.63zm61.1 288.47c-56.37,11.92 -116.95,-47.7 -135.03,-132.93 -18.05,-85.23 13.16,-164.32 69.55,-176.23 56.37,-11.96 116.94,47.69 134.99,132.92 18.05,85.23 -13.13,164.29 -69.51,176.24z"/>
  <path class="fil11" d="M1564.9 2944.11c-68.17,14.46 -110.9,86.26 -95.26,160.06 15.63,73.83 83.8,122.13 151.97,107.7 68.22,-14.46 110.93,-86.25 95.31,-160.06 -15.64,-73.83 -83.83,-122.16 -152.02,-107.7zm61.09 288.46c-79.58,16.86 -159.02,-38.77 -177.07,-124 -18.06,-85.24 32.02,-168.35 111.6,-185.18 79.61,-16.86 159.07,38.77 177.11,124 18.06,85.24 -32.01,168.31 -111.64,185.18z"/>
  <path class="fil11" d="M1452.87 3093.18c-83.13,-10.75 -112.76,21.95 -112.98,22.3l-16.25 -13.62c1.38,-1.73 36.09,-42.12 131.98,-29.67l-2.75 20.99z"/>
  <path class="fil11" d="M1724.36 3036.11l-8.13 -19.58c12.93,-5.3 220.36,-92.22 254.32,-101.39 35.69,-10.2 130,19.68 140.64,23.03l-6.37 20.22c-26.76,-8.5 -100.63,-28.79 -127.23,-23.18l-1.52 0.39c-26.12,7.05 -142.97,55.63 -251.71,100.51z"/>
  <path class="fil5" d="M1859.03 3015.37c0,0 48.08,-191.1 130.89,-179.56 82.82,11.57 86.75,260.56 17.76,321.13 -69.01,60.5 -126.3,-2.26 -126.3,-2.26l-22.35 -139.31z"/>
  <path class="fil6" d="M1989.28 2907.24l1.25 1.97c-47.69,44.27 -57.45,107.88 -57.61,170 8.82,-27.26 27.3,-47.37 62.84,-38.06l-0.38 3.56c-24.97,3.88 -40.1,14.22 -48.68,38.67 -6.05,17.28 -7.28,36.72 -9.46,54.85 -0.72,6.04 -10.83,6.81 -11.12,0.25l-0.05 -1.44c-28.8,-71.34 -11.21,-193.22 63.21,-229.8z"/>
  <path class="fil6" d="M1611.59 3795.42l1.66 -0.42c25.34,93.24 90.51,307.2 239.91,242.89 60.2,-25.9 104.32,-80.75 139.38,-131.76 35.99,-52.36 64.65,-108.8 88.18,-166.73 26.1,-64.31 52.6,-131.44 67.15,-198.65l4.63 1.24c-10.39,76.48 -27.79,136.03 -51.98,202.63 -23.26,64.14 -53.36,126.69 -93.95,183.34 -38.03,53.06 -85.85,109.08 -150.6,133.6 -61.6,23.32 -119.38,2.68 -156.13,-44.73 -48.28,-62.37 -75.43,-145.21 -88.25,-221.41z"/>
  <path class="fil5" d="M3097.92 1690.58c-40.15,-101.18 37.95,-161.4 37.95,-161.4 0,0 -131.87,-26.42 -155.25,-134.9 -12.02,-55.81 67.45,-124.78 67.45,-124.78 0,0 -104.7,-25.75 -119.49,-123.54 -11.77,-77.93 69.63,-135.36 69.63,-135.36 0,0 -88.38,-71.3 -74.69,-154.73 27.78,-169.19 688.31,-345.79 853.55,-132.19 77.01,99.56 -86.61,133.99 -86.61,133.99 0,0 246.8,6.74 285.65,140.58 38.87,133.91 -176.31,165.95 -176.31,165.95 0,0 239.08,8.6 265.22,151.55 27.2,148.84 -193.18,144.36 -193.18,144.36 0,0 172.72,59.3 167.43,173.56 -8.72,188.63 -364.57,49.29 -500.77,122.17l2.36 253.12c0,0 -398.49,-206.27 -442.93,-318.37l-0.01 -0.01z"/>
  <path class="fil6" d="M3009.77 999.66l-1.56 -3.17c203.52,-110.49 460.62,-170.33 690.99,-141.75 7.55,0.92 9.17,13.55 0.64,14.08 -243.52,15.69 -458.57,48.85 -690.07,130.84z"/>
  <path class="fil6" d="M3044.52 1269.01l-1.49 -4.59c210.31,-112.71 501.7,-172.19 763,-108.2 8.96,2.16 14.71,13.09 4.2,11.36 -177.12,-29.45 -557.67,26.53 -765.71,101.43z"/>
  <path class="fil6" d="M3889.31 1470.73c-253.01,-51.71 -498.08,-17.53 -745.04,53.42 -3.23,0.91 -4.18,-3.71 -1.69,-5.19 111.59,-67.28 273.62,-96.27 401.51,-108.27 122.48,-11.46 235.09,2.58 347.16,51.26 4.34,1.87 3.5,9.91 -1.94,8.78z"/>
  <path class="fil6" d="M10324.95 13004.59c0,328.86 -246.3,594.92 -550.09,594.92l-5430.26 0c-304.48,0 -550.79,-266.07 -550.79,-594.92l0 -11635.38c0,-669.99 246.3,-702.67 550.79,-702.67l1087.92 0c63.18,0 114.87,71.79 114.87,160.83l0 38.42c0,208.63 114.19,209.34 254.21,209.34l2515.5 0c141.5,0 254.96,-0.71 254.96,-209.34l0 -38.42c0,-89.04 50.97,-160.83 115.21,-160.83l1087.57 0c303.78,0 550.09,89.04 550.09,702.67l0 11635.38 0.02 0zm-230.5 -12734.44l-6070.13 0c-338.95,0 -613.97,279.68 -613.97,625.44l0 12495.33c0,345 275.02,625.46 613.97,625.46l6070.13 0c338.92,0 614.68,-280.46 614.68,-625.46l0 -12495.33c0,-345.76 -275.76,-625.44 -614.68,-625.44z"/>
  <path class="fil3" d="M10325.3 1379.43l0 11635.38c0,328.87 -246.33,594.92 -550.08,594.92l-5430.27 0c-304.48,0 -550.79,-266.06 -550.79,-594.92l0 -11635.38c0,-669.99 246.3,-702.67 550.79,-702.67l1087.92 0c63.19,0 114.9,71.79 114.9,160.87l0 38.38c0,208.63 114.16,209.34 254.22,209.34l2515.5 0c141.47,0 254.88,-0.71 254.88,-209.34l0 -38.38c0,-89.08 51.02,-160.87 115.29,-160.87l1087.54 0c303.74,0 550.08,89.04 550.08,702.67l0.02 0z"/>
  <path class="fil2" d="M10325.3 1359.57l0 1055.61 -6531.14 0 0 -1055.61c0,-669.99 246.3,-702.67 550.79,-702.67l1087.92 0c63.19,0 114.9,71.79 114.9,160.84l0 38.41c0,208.64 114.16,209.34 254.22,209.34l2515.5 0c141.47,0 254.88,-0.7 254.88,-209.34l0 -38.41c0,-89.05 51.02,-160.84 115.29,-160.84l1087.54 0c303.74,0 550.08,89.05 550.08,702.67l0.02 0z"/>
  <path class="fil3" d="M7402.65 814.56l-686.11 0c-23.46,0 -42.41,-18.95 -42.41,-42.41 0,-23.39 18.95,-42.36 42.41,-42.36l686.11 0c23.43,0 42.41,18.97 42.41,42.36 0,23.46 -18.98,42.41 -42.41,42.41z"/>
  <path class="fil3" d="M5244.69 927.83c-3.53,3.5 -7.02,6.99 -10.52,10.45l-5.96 5.99c-28.26,-27.41 -61.84,-42.01 -101.21,-42.01 -39.37,0 -72.95,14.53 -101.42,42.12l-5.68 -5.93c-3.43,-3.49 -6.92,-6.95 -10.37,-10.44l-0.29 -0.18 0 -0.24 0.74 -0.6c4.45,-3.95 8.75,-8.05 13.3,-11.78 9.46,-7.8 19.79,-14.22 30.73,-19.58 12.98,-6.39 26.53,-11.08 40.75,-13.69 6.73,-1.24 13.58,-1.87 20.35,-2.72l17.82 -0.32c4.62,0.36 9.27,0.57 13.86,1.06 12.84,1.38 25.29,4.52 37.4,8.93 8.74,3.21 17.18,7.19 25.25,11.82 8.54,4.94 16.62,10.51 24.13,16.89 3.78,3.25 7.41,6.67 11.12,9.99l0 0.24z"/>
  <path class="fil3" d="M5058.91 977.3c-5.53,-5.5 -10.97,-10.9 -16.58,-16.47 18.91,-18.56 41.28,-30.37 67.56,-33.9 39.3,-5.33 73.03,6.59 101.64,33.69 -5.65,5.61 -11.15,11.08 -16.69,16.58 -18.77,-18.24 -41.42,-28.08 -67.95,-28.08 -26.45,0 -49.03,9.84 -67.98,28.18z"/>
  <path class="fil3" d="M5178.26 993.87c-5.47,5.47 -10.97,10.98 -16.51,16.51 -9.6,-9.27 -21.2,-14.42 -34.86,-14.42 -13.58,0.03 -25.15,5.11 -34.78,14.5 -5.54,-5.54 -11.01,-11.01 -16.51,-16.48 26.28,-27.52 73.55,-29.74 102.66,-0.11z"/>
  <path class="fil3" d="M5141.85 1025.41c0,8.22 -6.7,14.93 -14.92,14.93 -8.26,0 -14.92,-6.71 -14.92,-14.93 0,-8.25 6.66,-14.95 14.92,-14.95 8.22,0 14.92,6.7 14.92,14.95z"/>
  <path class="fil3" d="M4219.83 959.63c0,-23.92 19.37,-43.29 43.29,-43.29 23.88,0 43.28,19.37 43.28,43.29 0,23.88 -19.4,43.29 -43.28,43.29 -23.92,0 -43.29,-19.41 -43.29,-43.29z"/>
  <path class="fil3" d="M4356.15 959.63c0,-23.92 19.4,-43.29 43.28,-43.29 23.92,0 43.29,19.37 43.29,43.29 0,23.88 -19.37,43.29 -43.29,43.29 -23.88,0 -43.28,-19.41 -43.28,-43.29z"/>
  <path class="fil3" d="M4492.49 959.63c0,-23.92 19.37,-43.29 43.29,-43.29 23.88,0 43.29,19.37 43.29,43.29 0,23.88 -19.41,43.29 -43.29,43.29 -23.92,0 -43.29,-19.41 -43.29,-43.29z"/>
  <path class="fil3" d="M4628.81 959.63c0,-23.92 19.4,-43.29 43.28,-43.29 23.92,0 43.29,19.37 43.29,43.29 0,23.88 -19.37,43.29 -43.29,43.29 -23.88,0 -43.28,-19.41 -43.28,-43.29z"/>
  <path class="fil3" d="M4765.16 959.63c0,-23.92 19.36,-43.29 43.28,-43.29 23.88,0 43.29,19.37 43.29,43.29 0,23.88 -19.41,43.29 -43.29,43.29 -23.92,0 -43.28,-19.41 -43.28,-43.29z"/>
  <path class="fil3" d="M9500.73 1036.15l316.47 0 0 -127.32 -316.47 0 0 127.32zm334.4 17.95l-352.36 0 0 -163.23 352.36 0 0 163.23z"/>
  <polygon class="fil3" points="9739.14,918.6 9511.98,918.6 9511.98,1026.37 9739.14,1026.37 "/>
  <polygon class="fil3" points="9866.7,1016.14 9835.34,1016.14 9835.34,928.82 9866.7,928.82 "/>
  <polygon class="fil3" points="4412.77,2031.3 4219.83,1850.49 4412.77,1669.74 4442.72,1701.62 4283.83,1850.49 4442.72,1999.4 "/>
  <path class="fil3" d="M9667.77 1766.78l0 13.22c38.88,0.08 70.41,31.61 70.48,70.53 -0.07,38.87 -31.57,70.3 -70.48,70.37 -38.88,-0.07 -70.34,-31.5 -70.42,-70.37 0.08,-38.92 31.54,-70.45 70.42,-70.53l0 -13.22 0 -13.23c-53.52,0.03 -96.87,43.46 -96.87,96.98 0,53.51 43.39,96.83 96.87,96.83 53.52,0 96.94,-43.32 96.94,-96.83 0,-53.56 -43.42,-96.95 -96.94,-96.98l0 13.23zm-154.16 53.66l-6.64 11.47c3.25,1.87 5.29,5.4 5.33,9.81l-0.04 0.67 0 0.1 -0.21 7.66 0 0.35 0.21 7.94 0 0.07 0 0.21 0.04 0.63c-0.04,4.38 -2.08,7.94 -5.29,9.78l0.03 0 -27.2 15.66 -11.46 6.6 64.28 111.4 38.62 -22.29 -0.03 0.03 5.33 -1.41 6.35 1.91 0 0c4.62,3 9.42,5.82 14.39,8.36l0 -0.04c3.88,2.05 6.17,5.75 6.17,9.81l0 31.29 0 13.2 128.63 0 0 -44.49c0,-3.99 2.29,-7.76 6.24,-9.81 4.9,-2.5 9.74,-5.29 14.39,-8.32l6.32 -1.91 5.25 1.38 27.17 15.7 11.46 6.59 64.28 -111.37 -38.7 -22.4c-3.21,-1.83 -5.26,-5.36 -5.26,-9.7l0 -0.6 0 -0.14 0.22 -7.69 0 -0.35 -0.22 -7.91 0 -0.1 0 -0.18 -0.03 -0.63c0.07,-4.41 2.08,-7.91 5.33,-9.78l0.03 0 27.16 -15.69 11.47 -6.6 -64.28 -111.41 -38.55 22.26 -5.3 1.45 -6.31 -1.94 0.03 0.03c-4.65,-3.07 -9.49,-5.85 -14.5,-8.39 -3.88,-2.01 -6.2,-5.75 -6.2,-9.78l0 -31.25 0 -13.23 -128.63 0 0 44.48c0,4.1 -2.25,7.77 -6.17,9.78l-0.07 0.03c-4.94,2.54 -9.74,5.29 -14.39,8.33l-0.04 0.03 -6.28 1.91 -5.33 -1.45 -27.09 -15.63 -11.43 -6.63 -64.31 111.41 38.63 22.26 6.6 -11.47 6.59 -11.46 -15.66 -9.03 37.82 -65.55 15.62 9.03c5.76,3.32 12.21,4.98 18.56,4.98 7.27,0 14.5,-2.16 20.78,-6.25l-0.07 0.04c3.91,-2.54 7.9,-4.84 12.06,-6.95l-0.03 0c12.45,-6.28 20.67,-19.09 20.67,-33.38l0 -18.02 75.71 0 0 18.02c0,14.33 8.25,27.1 20.67,33.38 4.16,2.11 8.15,4.41 11.99,6.95l0.04 0c6.24,4.05 13.44,6.21 20.74,6.21 6.35,0 12.77,-1.66 18.56,-4.98l15.59 -9.03 37.86 65.55 -15.74 9.06 0.04 -0.03c-12.03,6.91 -18.67,19.68 -18.59,32.74l0.03 1.94 13.19 -0.67 -13.19 0.38 0.18 7.13 -0.18 7.16 13.19 0.39 -13.19 -0.71 -0.03 1.98c-0.04,13.02 6.56,25.75 18.48,32.6l15.81 9.17 -37.86 65.54 -15.7 -9.03c-5.75,-3.31 -12.17,-4.97 -18.48,-4.94 -7.3,0 -14.57,2.12 -20.82,6.25 -3.81,2.47 -7.83,4.8 -11.92,6.91 -12.42,6.28 -20.64,19.02 -20.67,33.34l0 18.06 -75.71 0 0 -18.06c0,-14.25 -8.18,-27.02 -20.6,-33.37l-0.04 0c-4.09,-2.08 -8.04,-4.38 -11.92,-6.92l0 0c-6.28,-4.09 -13.51,-6.21 -20.81,-6.21 -6.35,-0.03 -12.77,1.63 -18.52,4.94l0 0 -15.7 9.03 -37.82 -65.54 15.7 -9.07 0.03 0c11.89,-6.91 18.52,-19.61 18.49,-32.67l-0.04 -1.9 -13.23 0.63 13.23 -0.35 -0.21 -7.19 0.21 -7.17 -13.23 -0.38 13.23 0.63 0.04 -1.9c0.03,-13.06 -6.6,-25.83 -18.52,-32.71l-6.63 11.43z"/>
  <polygon class="fil3" points="8440.95,3317.27 4437.64,3317.27 4437.64,3066.34 8440.95,3066.34 "/>
  <polygon class="fil0" points="8443.49,3319.81 4435.06,3319.81 4435.06,3063.8 8443.49,3063.8 "/>
  <polygon class="fil2" points="8443.56,3319.88 8187.41,3319.88 8187.41,3063.73 8443.56,3063.73 "/>
  <path class="fil3" d="M8395.02 3262.13l-23.14 17.57 -42.97 -56.69 -15.7 -20.75 9.03 -5.08c5.43,-4.16 9.38,-9.52 11.89,-15.41l16.68 21.98 44.21 58.38z"/>
  <path class="fil3" d="M8322.24 3197.18l-9.03 5.08c-15.35,6.14 -33.44,1.7 -43.99,-12.06 -12.74,-16.58 -9.63,-40.36 6.98,-53.06 16.58,-12.7 40.32,-9.56 53.02,7.02 8.54,11.15 9.92,25.51 4.91,37.61 -2.51,5.89 -6.46,11.25 -11.89,15.41zm27.16 -68.51c-21.23,-27.72 -60.96,-32.95 -88.68,-11.71 -27.73,21.27 -32.95,61 -11.72,88.69 19.09,24.94 53.1,31.68 79.91,17.36l8.78 -5.65c5.19,-3.98 9.56,-8.61 13.12,-13.61 15.63,-22.02 15.88,-52.5 -1.41,-75.08z"/>
  <polygon class="fil12" points="4503.57,3267.95 4490.1,3267.95 4490.1,3115.69 4503.57,3115.69 "/>
  <path class="fil2" d="M10027.5 2938.39c-14.82,9.2 -31.29,16.22 -49.15,20.56 -46.24,11.33 -92.6,2.65 -130.1,-20.63 -36.65,-22.65 -64.8,-59.27 -75.92,-104.43 -22.29,-91.47 33.66,-183.69 125.17,-205.98 91.4,-22.37 183.62,33.65 205.99,125.13 17.95,73.59 -14.89,147.63 -75.99,185.35z"/>
  <path class="fil3" d="M9989.71 2773.96c0,28.64 -23.21,51.85 -51.85,51.85 -28.61,0 -51.83,-23.21 -51.83,-51.85 0,-28.65 23.22,-51.86 51.83,-51.86 28.64,0 51.85,23.21 51.85,51.86z"/>
  <path class="fil3" d="M10027.5 2917.01l0 21.38c-14.82,9.2 -31.29,16.22 -49.15,20.56 -46.24,11.33 -92.6,2.65 -130.1,-20.63l0 -21.31c0,-49.39 40.11,-89.61 89.61,-89.61 49.53,0 89.64,40.22 89.64,89.61z"/>
  <polygon class="fil0" points="10325.3,4239.32 3794.17,4239.32 3794.17,3721.47 10325.3,3721.47 "/>
  <polygon class="fil3" points="4355.09,4058.17 4199.51,4058.17 4199.51,3902.63 4355.09,3902.63 "/>
  <polygon class="fil3" points="5015.77,4058.17 4860.23,4058.17 4923.66,3980.42 4860.23,3902.63 5015.77,3902.63 5079.19,3980.42 "/>
  <polygon class="fil13" points="4616.07,3902.63 4641.37,3953.82 4697.88,3962.04 4656.99,4001.9 4666.63,4058.17 4616.07,4031.61 4565.55,4058.17 4575.22,4001.9 4534.33,3962.04 4590.81,3953.82 "/>
  <polygon class="fil6" points="6429.88,4012.03 5190.78,4012.03 5190.78,3948.78 6429.88,3948.78 "/>
  <polygon class="fil6" points="9658.63,4012.03 8533.8,4012.03 8533.8,3948.78 9658.63,3948.78 "/>
  <polygon class="fil11" points="8061.19,4012.03 6808.13,4012.03 6808.13,3948.78 8061.19,3948.78 "/>
  <polygon class="fil3" points="4355.09,4575.98 4199.51,4575.98 4199.51,4420.43 4355.09,4420.43 "/>
  <polygon class="fil0" points="4355.09,4575.98 4355.09,4567.15 4208.33,4567.15 4208.33,4429.25 4346.27,4429.25 4346.27,4575.98 4355.09,4575.98 4355.09,4567.15 4355.09,4575.98 4363.91,4575.98 4363.91,4411.62 4190.69,4411.62 4190.69,4584.8 4363.91,4584.8 4363.91,4575.98 "/>
  <polygon class="fil3" points="5015.77,4575.98 4860.23,4575.98 4923.66,4498.22 4860.23,4420.43 5015.77,4420.43 5079.19,4498.22 "/>
  <polygon class="fil0" points="5015.77,4575.98 5015.77,4567.15 4878.79,4567.15 4935.01,4498.22 4878.79,4429.25 5011.57,4429.25 5067.8,4498.22 5008.92,4570.4 5015.77,4575.98 5015.77,4567.15 5015.77,4575.98 5022.61,4581.55 5090.59,4498.22 5019.97,4411.62 4841.64,4411.62 4912.26,4498.22 4841.64,4584.8 5019.97,4584.8 5022.61,4581.55 "/>
  <polygon class="fil13" points="4616.07,4420.43 4641.37,4471.66 4697.88,4479.85 4656.99,4519.71 4666.63,4575.98 4616.07,4549.42 4565.55,4575.98 4575.22,4519.71 4534.33,4479.85 4590.81,4471.66 "/>
  <polygon class="fil6" points="6429.88,4529.87 5190.78,4529.87 5190.78,4466.58 6429.88,4466.58 "/>
  <polygon class="fil6" points="9658.63,4529.87 8533.8,4529.87 8533.8,4466.58 9658.63,4466.58 "/>
  <polygon class="fil11" points="8061.19,4529.87 6808.13,4529.87 6808.13,4466.58 8061.19,4466.58 "/>
  <polygon class="fil0" points="3794.17,5274.93 10325.3,5274.93 10325.3,4757.13 3794.17,4757.13 "/>
  <polygon class="fil3" points="4355.09,5093.79 4199.51,5093.79 4199.51,4938.25 4355.09,4938.25 "/>
  <polygon class="fil3" points="5015.77,5093.79 4860.23,5093.79 4923.66,5016.04 4860.23,4938.25 5015.77,4938.25 5079.19,5016.04 "/>
  <polygon class="fil3" points="4616.07,4938.25 4641.37,4989.43 4697.88,4997.65 4656.99,5037.52 4666.63,5093.79 4616.07,5067.21 4565.55,5093.79 4575.22,5037.52 4534.33,4997.65 4590.81,4989.43 "/>
  <polygon class="fil14" points="6429.88,5047.63 5190.78,5047.63 5190.78,4984.38 6429.88,4984.38 "/>
  <polygon class="fil14" points="9658.63,5047.63 8533.8,5047.63 8533.8,4984.38 9658.63,4984.38 "/>
  <polygon class="fil12" points="6808.13,5047.63 8061.19,5047.63 8061.19,4984.38 6808.13,4984.38 "/>
  <polygon class="fil3" points="4355.09,5611.58 4199.51,5611.58 4199.51,5456.06 4355.09,5456.06 "/>
  <polygon class="fil0" points="4355.09,5611.58 4355.09,5602.77 4208.33,5602.77 4208.33,5464.86 4346.27,5464.86 4346.27,5611.58 4355.09,5611.58 4355.09,5602.77 4355.09,5611.58 4363.91,5611.58 4363.91,5447.24 4190.69,5447.24 4190.69,5620.4 4363.91,5620.4 4363.91,5611.58 "/>
  <polygon class="fil3" points="5015.77,5611.58 4860.23,5611.58 4923.66,5533.83 4860.23,5456.06 5015.77,5456.06 5079.19,5533.83 "/>
  <polygon class="fil0" points="5015.77,5611.58 5015.77,5602.77 4878.79,5602.77 4935.01,5533.83 4878.79,5464.86 5011.57,5464.86 5067.8,5533.83 5008.92,5606.01 5015.77,5611.58 5015.77,5602.77 5015.77,5611.58 5022.61,5617.16 5090.59,5533.83 5019.97,5447.24 4841.64,5447.24 4912.26,5533.83 4841.64,5620.4 5019.97,5620.4 5022.61,5617.16 "/>
  <polygon class="fil13" points="4616.07,5456.06 4641.37,5507.28 4697.88,5515.46 4656.99,5555.32 4666.63,5611.58 4616.07,5585.03 4565.55,5611.58 4575.22,5555.32 4534.33,5515.46 4590.81,5507.28 "/>
  <polygon class="fil14" points="5190.78,5565.45 6429.87,5565.45 6429.87,5502.2 5190.78,5502.2 "/>
  <polygon class="fil14" points="9658.63,5565.49 8533.8,5565.49 8533.8,5502.2 9658.63,5502.2 "/>
  <polygon class="fil12" points="6808.13,5565.45 8061.19,5565.45 8061.19,5502.2 6808.13,5502.2 "/>
  <polygon class="fil0" points="3794.17,6310.54 10325.3,6310.54 10325.3,5792.76 3794.17,5792.76 "/>
  <polygon class="fil3" points="4355.09,6129.39 4199.51,6129.39 4199.51,5973.85 4355.09,5973.85 "/>
  <polygon class="fil3" points="5015.77,6129.39 4860.23,6129.39 4923.66,6051.64 4860.23,5973.85 5015.77,5973.85 5079.19,6051.64 "/>
  <polygon class="fil13" points="4616.07,5973.85 4641.37,6025.04 4697.88,6033.26 4656.99,6073.13 4666.63,6129.39 4616.07,6102.83 4565.55,6129.39 4575.22,6073.13 4534.33,6033.26 4590.81,6025.04 "/>
  <polygon class="fil14" points="5190.78,6083.26 6429.87,6083.26 6429.87,6020.01 5190.78,6020.01 "/>
  <polygon class="fil14" points="9658.63,6083.26 8533.8,6083.26 8533.8,6020.01 9658.63,6020.01 "/>
  <polygon class="fil12" points="6808.13,6083.26 8061.19,6083.26 8061.19,6020.01 6808.13,6020.01 "/>
  <polygon class="fil3" points="4355.09,6647.21 4199.51,6647.21 4199.51,6491.67 4355.09,6491.67 "/>
  <polygon class="fil0" points="4355.09,6647.21 4355.09,6638.39 4208.33,6638.39 4208.33,6500.49 4346.27,6500.49 4346.27,6647.21 4355.09,6647.21 4355.09,6638.39 4355.09,6647.21 4363.91,6647.21 4363.91,6482.84 4190.69,6482.84 4190.69,6656.02 4363.91,6656.02 4363.91,6647.21 "/>
  <polygon class="fil3" points="5015.77,6647.21 4860.23,6647.21 4923.66,6569.42 4860.23,6491.67 5015.77,6491.67 5079.19,6569.42 "/>
  <polygon class="fil0" points="5015.77,6647.21 5015.77,6638.39 4878.79,6638.39 4935.01,6569.42 4878.79,6500.49 5011.57,6500.49 5067.8,6569.42 5008.92,6641.64 5015.77,6647.21 5015.77,6638.39 5015.77,6647.21 5022.61,6652.77 5090.59,6569.42 5019.97,6482.84 4841.64,6482.84 4912.26,6569.42 4841.64,6656.02 5019.97,6656.02 5022.61,6652.77 "/>
  <polygon class="fil3" points="4616.07,6491.67 4641.37,6542.88 4697.88,6551.07 4656.99,6590.93 4666.63,6647.21 4616.07,6620.64 4565.55,6647.21 4575.22,6590.93 4534.33,6551.07 4590.81,6542.88 "/>
  <polygon class="fil0" points="4616.07,6491.67 4608.17,6495.59 4635.51,6550.93 4678.9,6557.24 4647.5,6587.86 4654.91,6631.09 4616.07,6610.69 4577.27,6631.09 4583.9,6592.41 4584.67,6587.86 4553.28,6557.24 4592.08,6551.6 4596.67,6550.93 4624.01,6495.59 4616.07,6491.67 4608.17,6495.59 4616.07,6491.67 4608.17,6487.75 4584.97,6534.8 4515.36,6544.93 4565.73,6594 4553.84,6663.32 4616.07,6630.63 4678.34,6663.32 4666.45,6594 4716.83,6544.93 4647.22,6534.8 4616.07,6471.73 4608.17,6487.75 "/>
  <polygon class="fil14" points="5190.78,6601.06 6429.87,6601.06 6429.87,6537.8 5190.78,6537.8 "/>
  <polygon class="fil14" points="9658.63,6601.06 8533.8,6601.06 8533.8,6537.8 9658.63,6537.8 "/>
  <polygon class="fil12" points="6808.13,6601.06 8061.19,6601.06 8061.19,6537.8 6808.13,6537.8 "/>
  <polygon class="fil0" points="3794.17,7346.17 10325.3,7346.17 10325.3,6828.35 3794.17,6828.35 "/>
  <polygon class="fil3" points="4355.09,7165.01 4199.51,7165.01 4199.51,7009.47 4355.09,7009.47 "/>
  <polygon class="fil3" points="5015.77,7165.01 4860.23,7165.01 4923.66,7087.25 4860.23,7009.47 5015.77,7009.47 5079.19,7087.25 "/>
  <polygon class="fil13" points="4616.07,7009.47 4641.37,7060.66 4697.88,7068.87 4656.99,7108.74 4666.63,7165.01 4616.07,7138.44 4565.55,7165.01 4575.22,7108.74 4534.33,7068.87 4590.81,7060.66 "/>
  <polygon class="fil14" points="5190.78,7118.9 6429.87,7118.9 6429.87,7055.63 5190.78,7055.63 "/>
  <polygon class="fil14" points="9658.63,7118.9 8533.8,7118.9 8533.8,7055.62 9658.63,7055.62 "/>
  <polygon class="fil12" points="6808.13,7118.9 8061.19,7118.9 8061.19,7055.63 6808.13,7055.63 "/>
  <polygon class="fil3" points="4355.09,7682.85 4199.51,7682.85 4199.51,7527.27 4355.09,7527.27 "/>
  <polygon class="fil0" points="4355.09,7682.85 4355.09,7674.03 4208.33,7674.03 4208.33,7536.09 4346.27,7536.09 4346.27,7682.85 4355.09,7682.85 4355.09,7674.03 4355.09,7682.85 4363.91,7682.85 4363.91,7518.45 4190.69,7518.45 4190.69,7691.67 4363.91,7691.67 4363.91,7682.85 "/>
  <polygon class="fil3" points="5015.77,7682.85 4860.23,7682.85 4923.66,7605.03 4860.23,7527.27 5015.77,7527.27 5079.19,7605.03 "/>
  <polygon class="fil0" points="5015.77,7682.85 5015.77,7674.03 4878.79,7674.03 4935.01,7605.03 4878.79,7536.09 5011.57,7536.09 5067.8,7605.03 5008.92,7677.28 5015.77,7682.85 5015.77,7674.03 5015.77,7682.85 5022.61,7688.39 5090.56,7605.03 5019.97,7518.45 4841.64,7518.45 4912.26,7605.03 4841.64,7691.67 5019.97,7691.67 5022.61,7688.39 "/>
  <polygon class="fil3" points="4616.07,7527.27 4641.37,7578.5 4697.88,7586.68 4656.99,7626.56 4666.63,7682.85 4616.07,7656.25 4565.55,7682.85 4575.22,7626.56 4534.33,7586.68 4590.81,7578.5 "/>
  <polygon class="fil0" points="4616.07,7527.27 4608.17,7531.19 4635.51,7586.54 4678.9,7592.86 4647.5,7623.45 4654.91,7666.69 4616.07,7646.27 4577.27,7666.69 4583.9,7628.03 4584.67,7623.49 4553.28,7592.86 4592.08,7587.21 4596.67,7586.54 4624.01,7531.19 4616.07,7527.27 4608.17,7531.19 4616.07,7527.27 4608.17,7523.39 4584.97,7570.42 4515.36,7580.51 4565.73,7629.61 4553.84,7698.97 4616.07,7666.2 4678.34,7698.97 4666.45,7629.61 4716.83,7580.51 4647.22,7570.42 4616.07,7507.38 4608.17,7523.39 "/>
  <polygon class="fil14" points="5190.78,7636.67 6429.87,7636.67 6429.87,7573.42 5190.78,7573.42 "/>
  <polygon class="fil14" points="9658.63,7636.67 8533.8,7636.67 8533.8,7573.42 9658.63,7573.42 "/>
  <polygon class="fil12" points="6808.13,7636.67 8061.19,7636.67 8061.19,7573.42 6808.13,7573.42 "/>
  <polygon class="fil0" points="3794.17,8381.77 10325.3,8381.77 10325.3,7863.93 3794.17,7863.93 "/>
  <polygon class="fil3" points="4355.09,8200.62 4199.51,8200.62 4199.51,8045.08 4355.09,8045.08 "/>
  <polygon class="fil3" points="5015.77,8200.62 4860.23,8200.62 4923.66,8122.83 4860.23,8045.08 5015.77,8045.08 5079.19,8122.83 "/>
  <polygon class="fil3" points="4616.07,8045.08 4641.37,8096.27 4697.88,8104.52 4656.99,8144.35 4666.63,8200.62 4616.07,8174.06 4565.55,8200.62 4575.22,8144.35 4534.33,8104.52 4590.81,8096.27 "/>
  <polygon class="fil14" points="5190.78,8154.51 6429.87,8154.51 6429.87,8091.22 5190.78,8091.22 "/>
  <polygon class="fil14" points="9658.63,8154.51 8533.8,8154.51 8533.8,8091.22 9658.63,8091.22 "/>
  <polygon class="fil12" points="6808.13,8154.51 8061.19,8154.51 8061.19,8091.22 6808.13,8091.22 "/>
  <polygon class="fil3" points="4355.09,8718.43 4199.51,8718.43 4199.51,8562.89 4355.09,8562.89 "/>
  <polygon class="fil0" points="4355.09,8718.43 4355.09,8709.61 4208.33,8709.61 4208.33,8571.71 4346.27,8571.71 4346.27,8718.43 4355.09,8718.43 4355.09,8709.61 4355.09,8718.43 4363.91,8718.43 4363.91,8554.07 4190.69,8554.07 4190.69,8727.25 4363.91,8727.25 4363.91,8718.43 "/>
  <polygon class="fil3" points="5015.77,8718.43 4860.23,8718.43 4923.66,8640.68 4860.23,8562.89 5015.77,8562.89 5079.19,8640.68 "/>
  <polygon class="fil0" points="5015.77,8718.43 5015.77,8709.61 4878.79,8709.61 4935.01,8640.68 4878.79,8571.71 5011.57,8571.71 5067.8,8640.68 5008.92,8712.85 5015.77,8718.43 5015.77,8709.61 5015.77,8718.43 5022.61,8724 5090.59,8640.68 5019.97,8554.07 4841.67,8554.07 4912.26,8640.68 4841.64,8727.25 5019.97,8727.25 5022.61,8724 "/>
  <polygon class="fil3" points="4616.07,8562.89 4641.37,8614.08 4697.88,8622.3 4656.99,8662.16 4666.63,8718.43 4616.07,8691.86 4565.55,8718.43 4575.22,8662.16 4534.33,8622.3 4590.81,8614.08 "/>
  <polygon class="fil0" points="4616.07,8562.89 4608.17,8566.77 4635.51,8622.12 4678.94,8628.47 4647.5,8659.09 4654.91,8702.31 4616.07,8681.91 4577.27,8702.31 4583.9,8663.68 4584.67,8659.09 4553.28,8628.47 4592.08,8622.79 4596.67,8622.12 4624.01,8566.77 4616.07,8562.89 4608.17,8566.77 4616.07,8562.89 4608.17,8558.97 4584.97,8606.02 4515.4,8616.16 4565.73,8665.26 4553.84,8734.55 4616.07,8701.81 4678.34,8734.55 4666.45,8665.26 4716.83,8616.16 4647.22,8606.02 4616.07,8542.96 4608.17,8558.97 "/>
  <polygon class="fil14" points="6429.88,8672.28 5190.78,8672.28 5190.78,8608.99 6429.88,8608.99 "/>
  <polygon class="fil14" points="9658.63,8672.28 8533.8,8672.28 8533.8,8608.99 9658.63,8608.99 "/>
  <polygon class="fil12" points="8061.19,8672.28 6808.13,8672.28 6808.13,8608.99 8061.19,8608.99 "/>
  <polygon class="fil0" points="10325.3,9417.35 3794.17,9417.35 3794.17,8899.58 10325.3,8899.58 "/>
  <polygon class="fil3" points="4355.09,9236.23 4199.51,9236.23 4199.51,9080.7 4355.09,9080.7 "/>
  <polygon class="fil3" points="5015.77,9236.23 4860.23,9236.23 4923.66,9158.48 4860.23,9080.7 5015.77,9080.7 5079.19,9158.48 "/>
  <polygon class="fil3" points="4616.07,9080.7 4641.37,9131.92 4697.88,9140.1 4656.99,9179.96 4666.63,9236.23 4616.07,9209.67 4565.55,9236.23 4575.22,9179.96 4534.33,9140.1 4590.81,9131.92 "/>
  <polygon class="fil0" points="4616.07,9080.7 4608.17,9084.58 4635.51,9139.96 4678.9,9146.28 4647.5,9176.89 4654.91,9220.11 4616.07,9199.69 4577.27,9220.11 4583.9,9181.45 4584.67,9176.89 4553.28,9146.28 4592.08,9140.63 4596.67,9139.96 4624.01,9084.58 4616.07,9080.7 4608.17,9084.58 4616.07,9080.7 4608.17,9076.78 4584.97,9123.84 4515.36,9133.93 4565.73,9183.04 4553.84,9252.36 4616.07,9219.62 4678.34,9252.36 4666.45,9183.04 4716.83,9133.93 4647.22,9123.84 4616.07,9060.73 4608.17,9076.78 "/>
  <polygon class="fil14" points="6429.88,9190.09 5190.78,9190.09 5190.78,9126.84 6429.88,9126.84 "/>
  <polygon class="fil14" points="9658.63,9190.09 8533.8,9190.09 8533.8,9126.84 9658.63,9126.84 "/>
  <polygon class="fil12" points="8061.19,9190.09 6808.13,9190.09 6808.13,9126.84 8061.19,9126.84 "/>
  <polygon class="fil3" points="4355.09,9754.04 4199.51,9754.04 4199.51,9598.49 4355.09,9598.49 "/>
  <polygon class="fil0" points="4355.09,9754.04 4355.09,9745.21 4208.33,9745.21 4208.33,9607.32 4346.27,9607.32 4346.27,9754.04 4355.09,9754.04 4355.09,9745.21 4355.09,9754.04 4363.91,9754.04 4363.91,9589.67 4190.69,9589.67 4190.69,9762.86 4363.91,9762.86 4363.91,9754.04 "/>
  <polygon class="fil3" points="5015.77,9754.04 4860.23,9754.04 4923.66,9676.25 4860.23,9598.49 5015.77,9598.49 5079.19,9676.25 "/>
  <polygon class="fil0" points="5159.4,8418.1 5159.4,8409.28 5022.42,8409.28 5078.64,8340.32 5022.42,8271.38 5155.2,8271.38 5211.43,8340.32 5152.56,8412.53 5159.4,8418.1 5159.4,8409.28 5159.4,8418.1 5166.24,8423.68 5234.19,8340.32 5163.6,8253.74 4985.27,8253.74 5055.89,8340.32 4985.27,8426.92 5163.6,8426.92 5166.24,8423.68 "/>
  <g id="_2069979767776">
   <polygon class="fil0" points="12890.69,9130.19 10638.72,9745.77 10248.31,8317.63 12500.28,7702.03 "/>
   <path class="fil3" d="M12500.28 7702.03c-67.21,111.85 -137.11,220.48 -205.33,331.13 -69.41,109.02 -139.2,218.08 -209.56,326.37 -73.42,113.05 -147.38,225.26 -221.53,337.05 -2.26,3.6 -4.24,7.07 -6.52,10.69 -65.73,98.57 -131.78,197.27 -197.86,295.97l-9.95 14.07 -15.42 -7.15c-107.09,-51.33 -213.84,-102.79 -320.7,-154.7 -3.66,-1.46 -7.46,-3.4 -11.27,-5.33 -121.01,-58.41 -241.8,-117.4 -362.66,-177.86 -115.15,-57.02 -230.74,-115.48 -345.96,-173.99 -115.03,-60.56 -230.47,-118.54 -345.21,-180.65 117.1,48.11 233.51,100.37 350.12,150.61 116.64,51.72 233.23,103.45 349.6,156.69 129.39,58.61 259.17,118.61 388.88,179.59l0.79 0.29c97.07,45.17 194.24,90.83 291.41,136.48 60.08,-88.62 120.37,-177.82 181.04,-265.63l0.46 -1.11c80.74,-118.05 161.62,-235.62 243.46,-352.48 73.18,-104.57 146.82,-208.78 221.04,-312.18 75.18,-102.66 148.82,-206.86 225.16,-307.86l0.01 0z"/>
   <path class="fil3" d="M11349.23 8836.14l-2.07 3.09c-9.09,13.4 -18.11,26.77 -27.28,39.82 -43.45,63.13 -88.77,124.59 -135.51,184.96 -56.75,74.39 -115.78,146.85 -175.29,219.14 -60.09,71.26 -120.62,142.35 -183.41,211.83 -62.76,69.51 -126.49,138.19 -194.04,203.49 51.93,-78.5 107.72,-153.73 164.52,-227.75 57.05,-74.5 116.13,-146.96 175.27,-219.08 60.33,-71.77 120.83,-142.85 183.64,-212.34 49.89,-55.41 101.02,-110.47 154.11,-163.51 12.24,-12.44 24.54,-24.53 37.19,-36.69l2.87 -2.96z"/>
   <path class="fil3" d="M12872.76 9085.85c-91.42,-21.89 -181.55,-48.5 -270.64,-76.48 -89.37,-27.92 -177.66,-58.3 -266.04,-89.01 -87.96,-31.93 -175.64,-64.31 -262.31,-99.48 -70.63,-28.3 -140.84,-57.8 -210.01,-90.15 -14.95,-6.82 -29.57,-13.75 -44.2,-20.63l-3.32 -1.63 3.84 0.76c17.18,4.39 33.94,8.55 50.8,13 72.7,18.65 144.35,40.14 215.87,62.36 89.38,27.93 177.64,58.35 265.79,89.48 87.96,31.92 175.67,64.26 262.34,99.46 86.91,34.77 173.18,71.13 257.88,112.32z"/>
  </g>
  <polygon class="fil3" points="4616.07,9598.49 4641.37,9649.69 4697.88,9657.9 4656.99,9697.77 4666.63,9754.04 4616.07,9727.47 4565.55,9754.04 4575.22,9697.77 4534.33,9657.9 4590.81,9649.69 "/>
  <polygon class="fil0" points="4616.07,9598.49 4608.17,9602.41 4635.51,9657.76 4678.9,9664.07 4647.5,9694.67 4654.91,9737.91 4616.07,9717.49 4577.27,9737.91 4583.9,9699.26 4584.67,9694.67 4553.28,9664.04 4592.08,9658.43 4596.67,9657.76 4624.01,9602.41 4616.07,9598.49 4608.17,9602.41 4616.07,9598.49 4608.17,9594.61 4584.97,9641.65 4515.36,9651.74 4565.73,9700.84 4553.84,9770.2 4616.07,9737.42 4678.34,9770.2 4666.45,9700.84 4716.83,9651.74 4647.22,9641.65 4616.07,9578.57 4608.17,9594.61 "/>
  <polygon class="fil14" points="6429.88,9707.9 5190.78,9707.9 5190.78,9644.65 6429.88,9644.65 "/>
  <polygon class="fil14" points="9658.63,9707.9 8533.8,9707.9 8533.8,9644.65 9658.63,9644.65 "/>
  <polygon class="fil12" points="8061.19,9707.9 6808.13,9707.9 6808.13,9644.65 8061.19,9644.65 "/>
  <polygon class="fil0" points="10325.3,10452.99 3794.17,10452.99 3794.17,9935.15 10325.3,9935.15 "/>
  <polygon class="fil3" points="4355.09,10271.85 4199.51,10271.85 4199.51,10116.31 4355.09,10116.31 "/>
  <polygon class="fil3" points="5015.77,10271.85 4860.23,10271.85 4923.66,10194.06 4860.23,10116.31 5015.77,10116.31 5079.19,10194.06 "/>
  <polygon class="fil3" points="4616.07,10116.31 4641.37,10167.49 4697.88,10175.75 4656.99,10215.54 4666.63,10271.85 4616.07,10245.29 4565.55,10271.85 4575.22,10215.54 4534.33,10175.75 4590.81,10167.49 "/>
  <polygon class="fil0" points="4616.07,10116.31 4608.17,10120.23 4635.51,10175.58 4678.94,10181.89 4647.5,10212.48 4654.91,10255.73 4616.07,10235.33 4577.27,10255.73 4583.9,10217.05 4584.67,10212.48 4553.28,10181.89 4592.08,10176.25 4596.67,10175.58 4624.01,10120.23 4616.07,10116.31 4608.17,10120.23 4616.07,10116.31 4608.17,10112.39 4584.97,10159.44 4515.36,10169.57 4565.73,10218.64 4553.84,10287.96 4616.07,10255.27 4678.34,10287.96 4666.45,10218.64 4716.83,10169.57 4647.22,10159.44 4616.07,10096.37 4608.17,10112.39 "/>
  <polygon class="fil14" points="6429.88,10225.73 5190.78,10225.73 5190.78,10162.44 6429.88,10162.44 "/>
  <polygon class="fil14" points="9658.63,10225.73 8533.8,10225.73 8533.8,10162.44 9658.63,10162.44 "/>
  <polygon class="fil12" points="8061.19,10225.73 6808.13,10225.73 6808.13,10162.44 8061.19,10162.44 "/>
  <polygon class="fil3" points="4355.09,10789.65 4199.51,10789.65 4199.51,10634.11 4355.09,10634.11 "/>
  <polygon class="fil0" points="4355.09,10789.65 4355.09,10780.83 4208.33,10780.83 4208.33,10642.93 4346.27,10642.93 4346.27,10789.65 4355.09,10789.65 4355.09,10780.83 4355.09,10789.65 4363.91,10789.65 4363.91,10625.3 4190.69,10625.3 4190.69,10798.47 4363.91,10798.47 4363.91,10789.65 "/>
  <polygon class="fil3" points="5015.77,10789.65 4860.23,10789.65 4923.66,10711.89 4860.23,10634.11 5015.77,10634.11 5079.19,10711.89 "/>
  <polygon class="fil0" points="5015.77,10789.65 5015.77,10780.83 4878.79,10780.83 4935.01,10711.89 4878.79,10642.93 5011.57,10642.93 5067.8,10711.89 5008.92,10784.07 5015.77,10789.65 5015.77,10780.83 5015.77,10789.65 5022.61,10795.22 5090.59,10711.89 5019.97,10625.3 4841.67,10625.3 4912.26,10711.89 4841.64,10798.47 5019.97,10798.47 5022.61,10795.22 "/>
  <polygon class="fil3" points="4616.07,10634.11 4641.37,10685.31 4697.88,10693.53 4656.99,10733.38 4666.63,10789.65 4616.07,10763.09 4565.55,10789.65 4575.22,10733.38 4534.33,10693.53 4590.81,10685.31 "/>
  <polygon class="fil0" points="4616.07,10634.11 4608.17,10637.99 4635.51,10693.35 4678.94,10699.7 4647.5,10730.31 4654.91,10773.53 4616.07,10753.14 4577.27,10773.53 4583.9,10734.86 4584.67,10730.31 4553.28,10699.7 4592.08,10694.02 4596.67,10693.35 4624.01,10637.99 4616.07,10634.11 4608.17,10637.99 4616.07,10634.11 4608.17,10630.2 4584.97,10677.23 4515.4,10687.39 4565.73,10736.45 4553.84,10805.77 4616.07,10773.03 4678.34,10805.77 4666.45,10736.45 4716.83,10687.39 4647.22,10677.23 4616.07,10614.19 4608.17,10630.2 "/>
  <polygon class="fil14" points="6429.88,10743.51 5190.78,10743.51 5190.78,10680.23 6429.88,10680.23 "/>
  <polygon class="fil14" points="9658.63,10743.51 8533.8,10743.51 8533.8,10680.23 9658.63,10680.23 "/>
  <polygon class="fil12" points="8061.19,10743.51 6808.13,10743.51 6808.13,10680.23 8061.19,10680.23 "/>
  <polygon class="fil0" points="10325.3,11488.57 3794.17,11488.57 3794.17,10970.81 10325.3,10970.81 "/>
  <polygon class="fil3" points="4355.09,11307.47 4199.51,11307.47 4199.51,11151.88 4355.09,11151.88 "/>
  <polygon class="fil3" points="5015.77,11307.47 4860.23,11307.47 4923.66,11229.7 4860.23,11151.88 5015.77,11151.88 5079.19,11229.7 "/>
  <polygon class="fil2" points="4616.07,11151.88 4641.37,11203.14 4697.88,11211.33 4656.99,11251.19 4666.63,11307.47 4616.07,11280.89 4565.55,11307.47 4575.22,11251.19 4534.33,11211.33 4590.81,11203.14 "/>
  <polygon class="fil14" points="6429.88,11261.31 5190.78,11261.31 5190.78,11198.06 6429.88,11198.06 "/>
  <polygon class="fil14" points="9658.63,11261.31 8533.8,11261.31 8533.8,11198.06 9658.63,11198.06 "/>
  <polygon class="fil12" points="8061.19,11261.31 6808.13,11261.31 6808.13,11198.06 8061.19,11198.06 "/>
  <polygon class="fil3" points="4355.09,11825.26 4199.51,11825.26 4199.51,11669.73 4355.09,11669.73 "/>
  <polygon class="fil0" points="4355.09,11825.26 4355.09,11816.45 4208.33,11816.45 4208.33,11678.55 4346.27,11678.55 4346.27,11825.26 4355.09,11825.26 4355.09,11816.45 4355.09,11825.26 4363.91,11825.26 4363.91,11660.9 4190.69,11660.9 4190.69,11834.08 4363.91,11834.08 4363.91,11825.26 "/>
  <polygon class="fil3" points="5015.77,11825.26 4860.23,11825.26 4923.66,11747.48 4860.23,11669.73 5015.77,11669.73 5079.19,11747.48 "/>
  <polygon class="fil0" points="5015.77,11825.26 5015.77,11816.45 4878.79,11816.45 4935.01,11747.48 4878.79,11678.55 5011.57,11678.55 5067.8,11747.48 5008.92,11819.7 5015.77,11825.26 5015.77,11816.45 5015.77,11825.26 5022.61,11830.84 5090.56,11747.48 5019.97,11660.9 4841.64,11660.9 4912.26,11747.48 4841.64,11834.08 5019.97,11834.08 5022.61,11830.84 "/>
  <polygon class="fil3" points="4616.07,11669.73 4641.37,11720.91 4697.88,11729.13 4656.99,11768.99 4666.63,11825.26 4616.07,11798.66 4565.55,11825.26 4575.22,11768.99 4534.33,11729.13 4590.81,11720.91 "/>
  <polygon class="fil0" points="4616.07,11669.73 4608.17,11673.64 4635.51,11728.99 4678.9,11735.28 4647.5,11765.89 4654.91,11809.14 4616.07,11788.71 4577.27,11809.14 4583.9,11770.48 4584.67,11765.89 4553.28,11735.28 4592.08,11729.66 4596.67,11728.99 4624.01,11673.64 4616.07,11669.73 4608.17,11673.64 4616.07,11669.73 4608.17,11665.85 4584.97,11712.86 4515.36,11722.95 4565.73,11772.06 4553.84,11841.42 4616.07,11808.66 4678.34,11841.42 4666.45,11772.06 4716.83,11722.95 4647.22,11712.86 4616.07,11649.79 4608.17,11665.85 "/>
  <polygon class="fil14" points="6429.88,11779.12 5190.78,11779.12 5190.78,11715.87 6429.88,11715.87 "/>
  <polygon class="fil14" points="9658.63,11779.12 8533.8,11779.12 8533.8,11715.87 9658.63,11715.87 "/>
  <polygon class="fil12" points="8061.19,11779.12 6808.13,11779.12 6808.13,11715.87 8061.19,11715.87 "/>
  <polygon class="fil0" points="10325.3,12524.22 3794.17,12524.22 3794.17,12006.37 10325.3,12006.37 "/>
  <polygon class="fil3" points="4355.09,12343.07 4199.51,12343.07 4199.51,12187.53 4355.09,12187.53 "/>
  <polygon class="fil3" points="5015.77,12343.07 4860.23,12343.07 4923.66,12265.28 4860.23,12187.53 5015.77,12187.53 5079.19,12265.28 "/>
  <polygon class="fil2" points="4616.07,12187.53 4641.37,12238.72 4697.88,12246.94 4656.99,12286.76 4666.63,12343.07 4616.07,12316.5 4565.55,12343.07 4575.22,12286.76 4534.33,12246.94 4590.81,12238.72 "/>
  <polygon class="fil14" points="6429.88,12296.92 5190.78,12296.92 5190.78,12233.68 6429.88,12233.68 "/>
  <polygon class="fil14" points="9658.63,12296.92 8533.8,12296.92 8533.8,12233.68 9658.63,12233.68 "/>
  <polygon class="fil12" points="8061.19,12296.92 6808.13,12296.92 6808.13,12233.68 8061.19,12233.68 "/>
  <polygon class="fil3" points="4355.09,12860.88 4199.51,12860.88 4199.51,12705.34 4355.09,12705.34 "/>
  <polygon class="fil0" points="4355.09,12860.88 4355.09,12852.06 4208.33,12852.06 4208.33,12714.16 4346.27,12714.16 4346.27,12860.88 4355.09,12860.88 4355.09,12852.06 4355.09,12860.88 4363.91,12860.88 4363.91,12696.52 4190.69,12696.52 4190.69,12869.7 4363.91,12869.7 4363.91,12860.88 "/>
  <polygon class="fil3" points="5015.77,12860.88 4860.23,12860.88 4923.66,12783.12 4860.23,12705.34 5015.77,12705.34 5079.19,12783.12 "/>
  <polygon class="fil0" points="5015.77,12860.88 5015.77,12852.06 4878.79,12852.06 4935.01,12783.12 4878.79,12714.16 5011.57,12714.16 5067.8,12783.12 5008.92,12855.3 5015.77,12860.88 5015.77,12852.06 5015.77,12860.88 5022.61,12866.45 5090.56,12783.12 5019.97,12696.52 4841.67,12696.52 4912.26,12783.12 4841.64,12869.7 5019.97,12869.7 5022.61,12866.45 "/>
  <polygon class="fil3" points="4616.07,12705.34 4641.37,12756.52 4697.88,12764.75 4656.99,12804.6 4666.63,12860.88 4616.07,12834.31 4565.55,12860.88 4575.22,12804.6 4534.33,12764.75 4590.81,12756.52 "/>
  <polygon class="fil0" points="4616.07,12705.34 4608.17,12709.21 4635.51,12764.57 4678.94,12770.92 4647.5,12801.54 4654.91,12844.76 4616.07,12824.32 4577.27,12844.76 4583.9,12806.09 4584.67,12801.54 4553.28,12770.92 4592.08,12765.23 4596.67,12764.57 4624.01,12709.21 4616.07,12705.34 4608.17,12709.21 4616.07,12705.34 4608.17,12701.41 4584.97,12748.45 4515.4,12758.6 4565.73,12807.67 4553.84,12877 4616.07,12844.26 4678.34,12877 4666.45,12807.67 4716.83,12758.6 4647.22,12748.45 4616.07,12685.4 4608.17,12701.41 "/>
  <polygon class="fil14" points="6429.88,12814.73 5190.78,12814.73 5190.78,12751.45 6429.88,12751.45 "/>
  <polygon class="fil14" points="9658.63,12814.73 8533.8,12814.73 8533.8,12751.45 9658.63,12751.45 "/>
  <polygon class="fil12" points="8061.19,12814.73 6808.13,12814.73 6808.13,12751.45 8061.19,12751.45 "/>
  <path class="fil0" d="M10324.42 13042.02c-9.67,232.49 -142.1,430.05 -329.25,517.81l-5870.6 0c-187.5,-87.76 -319.93,-285.32 -329.6,-517.81l6529.45 0z"/>
  <polygon class="fil3" points="4355.09,13378.68 4199.51,13378.68 4199.51,13223.11 4355.09,13223.11 "/>
  <polygon class="fil3" points="5015.77,13378.68 4860.23,13378.68 4923.66,13300.89 4860.23,13223.11 5015.77,13223.11 5079.19,13300.89 "/>
  <polygon class="fil2" points="4616.07,13223.11 4641.37,13274.36 4697.88,13282.54 4656.99,13322.41 4666.63,13378.68 4616.07,13352.12 4565.55,13378.68 4575.22,13322.41 4534.33,13282.54 4590.81,13274.36 "/>
  <polygon class="fil14" points="6429.88,13332.54 5190.78,13332.54 5190.78,13269.29 6429.88,13269.29 "/>
  <polygon class="fil14" points="9658.63,13332.54 8533.8,13332.54 8533.8,13269.29 9658.63,13269.29 "/>
  <polygon class="fil12" points="8061.19,13332.54 6808.13,13332.54 6808.13,13269.29 8061.19,13269.29 "/>
  <path class="fil6" d="M11631.08 6143.69c-0.03,0.03 -10.12,7.2 -29.81,20.85 -19.68,13.62 -48.93,33.65 -87.06,59.19l14.74 21.98c76.45,-51.26 117.37,-80.4 117.48,-80.47l-15.35 -21.55zm-264.45 177.01c-36.33,23.43 -76.13,48.83 -119.17,75.92l14.08 22.37c43.14,-27.13 83.01,-52.57 119.41,-76.06l-14.32 -22.23zm-269.27 168.91c-38.49,23.5 -78.81,47.84 -120.9,72.96l13.55 22.72c42.15,-25.16 82.58,-49.57 121.14,-73.1l-13.79 -22.58zm-273.02 162.45c-39.62,22.96 -80.47,46.39 -122.48,70.2l13.05 23.04c42.09,-23.89 83.01,-47.35 122.7,-70.38l-13.27 -22.86zm-276.51 156.31c-40.39,22.26 -81.73,44.81 -123.93,67.53l12.56 23.28c42.26,-22.76 83.68,-45.33 124.14,-67.63l-12.77 -23.18zm-279.75 150.22c-41.1,21.48 -82.9,43.07 -125.38,64.73l12.03 23.57c42.55,-21.7 84.42,-43.32 125.59,-64.88l-12.24 -23.42zm-283 143.93c-41.7,20.6 -83.99,41.24 -126.82,61.88l11.5 23.84c42.9,-20.67 85.27,-41.34 127.04,-62.01l-11.72 -23.71zm-286.21 137.37c-42.26,19.69 -85.02,39.3 -128.2,58.84l10.91 24.13c43.28,-19.61 86.11,-39.26 128.48,-58.98l-11.19 -23.99zm-289.34 130.46c-42.83,18.66 -86.05,37.22 -129.65,55.63l10.3 24.34c43.68,-18.45 87,-37.04 129.89,-55.74l-10.54 -24.23zm-292.55 123.05c-43.36,17.57 -87.03,34.95 -131.02,52.17l9.63 24.63c44.09,-17.25 87.87,-34.68 131.34,-52.28l-9.95 -24.52zm-295.7 115.08c-43.89,16.37 -88.05,32.53 -132.43,48.44l8.92 24.91c44.49,-15.95 88.76,-32.14 132.75,-48.55l-9.24 -24.8 0 0zm-298.87 106.51c-44.42,15.06 -89.01,29.84 -133.85,44.34l8.15 25.19c44.94,-14.53 89.68,-29.39 134.2,-44.49l-8.5 -25.04zm-302.02 97.08c-44.76,13.58 -89.71,26.85 -134.83,39.79l7.3 25.44c45.23,-12.98 90.31,-26.28 135.22,-39.9l-7.69 -25.33zm-304.36 86.61c-45.34,12.03 -90.81,23.71 -136.39,34.98l6.35 25.69c45.72,-11.33 91.34,-23.04 136.81,-35.1l-6.77 -25.57zm-307.8 75.46c-45.83,10.3 -91.8,20.18 -137.8,29.63l5.29 25.9c46.22,-9.46 92.33,-19.37 138.33,-29.71l-5.82 -25.82 0 0zm-310.9 63c-46.28,8.36 -92.64,16.27 -139.03,23.68l4.17 26.1c46.56,-7.41 93.1,-15.35 139.59,-23.74l-4.69 -26.04 -0.04 0zm-313.37 49.15c-34.64,4.58 -69.28,8.89 -103.96,12.91 -12,1.37 -23.92,2.75 -35.84,4.12l2.99 26.29c11.93,-1.38 23.89,-2.75 35.88,-4.13 34.82,-4.02 69.64,-8.36 104.42,-12.98l-3.45 -26.21 -0.04 0zm-315.02 36.47c-47.2,5.05 -93.94,9.92 -140.26,14.61l2.64 26.35c46.39,-4.73 93.21,-9.6 140.44,-14.68l-2.82 -26.28zm-315.73 31.72c-47.28,4.41 -94.09,8.64 -140.45,12.66l2.3 26.35c46.42,-4.02 93.27,-8.25 140.61,-12.66l-2.46 -26.35zm-316.12 27.13c-47.34,3.67 -94.23,7.16 -140.62,10.4l1.87 26.43c46.43,-3.28 93.38,-6.78 140.8,-10.45l-2.05 -26.38zm-316.51 21.93c-47.45,2.86 -94.37,5.5 -140.76,7.9l1.38 26.42c46.46,-2.43 93.48,-5.04 141,-7.93l-1.62 -26.39 0 0zm-316.79 16.02c-47.55,1.94 -94.5,3.59 -140.9,5l0.82 26.46c46.49,-1.41 93.52,-3.1 141.14,-5.01l-1.06 -26.45zm-317.07 9.27c-47.59,0.85 -94.55,1.41 -140.94,1.7l0.18 26.45c46.46,-0.28 93.56,-0.84 141.25,-1.69l-0.49 -26.46zm-317.1 1.48c-47.63,-0.42 -94.58,-1.16 -140.87,-2.18l-0.6 26.46c46.43,1.02 93.49,1.76 141.25,2.18l0.22 -26.46zm-316.9 -7.65c-47.63,-1.91 -94.51,-4.16 -140.69,-6.74l-1.48 26.42c46.32,2.58 93.34,4.84 141.11,6.74l1.06 -26.42 0 0zm-316.33 -18.42c-47.59,-3.7 -94.37,-7.76 -140.3,-12.2l-2.54 26.35c46.11,4.45 93.03,8.5 140.79,12.21l2.05 -26.36zm-315.24 -31.31c-47.42,-5.82 -93.91,-12.03 -139.49,-18.7l-3.85 26.18c45.79,6.7 92.5,12.94 140.13,18.8l3.21 -26.28zm-313.12 -46.83c-47.09,-8.43 -93.1,-17.32 -138.11,-26.67l-5.4 25.9c45.26,9.42 91.55,18.34 138.86,26.81l4.65 -26.04zm-309.49 -65.79c-46.42,-11.61 -91.66,-23.74 -135.76,-36.44l-7.32 25.43c44.4,12.78 89.95,25.02 136.69,36.66l6.39 -25.65zm-303.31 -89.07c-45.26,-15.48 -89.19,-31.6 -131.83,-48.33l-9.67 24.63c43.02,16.9 87.31,33.12 132.95,48.75l8.55 -25.05zm-293.11 -117.41c-43.3,-20.18 -85.1,-41.1 -125.48,-62.69l-12.48 23.32c40.81,21.84 83.05,42.97 126.78,63.36l11.18 -23.99zm-276.76 -151.13c-40.14,-25.58 -78.66,-51.96 -115.63,-79.13l-15.67 21.35c37.46,27.51 76.45,54.22 117.07,80.11l14.23 -22.29 0 -0.04zm-252.06 -188.81c-35.52,-31.25 -69.38,-63.36 -101.68,-96.27l-18.89 18.52c32.76,33.37 67.1,65.94 103.09,97.62l17.48 -19.87zm-218.36 -226.69l-0.12 -0.18 0 0c-31.08,-38.13 -57.09,-76.2 -78.44,-114.09l-23.06 12.99c22.15,39.33 49.03,78.63 80.98,117.82l0.12 0.15 20.52 -16.73 0 0.04zm-142.18 -274.18c-10.07,-42.3 -14.85,-84.35 -14.85,-126.12 0,-3.49 0.05,-6.95 0.1,-10.44l-26.44 -0.49c-0.07,3.63 -0.11,7.26 -0.11,10.93 0,43.82 5.03,87.95 15.54,132.22l25.76 -6.1zm13.81 -305.74c13.52,-42.94 31.58,-85.52 53.67,-127.57l-23.43 -12.31c-22.73,43.32 -41.45,87.35 -55.49,131.94l25.25 7.94zm147.64 -274.01c27.42,-36.23 57.53,-71.96 89.93,-107.06l-19.44 -17.92c-32.92,35.66 -63.58,72.03 -91.59,109l21.1 15.98zm214.86 -229.87c34.32,-30.86 70.16,-61.1 107.23,-90.66l-16.49 -20.67c-37.45,29.84 -73.69,60.43 -108.43,91.65l17.69 19.68zm247.91 -195.82c38.24,-26.88 77.26,-53.02 116.79,-78.42l-14.32 -22.26c-39.79,25.57 -79.12,51.92 -117.68,79.02l15.21 21.66zm266.98 -170.04c40.94,-23.74 82.04,-46.64 123.01,-68.58l-12.5 -23.32c-41.22,22.08 -82.57,45.12 -123.78,69l13.27 22.9zm279.8 -148.59c43.29,-21.03 85.96,-40.85 127.68,-59.48l-10.78 -24.16c-41.97,18.73 -84.91,38.7 -128.45,59.83l11.55 23.81zm289.91 -127.74c45.19,-17.82 88.33,-33.8 128.9,-47.8l-8.64 -25.02c-40.96,14.15 -84.45,30.24 -129.96,48.19l9.7 24.63z"/>
  <polygon class="fil2" points="11857.27,5500.89 11638.74,6154.45 12123.28,5754.92 13996.77,5018.75 "/>
  <polygon class="fil15" points="11638.74,6154.45 11857.27,5500.89 13996.77,5018.75 12123.28,5754.92 "/>
  <polygon class="fil6" points="12190.77,5904.07 11638.74,6154.45 12123.28,5754.92 "/>
  <polygon class="fil2" points="12123.28,5754.92 13996.77,5018.75 12485.29,6574.01 "/>
  <polygon class="fil2" points="11857.27,5500.89 11057.71,5014.2 13996.77,5018.75 "/>
  <polygon class="fil3 str0" points="3263.49,10150.1 10870.74,10150.1 10870.74,3860.11 3263.49,3860.11 "/>
  <path class="fil6" d="M10870.74 10150.1l-2.79 -6289.99 2.79 2.79 -7607.24 6 8.78 -8.79 -3.56 6289.95 -5.22 -5.18 7607.24 5.22zm0 0l-7607.24 5.18 -5.22 0 0 -5.22 -3.57 -6289.95 0 -8.78 8.79 0 7607.24 6 2.79 0 0 2.78 -2.79 6289.99z"/>
  <path class="fil16" d="M3595.18 4039.41c0,49.1 -39.83,88.9 -88.94,88.9 -49.1,0 -88.9,-39.8 -88.9,-88.9 0,-49.11 39.8,-88.94 88.9,-88.94 49.11,0 88.94,39.83 88.94,88.94z"/>
  <path class="fil6" d="M3595.18 4039.41c-0.35,-23.32 -10.34,-46.08 -26.95,-61.99 -16.83,-15.77 -39.9,-23.67 -61.99,-22.5 -44.98,1.72 -81.7,41.98 -80.11,84.49 -1.63,42.47 35.12,82.79 80.11,84.52 22.12,1.09 45.19,-6.77 61.99,-22.54 16.61,-15.91 26.6,-38.67 26.95,-61.98zm0 0c1.76,47.23 -39.27,91.68 -88.94,93.31 -24.37,1.12 -49.77,-7.77 -68.19,-25.12 -18.24,-17.5 -29.21,-42.62 -29.53,-68.19 0.29,-25.62 11.29,-50.73 29.5,-68.23 18.41,-17.46 43.85,-26.28 68.22,-25.15 49.71,1.62 90.67,46.14 88.94,93.38z"/>
  <path class="fil3" d="M3958.25 4039.41c0,49.1 -39.8,88.9 -88.9,88.9 -49.14,0 -88.94,-39.8 -88.94,-88.9 0,-49.11 39.8,-88.94 88.94,-88.94 49.1,0 88.9,39.83 88.9,88.94z"/>
  <path class="fil6" d="M3958.25 4039.41c-0.36,-23.32 -10.34,-46.08 -26.95,-61.99 -16.83,-15.77 -39.87,-23.67 -61.95,-22.5 -44.98,1.72 -81.71,41.98 -80.12,84.49 -1.66,42.47 35.09,82.79 80.12,84.52 22.08,1.09 45.15,-6.77 61.95,-22.54 16.61,-15.91 26.59,-38.67 26.95,-61.98zm0 0c1.76,47.23 -39.23,91.68 -88.9,93.31 -24.41,1.12 -49.78,-7.77 -68.23,-25.12 -18.24,-17.5 -29.17,-42.62 -29.53,-68.19 0.28,-25.62 11.29,-50.73 29.53,-68.23 18.38,-17.46 43.82,-26.28 68.23,-25.15 49.7,1.62 90.66,46.14 88.9,93.38z"/>
  <path class="fil2" d="M4321.36 4039.41c0,49.1 -39.83,88.9 -88.93,88.9 -49.11,0 -88.94,-39.8 -88.94,-88.9 0,-49.11 39.83,-88.94 88.94,-88.94 49.1,0 88.93,39.83 88.93,88.94z"/>
  <path class="fil6" d="M4321.36 4039.41c-0.39,-23.32 -10.33,-46.11 -26.99,-61.99 -16.79,-15.77 -39.86,-23.67 -61.94,-22.5 -44.98,1.72 -81.71,41.98 -80.12,84.49 -1.62,42.47 35.13,82.79 80.12,84.52 22.08,1.09 45.15,-6.77 61.98,-22.54 16.62,-15.91 26.6,-38.67 26.95,-61.98zm0 0c1.73,47.23 -39.26,91.72 -88.93,93.31 -24.38,1.12 -49.78,-7.77 -68.2,-25.12 -18.23,-17.5 -29.21,-42.62 -29.52,-68.19 0.24,-25.62 11.25,-50.73 29.49,-68.23 18.38,-17.46 43.85,-26.28 68.23,-25.15 49.7,1.62 90.66,46.14 88.93,93.38z"/>
  <polygon class="fil3" points="3263.49,4213.56 10870.74,4213.56 "/>
  <polygon class="fil6" points="3263.49,4213.56 4214.4,4209.26 5165.31,4207.71 7067.14,4204.78 8968.95,4207.71 9919.83,4209.26 10870.74,4213.56 9919.83,4217.87 8968.95,4219.43 7067.14,4222.36 5165.31,4219.43 4214.4,4217.83 "/>
  <polygon class="fil2" points="8499.48,8282.18 5620.01,8282.18 5620.01,5846.36 7059.51,4932.25 8499.48,5846.36 "/>
  <path class="fil15" d="M5620.01 8282.18l0 0 0 -2435.81 150.74 -95.71 1.13 793.36c-50.41,-29.67 -100.97,-59.09 -151.87,-87.91l0 1826.08 0 -0.01zm2723.22 -1735.62l1.73 -798.26 154.52 98.07 0 609.74c-52.39,29.67 -104.39,59.94 -156.25,90.45z"/>
  <polygon class="fil3" points="8337.09,8095.81 5782.38,8095.81 5782.38,4816.36 7679.23,4816.36 8337.09,5441.24 "/>
  <path class="fil6" d="M8337.09 8095.81l-8.54 -2654.57 2.65 6.17 -658.81 -623.81 6.84 2.75 -1896.81 3 12.94 -12.99 -4.62 3279.45 -8.32 -8.36 2554.66 8.36 0.01 0zm0 0l-2554.66 8.33 -8.36 0.03 0 -8.36 -4.63 -3279.45 -0.03 -12.98 13.02 0.04 1896.81 2.99 3.99 0 2.89 2.72 656.87 625.93 2.65 2.54 0 3.64 -2.89 1329.62 -5.65 1324.96 -0.01 -0.01z"/>
  <polygon class="fil14" points="7679.23,4816.36 8337.09,5441.24 7679.23,5441.24 "/>
  <polygon class="fil14" points="6031.63,5366.63 7452.01,5366.63 7452.01,5450.83 6031.63,5450.83 "/>
  <polygon class="fil14" points="6031.63,5579.17 7452.01,5579.17 7452.01,5663.38 6031.63,5663.38 "/>
  <polygon class="fil14" points="6031.63,5791.72 7452.01,5791.72 7452.01,5875.93 6031.63,5875.93 "/>
  <polygon class="fil14" points="6031.63,6004.27 8112.72,6004.27 8112.72,6088.48 6031.63,6088.48 "/>
  <polygon class="fil14" points="6031.63,6216.82 8112.72,6216.82 8112.72,6301.05 6031.63,6301.05 "/>
  <polygon class="fil14" points="6031.63,6429.37 8112.72,6429.37 8112.72,6513.57 6031.63,6513.57 "/>
  <polygon class="fil14" points="6031.63,6726.12 8112.73,6726.12 8112.73,6641.91 6031.63,6641.91 "/>
  <polygon class="fil14" points="6031.63,6938.66 8112.73,6938.66 8112.73,6854.5 6031.63,6854.5 "/>
  <polygon class="fil14" points="6031.63,7151.25 8112.73,7151.25 8112.73,7067.01 6031.63,7067.01 "/>
  <polygon class="fil14" points="6031.63,7363.8 8112.73,7363.8 8112.73,7279.59 6031.63,7279.59 "/>
  <polygon class="fil14" points="6031.63,7576.35 8112.73,7576.35 8112.73,7492.09 6031.63,7492.09 "/>
  <polygon class="fil14" points="6031.63,7788.86 8112.73,7788.86 8112.73,7704.69 6031.63,7704.69 "/>
  <path class="fil2" d="M8499.48 6456.1l0 1826.08 -2879.48 0 0 -1826.08c123.68,70.03 245.17,143.54 367.56,215.34 121.92,73.06 243.87,146.15 364.94,220.52 134.94,82.16 269.84,165.59 404.32,249.94l4.34 -2.61 -3.45 3.03c100.71,62.73 201.47,125.84 302.22,188.99 100.33,-63.15 201.12,-126.72 301.84,-188.99l-3.46 -3.03 4.3 2.19c134.52,-83.93 269,-167.36 404.32,-249.95 121.11,-73.94 242.61,-147.46 364.53,-220.09 122.83,-71.8 244.33,-145.31 368.02,-215.34z"/>
  <path class="fil15" d="M7059.51 7402.64l-15.98 -9.95c-110.71,-70.49 -220.98,-140.97 -331.26,-211.88 15.17,-12.52 30.3,-25.5 45.44,-38.49l0 0c100.71,62.73 201.47,125.84 302.22,188.99 100.33,-63.15 201.12,-126.72 301.84,-188.99l0 0c15.17,12.99 30.27,25.97 45.86,38.91 -110.28,70.49 -220.98,140.97 -331.68,211.46l-16.44 9.95z"/>
  <path class="fil15" d="M7418.85 7173.47c-18.56,-10.83 -37.15,-21.2 -56.24,-31.99l0 0c134.52,-83.93 269,-167.36 404.32,-249.95 121.11,-73.94 242.61,-147.46 364.53,-220.09 122.83,-71.8 244.33,-145.31 368.02,-215.34l0 0c-116.35,81.7 -234.81,159.98 -352.01,240.42 -118.04,78.67 -236.53,157.37 -355.46,235.19 -124.07,81.32 -248.63,161.75 -373.16,241.76l0 0zm-718.22 0l0 0c-124.99,-80.01 -249.52,-160.44 -373.63,-242.18 -118.46,-77.4 -236.96,-156.1 -355,-234.77 -117.19,-80.44 -235.69,-158.72 -352,-240.42 123.68,70.03 245.17,143.54 367.56,215.34 121.92,73.06 243.87,146.15 364.94,220.52 134.94,82.16 269.84,165.59 404.32,249.94l0 0c-19.01,10.37 -37.6,20.74 -56.19,31.57z"/>
  <path class="fil15" d="M5626.92 7931.91c87.35,-76.52 178.15,-147.85 269.84,-217.49 92.11,-70.06 185.95,-137.09 279.75,-203.66 95.15,-65.75 190.29,-130.63 287.59,-192.86 77.4,-49.74 156.1,-98.6 236.54,-144.43l0 0c18.59,-10.83 37.18,-21.2 56.19,-31.57l0 0 4.34 -2.61 -3.45 3.03 0 0c-15.14,12.99 -30.27,25.97 -45.44,38.49l0 0c-72.18,61 -146.16,119.35 -221.37,175.99 -91.69,70.06 -185.53,137.06 -279.79,203.66 -94.68,65.3 -189.83,130.14 -287.12,192.44 -97.3,62.27 -195.44,123.23 -297.08,179l0 0.01z"/>
  <path class="fil15" d="M8492.57 7931.91c-101.63,-55.77 -200.2,-116.73 -297.07,-179 -97.3,-62.3 -192.41,-127.14 -287.55,-192.44 -94.26,-66.6 -188.14,-133.6 -279.79,-203.66 -74.79,-56.65 -148.77,-114.62 -220.52,-175.57l0 0c-15.59,-12.94 -30.69,-25.92 -45.86,-38.91l0 0 0 0 -3.46 -3.03 4.3 2.19c19.09,10.79 37.68,21.16 56.24,31.99l0 0c80.46,45.83 158.71,94.69 236.53,144.43 97.3,62.23 192.41,127.11 287.13,192.86 94.3,66.57 188.1,133.6 279.79,203.66 92.11,69.64 182.91,140.97 270.26,217.49l0 -0.01z"/>
  <polygon class="fil2" points="8288.84,9583.23 5845.39,9583.23 5845.39,9065.49 8288.84,9065.49 "/>
  <polygon class="fil6" points="5058.6,8580.21 5560.74,8575.94 6062.84,8574.35 7067.14,8571.43 8071.35,8574.35 8573.52,8575.91 9075.63,8580.21 8573.52,8584.51 8071.35,8586.07 7067.14,8589.03 6062.84,8586.07 5560.74,8584.51 "/>
  <path class="fil6" d="M5756.78 8735.08c218.4,-3.25 436.77,-5.61 655.18,-6.77l655.18 -2.05 655.14 2.01c218.37,1.16 436.77,3.53 655.18,6.81 -218.41,3.21 -436.81,5.57 -655.18,6.77l-655.14 2.01 -655.18 -2.04c-218.41,-1.17 -436.78,-3.57 -655.18,-6.74z"/>
  <path class="fil3" d="M6293.33 9230.81c-24.17,-7.25 -38.07,-11.18 -63.15,-11.18 -29.92,0 -57.72,5.14 -82.5,23.57 -10.58,7.86 -16.92,15.72 -19.95,19.95 -18.73,25.38 -19.64,56.2 -19.64,66.78 0,12.99 1.21,44.42 24.78,72.53 26.29,31.42 59.23,36.56 72.83,38.37 6.04,0.91 14.2,1.82 28.1,1.82 32.94,0 44.12,-3.63 61.04,-9.07l-3.02 -47.44c-9.37,3.93 -26.29,12.39 -52.28,12.39 -30.82,0 -48.04,-14.21 -56.51,-23.88 -14.5,-16.62 -15.41,-37.16 -15.41,-44.72 0,-15.11 3.93,-50.77 44.42,-63.76 10.88,-3.63 19.65,-3.93 24.18,-3.93 19.94,0 34.15,6.04 52.58,13.6l4.53 -45.03z"/>
  <path id="_1" class="fil3" d="M6316 9329.33c-0.3,31.73 9.97,65.87 34.15,87.63 26.89,24.48 62.85,26.29 74.34,26.29 30.82,0 63.46,-11.78 83.4,-35.96 22.67,-27.5 23.87,-65.27 23.87,-76.45 0,-40.19 -15.41,-66.79 -25.98,-78.57 -12.09,-13.6 -38.38,-32.34 -82.5,-32.64 -27.8,0 -45.93,8.16 -55.91,13.3 -17.22,9.37 -26.59,20.55 -31.12,26.59 -14.21,19.34 -20.25,44.72 -20.25,69.81zm59.83 -2.42c0.31,-4.53 1.21,-46.24 28.71,-60.74 8.16,-4.23 15.41,-4.84 19.04,-4.84 14.81,0 24.18,7.56 28.41,10.88 4.53,4.53 8.16,9.67 9.36,11.49 6.35,9.97 11.19,23.87 11.19,49.55 0,23.58 -5.14,36.57 -10.58,45.33 -3.63,5.74 -15.41,22.37 -37.47,22.37 -19.04,0 -33.24,-11.79 -41.1,-29.02 -7.56,-17.22 -7.56,-40.49 -7.56,-45.02z"/>
  <path id="_2" class="fil3" d="M6568.32 9225.67l0 211.54 52.88 0 0 -59.23c-0.3,-29.92 -1.21,-59.84 -2.42,-89.75 5.75,12.39 11.19,24.48 17.23,36.56 9.37,19.04 20.25,37.47 30.82,55.91 10.58,18.73 21.16,37.77 31.43,56.81l71.02 0 0 -211.84 -53.19 0c-0.3,27.5 -0.3,54.7 0,81.9 0.3,22.06 1.51,44.12 2.42,66.18 -5.74,-12.09 -11.18,-24.18 -17.53,-35.96 -7.86,-15.41 -16.92,-30.22 -25.38,-45.33 -12.7,-22.06 -25.09,-44.12 -37.47,-66.48l-69.81 -0.31z"/>
  <polygon id="_3" class="fil3" points="6789.83,9225.67 6789.83,9268.28 6843.01,9268.28 6843.01,9437.21 6900.42,9437.21 6900.42,9267.98 6952.41,9267.98 6952.41,9225.67 "/>
  <path id="_4" class="fil3" d="M7009.22 9225.37l-80.39 211.84 56.82 0 16.31 -43.22 80.69 0 16.02 43.52 60.74 0 -80.39 -212.14 -69.8 0zm33.83 44.32l26.29 85.02 -54.39 0 28.1 -85.02z"/>
  <path id="_5" class="fil3" d="M7344.94 9230.81c-24.17,-7.25 -38.07,-11.18 -63.15,-11.18 -29.92,0 -57.72,5.14 -82.5,23.57 -10.58,7.86 -16.92,15.72 -19.95,19.95 -18.73,25.38 -19.64,56.2 -19.64,66.78 0,12.99 1.21,44.42 24.78,72.53 26.29,31.42 59.23,36.56 72.83,38.37 6.04,0.91 14.2,1.82 28.1,1.82 32.94,0 44.12,-3.63 61.04,-9.07l-3.02 -47.44c-9.37,3.93 -26.29,12.39 -52.28,12.39 -30.82,0 -48.04,-14.21 -56.51,-23.88 -14.5,-16.62 -15.41,-37.16 -15.41,-44.72 0,-15.11 3.93,-50.77 44.42,-63.76 10.88,-3.63 19.65,-3.93 24.18,-3.93 19.94,0 34.15,6.04 52.58,13.6l4.53 -45.03z"/>
  <polygon id="_6" class="fil3" points="7356.44,9225.67 7356.44,9268.28 7409.62,9268.28 7409.62,9437.21 7467.03,9437.21 7467.03,9267.98 7519.02,9267.98 7519.02,9225.67 "/>
  <path id="_7" class="fil3" d="M7625.98 9225.07l0 141.43c1.51,12.69 2.42,22.36 8.16,33.54 11.18,22.66 33.24,34.75 56.81,39.89 11.79,2.72 21.76,2.72 26.29,2.72 32.33,0 69.2,-11.49 84.61,-43.52 6.05,-12.69 7.26,-23.87 8.47,-37.77l0 -136.59 -57.12 0 0 129.64c-0.6,18.43 -2.42,25.68 -8.16,33.54 -9.06,12.39 -21.76,13 -27.2,13 -5.74,0 -18.43,-0.91 -27.19,-13.6 -6.35,-9.67 -7.25,-19.04 -7.56,-30.22l0 -132.06 -57.11 0z"/>
  <path id="_8" class="fil3" d="M7991.95 9228.39c-22.06,-4.83 -38.38,-8.46 -61.35,-8.46 -35.65,0 -54.69,9.07 -67.08,19.95 -18.74,16.01 -20.85,35.96 -20.85,45.33 0,25.38 14.5,40.49 21.45,46.23 14.51,11.48 34.45,16.92 50.47,21.76 14.5,4.53 20.24,6.95 24.78,13.9 0.9,1.51 3.02,5.14 3.02,10.58 0,6.64 -3.93,12.99 -9.67,16.92 -2.72,1.51 -6.04,3.02 -12.69,3.93 -2.12,0.3 -8.16,0.9 -14.21,0.9 -21.45,0 -36.56,-5.44 -57.11,-13.29l-5.14 45.33c12.09,3.32 34.76,10.88 66.18,10.88 34.15,0 52.89,-7.56 65.88,-16.63 23.87,-17.22 26.29,-39.88 26.29,-51.07 0,-26.29 -14.2,-42.6 -21.15,-48.65 -9.97,-8.16 -24.78,-15.11 -51.68,-22.96 -8.76,-2.42 -17.52,-4.84 -23.27,-12.7 -3.32,-3.92 -3.62,-7.55 -3.62,-9.36 0,-6.35 4.83,-13 10.58,-16.02 8.76,-4.53 25.68,-4.53 26.29,-4.53 21.75,0 42.91,8.76 48.95,10.88l3.93 -42.92z"/>
  <polygon class="fil17" points="4606.08,3132.12 4606.08,3243.55 4591.43,3243.55 4591.43,3160.46 4554.39,3243.55 4544.09,3243.55 4506.89,3160.3 4506.89,3243.55 4492.24,3243.55 4492.24,3132.12 4508.02,3132.12 4549.24,3224.23 4590.46,3132.12 "/>
  <path id="_1_0" class="fil17" d="M4655.49 3199.11c0,-9.02 1.83,-16.94 5.48,-23.75 3.65,-6.82 8.67,-12.11 15.05,-15.86 6.39,-3.76 13.5,-5.64 21.34,-5.64 7.73,0 14.44,1.67 20.13,4.99 5.69,3.33 9.93,7.52 12.72,12.56l0 -16.1 14.81 0 0 88.24 -14.81 0 0 -16.42c-2.9,5.15 -7.22,9.42 -12.96,12.8 -5.75,3.38 -12.43,5.07 -20.05,5.07 -7.84,0 -14.92,-1.93 -21.26,-5.8 -6.33,-3.86 -11.32,-9.28 -14.97,-16.26 -3.65,-6.98 -5.48,-14.92 -5.48,-23.83zm74.72 0.16c0,-6.66 -1.34,-12.45 -4.03,-17.39 -2.68,-4.94 -6.3,-8.72 -10.87,-11.35 -4.56,-2.63 -9.58,-3.95 -15.05,-3.95 -5.48,0 -10.47,1.29 -14.98,3.87 -4.51,2.57 -8.1,6.33 -10.79,11.27 -2.68,4.94 -4.02,10.73 -4.02,17.39 0,6.76 1.34,12.64 4.02,17.63 2.69,4.99 6.28,8.8 10.79,11.43 4.51,2.63 9.5,3.95 14.98,3.95 5.47,0 10.49,-1.32 15.05,-3.95 4.57,-2.63 8.19,-6.44 10.87,-11.43 2.69,-4.99 4.03,-10.82 4.03,-17.47z"/>
  <path id="_2_1" class="fil17" d="M4814.56 3169.64c2.58,-5.04 6.25,-8.96 11.03,-11.75 4.78,-2.79 10.6,-4.19 17.47,-4.19l0 15.14 -3.86 0c-16.43,0 -24.64,8.91 -24.64,26.73l0 47.98 -14.65 0 0 -88.24 14.65 0 0 14.33z"/>
  <path id="_3_2" class="fil17" d="M4884.58 3199.11c0,-9.02 1.83,-16.94 5.48,-23.75 3.65,-6.82 8.67,-12.11 15.05,-15.86 6.39,-3.76 13.56,-5.64 21.5,-5.64 6.87,0 13.26,1.59 19.16,4.75 5.91,3.17 10.41,7.33 13.53,12.48l0 -46.69 14.81 0 0 119.15 -14.81 0 0 -16.59c-2.9,5.26 -7.2,9.59 -12.88,12.97 -5.69,3.38 -12.35,5.07 -19.97,5.07 -7.84,0 -14.95,-1.93 -21.34,-5.8 -6.38,-3.86 -11.4,-9.28 -15.05,-16.26 -3.65,-6.98 -5.48,-14.92 -5.48,-23.83zm74.72 0.16c0,-6.66 -1.34,-12.45 -4.03,-17.39 -2.68,-4.94 -6.3,-8.72 -10.87,-11.35 -4.56,-2.63 -9.58,-3.95 -15.05,-3.95 -5.48,0 -10.47,1.29 -14.98,3.87 -4.51,2.57 -8.1,6.33 -10.79,11.27 -2.68,4.94 -4.02,10.73 -4.02,17.39 0,6.76 1.34,12.64 4.02,17.63 2.69,4.99 6.28,8.8 10.79,11.43 4.51,2.63 9.5,3.95 14.98,3.95 5.47,0 10.49,-1.32 15.05,-3.95 4.57,-2.63 8.19,-6.44 10.87,-11.43 2.69,-4.99 4.03,-10.82 4.03,-17.47z"/>
  <path id="_4_3" class="fil17" d="M5060.24 3245c-6.77,0 -12.83,-1.15 -18.2,-3.46 -5.37,-2.31 -9.61,-5.53 -12.72,-9.66 -3.11,-4.14 -4.83,-8.89 -5.15,-14.25l15.13 0c0.43,4.4 2.5,7.99 6.2,10.78 3.71,2.8 8.56,4.19 14.58,4.19 5.58,0 9.98,-1.23 13.2,-3.7 3.22,-2.47 4.83,-5.58 4.83,-9.34 0,-3.87 -1.72,-6.74 -5.15,-8.62 -3.44,-1.88 -8.75,-3.73 -15.94,-5.55 -6.55,-1.72 -11.89,-3.46 -16.03,-5.23 -4.13,-1.78 -7.67,-4.41 -10.62,-7.89 -2.95,-3.49 -4.43,-8.08 -4.43,-13.77 0,-4.51 1.34,-8.64 4.02,-12.4 2.69,-3.76 6.5,-6.74 11.44,-8.94 4.94,-2.2 10.57,-3.3 16.9,-3.3 9.77,0 17.66,2.47 23.67,7.41 6.02,4.94 9.24,11.7 9.67,20.29l-14.66 0c-0.32,-4.62 -2.17,-8.32 -5.55,-11.11 -3.38,-2.79 -7.92,-4.19 -13.61,-4.19 -5.26,0 -9.45,1.13 -12.56,3.38 -3.11,2.26 -4.67,5.21 -4.67,8.86 0,2.9 0.94,5.28 2.82,7.16 1.88,1.88 4.24,3.38 7.08,4.51 2.85,1.13 6.79,2.39 11.84,3.79 6.33,1.71 11.49,3.4 15.46,5.07 3.97,1.66 7.38,4.16 10.22,7.49 2.85,3.32 4.32,7.67 4.43,13.04 0,4.83 -1.34,9.18 -4.03,13.04 -2.68,3.87 -6.46,6.9 -11.35,9.1 -4.88,2.2 -10.49,3.3 -16.82,3.3z"/>
  <path id="_5_4" class="fil17" d="M5181.62 3245c-8.26,0 -15.75,-1.88 -22.46,-5.64 -6.71,-3.75 -11.97,-9.09 -15.78,-16.02 -3.81,-6.92 -5.72,-14.95 -5.72,-24.07 0,-9.02 1.96,-16.99 5.88,-23.91 3.92,-6.93 9.26,-12.24 16.02,-15.94 6.77,-3.71 14.33,-5.56 22.71,-5.56 8.37,0 15.94,1.85 22.7,5.56 6.76,3.7 12.1,8.99 16.02,15.86 3.92,6.87 5.88,14.87 5.88,23.99 0,9.12 -2.01,17.15 -6.04,24.07 -4.02,6.93 -9.47,12.27 -16.34,16.02 -6.87,3.76 -14.49,5.64 -22.87,5.64zm0 -12.88c5.26,0 10.2,-1.24 14.82,-3.71 4.61,-2.46 8.34,-6.17 11.19,-11.11 2.84,-4.93 4.26,-10.95 4.26,-18.03 0,-7.09 -1.39,-13.1 -4.18,-18.03 -2.79,-4.94 -6.44,-8.62 -10.95,-11.03 -4.51,-2.42 -9.39,-3.63 -14.65,-3.63 -5.37,0 -10.28,1.21 -14.74,3.63 -4.45,2.41 -8.02,6.09 -10.71,11.03 -2.68,4.93 -4.02,10.94 -4.02,18.03 0,7.19 1.31,13.26 3.94,18.19 2.63,4.94 6.15,8.62 10.55,11.03 4.4,2.42 9.23,3.63 14.49,3.63z"/>
  <path id="_6_5" class="fil17" d="M5312.19 3167.39l-18.52 0 0 76.16 -14.65 0 0 -76.16 -11.44 0 0 -12.08 11.44 0 0 -6.28c0,-9.87 2.55,-17.09 7.64,-21.66 5.1,-4.56 13.29,-6.84 24.56,-6.84l0 12.24c-6.44,0 -10.98,1.26 -13.61,3.78 -2.63,2.52 -3.94,6.68 -3.94,12.48l0 6.28 18.52 0 0 12.08z"/>
  <path id="_7_6" class="fil17" d="M5377.22 3167.39l0 52.01c0,4.29 0.91,7.32 2.74,9.09 1.82,1.78 4.99,2.66 9.5,2.66l10.79 0 0 12.4 -13.21 0c-8.15,0 -14.27,-1.88 -18.35,-5.64 -4.08,-3.75 -6.12,-9.93 -6.12,-18.51l0 -52.01 -11.43 0 0 -12.08 11.43 0 0 -22.22 14.65 0 0 22.22 23.03 0 0 12.08 -23.03 0z"/>
 </g>
</svg>
