<?xml version="1.0" encoding="UTF-8"?>
<!DOCTYPE svg PUBLIC "-//W3C//DTD SVG 1.1//EN" "http://www.w3.org/Graphics/SVG/1.1/DTD/svg11.dtd">
<!-- Creator: CorelDRAW -->
<svg xmlns="http://www.w3.org/2000/svg" xml:space="preserve" width="148.187mm" height="145.556mm" version="1.1" style="shape-rendering:geometricPrecision; text-rendering:geometricPrecision; image-rendering:optimizeQuality; fill-rule:evenodd; clip-rule:evenodd"
viewBox="0 0 14820.82 14557.63"
 xmlns:xlink="http://www.w3.org/1999/xlink"
 xmlns:xodm="http://www.corel.com/coreldraw/odm/2003">
 <defs>
  <style type="text/css">
   <![CDATA[
    .fil3 {fill:#FEFEFE;fill-rule:nonzero}
    .fil18 {fill:#FEFEFE;fill-rule:nonzero}
    .fil16 {fill:#B6B6B7;fill-rule:nonzero}
    .fil13 {fill:#FBC726;fill-rule:nonzero}
    .fil5 {fill:#F3A69F;fill-rule:nonzero}
    .fil10 {fill:#F099B9;fill-rule:nonzero}
    .fil0 {fill:#ECEDEC;fill-rule:nonzero}
    .fil7 {fill:#E5E7E6;fill-rule:nonzero}
    .fil14 {fill:#DDDEDC;fill-rule:nonzero}
    .fil12 {fill:#C8CAC9;fill-rule:nonzero}
    .fil1 {fill:#A9ABA8;fill-rule:nonzero}
    .fil11 {fill:#3A616C;fill-rule:nonzero}
    .fil6 {fill:#2F4C55;fill-rule:nonzero}
    .fil4 {fill:#243840;fill-rule:nonzero}
    .fil8 {fill:#21343A;fill-rule:nonzero}
    .fil9 {fill:#488EFE;fill-rule:nonzero}
    .fil2 {fill:#488EFE;fill-rule:nonzero}
    .fil17 {fill:#5683CC;fill-rule:nonzero}
    .fil15 {fill:#5683CC;fill-rule:nonzero}
   ]]>
  </style>
 </defs>
 <g id="Layer_x0020_1">
  <metadata id="CorelCorpID_0Corel-Layer"/>
  <g id="_3070426557696">
   <polygon class="fil0" points="6154.57,3039.23 6154.57,3021.59 1739.33,3021.59 1739.33,35.28 6136.93,35.28 6136.93,3039.23 6154.57,3039.23 6154.57,3021.59 6154.57,3039.23 6172.21,3039.23 6172.21,0 1704.05,0 1704.05,3056.87 6172.21,3056.87 6172.21,3039.23 "/>
   <path class="fil1" d="M2053.4 196.95c0,49.12 -39.82,88.91 -88.92,88.91 -49.12,0 -88.94,-39.8 -88.94,-88.91 0,-49.11 39.83,-88.94 88.94,-88.94 49.11,0 88.92,39.84 88.92,88.94z"/>
   <path class="fil0" d="M2416.55 196.95c0,49.12 -39.82,88.91 -88.92,88.91 -49.12,0 -88.94,-39.8 -88.94,-88.91 0,-49.11 39.83,-88.94 88.94,-88.94 49.11,0 88.92,39.84 88.92,88.94z"/>
   <path class="fil2" d="M2779.7 196.95c0,49.12 -39.82,88.91 -88.95,88.91 -49.12,0 -88.92,-39.8 -88.92,-88.91 0,-49.11 39.81,-88.94 88.92,-88.94 49.14,0 88.95,39.84 88.95,88.94z"/>
   <polygon class="fil0" points="1721.69,388.78 6154.58,388.78 6154.58,353.5 1721.69,353.5 "/>
   <polygon class="fil0" points="3104.07,8345.93 562.1,8692.55 342.28,7080.51 2884.24,6733.86 "/>
   <path class="fil3" d="M2884.24 6733.86c-89.29,112.2 -181.08,220.48 -271.34,331.24 -91.32,108.74 -183.04,217.55 -275.25,325.38 -96.24,112.66 -193.01,224.25 -289.85,335.33 -2.98,3.6 -5.63,7.12 -8.65,10.72 -85.78,97.94 -171.96,195.93 -258.15,293.98l-12.85 13.9 -15.77 -10.02c-109.27,-71.34 -218.16,-142.76 -327.12,-214.7 -3.78,-2.11 -7.65,-4.76 -11.51,-7.41 -123.42,-81.07 -246.55,-162.68 -369.49,-245.91 -117.28,-78.75 -234.75,-159.02 -351.86,-239.39 -116.63,-82.53 -234.04,-162.26 -350.12,-246.45 120.64,69.26 239.95,142.97 359.75,214.45 119.62,73.11 239.24,146.25 358.3,221.05 132.57,82.45 265.35,166.49 397.88,251.6l0.83 0.39c99.22,63.19 198.51,126.91 297.8,190.64 78.22,-87.93 156.74,-176.41 235.49,-263.36l0.62 -1.13c104.96,-117 210.03,-233.42 315.95,-348.94 94.79,-103.41 190.01,-206.37 285.77,-308.3 96.64,-101.05 191.86,-203.97 289.56,-303.04z"/>
   <path class="fil3" d="M1467.03 7803.81l-2.68 3.07c-11.8,13.3 -23.59,26.56 -35.46,39.45 -56.41,62.52 -114.66,122.93 -174.25,182.03 -72.5,72.89 -147.27,143.35 -222.46,213.46 -75.74,69.04 -151.93,137.74 -230.31,204.43 -78.4,66.72 -157.7,132.34 -240.7,193.81 67.91,-78.08 139.48,-151.97 212.03,-224.47 72.87,-72.97 147.63,-143.43 222.46,-213.5 76.08,-69.47 152.24,-138.2 230.63,-204.88 62.34,-53.18 125.93,-105.81 191.42,-155.95 15.12,-11.79 30.28,-23.18 45.82,-34.65l3.51 -2.78z"/>
   <path class="fil3" d="M3090.92 8295.09c-96.41,-37.02 -190.8,-78.97 -283.8,-122.3 -93.4,-43.26 -185.17,-89.05 -277.01,-135.24 -91.24,-47.46 -182.15,-95.29 -271.52,-146.14 -72.86,-41 -145.11,-83.23 -215.81,-128.39 -15.3,-9.6 -30.23,-19.23 -45.16,-28.86l-3.42 -2.26 4.08 1.41c18.1,7.23 35.79,14.15 53.48,21.45 76.52,30.76 151.49,64.5 226.21,99.04 93.37,43.26 185.17,89.05 276.68,135.69 91.22,47.43 182.14,95.3 271.5,146.11 89.68,50.39 178.44,102.42 264.77,159.48z"/>
   <g>
    <polygon class="fil0" points="14234.81,2738.48 11931.73,2354.14 12175.47,893.58 14478.54,1277.91 "/>
    <path class="fil3" d="M14478.54 1277.91c-107.9,73.42 -216.88,142.79 -325.2,214.7 -108.71,69.93 -217.77,139.75 -327.04,208.62 -114.04,71.91 -228.21,142.83 -342.39,213.29 -3.56,2.33 -6.81,4.65 -10.4,6.98 -100.98,61.99 -202.32,123.95 -303.68,185.91l-14.92 8.61 -11.01 -12.95c-75.75,-91.48 -151.15,-182.94 -226.44,-274.85 -2.72,-2.86 -5.36,-6.21 -8.01,-9.56 -85.42,-103.73 -170.41,-207.92 -254.85,-313.45 -80.69,-100.02 -161.17,-201.54 -241.3,-302.94 -79.1,-103.19 -159.65,-204.21 -237.83,-308.68 86.19,92.75 170.02,188.98 254.88,283.46 84.26,95.83 168.47,191.66 251.86,288.75 92.96,107.44 185.69,216.29 277.95,326.02l0.6 0.6c69.23,81.68 138.35,163.85 207.47,246.02 91.69,-55.32 183.82,-111.07 275.7,-165.4l0.88 -0.81c122.79,-73.39 245.49,-146.28 368.77,-218.12 110.27,-64.32 220.8,-128.11 331.52,-190.92 111.29,-61.74 221.82,-125.53 333.46,-185.27z"/>
    <path class="fil3" d="M12958.07 1825.68l-3.17 1.94c-13.87,8.36 -27.66,16.72 -41.46,24.73 -65.91,39.13 -132.81,75.96 -200.55,111.21 -82.7,43.79 -166.67,84.86 -251.01,125.58 -84.43,39.55 -169.18,78.75 -255.31,115.55 -86.12,36.84 -172.77,72.51 -261.48,103.52 80.05,-49.54 162.23,-94.49 244.82,-137.92 83.02,-43.76 167.03,-84.82 250.97,-125.54 84.85,-39.91 169.57,-79.11 255.73,-115.91 68.52,-29.42 138.03,-58.01 208.46,-83.94 16.33,-6.17 32.56,-11.99 49.15,-17.74l3.84 -1.48z"/>
    <path class="fil3" d="M14237.11 2690.7c-73.85,-58.18 -144.56,-120.1 -213.75,-182.84 -69.47,-62.8 -136.93,-127.37 -204.32,-192.29 -66.51,-65.84 -132.59,-131.99 -196.56,-200.23 -52.29,-55.29 -103.69,-111.5 -152.95,-169.85 -10.72,-12.45 -21.1,-24.87 -31.5,-37.26l-2.33 -2.86 3.17 2.29c13.76,11.19 27.24,21.98 40.69,33.09 58.22,47.39 114.28,96.92 169.92,147.06 69.47,62.81 136.89,127.41 203.9,192.61 66.51,65.84 132.63,131.96 196.59,200.23 64.36,67.99 127.48,137.15 187.15,210.04z"/>
   </g>
   <path class="fil0" d="M14105.11 13663.08c0,494.03 -2997.33,894.56 -6694.68,894.56 -3697.39,0 -6694.71,-400.53 -6694.71,-894.56 0,-494.07 2997.32,-894.57 6694.71,-894.57 3697.35,0 6694.68,400.5 6694.68,894.57z"/>
   <polygon class="fil4" points="-0,12144.79 1852.59,12136.21 3705.2,12133.07 7410.43,12127.17 11115.61,12133.03 12968.23,12136.14 14820.82,12144.79 12968.23,12153.38 11115.61,12156.5 7410.43,12162.37 3705.2,12156.46 1852.59,12153.32 "/>
   <path class="fil5" d="M868.73 14005.35c76,24.52 2244.01,1.59 2326.15,-51.48 31.24,-19.99 46.33,-335.96 53.7,-718.21 1.61,-82.59 2.75,-167.81 3.44,-254.42 5.1,-562.13 -2.62,-1158.76 -2.62,-1158.76l-1450.29 11.15 42.54 1158.44 9.15 254.31c0,0 -826.16,379.99 -909.99,447.95 -83.36,67.95 -148.07,286.46 -72.07,311.01z"/>
   <path class="fil0" d="M868.79 14005.28c75.92,24.67 2243.84,1.59 2325.99,-51.27 31.31,-20.35 46.56,-336.07 53.61,-718.32 1.96,-82.55 3.14,-167.84 3.52,-254.31 0.79,-89.2 1.17,-179.21 1.57,-267.63l-1422.19 0 10.17 278.21 9.38 254.29c0,0 -826.32,380.3 -910.05,447.97 -83.34,68.1 -147.9,286.4 -72,311.05z"/>
   <path class="fil2" d="M862.16 14008.49c76.44,24.7 2256.55,1.66 2339.15,-51.75 38.17,-24.67 52.66,-488.53 57.46,-978.05l-1418.25 10.9 9.18 255.71c0,0 -830.76,382.18 -915.04,450.44 -83.85,68.35 -148.92,288.09 -72.5,312.74z"/>
   <path class="fil4" d="M892.52 13920.96c365.35,-12.82 1840.19,-30.14 2202.32,-15.04l0.01 2.3c-361.85,20.63 -1836.77,25.97 -2202.29,18.73 -7.7,-0.14 -7.76,-5.72 -0.04,-5.99z"/>
   <path class="fil4" d="M1797.32 13164.64c143.54,-28.33 319.67,-8.15 430.63,93.14 4.3,3.91 -1.34,9.98 -6.01,8.57 -142.37,-43.22 -275.16,-70.52 -423.83,-83.54 -10.49,-0.93 -11.06,-16.13 -0.79,-18.17z"/>
   <path class="fil4" d="M1694.19 13228.29c143.52,-28.36 319.65,-8.11 430.63,93.18 4.3,3.91 -1.35,9.95 -6.03,8.53 -142.36,-43.22 -275.16,-70.53 -423.83,-83.55 -10.47,-0.91 -11.03,-16.12 -0.77,-18.16z"/>
   <path class="fil4" d="M1591.04 13291.97c143.51,-28.4 319.67,-8.19 430.63,93.1 4.28,3.95 -1.35,10.02 -6.01,8.61 -142.36,-43.25 -275.16,-70.53 -423.86,-83.59 -10.48,-0.91 -11.03,-16.12 -0.76,-18.12z"/>
   <path class="fil4" d="M1487.9 13355.62c143.53,-28.36 319.66,-8.16 430.63,93.14 4.31,3.95 -1.34,9.94 -6.01,8.54 -142.37,-43.2 -275.17,-70.54 -423.85,-83.55 -10.47,-0.92 -11.04,-16.12 -0.77,-18.13z"/>
   <path class="fil4" d="M1557 12923.68c-27.01,-157.53 143.25,-76.49 186.44,-38 27.75,24.74 53.01,53.31 77.08,81.57 50.46,59.18 91.53,124.45 135.58,188.14 -57.27,-24.6 -116.13,-44.04 -174.27,-66.48 -69.26,-26.75 -209.93,-78.4 -224.82,-165.23zm37.83 115.31c102.55,78.04 235.28,108.97 354.5,151.68 12.37,4.41 22.05,-7.27 22.36,-18.2l3.34 -5.22c-40.44,-119.72 -126.88,-246.41 -224.95,-327.12 -60.57,-49.78 -166.18,-83.68 -221.86,-5.25 -52.7,74.17 6.73,158.55 66.61,204.11z"/>
   <path class="fil4" d="M2146.63 13130.44c-61.77,8.15 -123.55,13.26 -185,23.71 57.78,-51.55 113.03,-105.35 175.96,-151.09 30.02,-21.79 61.3,-43.61 94.07,-61.14 51,-27.26 235.53,-66.08 172.31,80.66 -34.84,80.94 -183.75,98.11 -257.36,107.86zm306.17 -187.43c-35.71,-89.29 -146.31,-81.14 -216.89,-46.96 -114.28,55.4 -228.04,158.28 -295.46,265.19l2.03 5.82c-2.26,10.72 4.41,24.35 17.46,22.93 125.91,-13.55 262.21,-12.38 380.19,-64.17 68.9,-30.24 146.47,-98.31 112.67,-182.82z"/>
   <path class="fil6" d="M3685.66 5615.43c0,0 -422.94,3561.44 -431.95,3609.46 -1.34,6.35 120.14,3806.16 120.14,3806.16l-1581.48 0c0,0 -42.85,-3329.87 15.9,-3892.92 74.76,-718.25 546.04,-3522.7 546.04,-3522.7l1331.36 0z"/>
   <path class="fil4" d="M3282.9 12706.03c-242.93,-5.04 -173.15,-7.03 -416.15,-9.35 -118.91,-1.17 -900.34,-7.97 -1011.43,10.44l0 4.9c111.12,18.42 892.53,11.61 1011.43,10.48 242.99,-2.33 173.21,-4.34 416.15,-9.39 4.57,-0.07 4.57,-7.01 0,-7.08z"/>
   <path class="fil4" d="M3044.82 8933.21c22.13,-201.26 51.05,-401.84 77.46,-602.55 53.18,-404.31 106.45,-808.54 160.94,-1212.67 61.79,-458.18 127.51,-915.66 192.56,-1373.31 0.77,-5.57 9.52,-5.5 8.84,0.21 -49.01,408.58 -98.11,817.02 -148.61,1225.41 -50.05,404.52 -103.53,808.6 -156.27,1212.77 -52.3,400.64 -121.42,802.78 -119.56,1207.8 0.95,203.72 9.8,407.52 15.44,611.17 5.64,203.86 11.45,407.73 16.89,611.63 12.34,461.39 29.82,1448.74 25.23,1910.35 -0.04,6 -8.76,5.57 -9.14,-0.22 -27.94,-411.36 -36.74,-1349.27 -50.3,-1761.31 -13.41,-407.59 -27.95,-815.34 -36.72,-1223.07 -4.36,-202.95 1.03,-404.38 23.22,-606.2z"/>
   <path class="fil5" d="M4674.53 13932.5c76.67,-22.34 1858.8,-1257.17 1897.01,-1347.17 14.64,-34.08 -150.05,-304.13 -358.33,-624.79 -44.99,-69.22 -91.84,-140.46 -139.82,-212.54 -311.05,-468.27 -652.03,-957.9 -652.03,-957.9l-1194.5 822.58 684.92 935.24 150.16 205.43c0,0 -470.85,777.98 -502.15,881.21 -30.9,103.02 38.04,320.24 114.75,297.93z"/>
   <path class="fil0" d="M4674.53 13932.38c76.67,-22.16 1858.62,-1257.09 1897.05,-1346.92 14.5,-34.35 -149.95,-304.34 -358.51,-624.78 -44.67,-69.41 -91.52,-140.72 -139.72,-212.51 -49.36,-74.32 -99.49,-149.04 -148.79,-222.46l-1177.46 797.63 164.42 224.61 150.37 205.24c0,0 -470.85,778.3 -502.18,881.33 -30.83,103.09 38.18,320.05 114.82,297.85z"/>
   <path class="fil2" d="M4670.86 13938.81c77.13,-22.43 1869.2,-1264.18 1907.6,-1354.74 17.78,-41.78 -230.36,-433.96 -500.91,-841.97l-1168.14 804.42 151.05 206.54c0,0 -473.5,782.33 -504.97,886.16 -31.11,103.55 38.25,322.03 115.38,299.58z"/>
   <path class="fil4" d="M4646.87 13849.33c295.31,-215.59 1506.68,-1056.97 1814.95,-1247.64l1.3 1.91c-288.01,220.01 -1506.14,1051.63 -1812.83,1250.64 -6.49,4.18 -9.63,-0.39 -3.42,-4.91z"/>
   <path class="fil4" d="M4971.85 12715.66c102.92,-103.94 260.08,-186.02 408.76,-164.35 5.78,0.82 4.51,9 -0.18,10.45 -142.12,44.07 -267.38,95.89 -397.78,168.5 -9.17,5.12 -18.17,-7.15 -10.8,-14.6z"/>
   <path class="fil4" d="M4922.17 12826.24c102.92,-104.01 260.07,-186.05 408.76,-164.42 5.75,0.84 4.48,9.03 -0.18,10.47 -142.12,44.05 -267.38,95.9 -397.78,168.55 -9.21,5.08 -18.17,-7.15 -10.8,-14.6z"/>
   <path class="fil4" d="M4872.47 12936.73c102.91,-103.97 260.07,-185.97 408.75,-164.38 5.75,0.88 4.48,9.04 -0.18,10.49 -142.08,44.04 -267.37,95.92 -397.74,168.54 -9.21,5.08 -18.21,-7.19 -10.83,-14.65z"/>
   <path class="fil4" d="M4822.75 13047.32c102.91,-103.98 260.11,-186.02 408.79,-164.37 5.75,0.84 4.48,8.98 -0.18,10.43 -142.12,44.08 -267.37,95.93 -397.78,168.51 -9.17,5.15 -18.17,-7.17 -10.83,-14.57z"/>
   <path class="fil4" d="M4637.72 12650.94c-110.72,-115.26 75.75,-143.62 133.09,-136 36.81,4.93 73.74,14.43 109.56,24.3 74.94,20.7 145.54,51.69 217.73,79.73 -61.18,11.76 -120.85,28.65 -181.57,42.71 -72.33,16.68 -217.77,52.85 -278.81,-10.74zm96 74.27c128.65,7.13 255.91,-41.77 378.55,-73.28 12.73,-3.24 14.22,-18.34 8.32,-27.58l-0.17 -6.21c-100.62,-76.42 -243.24,-132.8 -369.69,-144.59 -78.08,-7.3 -184.54,23.84 -186.65,120.04 -2.01,90.96 94.52,127.51 169.63,131.63z"/>
   <path class="fil4" d="M5241.87 12491.44c-46.57,41.42 -94.87,80.27 -139.86,123.38 18.88,-75.08 34.47,-150.58 60.94,-223.73 12.66,-34.91 26.28,-70.49 43.61,-103.4 26.92,-51.16 157.96,-186.82 187.89,-29.85 16.54,86.55 -97.06,184.29 -152.57,233.61zm148.4 -326.87c-79.66,-53.91 -166.67,14.89 -205.91,82.78 -63.58,109.97 -100.06,258.9 -95.93,385.21l4.98 3.71c4.12,10.15 17.28,17.71 27.3,9.2 96.64,-81.85 210.14,-157.32 278.77,-266.38 40.12,-63.66 66.12,-163.54 -9.21,-214.53z"/>
   <path class="fil6" d="M2354.3 5615.43c0,0 246.07,759 524.64,1141.82 0,0 72.69,2806.39 186.11,3128.73 187.92,534.12 1649.34,2692.78 1649.34,2692.78l1339.19 -924.87c0,0 -1400.58,-2027.17 -1473.76,-2221.11 -48.62,-128.79 -190.18,-2353.33 -169.77,-2409.14 245.56,-673.3 -124.66,-1408.21 -124.66,-1408.21l-1931.09 0z"/>
   <path class="fil4" d="M5767.83 11371.73c-202.84,133.83 -146.53,92.55 -347.89,228.64 -98.5,66.54 -745.56,504.72 -826.57,582.93l2.79 4.07c101.92,-47.93 741.25,-497.28 838.46,-565.77 198.71,-139.93 140.14,-101.89 337.23,-244.04 3.71,-2.64 -0.21,-8.33 -4.02,-5.83z"/>
   <path class="fil4" d="M4240.62 6942.35c19.93,-87.5 42.03,-174.68 55.29,-263.53 13.41,-89.8 16.51,-180.76 11.29,-271.33 -10.55,-183.44 -51.09,-364.47 -99.03,-541.35 -12.03,-44.32 -24.63,-88.38 -37.76,-132.38 -2.37,-7.97 10.05,-10.97 12.45,-3.1 53.88,173.9 108.75,347.64 136.23,528.1 26.67,174.93 22.15,348.77 -13.55,522.01 -36.59,177.3 -88.17,350.29 -81.25,533.23 3.56,94.84 116.5,1858.13 116.36,1949.58 -0.1,89.83 3.92,180.26 35.61,265.33 30.66,82.1 79.24,156.55 124.76,230.92 48.17,78.86 96.95,157.26 145.93,235.58 193.07,308.48 634.84,932.42 840.68,1232.53 26.11,38.04 52.3,76.03 78.58,113.93 2.71,3.95 -3.71,7.3 -6.42,3.57 -216.22,-298.14 -668.78,-918.63 -868.06,-1228.44 -97.7,-151.93 -197.59,-304.06 -286.46,-461.4 -41.96,-74.27 -74.13,-152.07 -85.24,-237.17 -11.15,-85.2 -130.62,-2127.16 -123.5,-2218.85 6.78,-86.9 24.8,-172.43 44.11,-257.25z"/>
   <path class="fil4" d="M3629.63 5872.89c33.3,136.79 28.39,307.59 125.64,419.94 48.16,55.6 118.2,83.47 188.7,98.15 80.86,16.86 163.39,18.8 245.59,13.55 3.6,-0.22 3.74,5.04 0.64,6.03 -146.74,46.79 -350.46,38.92 -461.54,-82 -51.09,-55.6 -73.7,-128.82 -84.68,-202.03 -12.41,-82.59 -19.58,-169.53 -20.39,-252.98 -0.03,-3.46 5.22,-3.99 6.04,-0.67z"/>
   <path class="fil4" d="M2869.29 6762.26c1.11,-13.48 20.1,-12.53 21.31,0.53 5.84,62.03 4.82,124.51 6.71,186.79 1.77,58.96 3.02,117.92 4.62,176.9 3.22,121.13 5.8,242.32 8.61,363.48 5.61,242.39 12.64,484.61 22.75,726.79 10.1,242.14 21.07,484.33 33.3,726.36 6.11,120.95 13.44,241.83 20.43,362.71 6.71,116.47 13.8,233.21 36.03,348.1 45.39,234.27 137.77,465.21 262.59,670.58 2.97,4.9 -4.55,8.54 -7.8,4.2 -130.99,-175.81 -222.89,-370.05 -273.98,-581.32 -54.77,-226.44 -60.51,-461.15 -73.57,-692.46 -27.62,-488.99 -45.54,-978.11 -57.79,-1467.7 -3.46,-137.42 -6.47,-275.03 -6.87,-412.53 -0.19,-67.1 -0.55,-134.25 -0.09,-201.36 0.45,-70.24 -1.95,-141.06 3.74,-211.09z"/>
   <path class="fil4" d="M2622.07 6643.75c161.11,52.89 316.62,127.97 465.33,206.69 5.81,3.07 1.98,11.71 -4.33,9.1 -156.76,-64.18 -316.59,-125.61 -469.44,-197.98 -12.02,-5.64 -3.92,-21.87 8.44,-17.81z"/>
   <path class="fil4" d="M2574.86 5619.87c0.45,-5.18 9.95,-6.35 9.91,-0.74 -1.27,177.44 10.6,333.6 26.3,499.43 7.26,77.02 72.22,502.53 212.22,471.52 23.45,-5.18 35.4,-27.2 39.1,-60.9 4.41,-40.51 -11.57,-90.21 -18.59,-130.51 -15.53,-89.05 -28.03,-178.43 -36.04,-268.43 -14.97,-167.95 -15.71,-335.93 5.7,-503.38 0.69,-5.5 9.03,-5.08 9.01,0.49 -0.19,232.51 6.18,464.61 42.64,694.9 17.53,110.68 75.98,277.32 -45.42,294.36 -123.64,17.32 -203.59,-261.76 -218.68,-338.12 -42.13,-213.07 -43.79,-443.07 -26.15,-658.62z"/>
   <path class="fil4" d="M2819.59 6601.55c12.64,28.57 22.82,58.32 31.47,88.2 6.73,23.21 15.87,48.27 13.08,72.47 -0.54,4.73 -7.04,5.15 -9.67,2.01 -16.41,-19.86 -23.36,-47.03 -32.54,-70.56 -10.64,-27.27 -21.91,-54.38 -31.73,-81.93 -6.54,-18.27 21.58,-27.83 29.39,-10.19z"/>
   <path class="fil5" d="M1911.37 3832.73c-190.2,318.74 -900.46,1709.49 -736.8,2105.61 100.72,243.8 382.42,152.35 536.28,61.32 180.25,-106.66 459.84,-1670.11 477.94,-1981.72 17.2,-296.76 -90.54,-498.44 -277.41,-185.21z"/>
   <path class="fil2" d="M1259.86 5105.59l825.52 -203.44c0,0 86.85,-453.31 113.2,-930.05 26.33,-476.74 -145.53,-417.36 -466.59,90 -321.08,507.37 -472.13,1043.49 -472.13,1043.49z"/>
   <path class="fil3" d="M1978.3 4200.31c-28.54,13.51 -56.7,28.54 -81.95,50.14 32.93,-4.41 62.92,-15.03 92.19,-27.45 28.54,-13.55 56.72,-28.19 81.98,-50.14 -32.94,4.02 -62.95,14.99 -92.22,27.45zm37.33 -505.64l0 0.35c-7.32,22.34 -13.18,45.03 -14.64,69.9 20.49,-26.35 33.66,-54.87 45.74,-84.54 1.47,-3.98 2.93,-7.65 4.03,-11.67 -10.96,6.95 -22.68,15.73 -35.12,25.96zm-455.5 964.07c-10.97,29.99 -20.12,60.37 -22.33,93.67 20.49,-26.35 33.67,-55.25 45.75,-84.53 10.97,-29.99 20.12,-60.02 22.31,-93.29 -20.12,26.36 -33.65,54.87 -45.73,84.15z"/>
   <path class="fil4" d="M2050.99 4748.92c-296.8,98.4 -618.89,154.04 -674.72,168.01l-0.28 -4.44c55.19,-10.69 420.13,-117.18 674.68,-168.51l0.32 4.94z"/>
   <path class="fil7" d="M2085.39 4902.08c0.97,-5.11 50.16,-263.28 85.43,-593.31 -35.59,333.25 -85.32,593.28 -85.32,593.28l-0.11 0.03z"/>
   <path class="fil2" d="M1711.58 4994.24l52.85 -163.11c91.55,-22.93 190.39,-50.32 286.56,-82.21l-0.32 -4.94c-85.83,17.32 -184.23,40.9 -279.06,64.96l185.88 -573.77c10.5,-3.7 20.81,-7.83 31.05,-12.17 28.54,-13.55 56.72,-28.19 81.98,-50.14 -32.94,4.02 -62.95,14.99 -92.22,27.45 -3.76,1.76 -7.54,3.6 -11.28,5.43l178.12 -549.88c44.65,31.11 63.31,134.67 53.44,316.13 -6.4,115.69 -16.34,229.97 -27.74,336.77 -35.27,330.04 -84.46,588.2 -85.43,593.31l-373.81 92.16z"/>
   <path class="fil7" d="M1957.49 4235.17l9.53 -29.42c3.74,-1.83 7.52,-3.67 11.28,-5.43 29.27,-12.46 59.28,-23.43 92.22,-27.45 -25.26,21.94 -53.44,36.59 -81.98,50.14 -10.24,4.34 -20.55,8.47 -31.05,12.17z"/>
   <path class="fil8" d="M1764.43 4831.13l7.18 -22.19c94.83,-24.06 193.23,-47.64 279.06,-64.96l0.32 4.94c-96.17,31.89 -195.01,59.28 -286.56,82.21z"/>
   <path class="fil9" d="M2228.87 6039.03l2136.72 -423.6c0,0 -703.4,-1445.5 -1735.83,-2006.6 -238.91,-129.88 -608.58,-35.31 -645.44,192.54 -126.84,783.81 244.55,2237.67 244.55,2237.67z"/>
   <path class="fil3" d="M2943.85 3812.13l-6.24 4.73c3.31,-0.35 6.6,-0.74 9.89,-1.8l-3.65 -2.93zm-244.41 1189.07c-28.9,13.16 -57.07,28.18 -81.95,50.14 32.91,-4.02 62.93,-15.03 91.85,-27.45 28.88,-13.16 57.07,-28.15 81.94,-50.1 -32.93,3.98 -62.57,14.95 -91.84,27.41zm-721.13 -800.88c-6.57,3.28 -13.53,6.59 -20.1,10.23l0 24.16c10.22,-3.31 20.47,-7.33 30.34,-11.71 28.54,-13.55 56.72,-28.19 81.98,-50.14 -32.94,4.02 -62.95,14.99 -92.22,27.45zm789.92 1532.65c-28.9,13.51 -57.08,28.15 -81.95,50.1 32.92,-4.02 62.92,-14.99 91.83,-27.44 28.9,-13.51 57.08,-28.51 81.95,-50.11 -32.92,4.02 -62.95,14.61 -91.83,27.45zm784.42 -818.49c-28.9,13.19 -57.08,27.79 -81.95,49.78 32.92,-4.02 62.94,-14.99 91.83,-27.44 28.89,-13.16 57.09,-28.19 81.96,-49.76 -32.92,3.67 -62.95,14.64 -91.84,27.42zm-506 -390.03c-13.54,-28.89 -28.53,-56.7 -50.12,-81.96 4.03,32.95 15,62.95 27.44,92.23 13.17,28.5 28.17,56.7 49.77,81.93 -4.04,-32.92 -14.65,-62.91 -27.09,-92.2zm1017.84 669.17c-13.51,-28.89 -28.54,-57.05 -50.1,-81.92 4.02,32.91 14.99,62.56 27.06,91.8 13.54,28.93 28.54,57.09 50.14,81.96 -4.02,-32.91 -14.64,-62.56 -27.1,-91.84zm-1730.55 -541.49c-29.63,-11.32 -60.01,-20.46 -93.29,-23.03 26.34,20.49 54.88,34.01 84.52,46.12 29.99,10.97 60.37,20.1 93.28,22.29 -26.34,-20.49 -54.88,-33.65 -84.51,-45.38zm1278.37 872.61c-29.63,-10.97 -60.01,-20.1 -93.31,-22.33 25.96,20.5 54.9,33.69 84.53,45.77 29.6,10.97 60.34,20.11 93.28,22.29 -26.35,-20.1 -54.9,-33.61 -84.5,-45.73zm-112.34 -1190.19c-8.79,-4.37 -17.55,-8.04 -26.33,-11.68 -30.02,-10.97 -60.39,-20.14 -93.31,-22.33 25.98,20.5 54.89,34.01 84.16,45.73 20.12,6.95 39.89,13.9 61.09,17.57 -8.41,-9.88 -16.82,-19.76 -25.6,-29.28zm-1495.68 -595.99c-1.46,8.78 -2.57,17.21 -3.3,26.35 20.49,-26.35 33.66,-54.87 45.74,-84.54l1.83 -5.46c-18.3,19.36 -33.28,40.61 -44.27,63.65zm1094.32 1552.05c-10.98,29.99 -20.12,60.34 -22.69,93.29 20.49,-25.97 34.02,-54.91 46.1,-84.15 10.99,-30.02 20.12,-60.37 22.33,-93.32 -20.49,26 -33.66,54.9 -45.74,84.18zm-727.37 132.81c-10.97,29.63 -20.48,59.98 -22.66,93.28 20.48,-26.35 34.01,-54.87 45.72,-84.5 10.97,-30.02 20.13,-60.37 22.69,-93.32 -20.48,26.35 -34.01,54.9 -45.75,84.54zm193.92 -1283.48c-11.33,29.98 -20.48,60.37 -22.68,93.67 20.5,-26.35 34.02,-55.26 45.74,-84.54 10.97,-29.63 20.13,-60.01 22.69,-93.28 -20.49,26.35 -34.01,54.87 -45.75,84.15z"/>
   <path class="fil5" d="M2611.58 3721.91c435.09,-137.54 1565.74,-444.28 1748.02,-785.22 239.18,-447.35 64.88,-1449.31 -55.75,-1617.65 -66.58,-92.89 -698.25,159.37 -764.58,261.98 -66.32,102.63 53.84,879.46 29.77,967.6 -24.06,88.1 -805.05,573.91 -1148.27,853.74 -432.97,352.89 -150.44,427.41 190.81,319.56z"/>
   <path class="fil9" d="M3760.63 3380.48l-708.81 -469.54c0,0 -260.24,186.01 -628.81,489.55 -368.58,303.53 -345.85,494.06 244.86,386.62 590.7,-107.48 1092.75,-406.64 1092.75,-406.64z"/>
   <path class="fil3" d="M2587.85 3506.96c-13.18,-28.89 -28.17,-56.7 -50.15,-81.92 4.04,32.88 15.01,62.91 27.44,92.19 13.19,28.89 28.17,56.7 50.14,81.96 -4.02,-33.3 -15.01,-62.95 -27.43,-92.23zm620.51 -195.01c-29.99,-10.97 -60.37,-20.1 -93.28,-22.33 25.95,20.5 54.87,33.69 84.13,45.77 30.01,10.97 60.38,20.11 93.31,22.29 -25.99,-20.46 -54.89,-33.65 -84.16,-45.73z"/>
   <path class="fil4" d="M2962.39 3040.04c273.4,151.68 532.51,350.96 580.62,382.53l-3.11 3.25c-45.23,-33.38 -370.75,-229.73 -580.93,-382.22l3.42 -3.56z"/>
   <path class="fil4" d="M2667.88 3787.11c30.19,-11.47 60.58,-19.19 91.3,-26.25 30.8,-6.49 61.68,-12.45 94.01,-14.04 -28.74,14.92 -59.28,24.06 -90.22,31.26 -31.08,6.42 -62.74,11.11 -95.09,9.03z"/>
   <path class="fil4" d="M2715.49 3805.71c22.58,-17.04 46.51,-28.22 70.67,-41.95 -7.6,12.27 -19.84,20.14 -31.6,27.37 -12.36,6.39 -24.99,12.31 -39.07,14.57z"/>
   <path class="fil5" d="M1414.22 6089.46c-256.12,-22.79 -306.56,-396.48 -176.93,-520.84 325.1,-311.87 998.03,-530.05 1264.32,-602.96 118.31,-32.38 987.96,251.29 879.88,440.44 -173.98,304.52 -1451.31,729.25 -1967.27,683.36z"/>
   <path class="fil5" d="M2512.11 5269.76c0,0 -24.36,-260.11 82.58,-565.62 44.86,-128.14 188.3,-334.13 255.02,-406.14 99.81,-107.69 586.01,-494.31 682.29,-378.4 87.15,104.85 -372.73,383.94 -372.73,383.94 0,0 439.14,-322.66 520.85,-177.08 81.71,145.58 -479.8,391.86 -479.8,391.86 0,0 458.62,-321.43 519.17,-157.96 45.73,123.53 -450.28,375.23 -450.28,375.23 0,0 396.13,-273.52 448.62,-148.51 58.04,138.14 -385.24,399.2 -385.24,399.2 51.06,33.23 147.52,269.59 27.29,452.88 -20.87,31.82 -847.77,-169.39 -847.77,-169.39z"/>
   <path class="fil4" d="M3000.23 4405.44c50.2,-39.77 100.76,-80.37 154.35,-115.55 53.57,-35.14 108.41,-68.49 165.02,-98.51 138.86,-73.63 237.3,-98.04 231.37,-95.86 -139.94,51.31 -333.68,174.22 -387.27,209.41 -53.45,35.1 -108.69,67.53 -162.22,102.59l-1.25 -2.08z"/>
   <path class="fil4" d="M3123.71 4601.19c66.31,-47.98 130.39,-98.08 198.84,-143.17 68.12,-44.89 136.69,-81.47 207.72,-121.56 5.47,-3.06 5.33,0.89 -0.07,4.2 -69.35,42.88 -130.18,87.82 -199.04,131.54 -68.61,43.51 -139.45,84.67 -206.42,130.65l-1.03 -1.66z"/>
   <path class="fil4" d="M3199.47 4788.27c97.6,-78.54 212.01,-146 323.25,-202.67 5.54,-2.82 4.78,2.26 -0.7,5.47 -107.88,63.02 -195.38,118.73 -319.82,200.62l-2.73 -3.42z"/>
   <path class="fil4" d="M3642.04 4253.27c15.46,-17.99 30.98,-37.62 40.02,-59.77 8.89,-21.87 7.76,-42.1 1.52,-64.29l-2.09 0.74c11.12,22.09 -0.63,50.39 -12.66,69.58 -11.75,18.66 -26.07,35.99 -41,52.22 -15.45,16.83 -32.39,32.35 -50.04,46.86 -17.64,14.5 -34.71,29.35 -53.92,41.89l-0.12 0.07 -0.02 0.03 -0.05 0.04 -0.02 0.07 -0.24 1.09 0.02 0.04 1.34 0.63c31.06,-16.26 66.24,-23.92 101.13,-25.5 16.51,-0.74 34.19,-0.36 49.33,7.02 13.02,6.28 23.99,17.71 29.84,30.9 6.43,14.57 7.24,31.75 1.73,46.72 -5.32,14.57 -15.62,26.49 -25.71,38.04 -23.08,26.46 -47.64,51.72 -73.57,75.4 -14.36,13.08 -29.14,25.75 -44.28,37.89 -15.1,12.14 -31.4,23.08 -45.73,36.14l3.35 2.96c13.51,-4.06 111.78,-41.99 155.03,-27.62 24.31,8.04 39.52,25.65 41.46,50.7 1.94,25.23 -8.71,48.13 -21.87,68.98 -16.55,26.18 -61.15,76.92 -82.84,98.97l1.73 1.37c22.4,-22.15 70.67,-69.96 90.11,-94.87 16.12,-20.67 28.01,-46.22 26.7,-72.97 -1.23,-24.37 -13.93,-48.16 -36.13,-59.34 -22.62,-11.36 -49.76,-7.98 -73.67,-3.32 -17.4,3.39 -75.79,23.18 -87.4,28.54 11.19,-6.95 63.02,-46.26 77.8,-58.82 29.39,-25.01 57.2,-51.97 82.84,-80.83 22.62,-25.43 38.78,-56.28 25.54,-90.57 -12.41,-32.24 -43.79,-47.03 -76.74,-47.38 -26.1,-0.32 -51.19,4.97 -75.08,14 6.85,-4.27 13.59,-8.71 19.94,-13.69 19.65,-15.34 37.47,-32.98 53.73,-51.9z"/>
   <path class="fil4" d="M1330.2 5488.9c46.91,-43.22 98.47,-81.01 151.28,-116.72 52.74,-35.88 107.77,-68.34 164.1,-98.25 56.56,-29.46 114.05,-57.38 173.56,-80.41 59.03,-24.1 119.69,-44.15 181.24,-60.44 -57.9,26.67 -116.22,51.3 -173.08,79.06 -57.07,27.24 -113.59,55.47 -169.34,85.14 -56.09,29.07 -110.85,60.58 -165.7,92.05 -54.66,31.89 -108.57,65.06 -162.05,99.56z"/>
   <path class="fil5" d="M2124.98 3997.4c117.42,2.39 265.68,-227.08 311.67,-381.76 3.11,-10.62 -26.11,-89.97 -64.35,-209.76 -22.9,-72.78 -46.71,-154.36 -63.05,-230.39 -3.28,-15.59 -451.82,218.33 -451.82,218.33 0,0 81.12,149.24 108.8,281.94 2.19,11.12 3.31,21.66 3.43,31.89l0.41 5.33c3.09,61.29 41.42,282.02 154.91,284.42z"/>
   <path class="fil4" d="M2019.56 3704.97c-17.74,4.27 -34.07,6.95 -49.45,7.94l-0.44 -5.33c-0.08,-10.19 -1.25,-20.74 -3.52,-31.89 -27.66,-132.56 -108.69,-281.84 -108.69,-281.84 0,0 364.06,-189.93 438.59,-216.17 4.16,90.99 3.32,460.61 -276.5,527.29z"/>
   <path class="fil5" d="M2137.81 2601.26c113.69,140.57 216.08,637.85 143.75,787.16 -104.82,216.5 -369.68,340.13 -577.13,192.75 -201.08,-142.79 -323.06,-793.26 -233.58,-938.55 131.78,-213.96 499.04,-248.96 666.96,-41.36z"/>
   <path class="fil4" d="M1874.93 3052.17l3.2 2.4c6,33.69 18.54,71.27 51.16,75.97l0.12 1.94c-38.04,2.61 -54.21,-47.46 -54.48,-80.31z"/>
   <path class="fil4" d="M1897.44 3010.89c52.97,-15.42 79.95,91.62 30.88,105.95 -48.28,14.07 -75.26,-93 -30.88,-105.95z"/>
   <path class="fil4" d="M1676.29 3097.44l-1.83 3.57c9.41,32.88 14.66,72.15 -12.56,90.71l0.75 1.8c35.29,-14.4 27.81,-66.44 13.64,-96.08z"/>
   <path class="fil4" d="M1637.93 3070.27c-54.36,9.38 -31.56,117.43 18.8,108.71 49.56,-8.57 26.76,-116.61 -18.8,-108.71z"/>
   <path class="fil4" d="M1926.31 2936.8c-15.31,2.46 -29.85,2.15 -45.24,2.99 -17.36,0.96 -31.11,3.5 -46.74,-5.75 -8.35,-4.94 -11.69,-18.87 -7.66,-27.44 9.46,-20.01 30.44,-26.46 51.31,-28.44 22.62,-2.18 40.63,1.94 59.54,14.5 18.3,12.21 8.98,40.93 -11.21,44.15z"/>
   <path class="fil4" d="M1582.94 3026.81c14.23,-6.14 26.32,-14.22 39.76,-21.77 15.19,-8.5 28.12,-13.72 36.32,-29.91 4.41,-8.68 -0.22,-22.23 -8.26,-27.27 -18.69,-11.82 -39.87,-6 -58.54,3.52 -20.26,10.31 -33.25,23.43 -42.44,44.22 -8.89,20.11 14.39,39.34 33.16,31.22z"/>
   <path class="fil4" d="M1971.04 3343.33c-6,9.77 -11.22,22.47 -23,26.52 -11.3,3.85 -26.13,2.09 -37.74,0.64l-1.02 2.05c11.81,10.54 31.93,13.97 46.64,7.37 14.35,-6.39 18.5,-21.24 18.69,-35.89l-3.57 -0.7z"/>
   <path class="fil4" d="M1911.14 3252.83c-11.3,33.48 -34.63,56.1 -62.7,69.26 -12.5,5.96 -26.25,9.91 -40.16,12.1l-7.97 1.06 -7.55 0.7c-4.01,0.43 -6.95,-2.26 -8.53,-5.75l-0.04 -0.24 -0.57 -3.46 -0.04 -0.25 -0.67 -2.93c-7.13,-25.36 -14.46,-64.81 -14.46,-64.81 -8.14,7.02 -50.32,40.44 -52.92,26.88 -21.26,-112.1 -44.9,-236.74 -42.36,-352.76 -0.11,-3.81 5.67,-4.37 6.25,-0.67 24.7,106.91 30.42,217.45 53.51,325.24 13.71,-9.59 35.78,-26.49 49.22,-29.6 3.87,0.15 12.76,76.5 16.88,87.61l0.52 1.16c44.29,-5.29 73.35,-26.42 107.74,-65.73l3.85 2.19z"/>
   <path class="fil4" d="M1823.27 3317.89c0,0 29.59,22.47 61.71,24.34 11.85,0.71 23.85,-1.13 34.99,-7.9 22.96,-13.76 16.94,-36.77 6.68,-54.97 -8.38,-14.96 -19.85,-26.6 -19.85,-26.6 0,0 -26.38,44.53 -83.53,65.13z"/>
   <path class="fil10" d="M1884.98 3342.23c11.85,0.71 23.85,-1.13 34.99,-7.9 22.96,-13.76 16.94,-36.77 6.68,-54.97 -25.85,10.51 -46.95,36.31 -41.68,62.87z"/>
   <path class="fil4" d="M2337.04 2961.57c-125.3,55.57 -247.88,-73.42 -262.47,-207.64 0,0 -325.37,169.11 -441.09,-99.35 0,0 -24.03,143.42 -177.62,203.62l-1.56 114.99c-38.73,2.57 -112.15,-83.55 -54.66,-192.79 0,0 -43.61,-138.91 27.48,-257.53 71.09,-118.59 190.83,-100.91 190.83,-100.91 0,0 55.93,-95.93 187.71,-125.43 131.76,-29.46 225.17,66.58 225.17,66.58 0,0 181.04,-28.93 253.42,80.9 72.39,109.8 39.42,212.97 39.42,212.97 0,0 59.6,31.85 75.18,142.29 10.04,71.03 -24.21,145.61 -61.81,162.3z"/>
   <path class="fil4" d="M1632.21 2627.47c5.85,23.22 13.09,46.02 23.5,67.29 9.33,21.73 21.83,41.81 35.89,60.33 28.8,36.49 69.3,62.88 114.8,69.83 45.46,10.3 92.36,-2.47 137.46,-14.01 21.89,-8.67 44.61,-15.87 66.16,-25.85 21.43,-10.31 42.67,-21.14 64.56,-31.12 -19.9,13.23 -40.5,25.61 -60.88,38.53 -21.07,11.57 -43.69,20.36 -65.62,30.7 -45.79,14.49 -94.82,27.94 -144.62,18.34 -49.18,-8.82 -94.09,-38.25 -122.19,-78.68 -27.96,-40.47 -44.17,-87.67 -49.06,-135.35z"/>
   <path class="fil4" d="M2030.84 2363.1c43.08,-15.17 89.47,-21.63 135.88,-18.28 46.26,3.11 93.25,20.57 127.71,54.27 16.5,17.46 29.55,37.3 39.46,58.43 10.6,20.85 17.68,43.72 20.59,66.97 6.27,46.47 -4.3,95.08 -30.8,132.49 20.26,-40.72 26.39,-87.29 18,-130.48 -8.45,-42.66 -28.94,-84.99 -59.17,-115.55 -15.09,-15.49 -33.46,-27.52 -53.39,-36.46 -20.27,-8.18 -41.68,-13.97 -63.77,-16.82 -44.15,-5.86 -89.84,-3.04 -134.51,5.43z"/>
   <path class="fil4" d="M1617.96 2421.95c-36.88,0.25 -73.41,5.47 -107.46,16.94 -33.94,11.57 -65.21,30.16 -88.69,56.34 -23.55,26.11 -38.32,59.32 -46.44,94.31 -7.74,35.1 -9.6,71.91 -6.75,108.71 -9.78,-35.78 -11.38,-73.81 -5.96,-111.14 5.44,-37.37 20.92,-74.06 46.63,-103.13 26.08,-28.5 60.85,-48.31 97.5,-57.41 36.57,-9.45 74.7,-11.32 111.17,-4.62z"/>
   <path class="fil4" d="M1513.45 2849.86c33.02,-27.62 62.21,-58.01 83.46,-93.35 11.15,-17.4 18.78,-36.56 24.89,-56.21 6.65,-19.83 7.77,-40.76 9.92,-62.35 4.82,20.92 7.07,43.37 2.7,65.17 -3.46,21.87 -11.47,43.19 -23.11,62.06 -11.7,18.84 -25.92,36.07 -42.69,50.21 -16.66,14.19 -34.9,26.57 -55.18,34.47z"/>
   <path class="fil11" d="M1560.82 3017.95c-44.98,9.53 -68.86,77.34 -53.22,151.15 15.64,73.85 64.97,126.14 109.94,116.62 44.98,-9.53 68.83,-77.31 53.18,-151.12 -15.64,-73.84 -64.93,-126.17 -109.9,-116.65zm61.11 288.51c-56.38,11.92 -116.97,-47.71 -135.05,-132.95 -18.05,-85.24 13.16,-164.34 69.56,-176.26 56.38,-11.96 116.96,47.7 135.01,132.94 18.05,85.24 -13.13,164.31 -69.52,176.27z"/>
   <path class="fil11" d="M1907.4 2944.53c-68.18,14.46 -110.92,86.27 -95.27,160.08 15.63,73.84 83.81,122.15 151.99,107.72 68.23,-14.46 110.95,-86.26 95.32,-160.08 -15.64,-73.84 -83.84,-122.18 -152.04,-107.72zm61.1 288.51c-79.59,16.86 -159.04,-38.78 -177.1,-124.02 -18.06,-85.25 32.02,-168.37 111.62,-185.21 79.62,-16.86 159.09,38.78 177.14,124.02 18.06,85.25 -32.01,168.33 -111.66,185.21z"/>
   <path class="fil11" d="M1795.36 3093.63c-83.14,-10.75 -112.78,21.95 -113,22.3l-16.25 -13.62c1.38,-1.73 36.1,-42.13 132,-29.67l-2.75 20.99z"/>
   <path class="fil11" d="M2066.89 3036.55l-8.13 -19.58c12.93,-5.3 220.39,-92.23 254.36,-101.4 35.7,-10.2 130.02,19.68 140.66,23.03l-6.37 20.22c-26.76,-8.5 -100.64,-28.79 -127.25,-23.18l-1.52 0.39c-26.12,7.05 -142.99,55.64 -251.75,100.52z"/>
   <path class="fil5" d="M2201.57 3015.8c0,0 48.09,-191.13 130.91,-179.59 82.83,11.57 86.76,260.6 17.76,321.18 -69.02,60.51 -126.32,-2.26 -126.32,-2.26l-22.35 -139.33z"/>
   <path class="fil4" d="M2331.84 2907.66l1.25 1.97c-47.7,44.28 -57.46,107.9 -57.62,170.02 8.82,-27.26 27.3,-47.38 62.85,-38.07l-0.38 3.56c-24.97,3.88 -40.11,14.22 -48.69,38.68 -6.05,17.28 -7.28,36.73 -9.46,54.86 -0.72,6.04 -10.83,6.81 -11.12,0.25l-0.05 -1.44c-28.8,-71.35 -11.21,-193.25 63.22,-229.83z"/>
   <path class="fil4" d="M1954.1 3795.97l1.66 -0.42c25.34,93.25 90.52,307.24 239.94,242.92 60.21,-25.9 104.33,-80.76 139.4,-131.78 36,-52.37 64.66,-108.82 88.19,-166.75 26.1,-64.32 52.61,-131.46 67.16,-198.68l4.63 1.24c-10.39,76.49 -27.79,136.05 -51.99,202.66 -23.26,64.15 -53.37,126.71 -93.96,183.37 -38.04,53.07 -85.86,109.1 -150.62,133.62 -61.61,23.32 -119.4,2.68 -156.15,-44.74 -48.29,-62.38 -75.44,-145.23 -88.26,-221.44z"/>
   <path class="fil5" d="M3440.64 1690.83c-40.16,-101.19 37.96,-161.42 37.96,-161.42 0,0 -131.89,-26.42 -155.27,-134.92 -12.02,-55.82 67.46,-124.8 67.46,-124.8 0,0 -104.71,-25.75 -119.51,-123.56 -11.77,-77.94 69.64,-135.38 69.64,-135.38 0,0 -88.39,-71.31 -74.7,-154.75 27.78,-169.21 688.41,-345.84 853.67,-132.21 77.02,99.57 -86.62,134.01 -86.62,134.01 0,0 246.84,6.74 285.69,140.6 38.88,133.93 -176.34,165.97 -176.34,165.97 0,0 239.11,8.6 265.26,151.57 27.2,148.86 -193.21,144.38 -193.21,144.38 0,0 172.74,59.31 167.45,173.58 -8.72,188.66 -364.62,49.3 -500.84,122.19l2.36 253.16c0,0 -398.55,-206.3 -442.99,-318.42z"/>
   <path class="fil4" d="M3352.48 999.81l-1.56 -3.17c203.55,-110.51 460.69,-170.35 691.09,-141.77 7.55,0.92 9.17,13.55 0.64,14.08 -243.55,15.69 -458.64,48.86 -690.17,130.86z"/>
   <path class="fil4" d="M3387.23 1269.2l-1.49 -4.59c210.34,-112.73 501.77,-172.21 763.11,-108.22 8.96,2.16 14.71,13.09 4.2,11.36 -177.15,-29.45 -557.75,26.53 -765.82,101.44z"/>
   <path class="fil4" d="M4232.15 1470.94c-253.05,-51.72 -498.15,-17.53 -745.15,53.43 -3.23,0.91 -4.18,-3.71 -1.69,-5.19 111.61,-67.29 273.66,-96.28 401.57,-108.29 122.5,-11.46 235.12,2.58 347.21,51.27 4.34,1.87 3.5,9.91 -1.94,8.78z"/>
   <path class="fil4" d="M10668.71 13006.45c0,328.91 -246.34,595.01 -550.17,595.01l-5431.04 0c-304.52,0 -550.87,-266.11 -550.87,-595.01l0 -11637.05c0,-670.09 246.34,-702.77 550.87,-702.77l1088.08 0c63.19,0 114.89,71.8 114.89,160.85l0 38.43c0,208.66 114.21,209.37 254.25,209.37l2515.86 0c141.52,0 255,-0.71 255,-209.37l0 -38.43c0,-89.05 50.98,-160.85 115.23,-160.85l1087.73 0c303.82,0 550.17,89.05 550.17,702.77l0 11637.05zm-230.54 -12736.26l-6071 0c-339,0 -614.06,279.72 -614.06,625.53l0 12497.12c0,345.05 275.06,625.55 614.06,625.55l6071 0c338.97,0 614.77,-280.5 614.77,-625.55l0 -12497.12c0,-345.81 -275.8,-625.53 -614.77,-625.53z"/>
   <path class="fil3" d="M10669.06 1379.63l0 11637.05c0,328.92 -246.37,595.01 -550.16,595.01l-5431.05 0c-304.52,0 -550.87,-266.1 -550.87,-595.01l0 -11637.05c0,-670.09 246.34,-702.77 550.87,-702.77l1088.08 0c63.2,0 114.92,71.8 114.92,160.89l0 38.39c0,208.66 114.18,209.37 254.26,209.37l2515.86 0c141.49,0 254.92,-0.71 254.92,-209.37l0 -38.39c0,-89.09 51.03,-160.89 115.31,-160.89l1087.7 0c303.78,0 550.16,89.05 550.16,702.77z"/>
   <path class="fil2" d="M10669.06 1379.77l0 1055.76 -6532.07 0 0 -1055.76c0,-670.09 246.34,-702.77 550.87,-702.77l1088.08 0c63.2,0 114.92,71.8 114.92,160.86l0 38.42c0,208.67 114.18,209.37 254.26,209.37l2515.86 0c141.49,0 254.92,-0.7 254.92,-209.37l0 -38.42c0,-89.06 51.03,-160.86 115.31,-160.86l1087.7 0c303.78,0 550.16,89.06 550.16,702.77z"/>
   <path class="fil3" d="M7745.99 814.68l-686.21 0c-23.46,0 -42.42,-18.95 -42.42,-42.42 0,-23.39 18.95,-42.37 42.42,-42.37l686.21 0c23.43,0 42.42,18.97 42.42,42.37 0,23.46 -18.98,42.42 -42.42,42.42z"/>
   <path class="fil3" d="M5587.72 927.97c-3.53,3.5 -7.02,6.99 -10.52,10.45l-5.96 5.99c-28.26,-27.41 -61.85,-42.02 -101.22,-42.02 -39.38,0 -72.96,14.53 -101.43,42.13l-5.68 -5.93c-3.43,-3.49 -6.92,-6.95 -10.37,-10.44l-0.29 -0.18 0 -0.24 0.74 -0.6c4.45,-3.95 8.75,-8.05 13.3,-11.78 9.46,-7.8 19.79,-14.22 30.73,-19.58 12.98,-6.39 26.53,-11.08 40.76,-13.69 6.73,-1.24 13.58,-1.87 20.35,-2.72l17.82 -0.32c4.62,0.36 9.27,0.57 13.86,1.06 12.84,1.38 25.29,4.52 37.41,8.93 8.74,3.21 17.18,7.19 25.25,11.82 8.54,4.94 16.62,10.51 24.13,16.89 3.78,3.25 7.41,6.67 11.12,9.99l0 0.24z"/>
   <path class="fil3" d="M5401.91 977.44c-5.53,-5.5 -10.97,-10.9 -16.58,-16.47 18.91,-18.56 41.29,-30.37 67.57,-33.9 39.31,-5.33 73.04,6.59 101.65,33.69 -5.65,5.61 -11.15,11.08 -16.69,16.58 -18.77,-18.24 -41.43,-28.08 -67.96,-28.08 -26.45,0 -49.04,9.84 -67.99,28.18z"/>
   <path class="fil3" d="M5521.28 994.02c-5.47,5.47 -10.97,10.98 -16.51,16.51 -9.6,-9.27 -21.2,-14.42 -34.86,-14.42 -13.58,0.03 -25.15,5.11 -34.78,14.5 -5.54,-5.54 -11.01,-11.01 -16.51,-16.48 26.28,-27.52 73.56,-29.74 102.67,-0.11z"/>
   <path class="fil3" d="M5484.86 1025.56c0,8.22 -6.7,14.93 -14.92,14.93 -8.26,0 -14.92,-6.71 -14.92,-14.93 0,-8.25 6.66,-14.95 14.92,-14.95 8.22,0 14.92,6.7 14.92,14.95z"/>
   <path class="fil3" d="M4562.71 959.77c0,-23.92 19.37,-43.3 43.3,-43.3 23.88,0 43.29,19.37 43.29,43.3 0,23.88 -19.4,43.3 -43.29,43.3 -23.92,0 -43.3,-19.41 -43.3,-43.3z"/>
   <path class="fil3" d="M4699.05 959.77c0,-23.92 19.4,-43.3 43.29,-43.3 23.92,0 43.3,19.37 43.3,43.3 0,23.88 -19.37,43.3 -43.3,43.3 -23.88,0 -43.29,-19.41 -43.29,-43.3z"/>
   <path class="fil3" d="M4835.41 959.77c0,-23.92 19.37,-43.3 43.3,-43.3 23.88,0 43.3,19.37 43.3,43.3 0,23.88 -19.41,43.3 -43.3,43.3 -23.92,0 -43.3,-19.41 -43.3,-43.3z"/>
   <path class="fil3" d="M4971.75 959.77c0,-23.92 19.4,-43.3 43.29,-43.3 23.92,0 43.3,19.37 43.3,43.3 0,23.88 -19.37,43.3 -43.3,43.3 -23.88,0 -43.29,-19.41 -43.29,-43.3z"/>
   <path class="fil3" d="M5108.12 959.77c0,-23.92 19.36,-43.3 43.29,-43.3 23.88,0 43.3,19.37 43.3,43.3 0,23.88 -19.41,43.3 -43.3,43.3 -23.92,0 -43.29,-19.41 -43.29,-43.3z"/>
   <path class="fil3" d="M9844.37 1036.3l316.52 0 0 -127.34 -316.52 0 0 127.34zm334.45 17.95l-352.41 0 0 -163.25 352.41 0 0 163.25z"/>
   <polygon class="fil3" points="10082.81,918.73 9855.62,918.73 9855.62,1026.52 10082.81,1026.52 "/>
   <polygon class="fil3" points="10210.39,1016.29 10179.03,1016.29 10179.03,928.96 10210.39,928.96 "/>
   <polygon class="fil3" points="4755.68,2031.59 4562.71,1850.76 4755.68,1669.98 4785.63,1701.87 4626.72,1850.76 4785.63,1999.69 "/>
   <path class="fil3" d="M10011.43 1767.04l0 13.22c38.89,0.08 70.42,31.61 70.49,70.54 -0.07,38.88 -31.57,70.31 -70.49,70.38 -38.89,-0.07 -70.35,-31.5 -70.43,-70.38 0.08,-38.93 31.54,-70.46 70.43,-70.54l0 -13.22 0 -13.23c-53.53,0.03 -96.88,43.47 -96.88,96.99 0,53.52 43.4,96.84 96.88,96.84 53.53,0 96.95,-43.33 96.95,-96.84 0,-53.57 -43.43,-96.96 -96.95,-96.99l0 13.23zm-154.18 53.66l-6.64 11.47c3.25,1.87 5.29,5.4 5.33,9.81l-0.04 0.67 0 0.1 -0.21 7.66 0 0.35 0.21 7.94 0 0.07 0 0.21 0.04 0.63c-0.04,4.38 -2.08,7.94 -5.29,9.78l0.03 0 -27.2 15.66 -11.46 6.6 64.29 111.42 38.63 -22.29 -0.03 0.03 5.33 -1.41 6.35 1.91 0 0c4.62,3 9.42,5.82 14.39,8.36l0 -0.04c3.88,2.05 6.17,5.75 6.17,9.81l0 31.29 0 13.2 128.65 0 0 -44.5c0,-3.99 2.29,-7.76 6.24,-9.81 4.9,-2.5 9.74,-5.29 14.39,-8.32l6.32 -1.91 5.25 1.38 27.17 15.7 11.46 6.59 64.29 -111.39 -38.71 -22.4c-3.21,-1.83 -5.26,-5.36 -5.26,-9.7l0 -0.6 0 -0.14 0.22 -7.69 0 -0.35 -0.22 -7.91 0 -0.1 0 -0.18 -0.03 -0.63c0.07,-4.41 2.08,-7.91 5.33,-9.78l0.03 0 27.16 -15.69 11.47 -6.6 -64.29 -111.43 -38.56 22.26 -5.3 1.45 -6.31 -1.94 0.03 0.03c-4.65,-3.07 -9.49,-5.85 -14.5,-8.39 -3.88,-2.01 -6.2,-5.75 -6.2,-9.78l0 -31.25 0 -13.23 -128.65 0 0 44.49c0,4.1 -2.25,7.77 -6.17,9.78l-0.07 0.03c-4.94,2.54 -9.74,5.29 -14.39,8.33l-0.04 0.03 -6.28 1.91 -5.33 -1.45 -27.09 -15.63 -11.43 -6.63 -64.32 111.43 38.64 22.26 6.6 -11.47 6.59 -11.46 -15.66 -9.03 37.83 -65.56 15.62 9.03c5.76,3.32 12.21,4.98 18.56,4.98 7.27,0 14.5,-2.16 20.78,-6.25l-0.07 0.04c3.91,-2.54 7.9,-4.84 12.06,-6.95l-0.03 0c12.45,-6.28 20.67,-19.09 20.67,-33.38l0 -18.02 75.72 0 0 18.02c0,14.33 8.25,27.1 20.67,33.38 4.16,2.11 8.15,4.41 11.99,6.95l0.04 0c6.24,4.05 13.44,6.21 20.74,6.21 6.35,0 12.77,-1.66 18.56,-4.98l15.59 -9.03 37.87 65.56 -15.74 9.06 0.04 -0.03c-12.03,6.91 -18.67,19.68 -18.59,32.74l0.03 1.94 13.19 -0.67 -13.19 0.38 0.18 7.13 -0.18 7.16 13.19 0.39 -13.19 -0.71 -0.03 1.98c-0.04,13.02 6.56,25.75 18.48,32.6l15.81 9.17 -37.87 65.55 -15.7 -9.03c-5.75,-3.31 -12.17,-4.97 -18.48,-4.94 -7.3,0 -14.57,2.12 -20.82,6.25 -3.81,2.47 -7.83,4.8 -11.92,6.91 -12.42,6.28 -20.64,19.02 -20.67,33.34l0 18.06 -75.72 0 0 -18.06c0,-14.25 -8.18,-27.02 -20.6,-33.37l-0.04 0c-4.09,-2.08 -8.04,-4.38 -11.92,-6.92l0 0c-6.28,-4.09 -13.51,-6.21 -20.81,-6.21 -6.35,-0.03 -12.77,1.63 -18.52,4.94l0 0 -15.7 9.03 -37.83 -65.55 15.7 -9.07 0.03 0c11.89,-6.91 18.52,-19.61 18.49,-32.67l-0.04 -1.9 -13.23 0.63 13.23 -0.35 -0.21 -7.19 0.21 -7.17 -13.23 -0.38 13.23 0.63 0.04 -1.9c0.03,-13.06 -6.6,-25.83 -18.52,-32.71l-6.63 11.43z"/>
   <polygon class="fil3" points="8784.44,3317.75 4780.55,3317.75 4780.55,3066.78 8784.44,3066.78 "/>
   <polygon class="fil0" points="8786.98,3320.29 4777.97,3320.29 4777.97,3064.24 8786.98,3064.24 "/>
   <polygon class="fil2" points="8787.05,3320.36 8530.86,3320.36 8530.86,3064.17 8787.05,3064.17 "/>
   <path class="fil3" d="M8738.5 3262.6l-23.14 17.57 -42.98 -56.7 -15.7 -20.75 9.03 -5.08c5.43,-4.16 9.38,-9.52 11.89,-15.41l16.68 21.98 44.22 58.39z"/>
   <path class="fil3" d="M8665.71 3197.64l-9.03 5.08c-15.35,6.14 -33.44,1.7 -44,-12.06 -12.74,-16.58 -9.63,-40.37 6.98,-53.07 16.58,-12.7 40.33,-9.56 53.03,7.02 8.54,11.15 9.92,25.51 4.91,37.62 -2.51,5.89 -6.46,11.25 -11.89,15.41zm27.16 -68.52c-21.23,-27.72 -60.97,-32.95 -88.69,-11.71 -27.73,21.27 -32.95,61.01 -11.72,88.7 19.09,24.94 53.11,31.68 79.92,17.36l8.78 -5.65c5.19,-3.98 9.56,-8.61 13.12,-13.61 15.63,-22.02 15.88,-52.51 -1.41,-75.09z"/>
   <polygon class="fil12" points="4846.49,3268.42 4833.02,3268.42 4833.02,3116.14 4846.49,3116.14 "/>
   <path class="fil2" d="M10371.21 2938.81c-14.82,9.2 -31.29,16.22 -49.16,20.56 -46.25,11.33 -92.61,2.65 -130.12,-20.63 -36.66,-22.65 -64.81,-59.28 -75.93,-104.44 -22.29,-91.48 33.66,-183.72 125.19,-206.01 91.41,-22.37 183.65,33.65 206.02,125.15 17.95,73.6 -14.89,147.65 -76,185.38z"/>
   <path class="fil3" d="M10333.42 2774.36c0,28.64 -23.21,51.86 -51.86,51.86 -28.61,0 -51.84,-23.21 -51.84,-51.86 0,-28.65 23.22,-51.87 51.84,-51.87 28.64,0 51.86,23.21 51.86,51.87z"/>
   <path class="fil3" d="M10371.21 2917.43l0 21.38c-14.82,9.2 -31.29,16.22 -49.16,20.56 -46.25,11.33 -92.61,2.65 -130.12,-20.63l0 -21.31c0,-49.4 40.12,-89.62 89.62,-89.62 49.54,0 89.65,40.23 89.65,89.62z"/>
   <polygon class="fil0" points="10669.06,4239.93 4136.99,4239.93 4136.99,3722.01 10669.06,3722.01 "/>
   <polygon class="fil3" points="4697.99,4058.75 4542.39,4058.75 4542.39,3903.19 4697.99,3903.19 "/>
   <polygon class="fil3" points="5358.77,4058.75 5203.2,4058.75 5266.64,3980.99 5203.2,3903.19 5358.77,3903.19 5422.2,3980.99 "/>
   <polygon class="fil13" points="4959.01,3903.19 4984.31,3954.39 5040.83,3962.61 4999.94,4002.48 5009.58,4058.75 4959.01,4032.19 4908.48,4058.75 4918.15,4002.48 4877.26,3962.61 4933.75,3954.39 "/>
   <polygon class="fil4" points="6773.08,4012.61 5533.8,4012.61 5533.8,3949.35 6773.08,3949.35 "/>
   <polygon class="fil4" points="10002.29,4012.61 8877.3,4012.61 8877.3,3949.35 10002.29,3949.35 "/>
   <polygon class="fil11" points="8404.62,4012.61 7151.38,4012.61 7151.38,3949.35 8404.62,3949.35 "/>
   <polygon class="fil3" points="4697.99,4576.64 4542.39,4576.64 4542.39,4421.07 4697.99,4421.07 "/>
   <polygon class="fil0" points="4697.99,4576.64 4697.99,4567.81 4551.21,4567.81 4551.21,4429.89 4689.17,4429.89 4689.17,4576.64 4697.99,4576.64 4697.99,4567.81 4697.99,4576.64 4706.81,4576.64 4706.81,4412.25 4533.57,4412.25 4533.57,4585.46 4706.81,4585.46 4706.81,4576.64 "/>
   <polygon class="fil3" points="5358.77,4576.64 5203.2,4576.64 5266.64,4498.87 5203.2,4421.07 5358.77,4421.07 5422.2,4498.87 "/>
   <polygon class="fil0" points="5358.77,4576.64 5358.77,4567.81 5221.77,4567.81 5278,4498.87 5221.77,4429.89 5354.57,4429.89 5410.8,4498.87 5351.92,4571.06 5358.77,4576.64 5358.77,4567.81 5358.77,4576.64 5365.61,4582.21 5433.6,4498.87 5362.97,4412.25 5184.61,4412.25 5255.24,4498.87 5184.61,4585.46 5362.97,4585.46 5365.61,4582.21 "/>
   <polygon class="fil13" points="4959.01,4421.07 4984.31,4472.3 5040.83,4480.49 4999.94,4520.36 5009.58,4576.64 4959.01,4550.07 4908.48,4576.64 4918.15,4520.36 4877.26,4480.49 4933.75,4472.3 "/>
   <polygon class="fil4" points="6773.08,4530.52 5533.8,4530.52 5533.8,4467.22 6773.08,4467.22 "/>
   <polygon class="fil4" points="10002.29,4530.52 8877.3,4530.52 8877.3,4467.22 10002.29,4467.22 "/>
   <polygon class="fil11" points="8404.62,4530.52 7151.38,4530.52 7151.38,4467.22 8404.62,4467.22 "/>
   <polygon class="fil0" points="4136.99,5275.69 10669.06,5275.69 10669.06,4757.81 4136.99,4757.81 "/>
   <polygon class="fil3" points="4697.99,5094.52 4542.39,5094.52 4542.39,4938.96 4697.99,4938.96 "/>
   <polygon class="fil3" points="5358.77,5094.52 5203.2,5094.52 5266.64,5016.76 5203.2,4938.96 5358.77,4938.96 5422.2,5016.76 "/>
   <polygon class="fil3" points="4959.01,4938.96 4984.31,4990.15 5040.83,4998.37 4999.94,5038.24 5009.58,5094.52 4959.01,5067.94 4908.48,5094.52 4918.15,5038.24 4877.26,4998.37 4933.75,4990.15 "/>
   <polygon class="fil14" points="6773.08,5048.36 5533.8,5048.36 5533.8,4985.1 6773.08,4985.1 "/>
   <polygon class="fil14" points="10002.29,5048.36 8877.3,5048.36 8877.3,4985.1 10002.29,4985.1 "/>
   <polygon class="fil12" points="7151.38,5048.36 8404.62,5048.36 8404.62,4985.1 7151.38,4985.1 "/>
   <polygon class="fil3" points="4697.99,5612.39 4542.39,5612.39 4542.39,5456.84 4697.99,5456.84 "/>
   <polygon class="fil0" points="4697.99,5612.39 4697.99,5603.58 4551.21,5603.58 4551.21,5465.65 4689.17,5465.65 4689.17,5612.39 4697.99,5612.39 4697.99,5603.58 4697.99,5612.39 4706.81,5612.39 4706.81,5448.02 4533.57,5448.02 4533.57,5621.21 4706.81,5621.21 4706.81,5612.39 "/>
   <polygon class="fil3" points="5358.77,5612.39 5203.2,5612.39 5266.64,5534.63 5203.2,5456.84 5358.77,5456.84 5422.2,5534.63 "/>
   <polygon class="fil0" points="5358.77,5612.39 5358.77,5603.58 5221.77,5603.58 5278,5534.63 5221.77,5465.65 5354.57,5465.65 5410.8,5534.63 5351.92,5606.82 5358.77,5612.39 5358.77,5603.58 5358.77,5612.39 5365.61,5617.97 5433.6,5534.63 5362.97,5448.02 5184.61,5448.02 5255.24,5534.63 5184.61,5621.21 5362.97,5621.21 5365.61,5617.97 "/>
   <polygon class="fil13" points="4959.01,5456.84 4984.31,5508.07 5040.83,5516.25 4999.94,5556.12 5009.58,5612.39 4959.01,5585.83 4908.48,5612.39 4918.15,5556.12 4877.26,5516.25 4933.75,5508.07 "/>
   <polygon class="fil14" points="5533.8,5566.25 6773.07,5566.25 6773.07,5502.99 5533.8,5502.99 "/>
   <polygon class="fil14" points="10002.29,5566.29 8877.3,5566.29 8877.3,5502.99 10002.29,5502.99 "/>
   <polygon class="fil12" points="7151.38,5566.25 8404.62,5566.25 8404.62,5502.99 7151.38,5502.99 "/>
   <polygon class="fil0" points="4136.99,6311.45 10669.06,6311.45 10669.06,5793.59 4136.99,5793.59 "/>
   <polygon class="fil3" points="4697.99,6130.27 4542.39,6130.27 4542.39,5974.71 4697.99,5974.71 "/>
   <polygon class="fil3" points="5358.77,6130.27 5203.2,6130.27 5266.64,6052.51 5203.2,5974.71 5358.77,5974.71 5422.2,6052.51 "/>
   <polygon class="fil13" points="4959.01,5974.71 4984.31,6025.91 5040.83,6034.13 4999.94,6074 5009.58,6130.27 4959.01,6103.71 4908.48,6130.27 4918.15,6074 4877.26,6034.13 4933.75,6025.91 "/>
   <polygon class="fil14" points="5533.8,6084.13 6773.07,6084.13 6773.07,6020.87 5533.8,6020.87 "/>
   <polygon class="fil14" points="10002.29,6084.13 8877.3,6084.13 8877.3,6020.87 10002.29,6020.87 "/>
   <polygon class="fil12" points="7151.38,6084.13 8404.62,6084.13 8404.62,6020.87 7151.38,6020.87 "/>
   <polygon class="fil3" points="4697.99,6648.16 4542.39,6648.16 4542.39,6492.6 4697.99,6492.6 "/>
   <polygon class="fil0" points="4697.99,6648.16 4697.99,6639.34 4551.21,6639.34 4551.21,6501.42 4689.17,6501.42 4689.17,6648.16 4697.99,6648.16 4697.99,6639.34 4697.99,6648.16 4706.81,6648.16 4706.81,6483.77 4533.57,6483.77 4533.57,6656.98 4706.81,6656.98 4706.81,6648.16 "/>
   <polygon class="fil3" points="5358.77,6648.16 5203.2,6648.16 5266.64,6570.36 5203.2,6492.6 5358.77,6492.6 5422.2,6570.36 "/>
   <polygon class="fil0" points="5358.77,6648.16 5358.77,6639.34 5221.77,6639.34 5278,6570.36 5221.77,6501.42 5354.57,6501.42 5410.8,6570.36 5351.92,6642.59 5358.77,6648.16 5358.77,6639.34 5358.77,6648.16 5365.61,6653.73 5433.6,6570.36 5362.97,6483.77 5184.61,6483.77 5255.24,6570.36 5184.61,6656.98 5362.97,6656.98 5365.61,6653.73 "/>
   <polygon class="fil3" points="4959.01,6492.6 4984.31,6543.82 5040.83,6552.01 4999.94,6591.88 5009.58,6648.16 4959.01,6621.59 4908.48,6648.16 4918.15,6591.88 4877.26,6552.01 4933.75,6543.82 "/>
   <polygon class="fil0" points="4959.01,6492.6 4951.11,6496.52 4978.45,6551.87 5021.85,6558.18 4990.44,6588.81 4997.85,6632.04 4959.01,6611.64 4920.2,6632.04 4926.83,6593.36 4927.6,6588.81 4896.21,6558.18 4935.02,6552.54 4939.61,6551.87 4966.95,6496.52 4959.01,6492.6 4951.11,6496.52 4959.01,6492.6 4951.11,6488.68 4927.9,6535.74 4858.28,6545.87 4908.66,6594.95 4896.77,6664.28 4959.01,6631.58 5021.29,6664.28 5009.4,6594.95 5059.78,6545.87 4990.16,6535.74 4959.01,6472.66 4951.11,6488.68 "/>
   <polygon class="fil14" points="5533.8,6602.01 6773.07,6602.01 6773.07,6538.74 5533.8,6538.74 "/>
   <polygon class="fil14" points="10002.29,6602.01 8877.3,6602.01 8877.3,6538.74 10002.29,6538.74 "/>
   <polygon class="fil12" points="7151.38,6602.01 8404.62,6602.01 8404.62,6538.74 7151.38,6538.74 "/>
   <polygon class="fil0" points="4136.99,7347.22 10669.06,7347.22 10669.06,6829.33 4136.99,6829.33 "/>
   <polygon class="fil3" points="4697.99,7166.04 4542.39,7166.04 4542.39,7010.48 4697.99,7010.48 "/>
   <polygon class="fil3" points="5358.77,7166.04 5203.2,7166.04 5266.64,7088.27 5203.2,7010.48 5358.77,7010.48 5422.2,7088.27 "/>
   <polygon class="fil13" points="4959.01,7010.48 4984.31,7061.67 5040.83,7069.89 4999.94,7109.76 5009.58,7166.04 4959.01,7139.47 4908.48,7166.04 4918.15,7109.76 4877.26,7069.89 4933.75,7061.67 "/>
   <polygon class="fil14" points="5533.8,7119.92 6773.07,7119.92 6773.07,7056.64 5533.8,7056.64 "/>
   <polygon class="fil14" points="10002.29,7119.92 8877.3,7119.92 8877.3,7056.63 10002.29,7056.63 "/>
   <polygon class="fil12" points="7151.38,7119.92 8404.62,7119.92 8404.62,7056.64 7151.38,7056.64 "/>
   <polygon class="fil3" points="4697.99,7683.95 4542.39,7683.95 4542.39,7528.35 4697.99,7528.35 "/>
   <polygon class="fil0" points="4697.99,7683.95 4697.99,7675.13 4551.21,7675.13 4551.21,7537.17 4689.17,7537.17 4689.17,7683.95 4697.99,7683.95 4697.99,7675.13 4697.99,7683.95 4706.81,7683.95 4706.81,7519.53 4533.57,7519.53 4533.57,7692.77 4706.81,7692.77 4706.81,7683.95 "/>
   <polygon class="fil3" points="5358.77,7683.95 5203.2,7683.95 5266.64,7606.12 5203.2,7528.35 5358.77,7528.35 5422.2,7606.12 "/>
   <polygon class="fil0" points="5358.77,7683.95 5358.77,7675.13 5221.77,7675.13 5278,7606.12 5221.77,7537.17 5354.57,7537.17 5410.8,7606.12 5351.92,7678.38 5358.77,7683.95 5358.77,7675.13 5358.77,7683.95 5365.61,7689.49 5433.57,7606.12 5362.97,7519.53 5184.61,7519.53 5255.24,7606.12 5184.61,7692.77 5362.97,7692.77 5365.61,7689.49 "/>
   <polygon class="fil3" points="4959.01,7528.35 4984.31,7579.59 5040.83,7587.77 4999.94,7627.65 5009.58,7683.95 4959.01,7657.35 4908.48,7683.95 4918.15,7627.65 4877.26,7587.77 4933.75,7579.59 "/>
   <polygon class="fil0" points="4959.01,7528.35 4951.11,7532.27 4978.45,7587.63 5021.85,7593.95 4990.44,7624.54 4997.85,7667.79 4959.01,7647.37 4920.2,7667.79 4926.83,7629.13 4927.6,7624.58 4896.21,7593.95 4935.02,7588.3 4939.61,7587.63 4966.95,7532.27 4959.01,7528.35 4951.11,7532.27 4959.01,7528.35 4951.11,7524.47 4927.9,7571.51 4858.28,7581.6 4908.66,7630.71 4896.77,7700.08 4959.01,7667.3 5021.29,7700.08 5009.4,7630.71 5059.78,7581.6 4990.16,7571.51 4959.01,7508.46 4951.11,7524.47 "/>
   <polygon class="fil14" points="5533.8,7637.77 6773.07,7637.77 6773.07,7574.51 5533.8,7574.51 "/>
   <polygon class="fil14" points="10002.29,7637.77 8877.3,7637.77 8877.3,7574.51 10002.29,7574.51 "/>
   <polygon class="fil12" points="7151.38,7637.77 8404.62,7637.77 8404.62,7574.51 7151.38,7574.51 "/>
   <polygon class="fil0" points="4136.99,8382.97 10669.06,8382.97 10669.06,7865.06 4136.99,7865.06 "/>
   <polygon class="fil3" points="4697.99,8201.8 4542.39,8201.8 4542.39,8046.23 4697.99,8046.23 "/>
   <polygon class="fil3" points="5358.77,8201.8 5203.2,8201.8 5266.64,8124 5203.2,8046.23 5358.77,8046.23 5422.2,8124 "/>
   <polygon class="fil3" points="4959.01,8046.23 4984.31,8097.43 5040.83,8105.68 4999.94,8145.52 5009.58,8201.8 4959.01,8175.23 4908.48,8201.8 4918.15,8145.52 4877.26,8105.68 4933.75,8097.43 "/>
   <polygon class="fil14" points="5533.8,8155.68 6773.07,8155.68 6773.07,8092.38 5533.8,8092.38 "/>
   <polygon class="fil14" points="10002.29,8155.68 8877.3,8155.68 8877.3,8092.38 10002.29,8092.38 "/>
   <polygon class="fil12" points="7151.38,8155.68 8404.62,8155.68 8404.62,8092.38 7151.38,8092.38 "/>
   <polygon class="fil3" points="4697.99,8719.68 4542.39,8719.68 4542.39,8564.12 4697.99,8564.12 "/>
   <polygon class="fil0" points="4697.99,8719.68 4697.99,8710.86 4551.21,8710.86 4551.21,8572.94 4689.17,8572.94 4689.17,8719.68 4697.99,8719.68 4697.99,8710.86 4697.99,8719.68 4706.81,8719.68 4706.81,8555.3 4533.57,8555.3 4533.57,8728.5 4706.81,8728.5 4706.81,8719.68 "/>
   <polygon class="fil3" points="5358.77,8719.68 5203.2,8719.68 5266.64,8641.92 5203.2,8564.12 5358.77,8564.12 5422.2,8641.92 "/>
   <polygon class="fil0" points="5358.77,8719.68 5358.77,8710.86 5221.77,8710.86 5278,8641.92 5221.77,8572.94 5354.57,8572.94 5410.8,8641.92 5351.92,8714.1 5358.77,8719.68 5358.77,8710.86 5358.77,8719.68 5365.61,8725.25 5433.6,8641.92 5362.97,8555.3 5184.64,8555.3 5255.24,8641.92 5184.61,8728.5 5362.97,8728.5 5365.61,8725.25 "/>
   <polygon class="fil3" points="4959.01,8564.12 4984.31,8615.32 5040.83,8623.54 4999.94,8663.4 5009.58,8719.68 4959.01,8693.11 4908.48,8719.68 4918.15,8663.4 4877.26,8623.54 4933.75,8615.32 "/>
   <polygon class="fil0" points="4959.01,8564.12 4951.11,8568 4978.45,8623.36 5021.89,8629.71 4990.44,8660.33 4997.85,8703.56 4959.01,8683.16 4920.2,8703.56 4926.83,8664.92 4927.6,8660.33 4896.21,8629.71 4935.02,8624.03 4939.61,8623.36 4966.95,8568 4959.01,8564.12 4951.11,8568 4959.01,8564.12 4951.11,8560.2 4927.9,8607.26 4858.32,8617.4 4908.66,8666.5 4896.77,8735.8 4959.01,8703.06 5021.29,8735.8 5009.4,8666.5 5059.78,8617.4 4990.16,8607.26 4959.01,8544.19 4951.11,8560.2 "/>
   <polygon class="fil14" points="6773.08,8673.52 5533.8,8673.52 5533.8,8610.23 6773.08,8610.23 "/>
   <polygon class="fil14" points="10002.29,8673.52 8877.3,8673.52 8877.3,8610.23 10002.29,8610.23 "/>
   <polygon class="fil12" points="8404.62,8673.52 7151.38,8673.52 7151.38,8610.23 8404.62,8610.23 "/>
   <polygon class="fil0" points="10669.06,9418.7 4136.99,9418.7 4136.99,8900.86 10669.06,8900.86 "/>
   <polygon class="fil3" points="4697.99,9237.56 4542.39,9237.56 4542.39,9082 4697.99,9082 "/>
   <polygon class="fil3" points="5358.77,9237.56 5203.2,9237.56 5266.64,9159.79 5203.2,9082 5358.77,9082 5422.2,9159.79 "/>
   <polygon class="fil3" points="4959.01,9082 4984.31,9133.23 5040.83,9141.41 4999.94,9181.28 5009.58,9237.56 4959.01,9210.99 4908.48,9237.56 4918.15,9181.28 4877.26,9141.41 4933.75,9133.23 "/>
   <polygon class="fil0" points="4959.01,9082 4951.11,9085.88 4978.45,9141.27 5021.85,9147.59 4990.44,9178.21 4997.85,9221.43 4959.01,9201.01 4920.2,9221.43 4926.83,9182.77 4927.6,9178.21 4896.21,9147.59 4935.02,9141.94 4939.61,9141.27 4966.95,9085.88 4959.01,9082 4951.11,9085.88 4959.01,9082 4951.11,9078.08 4927.9,9125.15 4858.28,9135.24 4908.66,9184.36 4896.77,9253.69 4959.01,9220.94 5021.29,9253.69 5009.4,9184.36 5059.78,9135.24 4990.16,9125.15 4959.01,9062.03 4951.11,9078.08 "/>
   <polygon class="fil14" points="6773.08,9191.41 5533.8,9191.41 5533.8,9128.15 6773.08,9128.15 "/>
   <polygon class="fil14" points="10002.29,9191.41 8877.3,9191.41 8877.3,9128.15 10002.29,9128.15 "/>
   <polygon class="fil12" points="8404.62,9191.41 7151.38,9191.41 7151.38,9128.15 8404.62,9128.15 "/>
   <polygon class="fil3" points="4697.99,9755.44 4542.39,9755.44 4542.39,9599.87 4697.99,9599.87 "/>
   <polygon class="fil0" points="4697.99,9755.44 4697.99,9746.61 4551.21,9746.61 4551.21,9608.7 4689.17,9608.7 4689.17,9755.44 4697.99,9755.44 4697.99,9746.61 4697.99,9755.44 4706.81,9755.44 4706.81,9591.05 4533.57,9591.05 4533.57,9764.26 4706.81,9764.26 4706.81,9755.44 "/>
   <polygon class="fil3" points="5358.77,9755.44 5203.2,9755.44 5266.64,9677.64 5203.2,9599.87 5358.77,9599.87 5422.2,9677.64 "/>
   <polygon class="fil0" points="5502.42,8419.31 5502.42,8410.49 5365.42,8410.49 5421.65,8341.52 5365.42,8272.57 5498.22,8272.57 5554.45,8341.52 5495.58,8413.74 5502.42,8419.31 5502.42,8410.49 5502.42,8419.31 5509.26,8424.89 5577.22,8341.52 5506.62,8254.92 5328.26,8254.92 5398.89,8341.52 5328.26,8428.13 5506.62,8428.13 5509.26,8424.89 "/>
   <g>
    <polygon class="fil0" points="13234.81,9131.5 10982.52,9747.17 10592.06,8318.82 12844.35,7703.14 "/>
    <path class="fil3" d="M12844.35 7703.14c-67.22,111.87 -137.13,220.51 -205.36,331.18 -69.42,109.04 -139.22,218.11 -209.59,326.42 -73.43,113.07 -147.4,225.29 -221.56,337.1 -2.26,3.6 -4.24,7.07 -6.52,10.69 -65.74,98.58 -131.8,197.3 -197.89,296.01l-9.95 14.07 -15.42 -7.15c-107.11,-51.34 -213.87,-102.8 -320.75,-154.72 -3.66,-1.46 -7.46,-3.4 -11.27,-5.33 -121.03,-58.42 -241.83,-117.42 -362.71,-177.89 -115.17,-57.03 -230.77,-115.5 -346.01,-174.01 -115.05,-60.57 -230.5,-118.56 -345.26,-180.68 117.12,48.12 233.54,100.38 350.17,150.63 116.66,51.73 233.26,103.46 349.65,156.71 129.41,58.62 259.21,118.63 388.94,179.62l0.79 0.29c97.08,45.18 194.27,90.84 291.45,136.5 60.09,-88.63 120.39,-177.85 181.07,-265.67l0.46 -1.11c80.75,-118.07 161.64,-235.65 243.49,-352.53 73.19,-104.58 146.84,-208.81 221.07,-312.22 75.19,-102.67 148.84,-206.89 225.19,-307.9z"/>
    <path class="fil3" d="M11693.13 8837.41l-2.07 3.09c-9.09,13.4 -18.11,26.77 -27.28,39.83 -43.46,63.14 -88.78,124.61 -135.53,184.99 -56.76,74.4 -115.8,146.87 -175.32,219.17 -60.1,71.27 -120.64,142.37 -183.44,211.86 -62.77,69.52 -126.51,138.21 -194.07,203.52 51.94,-78.51 107.74,-153.75 164.54,-227.78 57.06,-74.51 116.15,-146.98 175.3,-219.11 60.34,-71.78 120.85,-142.87 183.67,-212.37 49.9,-55.42 101.03,-110.49 154.13,-163.53 12.24,-12.44 24.54,-24.53 37.2,-36.7l2.87 -2.96z"/>
    <path class="fil3" d="M13216.88 9087.15c-91.43,-21.89 -181.58,-48.51 -270.68,-76.49 -89.38,-27.92 -177.69,-58.31 -266.08,-89.02 -87.97,-31.93 -175.67,-64.32 -262.35,-99.49 -70.64,-28.3 -140.86,-57.81 -210.04,-90.16 -14.95,-6.82 -29.57,-13.75 -44.21,-20.63l-3.32 -1.63 3.84 0.76c17.18,4.39 33.94,8.55 50.81,13 72.71,18.65 144.37,40.15 215.9,62.37 89.39,27.93 177.67,58.36 265.83,89.49 87.97,31.92 175.7,64.27 262.38,99.47 86.92,34.77 173.2,71.14 257.92,112.34z"/>
   </g>
   <polygon class="fil3" points="4959.01,9599.87 4984.31,9651.07 5040.83,9659.29 4999.94,9699.16 5009.58,9755.44 4959.01,9728.87 4908.48,9755.44 4918.15,9699.16 4877.26,9659.29 4933.75,9651.07 "/>
   <polygon class="fil0" points="4959.01,9599.87 4951.11,9603.79 4978.45,9659.15 5021.85,9665.46 4990.44,9696.06 4997.85,9739.31 4959.01,9718.88 4920.2,9739.31 4926.83,9700.65 4927.6,9696.06 4896.21,9665.43 4935.02,9659.82 4939.61,9659.15 4966.95,9603.79 4959.01,9599.87 4951.11,9603.79 4959.01,9599.87 4951.11,9595.99 4927.9,9643.03 4858.28,9653.12 4908.66,9702.23 4896.77,9771.6 4959.01,9738.82 5021.29,9771.6 5009.4,9702.23 5059.78,9653.12 4990.16,9643.03 4959.01,9579.94 4951.11,9595.99 "/>
   <polygon class="fil14" points="6773.08,9709.29 5533.8,9709.29 5533.8,9646.03 6773.08,9646.03 "/>
   <polygon class="fil14" points="10002.29,9709.29 8877.3,9709.29 8877.3,9646.03 10002.29,9646.03 "/>
   <polygon class="fil12" points="8404.62,9709.29 7151.38,9709.29 7151.38,9646.03 8404.62,9646.03 "/>
   <polygon class="fil0" points="10669.06,10454.49 4136.99,10454.49 4136.99,9936.58 10669.06,9936.58 "/>
   <polygon class="fil3" points="4697.99,10273.32 4542.39,10273.32 4542.39,10117.76 4697.99,10117.76 "/>
   <polygon class="fil3" points="5358.77,10273.32 5203.2,10273.32 5266.64,10195.52 5203.2,10117.76 5358.77,10117.76 5422.2,10195.52 "/>
   <polygon class="fil3" points="4959.01,10117.76 4984.31,10168.95 5040.83,10177.21 4999.94,10217.01 5009.58,10273.32 4959.01,10246.76 4908.48,10273.32 4918.15,10217.01 4877.26,10177.21 4933.75,10168.95 "/>
   <polygon class="fil0" points="4959.01,10117.76 4951.11,10121.68 4978.45,10177.04 5021.89,10183.35 4990.44,10213.94 4997.85,10257.2 4959.01,10236.8 4920.2,10257.2 4926.83,10218.52 4927.6,10213.94 4896.21,10183.35 4935.02,10177.71 4939.61,10177.04 4966.95,10121.68 4959.01,10117.76 4951.11,10121.68 4959.01,10117.76 4951.11,10113.84 4927.9,10160.9 4858.28,10171.03 4908.66,10220.11 4896.77,10289.44 4959.01,10256.74 5021.29,10289.44 5009.4,10220.11 5059.78,10171.03 4990.16,10160.9 4959.01,10097.82 4951.11,10113.84 "/>
   <polygon class="fil14" points="6773.08,10227.2 5533.8,10227.2 5533.8,10163.9 6773.08,10163.9 "/>
   <polygon class="fil14" points="10002.29,10227.2 8877.3,10227.2 8877.3,10163.9 10002.29,10163.9 "/>
   <polygon class="fil12" points="8404.62,10227.2 7151.38,10227.2 7151.38,10163.9 8404.62,10163.9 "/>
   <polygon class="fil3" points="4697.99,10791.2 4542.39,10791.2 4542.39,10635.64 4697.99,10635.64 "/>
   <polygon class="fil0" points="4697.99,10791.2 4697.99,10782.38 4551.21,10782.38 4551.21,10644.46 4689.17,10644.46 4689.17,10791.2 4697.99,10791.2 4697.99,10782.38 4697.99,10791.2 4706.81,10791.2 4706.81,10626.82 4533.57,10626.82 4533.57,10800.02 4706.81,10800.02 4706.81,10791.2 "/>
   <polygon class="fil3" points="5358.77,10791.2 5203.2,10791.2 5266.64,10713.43 5203.2,10635.64 5358.77,10635.64 5422.2,10713.43 "/>
   <polygon class="fil0" points="5358.77,10791.2 5358.77,10782.38 5221.77,10782.38 5278,10713.43 5221.77,10644.46 5354.57,10644.46 5410.8,10713.43 5351.92,10785.62 5358.77,10791.2 5358.77,10782.38 5358.77,10791.2 5365.61,10796.77 5433.6,10713.43 5362.97,10626.82 5184.64,10626.82 5255.24,10713.43 5184.61,10800.02 5362.97,10800.02 5365.61,10796.77 "/>
   <polygon class="fil3" points="4959.01,10635.64 4984.31,10686.84 5040.83,10695.06 4999.94,10734.92 5009.58,10791.2 4959.01,10764.63 4908.48,10791.2 4918.15,10734.92 4877.26,10695.06 4933.75,10686.84 "/>
   <polygon class="fil0" points="4959.01,10635.64 4951.11,10639.52 4978.45,10694.88 5021.89,10701.23 4990.44,10731.85 4997.85,10775.08 4959.01,10754.68 4920.2,10775.08 4926.83,10736.4 4927.6,10731.85 4896.21,10701.23 4935.02,10695.55 4939.61,10694.88 4966.95,10639.52 4959.01,10635.64 4951.11,10639.52 4959.01,10635.64 4951.11,10631.72 4927.9,10678.76 4858.32,10688.92 4908.66,10737.99 4896.77,10807.32 4959.01,10774.58 5021.29,10807.32 5009.4,10737.99 5059.78,10688.92 4990.16,10678.76 4959.01,10615.71 4951.11,10631.72 "/>
   <polygon class="fil14" points="6773.08,10745.05 5533.8,10745.05 5533.8,10681.76 6773.08,10681.76 "/>
   <polygon class="fil14" points="10002.29,10745.05 8877.3,10745.05 8877.3,10681.76 10002.29,10681.76 "/>
   <polygon class="fil12" points="8404.62,10745.05 7151.38,10745.05 7151.38,10681.76 8404.62,10681.76 "/>
   <polygon class="fil0" points="10669.06,11490.22 4136.99,11490.22 4136.99,10972.38 10669.06,10972.38 "/>
   <polygon class="fil3" points="4697.99,11309.09 4542.39,11309.09 4542.39,11153.48 4697.99,11153.48 "/>
   <polygon class="fil3" points="5358.77,11309.09 5203.2,11309.09 5266.64,11231.31 5203.2,11153.48 5358.77,11153.48 5422.2,11231.31 "/>
   <polygon class="fil2" points="4959.01,11153.48 4984.31,11204.75 5040.83,11212.94 4999.94,11252.8 5009.58,11309.09 4959.01,11282.51 4908.48,11309.09 4918.15,11252.8 4877.26,11212.94 4933.75,11204.75 "/>
   <polygon class="fil14" points="6773.08,11262.93 5533.8,11262.93 5533.8,11199.67 6773.08,11199.67 "/>
   <polygon class="fil14" points="10002.29,11262.93 8877.3,11262.93 8877.3,11199.67 10002.29,11199.67 "/>
   <polygon class="fil12" points="8404.62,11262.93 7151.38,11262.93 7151.38,11199.67 8404.62,11199.67 "/>
   <polygon class="fil3" points="4697.99,11826.96 4542.39,11826.96 4542.39,11671.4 4697.99,11671.4 "/>
   <polygon class="fil0" points="4697.99,11826.96 4697.99,11818.14 4551.21,11818.14 4551.21,11680.22 4689.17,11680.22 4689.17,11826.96 4697.99,11826.96 4697.99,11818.14 4697.99,11826.96 4706.81,11826.96 4706.81,11662.57 4533.57,11662.57 4533.57,11835.78 4706.81,11835.78 4706.81,11826.96 "/>
   <polygon class="fil3" points="5358.77,11826.96 5203.2,11826.96 5266.64,11749.16 5203.2,11671.4 5358.77,11671.4 5422.2,11749.16 "/>
   <polygon class="fil0" points="5358.77,11826.96 5358.77,11818.14 5221.77,11818.14 5278,11749.16 5221.77,11680.22 5354.57,11680.22 5410.8,11749.16 5351.92,11821.39 5358.77,11826.96 5358.77,11818.14 5358.77,11826.96 5365.61,11832.54 5433.57,11749.16 5362.97,11662.57 5184.61,11662.57 5255.24,11749.16 5184.61,11835.78 5362.97,11835.78 5365.61,11832.54 "/>
   <polygon class="fil3" points="4959.01,11671.4 4984.31,11722.59 5040.83,11730.81 4999.94,11770.68 5009.58,11826.96 4959.01,11800.35 4908.48,11826.96 4918.15,11770.68 4877.26,11730.81 4933.75,11722.59 "/>
   <polygon class="fil0" points="4959.01,11671.4 4951.11,11675.31 4978.45,11730.67 5021.85,11736.96 4990.44,11767.58 4997.85,11810.83 4959.01,11790.4 4920.2,11810.83 4926.83,11772.17 4927.6,11767.58 4896.21,11736.96 4935.02,11731.34 4939.61,11730.67 4966.95,11675.31 4959.01,11671.4 4951.11,11675.31 4959.01,11671.4 4951.11,11667.52 4927.9,11714.54 4858.28,11724.63 4908.66,11773.75 4896.77,11843.12 4959.01,11810.35 5021.29,11843.12 5009.4,11773.75 5059.78,11724.63 4990.16,11714.54 4959.01,11651.46 4951.11,11667.52 "/>
   <polygon class="fil14" points="6773.08,11780.81 5533.8,11780.81 5533.8,11717.55 6773.08,11717.55 "/>
   <polygon class="fil14" points="10002.29,11780.81 8877.3,11780.81 8877.3,11717.55 10002.29,11717.55 "/>
   <polygon class="fil12" points="8404.62,11780.81 7151.38,11780.81 7151.38,11717.55 8404.62,11717.55 "/>
   <polygon class="fil0" points="10669.06,12526.02 4136.99,12526.02 4136.99,12008.09 10669.06,12008.09 "/>
   <polygon class="fil3" points="4697.99,12344.84 4542.39,12344.84 4542.39,12189.28 4697.99,12189.28 "/>
   <polygon class="fil3" points="5358.77,12344.84 5203.2,12344.84 5266.64,12267.04 5203.2,12189.28 5358.77,12189.28 5422.2,12267.04 "/>
   <polygon class="fil2" points="4959.01,12189.28 4984.31,12240.47 5040.83,12248.7 4999.94,12288.52 5009.58,12344.84 4959.01,12318.27 4908.48,12344.84 4918.15,12288.52 4877.26,12248.7 4933.75,12240.47 "/>
   <polygon class="fil14" points="6773.08,12298.68 5533.8,12298.68 5533.8,12235.43 6773.08,12235.43 "/>
   <polygon class="fil14" points="10002.29,12298.68 8877.3,12298.68 8877.3,12235.43 10002.29,12235.43 "/>
   <polygon class="fil12" points="8404.62,12298.68 7151.38,12298.68 7151.38,12235.43 8404.62,12235.43 "/>
   <polygon class="fil3" points="4697.99,12862.72 4542.39,12862.72 4542.39,12707.16 4697.99,12707.16 "/>
   <polygon class="fil0" points="4697.99,12862.72 4697.99,12853.9 4551.21,12853.9 4551.21,12715.98 4689.17,12715.98 4689.17,12862.72 4697.99,12862.72 4697.99,12853.9 4697.99,12862.72 4706.81,12862.72 4706.81,12698.34 4533.57,12698.34 4533.57,12871.55 4706.81,12871.55 4706.81,12862.72 "/>
   <polygon class="fil3" points="5358.77,12862.72 5203.2,12862.72 5266.64,12784.95 5203.2,12707.16 5358.77,12707.16 5422.2,12784.95 "/>
   <polygon class="fil0" points="5358.77,12862.72 5358.77,12853.9 5221.77,12853.9 5278,12784.95 5221.77,12715.98 5354.57,12715.98 5410.8,12784.95 5351.92,12857.14 5358.77,12862.72 5358.77,12853.9 5358.77,12862.72 5365.61,12868.29 5433.57,12784.95 5362.97,12698.34 5184.64,12698.34 5255.24,12784.95 5184.61,12871.55 5362.97,12871.55 5365.61,12868.29 "/>
   <polygon class="fil3" points="4959.01,12707.16 4984.31,12758.35 5040.83,12766.58 4999.94,12806.44 5009.58,12862.72 4959.01,12836.15 4908.48,12862.72 4918.15,12806.44 4877.26,12766.58 4933.75,12758.35 "/>
   <polygon class="fil0" points="4959.01,12707.16 4951.11,12711.03 4978.45,12766.4 5021.89,12772.75 4990.44,12803.38 4997.85,12846.6 4959.01,12826.16 4920.2,12846.6 4926.83,12807.93 4927.6,12803.38 4896.21,12772.75 4935.02,12767.06 4939.61,12766.4 4966.95,12711.03 4959.01,12707.16 4951.11,12711.03 4959.01,12707.16 4951.11,12703.23 4927.9,12750.28 4858.32,12760.43 4908.66,12809.51 4896.77,12878.85 4959.01,12846.1 5021.29,12878.85 5009.4,12809.51 5059.78,12760.43 4990.16,12750.28 4959.01,12687.22 4951.11,12703.23 "/>
   <polygon class="fil14" points="6773.08,12816.57 5533.8,12816.57 5533.8,12753.28 6773.08,12753.28 "/>
   <polygon class="fil14" points="10002.29,12816.57 8877.3,12816.57 8877.3,12753.28 10002.29,12753.28 "/>
   <polygon class="fil12" points="8404.62,12816.57 7151.38,12816.57 7151.38,12753.28 8404.62,12753.28 "/>
   <path class="fil0" d="M10668.18 13043.89c-9.67,232.52 -142.12,430.11 -329.3,517.88l-5871.44 0c-187.53,-87.77 -319.98,-285.36 -329.65,-517.88l6530.38 0z"/>
   <polygon class="fil3" points="4697.99,13380.6 4542.39,13380.6 4542.39,13225.01 4697.99,13225.01 "/>
   <polygon class="fil3" points="5358.77,13380.6 5203.2,13380.6 5266.64,13302.8 5203.2,13225.01 5358.77,13225.01 5422.2,13302.8 "/>
   <polygon class="fil2" points="4959.01,13225.01 4984.31,13276.26 5040.83,13284.44 4999.94,13324.32 5009.58,13380.6 4959.01,13354.03 4908.48,13380.6 4918.15,13324.32 4877.26,13284.44 4933.75,13276.26 "/>
   <polygon class="fil14" points="6773.08,13334.45 5533.8,13334.45 5533.8,13271.19 6773.08,13271.19 "/>
   <polygon class="fil14" points="10002.29,13334.45 8877.3,13334.45 8877.3,13271.19 10002.29,13271.19 "/>
   <polygon class="fil12" points="8404.62,13334.45 7151.38,13334.45 7151.38,13271.19 8404.62,13271.19 "/>
   <path class="fil4" d="M11975.02 6144.57c-0.03,0.03 -10.12,7.2 -29.81,20.85 -19.68,13.62 -48.94,33.65 -87.07,59.2l14.74 21.98c76.46,-51.27 117.39,-80.41 117.5,-80.48l-15.35 -21.55zm-264.48 177.04c-36.34,23.43 -76.14,48.84 -119.19,75.93l14.08 22.37c43.15,-27.13 83.02,-52.58 119.43,-76.07l-14.32 -22.23zm-269.31 168.93c-38.5,23.5 -78.82,47.85 -120.92,72.97l13.55 22.72c42.16,-25.16 82.59,-49.58 121.16,-73.11l-13.79 -22.58zm-273.06 162.48c-39.63,22.96 -80.48,46.4 -122.5,70.21l13.05 23.04c42.1,-23.89 83.02,-47.36 122.72,-70.39l-13.27 -22.86zm-276.55 156.33c-40.4,22.26 -81.74,44.82 -123.95,67.54l12.56 23.28c42.27,-22.76 83.69,-45.34 124.16,-67.64l-12.77 -23.18zm-279.79 150.24c-41.11,21.48 -82.91,43.08 -125.4,64.74l12.03 23.57c42.56,-21.7 84.43,-43.33 125.61,-64.89l-12.24 -23.42zm-283.04 143.95c-41.71,20.6 -84,41.25 -126.84,61.89l11.5 23.84c42.91,-20.67 85.28,-41.35 127.06,-62.02l-11.72 -23.71zm-286.25 137.39c-42.27,19.69 -85.03,39.31 -128.22,58.85l10.91 24.13c43.29,-19.61 86.12,-39.27 128.5,-58.99l-11.19 -23.99zm-289.38 130.48c-42.84,18.66 -86.06,37.23 -129.67,55.64l10.3 24.34c43.69,-18.45 87.01,-37.05 129.91,-55.75l-10.54 -24.23zm-292.6 123.07c-43.37,17.57 -87.04,34.96 -131.04,52.18l9.63 24.63c44.1,-17.25 87.88,-34.68 131.36,-52.29l-9.95 -24.52zm-295.74 115.09c-43.9,16.37 -88.06,32.53 -132.45,48.45l8.92 24.91c44.5,-15.95 88.77,-32.14 132.77,-48.56l-9.24 -24.8 0 0zm-298.91 106.53c-44.43,15.06 -89.02,29.84 -133.87,44.35l8.15 25.19c44.95,-14.53 89.69,-29.39 134.22,-44.5l-8.5 -25.04zm-302.06 97.09c-44.77,13.58 -89.72,26.85 -134.85,39.8l7.3 25.44c45.24,-12.98 90.32,-26.28 135.24,-39.91l-7.69 -25.33zm-304.41 86.62c-45.35,12.03 -90.82,23.71 -136.41,34.99l6.35 25.69c45.73,-11.33 91.35,-23.04 136.83,-35.11l-6.77 -25.57zm-307.84 75.47c-45.84,10.3 -91.81,20.18 -137.82,29.63l5.29 25.9c46.23,-9.46 92.34,-19.37 138.35,-29.71l-5.82 -25.82 0 0zm-310.95 63.01c-46.29,8.36 -92.65,16.27 -139.05,23.68l4.17 26.1c46.57,-7.41 93.11,-15.35 139.61,-23.74l-4.69 -26.04 -0.04 0zm-313.41 49.16c-34.64,4.58 -69.29,8.89 -103.97,12.91 -12,1.37 -23.92,2.75 -35.85,4.12l2.99 26.29c11.93,-1.38 23.89,-2.75 35.89,-4.13 34.82,-4.02 69.65,-8.36 104.43,-12.98l-3.45 -26.21 -0.04 0zm-315.07 36.48c-47.21,5.05 -93.95,9.92 -140.28,14.61l2.64 26.35c46.4,-4.73 93.22,-9.6 140.46,-14.68l-2.82 -26.28zm-315.77 31.72c-47.29,4.41 -94.1,8.64 -140.47,12.66l2.3 26.35c46.43,-4.02 93.28,-8.25 140.63,-12.66l-2.46 -26.35zm-316.17 27.13c-47.35,3.67 -94.24,7.16 -140.64,10.4l1.87 26.43c46.44,-3.28 93.39,-6.78 140.82,-10.45l-2.05 -26.38zm-316.55 21.94c-47.46,2.86 -94.38,5.5 -140.78,7.9l1.38 26.42c46.47,-2.43 93.49,-5.04 141.02,-7.93l-1.62 -26.39 0 0zm-316.84 16.02c-47.56,1.94 -94.51,3.59 -140.92,5l0.82 26.46c46.5,-1.41 93.53,-3.1 141.16,-5.01l-1.06 -26.45zm-317.11 9.27c-47.6,0.85 -94.56,1.41 -140.96,1.7l0.18 26.45c46.47,-0.28 93.57,-0.84 141.27,-1.69l-0.49 -26.46zm-317.15 1.48c-47.64,-0.42 -94.59,-1.16 -140.89,-2.18l-0.6 26.46c46.44,1.02 93.5,1.76 141.27,2.18l0.22 -26.46zm-316.94 -7.65c-47.64,-1.91 -94.52,-4.16 -140.71,-6.74l-1.48 26.42c46.33,2.58 93.35,4.84 141.13,6.74l1.06 -26.42 0 0zm-316.38 -18.42c-47.6,-3.7 -94.38,-7.76 -140.32,-12.2l-2.54 26.35c46.12,4.45 93.04,8.5 140.81,12.21l2.05 -26.36zm-315.28 -31.32c-47.43,-5.82 -93.92,-12.03 -139.51,-18.7l-3.85 26.18c45.8,6.7 92.51,12.94 140.15,18.8l3.21 -26.28zm-313.17 -46.83c-47.1,-8.43 -93.11,-17.32 -138.13,-26.67l-5.4 25.9c45.27,9.42 91.56,18.34 138.88,26.81l4.65 -26.04zm-309.53 -65.8c-46.43,-11.61 -91.67,-23.74 -135.78,-36.45l-7.32 25.43c44.41,12.78 89.96,25.02 136.71,36.67l6.39 -25.65zm-303.36 -89.09c-45.27,-15.48 -89.2,-31.6 -131.85,-48.34l-9.67 24.63c43.03,16.9 87.32,33.12 132.97,48.76l8.55 -25.05zm-293.15 -117.42c-43.31,-20.18 -85.11,-41.11 -125.5,-62.7l-12.48 23.32c40.82,21.84 83.06,42.98 126.8,63.37l11.18 -23.99zm-276.8 -151.15c-40.15,-25.58 -78.67,-51.97 -115.65,-79.14l-15.67 21.35c37.47,27.51 76.46,54.23 117.09,80.12l14.23 -22.29 0 -0.04zm-252.09 -188.84c-35.53,-31.25 -69.39,-63.37 -101.69,-96.28l-18.89 18.52c32.76,33.37 67.11,65.95 103.1,97.63l17.48 -19.87zm-218.4 -226.72l-0.12 -0.18 0 0c-31.08,-38.14 -57.1,-76.21 -78.45,-114.11l-23.06 12.99c22.15,39.34 49.04,78.64 80.99,117.84l0.12 0.15 20.52 -16.73 0 0.04zm-142.2 -274.22c-10.07,-42.31 -14.85,-84.36 -14.85,-126.14 0,-3.49 0.05,-6.95 0.1,-10.44l-26.44 -0.49c-0.07,3.63 -0.11,7.26 -0.11,10.93 0,43.83 5.03,87.96 15.54,132.24l25.76 -6.1zm13.82 -305.79c13.52,-42.95 31.58,-85.53 53.68,-127.59l-23.43 -12.31c-22.73,43.33 -41.46,87.36 -55.5,131.96l25.25 7.94zm147.66 -274.05c27.42,-36.24 57.54,-71.97 89.94,-107.08l-19.44 -17.92c-32.92,35.67 -63.59,72.04 -91.6,109.02l21.1 15.98zm214.89 -229.9c34.32,-30.86 70.17,-61.11 107.25,-90.67l-16.49 -20.67c-37.46,29.84 -73.7,60.44 -108.45,91.66l17.69 19.68zm247.94 -195.85c38.25,-26.88 77.27,-53.03 116.81,-78.43l-14.32 -22.26c-39.8,25.57 -79.13,51.93 -117.7,79.03l15.21 21.66zm267.02 -170.06c40.95,-23.74 82.05,-46.65 123.03,-68.59l-12.5 -23.32c-41.23,22.08 -82.58,45.13 -123.8,69.01l13.27 22.9zm279.84 -148.61c43.3,-21.03 85.97,-40.86 127.7,-59.49l-10.78 -24.16c-41.98,18.73 -84.92,38.71 -128.47,59.84l11.55 23.81zm289.95 -127.76c45.2,-17.82 88.34,-33.8 128.92,-47.81l-8.64 -25.02c-40.97,14.15 -84.46,30.24 -129.98,48.2l9.7 24.63z"/>
   <polygon class="fil2" points="12201.25,5501.68 11982.68,6155.33 12467.29,5755.75 14341.05,5019.47 "/>
   <polygon class="fil15" points="11982.68,6155.33 12201.25,5501.68 14341.05,5019.47 12467.29,5755.75 "/>
   <polygon class="fil4" points="12534.79,5904.92 11982.68,6155.33 12467.29,5755.75 "/>
   <polygon class="fil2" points="12467.29,5755.75 14341.05,5019.47 12829.36,6574.95 "/>
   <polygon class="fil2" points="12201.25,5501.68 11401.57,5014.92 14341.05,5019.47 "/>
   <polygon class="fil3" points="3606.24,10151.56 11214.57,10151.56 11214.57,3860.67 3606.24,3860.67 "/>
   <path class="fil4" d="M11214.57 10151.56l-2.79 -6290.89 2.79 2.79 -7608.33 6 8.78 -8.79 -3.56 6290.85 -5.22 -5.18 7608.33 5.22zm0 0l-7608.33 5.18 -5.22 0 0 -5.22 -3.57 -6290.85 0 -8.78 8.79 0 7608.33 6 2.79 0 0 2.78 -2.79 6290.89z"/>
   <path class="fil16" d="M3937.97 4039.99c0,49.11 -39.84,88.91 -88.95,88.91 -49.11,0 -88.91,-39.81 -88.91,-88.91 0,-49.12 39.81,-88.95 88.91,-88.95 49.12,0 88.95,39.84 88.95,88.95z"/>
   <path class="fil4" d="M3937.97 4039.99c-0.35,-23.32 -10.34,-46.09 -26.95,-62 -16.83,-15.77 -39.91,-23.67 -62,-22.5 -44.99,1.72 -81.71,41.99 -80.12,84.5 -1.63,42.48 35.13,82.8 80.12,84.53 22.12,1.09 45.2,-6.77 62,-22.54 16.61,-15.91 26.6,-38.68 26.95,-61.99zm0 0c1.76,47.24 -39.28,91.69 -88.95,93.32 -24.37,1.12 -49.78,-7.77 -68.2,-25.12 -18.24,-17.5 -29.21,-42.63 -29.53,-68.2 0.29,-25.62 11.29,-50.74 29.5,-68.24 18.41,-17.46 43.86,-26.28 68.23,-25.15 49.72,1.62 90.68,46.15 88.95,93.39z"/>
   <path class="fil3" d="M4301.1 4039.99c0,49.11 -39.81,88.91 -88.91,88.91 -49.15,0 -88.95,-39.81 -88.95,-88.91 0,-49.12 39.81,-88.95 88.95,-88.95 49.11,0 88.91,39.84 88.91,88.95z"/>
   <path class="fil4" d="M4301.1 4039.99c-0.36,-23.32 -10.34,-46.09 -26.95,-62 -16.83,-15.77 -39.88,-23.67 -61.96,-22.5 -44.99,1.72 -81.72,41.99 -80.13,84.5 -1.66,42.48 35.1,82.8 80.13,84.53 22.08,1.09 45.16,-6.77 61.96,-22.54 16.61,-15.91 26.59,-38.68 26.95,-61.99zm0 0c1.76,47.24 -39.24,91.69 -88.91,93.32 -24.41,1.12 -49.79,-7.77 -68.24,-25.12 -18.24,-17.5 -29.17,-42.63 -29.53,-68.2 0.28,-25.62 11.29,-50.74 29.53,-68.24 18.38,-17.46 43.83,-26.28 68.24,-25.15 49.71,1.62 90.67,46.15 88.91,93.39z"/>
   <path class="fil2" d="M4664.26 4039.99c0,49.11 -39.84,88.91 -88.94,88.91 -49.12,0 -88.95,-39.81 -88.95,-88.91 0,-49.12 39.84,-88.95 88.95,-88.95 49.11,0 88.94,39.84 88.94,88.95z"/>
   <path class="fil4" d="M4664.26 4039.99c-0.39,-23.32 -10.33,-46.12 -26.99,-62 -16.79,-15.77 -39.87,-23.67 -61.95,-22.5 -44.99,1.72 -81.72,41.99 -80.13,84.5 -1.62,42.48 35.14,82.8 80.13,84.53 22.08,1.09 45.16,-6.77 61.99,-22.54 16.62,-15.91 26.6,-38.68 26.95,-61.99zm0 0c1.73,47.24 -39.27,91.73 -88.94,93.32 -24.38,1.12 -49.79,-7.77 -68.21,-25.12 -18.23,-17.5 -29.21,-42.63 -29.52,-68.2 0.24,-25.62 11.25,-50.74 29.49,-68.24 18.38,-17.46 43.86,-26.28 68.24,-25.15 49.71,1.62 90.67,46.15 88.94,93.39z"/>
   <polygon class="fil3" points="3606.24,4214.17 11214.57,4214.17 "/>
   <polygon class="fil4" points="3606.24,4214.17 4557.28,4209.87 5508.33,4208.32 7410.43,4205.39 9312.51,4208.32 10263.53,4209.87 11214.57,4214.17 10263.53,4218.48 9312.51,4220.04 7410.43,4222.97 5508.33,4220.04 4557.28,4218.44 "/>
   <polygon class="fil2" points="8842.98,8283.37 5963.09,8283.37 5963.09,5847.2 7402.8,4932.96 8842.98,5847.2 "/>
   <path class="fil15" d="M5963.09 8283.37l0 0 0 -2436.16 150.76 -95.72 1.13 793.47c-50.42,-29.67 -100.98,-59.1 -151.89,-87.92l0 1826.34zm2723.61 -1735.87l1.73 -798.37 154.54 98.08 0 609.83c-52.4,29.67 -104.4,59.95 -156.27,90.46z"/>
   <polygon class="fil3" points="8680.56,8096.97 6125.49,8096.97 6125.49,4817.05 8022.61,4817.05 8680.56,5442.02 "/>
   <path class="fil4" d="M8680.56 8096.97l-8.54 -2654.95 2.65 6.17 -658.9 -623.9 6.84 2.75 -1897.08 3 12.94 -12.99 -4.62 3279.92 -8.32 -8.36 2555.03 8.36zm0 0l-2555.03 8.33 -8.36 0.03 0 -8.36 -4.63 -3279.92 -0.03 -12.98 13.02 0.04 1897.08 2.99 3.99 0 2.89 2.72 656.96 626.02 2.65 2.54 0 3.64 -2.89 1329.81 -5.65 1325.15z"/>
   <polygon class="fil14" points="8022.61,4817.05 8680.56,5442.02 8022.61,5442.02 "/>
   <polygon class="fil14" points="6374.77,5367.4 7795.36,5367.4 7795.36,5451.61 6374.77,5451.61 "/>
   <polygon class="fil14" points="6374.77,5579.97 7795.36,5579.97 7795.36,5664.19 6374.77,5664.19 "/>
   <polygon class="fil14" points="6374.77,5792.55 7795.36,5792.55 7795.36,5876.77 6374.77,5876.77 "/>
   <polygon class="fil14" points="6374.77,6005.13 8456.16,6005.13 8456.16,6089.35 6374.77,6089.35 "/>
   <polygon class="fil14" points="6374.77,6217.71 8456.16,6217.71 8456.16,6301.96 6374.77,6301.96 "/>
   <polygon class="fil14" points="6374.77,6430.29 8456.16,6430.29 8456.16,6514.51 6374.77,6514.51 "/>
   <polygon class="fil14" points="6374.77,6727.09 8456.17,6727.09 8456.17,6642.86 6374.77,6642.86 "/>
   <polygon class="fil14" points="6374.77,6939.66 8456.17,6939.66 8456.17,6855.48 6374.77,6855.48 "/>
   <polygon class="fil14" points="6374.77,7152.28 8456.17,7152.28 8456.17,7068.02 6374.77,7068.02 "/>
   <polygon class="fil14" points="6374.77,7364.86 8456.17,7364.86 8456.17,7280.64 6374.77,7280.64 "/>
   <polygon class="fil14" points="6374.77,7577.44 8456.17,7577.44 8456.17,7493.17 6374.77,7493.17 "/>
   <polygon class="fil14" points="6374.77,7789.98 8456.17,7789.98 8456.17,7705.8 6374.77,7705.8 "/>
   <path class="fil2" d="M8842.98 6457.03l0 1826.34 -2879.89 0 0 -1826.34c123.7,70.04 245.21,143.56 367.61,215.37 121.94,73.07 243.9,146.17 364.99,220.55 134.96,82.17 269.88,165.61 404.38,249.98l4.34 -2.61 -3.45 3.03c100.72,62.74 201.5,125.86 302.26,189.02 100.34,-63.16 201.15,-126.74 301.88,-189.02l-3.46 -3.03 4.3 2.19c134.54,-83.94 269.04,-167.38 404.38,-249.99 121.13,-73.95 242.64,-147.48 364.58,-220.12 122.85,-71.81 244.36,-145.33 368.07,-215.37z"/>
   <path class="fil17" d="M7402.8 7403.7l-15.98 -9.95c-110.73,-70.5 -221.01,-140.99 -331.31,-211.91 15.17,-12.52 30.3,-25.5 45.45,-38.5l0 0c100.72,62.74 201.5,125.86 302.26,189.02 100.34,-63.16 201.15,-126.74 301.88,-189.02l0 0c15.17,12.99 30.27,25.97 45.87,38.92 -110.3,70.5 -221.01,140.99 -331.73,211.49l-16.44 9.95z"/>
   <path class="fil15" d="M7762.19 7174.5c-18.56,-10.83 -37.16,-21.2 -56.25,-31.99l0 0c134.54,-83.94 269.04,-167.38 404.38,-249.99 121.13,-73.95 242.64,-147.48 364.58,-220.12 122.85,-71.81 244.36,-145.33 368.07,-215.37l0 0c-116.37,81.71 -234.84,160 -352.06,240.45 -118.06,78.68 -236.56,157.39 -355.51,235.22 -124.09,81.33 -248.67,161.77 -373.21,241.79l0 0zm-718.32 0l0 0c-125.01,-80.02 -249.56,-160.46 -373.68,-242.21 -118.48,-77.41 -236.99,-156.12 -355.05,-234.8 -117.21,-80.45 -235.72,-158.74 -352.05,-240.45 123.7,70.04 245.21,143.56 367.61,215.37 121.94,73.07 243.9,146.17 364.99,220.55 134.96,82.17 269.88,165.61 404.38,249.98l0 0c-19.01,10.37 -37.61,20.74 -56.2,31.57z"/>
   <path class="fil15" d="M5970 7933.05c87.36,-76.53 178.18,-147.87 269.88,-217.52 92.12,-70.07 185.98,-137.11 279.79,-203.69 95.16,-65.76 190.32,-130.65 287.63,-192.89 77.41,-49.75 156.12,-98.61 236.57,-144.45l0 0c18.59,-10.83 37.19,-21.2 56.2,-31.57l0 0 4.34 -2.61 -3.45 3.03 0 0c-15.14,12.99 -30.27,25.97 -45.45,38.5l0 0c-72.19,61.01 -146.18,119.37 -221.4,176.02 -91.7,70.07 -185.56,137.08 -279.83,203.69 -94.69,65.31 -189.86,130.16 -287.16,192.47 -97.31,62.28 -195.47,123.25 -297.12,179.03z"/>
   <path class="fil15" d="M8836.06 7933.05c-101.64,-55.78 -200.23,-116.75 -297.11,-179.03 -97.31,-62.31 -192.44,-127.16 -287.59,-192.47 -94.27,-66.61 -188.17,-133.62 -279.83,-203.69 -74.8,-56.66 -148.79,-114.64 -220.55,-175.6l0 0c-15.59,-12.94 -30.69,-25.92 -45.87,-38.92l0 0 0 0 -3.46 -3.03 4.3 2.19c19.09,10.79 37.69,21.16 56.25,31.99l0 0c80.47,45.84 158.73,94.7 236.56,144.45 97.31,62.24 192.44,127.13 287.17,192.89 94.31,66.58 188.13,133.62 279.83,203.69 92.12,69.65 182.94,140.99 270.3,217.52z"/>
   <polygon class="fil2" points="8632.3,9584.6 6188.51,9584.6 6188.51,9066.79 8632.3,9066.79 "/>
   <polygon class="fil4" points="5401.6,8581.44 5903.81,8577.17 6405.99,8575.58 7410.43,8572.66 8414.78,8575.58 8917.03,8577.14 9419.21,8581.44 8917.03,8585.74 8414.78,8587.3 7410.43,8590.26 6405.99,8587.3 5903.81,8585.74 "/>
   <path class="fil4" d="M6099.88 8736.33c218.43,-3.25 436.83,-5.61 655.27,-6.77l655.27 -2.05 655.23 2.01c218.4,1.16 436.83,3.53 655.27,6.81 -218.44,3.21 -436.87,5.57 -655.27,6.77l-655.23 2.01 -655.27 -2.04c-218.44,-1.17 -436.84,-3.57 -655.27,-6.74z"/>
   <path class="fil18" d="M6636.51 9232.13c-24.17,-7.25 -38.08,-11.18 -63.16,-11.18 -29.92,0 -57.73,5.14 -82.51,23.57 -10.58,7.86 -16.92,15.72 -19.95,19.95 -18.73,25.38 -19.64,56.21 -19.64,66.79 0,12.99 1.21,44.43 24.78,72.54 26.29,31.42 59.24,36.57 72.84,38.38 6.04,0.91 14.2,1.82 28.1,1.82 32.94,0 44.13,-3.63 61.05,-9.07l-3.02 -47.45c-9.37,3.93 -26.29,12.39 -52.29,12.39 -30.82,0 -48.05,-14.21 -56.52,-23.88 -14.5,-16.62 -15.41,-37.17 -15.41,-44.73 0,-15.11 3.93,-50.78 44.43,-63.77 10.88,-3.63 19.65,-3.93 24.18,-3.93 19.94,0 34.15,6.04 52.59,13.6l4.53 -45.04z"/>
   <path id="_1" class="fil18" d="M6659.18 9330.67c-0.3,31.73 9.97,65.88 34.15,87.64 26.89,24.48 62.86,26.29 74.35,26.29 30.82,0 63.47,-11.78 83.41,-35.97 22.67,-27.5 23.87,-65.28 23.87,-76.46 0,-40.2 -15.41,-66.8 -25.98,-78.58 -12.09,-13.6 -38.39,-32.34 -82.51,-32.64 -27.8,0 -45.94,8.16 -55.92,13.3 -17.22,9.37 -26.59,20.55 -31.12,26.59 -14.21,19.34 -20.25,44.73 -20.25,69.82zm59.84 -2.42c0.31,-4.53 1.21,-46.25 28.71,-60.75 8.16,-4.23 15.41,-4.84 19.04,-4.84 14.81,0 24.18,7.56 28.41,10.88 4.53,4.53 8.16,9.67 9.36,11.49 6.35,9.97 11.19,23.87 11.19,49.56 0,23.58 -5.14,36.58 -10.58,45.34 -3.63,5.74 -15.41,22.37 -37.48,22.37 -19.04,0 -33.24,-11.79 -41.11,-29.02 -7.56,-17.22 -7.56,-40.5 -7.56,-45.03z"/>
   <path id="_2" class="fil18" d="M6911.54 9226.99l0 211.57 52.89 0 0 -59.24c-0.3,-29.92 -1.21,-59.85 -2.42,-89.76 5.75,12.39 11.19,24.48 17.23,36.57 9.37,19.04 20.25,37.48 30.82,55.92 10.58,18.73 21.16,37.78 31.43,56.82l71.03 0 0 -211.87 -53.2 0c-0.3,27.5 -0.3,54.71 0,81.91 0.3,22.06 1.51,44.13 2.42,66.19 -5.74,-12.09 -11.18,-24.18 -17.53,-35.97 -7.86,-15.41 -16.92,-30.22 -25.38,-45.34 -12.7,-22.06 -25.09,-44.13 -37.48,-66.49l-69.82 -0.31z"/>
   <polygon id="_3" class="fil18" points="7133.08,9226.99 7133.08,9269.61 7186.27,9269.61 7186.27,9438.56 7243.69,9438.56 7243.69,9269.31 7295.68,9269.31 7295.68,9226.99 "/>
   <path id="_4" class="fil18" d="M7352.5 9226.69l-80.4 211.87 56.83 0 16.31 -43.23 80.7 0 16.02 43.53 60.75 0 -80.4 -212.17 -69.81 0zm33.84 44.33l26.29 85.03 -54.4 0 28.1 -85.03z"/>
   <path id="_5" class="fil18" d="M7688.27 9232.13c-24.17,-7.25 -38.08,-11.18 -63.16,-11.18 -29.92,0 -57.73,5.14 -82.51,23.57 -10.58,7.86 -16.92,15.72 -19.95,19.95 -18.73,25.38 -19.64,56.21 -19.64,66.79 0,12.99 1.21,44.43 24.78,72.54 26.29,31.42 59.24,36.57 72.84,38.38 6.04,0.91 14.2,1.82 28.1,1.82 32.94,0 44.13,-3.63 61.05,-9.07l-3.02 -47.45c-9.37,3.93 -26.29,12.39 -52.29,12.39 -30.82,0 -48.05,-14.21 -56.52,-23.88 -14.5,-16.62 -15.41,-37.17 -15.41,-44.73 0,-15.11 3.93,-50.78 44.43,-63.77 10.88,-3.63 19.65,-3.93 24.18,-3.93 19.94,0 34.15,6.04 52.59,13.6l4.53 -45.04z"/>
   <polygon id="_6" class="fil18" points="7699.77,9226.99 7699.77,9269.61 7752.96,9269.61 7752.96,9438.56 7810.38,9438.56 7810.38,9269.31 7862.37,9269.31 7862.37,9226.99 "/>
   <path id="_7" class="fil18" d="M7969.35 9226.39l0 141.45c1.51,12.69 2.42,22.36 8.16,33.54 11.18,22.66 33.24,34.75 56.82,39.9 11.79,2.72 21.76,2.72 26.29,2.72 32.33,0 69.21,-11.49 84.62,-43.53 6.05,-12.69 7.26,-23.87 8.47,-37.78l0 -136.61 -57.13 0 0 129.66c-0.6,18.43 -2.42,25.68 -8.16,33.54 -9.06,12.39 -21.76,13 -27.2,13 -5.74,0 -18.43,-0.91 -27.19,-13.6 -6.35,-9.67 -7.25,-19.04 -7.56,-30.22l0 -132.08 -57.12 0z"/>
   <path id="_8" class="fil18" d="M8335.37 9229.71c-22.06,-4.83 -38.39,-8.46 -61.36,-8.46 -35.66,0 -54.7,9.07 -67.09,19.95 -18.74,16.01 -20.85,35.97 -20.85,45.34 0,25.38 14.5,40.5 21.45,46.24 14.51,11.48 34.45,16.92 50.48,21.76 14.5,4.53 20.24,6.95 24.78,13.9 0.9,1.51 3.02,5.14 3.02,10.58 0,6.64 -3.93,12.99 -9.67,16.92 -2.72,1.51 -6.04,3.02 -12.69,3.93 -2.12,0.3 -8.16,0.9 -14.21,0.9 -21.45,0 -36.57,-5.44 -57.12,-13.29l-5.14 45.34c12.09,3.32 34.76,10.88 66.19,10.88 34.15,0 52.9,-7.56 65.89,-16.63 23.87,-17.22 26.29,-39.89 26.29,-51.08 0,-26.29 -14.2,-42.61 -21.15,-48.66 -9.97,-8.16 -24.78,-15.11 -51.69,-22.96 -8.76,-2.42 -17.52,-4.84 -23.27,-12.7 -3.32,-3.92 -3.62,-7.55 -3.62,-9.36 0,-6.35 4.83,-13 10.58,-16.02 8.76,-4.53 25.68,-4.53 26.29,-4.53 21.75,0 42.92,8.76 48.96,10.88l3.93 -42.93z"/>
  </g>
 </g>
</svg>
