<svg version="1.1" id="Capa_1" xmlns="http://www.w3.org/2000/svg" xmlns:xlink="http://www.w3.org/1999/xlink" x="0px" y="0px" width="100px" height="100px" viewBox="0 0 100 100" style="enable-background:new 0 0 32 32;" xml:space="preserve"><g><g><path d="M20.316 19.528c1.375 1.047 2.788 2.044 4.253 2.934A59.375 59.375 0 0 0 22.566 28.125h6.022c0.344 -1.006 0.672 -2.028 1.063 -2.984 2.791 1.278 5.7 2.253 8.684 2.984h23.347a46.875 46.875 0 0 0 8.787 -3.038c0.391 0.969 0.716 2.013 1.072 3.038h5.909c-0.591 -1.966 -1.25 -3.859 -2.003 -5.663 1.472 -0.891 2.888 -1.887 4.25 -2.934 2.625 2.556 4.913 5.447 6.809 8.597h8.4c-8.138 -16.619 -25.178 -28.125 -44.9 -28.125C30.278 0 13.244 11.506 5.109 28.125h8.394a42.813 42.813 0 0 1 6.813 -8.597m55.025 -3.675c-0.769 0.55 -1.541 1.091 -2.344 1.591a43.75 43.75 0 0 0 -3.253 -5.144c1.975 1.031 3.831 2.234 5.597 3.553m-7.234 4.216c-2.525 1.159 -5.125 2.094 -7.8 2.75 -0.747 -5.4 -1.825 -10.612 -3.359 -14.6 4.319 2.184 8.144 6.328 11.159 11.85M49.438 7.434c0.191 -0.003 0.375 -0.025 0.569 -0.025s0.378 0.022 0.569 0.025c1.369 2.241 3.016 7.834 4.231 16.341 -1.591 0.188 -3.191 0.306 -4.797 0.306 -1.616 0 -3.212 -0.119 -4.797 -0.306 1.209 -8.506 2.856 -14.1 4.225 -16.341m-6.403 0.872c-1.516 3.975 -2.584 9.147 -3.328 14.516 -2.634 -0.644 -5.191 -1.563 -7.666 -2.688 3.003 -5.472 6.775 -9.616 10.994 -11.828M30.262 12.3c-1.169 1.569 -2.247 3.313 -3.256 5.144a43.75 43.75 0 0 1 -2.341 -1.587 40.625 40.625 0 0 1 5.597 -3.556"/><path d="M79.697 80.475a50 50 0 0 0 -4.25 -2.941c0.741 -1.794 1.406 -3.694 2.003 -5.659h-5.909c-0.341 1.025 -0.675 2.063 -1.066 3.034A48.125 48.125 0 0 0 61.684 71.875h-23.344c-2.984 0.731 -5.891 1.709 -8.681 2.984 -0.397 -0.959 -0.722 -1.984 -1.069 -2.984H22.572c0.591 1.966 1.253 3.862 2 5.663 -1.469 0.891 -2.878 1.887 -4.253 2.931A42.5 42.5 0 0 1 13.516 71.875H5.119c8.134 16.613 25.169 28.125 44.894 28.125s36.762 -11.513 44.897 -28.125h-8.4a43.125 43.125 0 0 1 -6.813 8.6m-55.031 3.675c0.769 -0.55 1.544 -1.094 2.341 -1.587a43.75 43.75 0 0 0 3.256 5.141 41.875 41.875 0 0 1 -5.597 -3.553m7.369 -4.278c2.475 -1.113 5.031 -2.041 7.666 -2.681 0.744 5.372 1.812 10.525 3.328 14.516 -4.213 -2.222 -7.984 -6.372 -10.994 -11.834m18.541 12.694c-0.191 0.006 -0.375 0.025 -0.569 0.025s-0.378 -0.019 -0.569 -0.025c-1.369 -2.241 -3.019 -7.838 -4.231 -16.341 1.584 -0.188 3.184 -0.309 4.797 -0.309 1.616 0 3.212 0.122 4.8 0.309 -1.222 8.503 -2.859 14.1 -4.228 16.341m6.372 -0.787c1.534 -3.984 2.612 -9.197 3.359 -14.6 2.675 0.659 5.275 1.594 7.8 2.753 -3.016 5.525 -6.841 9.669 -11.159 11.847m12.797 -4.078c1.172 -1.575 2.256 -3.319 3.253 -5.144 0.803 0.5 1.575 1.044 2.344 1.594 -1.766 1.319 -3.622 2.519 -5.597 3.55"/><path d="m14.984 59.938 1.991 -6.988c0.528 -1.862 0.934 -3.697 1.3 -6.178h0.081c0.406 2.438 0.772 4.231 1.259 6.178l1.869 6.988h5.809l6.094 -19.859H27.337l-1.706 7.878a100 100 0 0 0 -1.137 6.784h-0.081c-0.406 -2.278 -0.934 -4.503 -1.463 -6.744l-1.991 -7.919h-4.875l-2.113 8.162a96.875 96.875 0 0 0 -1.463 6.5h-0.081a128.125 128.125 0 0 0 -1.137 -6.544l-1.584 -8.128H3.406l5.769 19.866h5.809z"/><path d="M57.231 47.95a93.75 93.75 0 0 0 -1.131 6.788h-0.084c-0.403 -2.278 -0.934 -4.506 -1.459 -6.747l-2 -7.919h-4.875l-2.113 8.162a100 100 0 0 0 -1.463 6.503h-0.081a128.125 128.125 0 0 0 -1.137 -6.547l-1.584 -8.128h-6.297l5.769 19.866h5.809l1.991 -6.984c0.528 -1.872 0.934 -3.7 1.3 -6.181h0.081c0.406 2.438 0.775 4.231 1.263 6.181l1.869 6.984h5.809l6.084 -19.866h-6.056z"/><path d="M88.844 47.95a93.75 93.75 0 0 0 -1.134 6.788h-0.078c-0.403 -2.278 -0.938 -4.506 -1.466 -6.747l-1.991 -7.919h-4.881l-2.116 8.162c-0.484 1.95 -1.056 4.228 -1.466 6.503h-0.075a128.125 128.125 0 0 0 -1.134 -6.547l-1.587 -8.128h-6.303l5.778 19.866h5.8l2 -6.984c0.525 -1.872 0.934 -3.7 1.3 -6.181h0.075c0.403 2.438 0.769 4.231 1.256 6.181l1.869 6.984h5.809l6.091 -19.866h-6.056z"/></g></g></svg>