<?xml version="1.0" encoding="UTF-8"?>
<!DOCTYPE svg PUBLIC "-//W3C//DTD SVG 1.1//EN" "http://www.w3.org/Graphics/SVG/1.1/DTD/svg11.dtd">
<!-- Creator: CorelDRAW -->
<svg xmlns="http://www.w3.org/2000/svg" xml:space="preserve" width="184.54mm" height="142.566mm" version="1.1" style="shape-rendering:geometricPrecision; text-rendering:geometricPrecision; image-rendering:optimizeQuality; fill-rule:evenodd; clip-rule:evenodd"
viewBox="0 0 18454.56 14257.01"
 xmlns:xlink="http://www.w3.org/1999/xlink"
 xmlns:xodm="http://www.corel.com/coreldraw/odm/2003">
 <defs>
  <style type="text/css">
   <![CDATA[
    .fil6 {fill:#A1A1A1;fill-rule:nonzero}
    .fil14 {fill:#A1A1A1;fill-rule:nonzero}
    .fil16 {fill:#5F5D5D;fill-rule:nonzero}
    .fil1 {fill:#002346;fill-rule:nonzero}
    .fil5 {fill:#0D2445;fill-rule:nonzero}
    .fil2 {fill:#488EFE;fill-rule:nonzero}
    .fil8 {fill:#488EFE;fill-rule:nonzero}
    .fil3 {fill:#AB7B02;fill-rule:nonzero}
    .fil13 {fill:#E6E7E8;fill-rule:nonzero}
    .fil9 {fill:#F1C4B3;fill-rule:nonzero}
    .fil15 {fill:#F2B3C1;fill-rule:nonzero}
    .fil11 {fill:#F7A48B;fill-rule:nonzero}
    .fil4 {fill:#FFBA0A;fill-rule:nonzero}
    .fil10 {fill:#FFCB47;fill-rule:nonzero}
    .fil12 {fill:#FFCB47;fill-rule:nonzero}
    .fil0 {fill:white;fill-rule:nonzero}
    .fil7 {fill:black;fill-rule:nonzero;fill-opacity:0.301961}
   ]]>
  </style>
 </defs>
 <g id="Layer_x0020_1">
  <metadata id="CorelCorpID_0Corel-Layer"/>
  <g id="_2246389227472">
   <polygon class="fil0" points="3632.99,0 2107.36,0 2107.36,1478.28 2630.72,1478.28 2894.52,1771.98 3112.28,1478.28 3632.99,1478.28 "/>
   <g>
    <polygon class="fil0" points="2120.59,1465.05 2636.54,1465.05 2893.46,1751.07 3105.14,1465.05 3619.23,1465.05 3619.23,13.23 2120.59,13.23 "/>
    <path class="fil1" d="M2894.52 1771.98l-263.8 -293.7 -523.37 0 0 -1478.28 1525.11 0 0 1478.28 -520.72 0 -217.23 293.7zm-760.7 -320.16l508.55 0 250.04 278.35 206.12 -278.35 507.49 0 0 -1425.35 -1472.19 0 0 1425.35z"/>
   </g>
   <g>
    <path class="fil2" d="M2619.34 554.06l135.73 0c-0.26,-63.76 51.06,-115.62 114.83,-115.89l3.44 0c46.57,-1.59 89.16,26.72 105.83,70.11 14.55,35.98 11.11,76.73 -9.53,109.8 -23.02,37.84 -73.55,72.23 -164.85,56.36l0 306.93 134.16 0 0 -180.46c112.98,-33.34 189.98,-138.11 187.86,-255.86 0,-198.18 -177.81,-244.22 -253.75,-244.22 -57.94,0 -256.39,14.02 -253.75,253.22l0.01 0z"/>
    <path class="fil1" d="M2952.2 994.6l-160.35 0 0 -335.5 15.35 2.65c94.99,16.4 135.73,-24.34 151.34,-50.27 18.52,-29.37 21.7,-66.15 8.47,-98.16 -14.82,-38.36 -51.86,-63.76 -93.13,-61.91l-3.98 -0.01c-27.25,0 -52.92,10.85 -72.23,30.16 -19.31,19.31 -29.63,45.24 -29.63,72.5l0 13.23c0,0 -161.94,0 -161.94,0l0 -12.96c-1.06,-82.81 21.43,-147.9 66.68,-193.69 62.71,-63.24 152.14,-72.76 200.04,-72.76 74.08,0 266.71,46.3 266.71,257.19 2.12,119.86 -74.61,227.55 -187.86,265.39l0 183.9 0.52 0.25zm-134.15 -26.19l107.95 0 0 -177.28 9.53 -2.65c107.16,-31.49 180.46,-131.5 178.6,-243.16 0,-189.72 -173.84,-231.26 -240.52,-231.26 -43.66,0 -125.68,8.47 -181.51,64.82 -37.84,38.1 -57.68,92.6 -59.27,161.94l110.07 0c2.91,-29.37 15.61,-56.62 36.51,-77.79 24.08,-24.34 56.36,-37.84 90.75,-38.1l3.44 0c51.06,-2.12 99.22,29.9 118,78.58 16.14,39.42 12.17,84.93 -10.58,121.44 -14.55,24.08 -59.53,77.26 -162.73,64.56l0 278.62 -0.26 0.27z"/>
   </g>
   <g>
    <rect class="fil2" x="2804.82" y="1043.02" width="136" height="127"/>
    <path class="fil1" d="M2954.05 1183.26l-162.2 0 0 -153.19 162.2 0 0 153.19zm-136 -26.19l109.8 0 0 -100.81 -109.8 0 0 100.81z"/>
   </g>
  </g>
  <g id="_2246389241776">
   <g>
    <path class="fil3" d="M7676.48 9711.05l-341.32 1783.09 -910.2 0 1693.38 -8851.65 1428.8 0 1693.38 8851.65 -984.28 0 -341.59 -1783.09 -2238.18 0zm127 -846.7l1972 0 -998.83 -5109.26 -973.17 5109.26z"/>
    <path class="fil1" d="M11256.67 11507.36l-1011.27 0 -341.59 -1783.09 -2216.22 0 -341.32 1783.09 -937.18 0 2.91 -15.61 1695.5 -8862.5 1450.76 0 2.12 10.85 1696.29 8867.26zm-989.31 -26.46l957.29 0 -1688.36 -8825.19 -1406.82 0 -1688.36 8825.19 883.21 0 341.32 -1783.09 2260.14 0 341.59 1783.09zm-475.73 -2603.32l-2004.01 0 2.91 -15.61 985.87 -5176.47 1014.97 5192.34 0.26 -0.26zm-1972 -26.46l1939.99 0 -982.69 -5026.19 -957.29 5026.19 -0.01 0z"/>
   </g>
   <g>
    <path class="fil4" d="M7063.95 9711.05l-341.59 1783.09 -910.46 0 1693.38 -8851.65 1428.8 0 1693.38 8851.65 -984.02 0 -341.32 -1783.09 -2238.18 0zm126.74 -846.7l1972 0 -999.36 -5109.26 -972.64 5109.26z"/>
    <path class="fil1" d="M10643.61 11507.36l-1011 0 -2.12 -10.85 -339.21 -1772.24 -2216.22 0 -341.59 1783.09 -937.44 0 2.91 -15.61 1695.5 -8862.5 1450.76 0 2.12 10.85 1696.29 8867.26zm-989.04 -26.46l957.02 0 -1688.36 -8825.19 -1406.82 0 -1688.36 8825.19 883.48 0 341.59 -1783.09 2260.13 0 2.12 10.85 339.21 1772.24zm-475.73 -2603.32l-2004.02 0 2.91 -15.61 985.34 -5176.47 1015.5 5192.34 0.27 -0.26zm-1972 -26.46l1939.98 0 -983.22 -5026.19 -956.76 5026.19z"/>
   </g>
  </g>
  <g id="_2246389240288">
   <g>
    <polygon class="fil3" points="6219.38,6765.34 6219.38,7663.1 4183.34,7663.11 4183.34,11494.13 3196.95,11494.13 3196.95,2642.48 6712.57,2642.48 6712.57,3539.98 4183.34,3539.97 4183.34,6765.34 "/>
    <path class="fil1" d="M4196.57 11507.36l-1012.85 0 0 -8878.11 3542.08 0 0 923.96 -2529.23 -0.01 0 3198.91 2036.03 0 0 924.22 -2036.03 0 0 3831.02 0 0.01zm-986.4 -26.46l959.94 0 0 -3831.02 2036.03 0 0 -871.3 -2036.03 -0.01 0 -3251.83 2529.24 0 0 -871.04 -3489.18 0.01 0 8825.19z"/>
   </g>
   <g>
    <polygon class="fil4" points="5820.1,6768.78 5820.1,7666.54 3784.34,7666.54 3784.34,11499.15 2797.94,11499.15 2797.94,2647.5 6313.31,2647.5 6313.31,3545.26 3784.34,3545.26 3784.34,6768.78 "/>
    <path class="fil1" d="M3797.57 11512.38l-1012.86 0 0 -8878.11 3541.83 0 0 924.22 -2528.97 0 0 3197.06 2035.76 0 0 924.22 -2035.76 0 0 3832.61zm-986.4 -26.45l959.94 0 0 -3832.61 2035.77 0 0 -871.3 -2035.77 -0.01 0 -3249.98 2528.97 0.01 0 -871.3 -3488.91 -0.01 0 8825.2z"/>
   </g>
  </g>
  <g id="_2246389243408">
   <g>
    <path class="fil3" d="M15727.21 4780.91l0 4577.43c0,543.74 -113.77,1024.23 -341.59,1378.25 101.34,215.12 264.59,278.35 544,278.35l126.74 0.01 0 873.16 -164.32 -0.01c-555.65,0 -923.16,-202.15 -1125.58,-568.87 -278.35,164.32 -644.81,264.59 -1075.03,264.59 -1352.85,0 -2023.06,-885.33 -2023.06,-2225.75l0 -4577.16c0,-1353.12 670.21,-2225.75 2023.06,-2225.75 1365.55,-1.32 2035.76,871.3 2035.76,2225.75l0.01 0zm-3085.41 -52.92l0 4679.57c0,809.39 341.32,1277.18 1049.37,1277.18 708.05,0 1049.9,-467.79 1049.9,-1277.18l0 -4679.57c0,-796.69 -329.15,-1276.92 -1049.9,-1276.92 -720.75,0 -1049.37,480.24 -1049.37,1276.92z"/>
    <path class="fil1" d="M16069.6 11901.33l-177.55 0c-538.18,0 -918.4,-189.72 -1130.6,-563.85 -293.43,169.87 -663.07,259.57 -1070.01,259.57 -1294.12,0 -2036.29,-816.01 -2036.29,-2238.97l0 -4577.17c0,-693.49 170.67,-1241.47 507.49,-1629.09 351.91,-404.82 866.28,-609.88 1528.81,-609.88l3.18 -0.01c666.77,0 1183.79,204.8 1536.75,609.09 337.88,386.83 509.08,935.07 509.08,1629.88l0 4577.43c0,553.53 -117.48,1030.32 -339.74,1379.05 93.13,192.36 237.34,264.33 528.92,264.33l139.97 0.01 0 899.61zm-1298.09 -600.36l6.61 11.91c205.86,372.81 580.78,562 1113.94,562l151.08 -0.01 0 -846.7 -113.51 0.01c-252.95,0 -444.25,-48.68 -555.91,-286.02l-3.18 -6.61 3.97 -6.09c222,-345.03 339.47,-819.18 339.47,-1371.11l0.01 -4577.44c0,-688.2 -169.08,-1230.88 -502.46,-1612.69 -347.67,-397.94 -858.07,-599.83 -1516.91,-599.83l-3.18 0c-1277.18,0 -2009.84,806.48 -2009.84,2212.52l0 4577.17c0,1406.04 732.65,2212.52 2009.84,2212.52 407.73,0 777.1,-90.75 1068.42,-262.74l11.64 -6.88 0 -0.01zm-1080.32 -603c-695.08,0 -1062.6,-446.1 -1062.6,-1290.41l0 -4679.58c0,-831.88 377.31,-1290.15 1062.6,-1290.15 685.29,0 1063.13,446.1 1063.13,1290.15l0 4679.57c0,856.22 -357.73,1290.41 -1063.13,1290.41l0 0.01zm0 -7233.68c-677.88,0 -1036.14,436.84 -1036.14,1263.69l0 4679.57c0,826.85 358.26,1263.95 1036.14,1263.95 677.88,0 1036.67,-425.2 1036.67,-1263.95l0 -4679.57c0,-826.85 -358.52,-1263.69 -1036.67,-1263.69z"/>
   </g>
   <g>
    <path class="fil4" d="M15114.42 4770.06l0 4577.43c0,543.74 -113.77,1024.5 -341.32,1378.52 101.07,214.85 264.59,278.09 543.74,278.09l127 0 0 871.57 -164.32 0c-555.65,0 -923.43,-202.42 -1125.31,-569.14 -278.35,164.32 -645.07,264.59 -1075.03,264.59 -1353.12,0 -2023.06,-885.33 -2023.06,-2225.75l-0.01 -4577.43c0,-1353.12 669.95,-2225.75 2023.06,-2225.75 1365.03,3.18 2035.24,875.54 2035.24,2227.86l0 0.01zm-3086.2 -49.48l0 4678.78c0,809.39 341.32,1276.92 1049.37,1276.92 708.05,0 1049.63,-467.53 1049.63,-1276.92l0 -4678.78c0,-796.69 -328.89,-1277.45 -1049.63,-1277.45 -720.74,0 -1049.37,480.77 -1049.37,1277.45z"/>
    <path class="fil1" d="M15457.07 11888.9l-177.55 0c-538.45,0 -918.66,-189.72 -1130.34,-564.11 -293.43,169.87 -663.07,259.57 -1070.01,259.57 -1294.12,0 -2036.29,-816.01 -2036.29,-2238.97l0.01 -4577.45c0,-693.49 170.67,-1241.73 507.23,-1629.09 351.91,-404.82 866.28,-609.88 1529.08,-609.88 668.09,1.59 1186.17,207.71 1539.4,612.53 337.62,387.1 509.08,935.07 509.08,1628.56l0 4577.43c0,553.79 -117.48,1030.58 -339.47,1379.58 92.87,192.36 237.08,263.8 528.66,263.8l140.21 0 0 898.03zm-1297.82 -600.63l6.61 11.91c205.33,373.07 579.99,562.26 1113.67,562.26l151.08 0 0 -845.11 -113.77 0c-252.95,0 -444.25,-48.68 -555.65,-285.76l-3.18 -6.61 3.97 -6.09c222,-345.29 339.21,-819.44 339.21,-1371.38l0 -4577.43c0,-1425.09 -718.1,-2211.46 -2022.01,-2214.63 -1277.18,0 -2009.84,806.48 -2009.84,2212.52l0 4577.43c0,1406.04 732.65,2212.52 2009.84,2212.52 407.73,0 777.1,-90.75 1068.42,-262.74l11.64 -6.88 0.01 -0.01zm-1081.65 -598.77c-695.08,0 -1062.6,-446.1 -1062.6,-1290.15l0 -4678.78c0,-832.41 377.31,-1290.68 1062.6,-1290.68 685.29,0 1062.86,446.36 1062.86,1290.68l0 4678.78c0,856.22 -357.46,1290.15 -1062.86,1290.15zm0 -7233.15c-677.88,0 -1036.14,437.1 -1036.14,1264.22l0 4678.78c0,826.85 358.26,1263.69 1036.14,1263.69 677.88,0 1036.4,-425.2 1036.4,-1263.69l0 -4678.78c0,-827.12 -358.26,-1264.22 -1036.4,-1264.22z"/>
   </g>
  </g>
  <g id="_2246389247392">
   <g>
    <circle class="fil1" cx="16407.75" cy="2883.79" r="287.61"/>
    <path class="fil5" d="M16118.81 2808.91c41.28,-159.29 204.53,-255.6 364.08,-214.06 159.56,41.54 255.6,204.53 214.06,364.08 -41.28,159.29 -204.53,255.6 -364.08,214.06 -159.56,-41.54 -255.6,-204.53 -214.06,-364.08zm21.43 5.56c-38.36,147.64 50.8,298.72 198.18,337.09 147.64,38.36 298.72,-50.8 337.09,-198.18 38.37,-147.37 -50.8,-298.72 -198.18,-337.09 -147.64,-38.36 -298.72,50.8 -337.09,198.18z"/>
   </g>
   <g>
    <path class="fil6" d="M15588.04 6436.46c0,0 -250.84,871.83 12.44,2669.99 73.29,369.37 88.37,747.73 44.71,1121.61 0,0 -269.62,996.45 -313.28,2105.36l557.5 37.57c0,0 570.2,-2116.74 538.98,-2593l-31.49 -1164.21c0,0 -47.1,-879.24 -20.9,-1296.5 1.85,-31.49 47.63,-33.07 51.86,-1.85 51.59,392.65 169.87,1297.03 213.53,1655.28l125.41 795.9c41.8,350.05 41.8,703.81 0,1053.87 0,0 -45.24,423.34 30.43,1031.91l57.15 496.38 595.33 -0.01 62.71 -1648.14 23.81 -1824.36c0.79,-54.5 -2.38,-108.74 -9.79,-162.73 -51.59,-386.83 -278.35,-2027.83 -471.5,-2424.99 -0.79,-2.38 -1188.02,154.25 -1466.9,147.9l0 0.01z"/>
    <path class="fil1" d="M15899.46 12385.01l-581.05 -39.16 0.53 -12.96c43.13,-1097.79 311.16,-2098.22 313.81,-2108.27 43.39,-371.22 28.31,-747.2 -44.98,-1115.52 -260.89,-1780.97 -14.55,-2667.61 -12.17,-2676.34l2.91 -9.79 10.32 -0.01c222.26,5.29 1035.61,-94.99 1341.74,-132.82 89.26,-10.93 135.03,-12.87 137.32,-5.82 189.98,390.54 409.32,1956.92 472.03,2427.37 7.14,54.24 10.58,109.8 9.79,164.58l-23.81 1824.36 -63.24 1661.1 -619.94 0.01 -58.47 -508.02c-74.88,-603.01 -30.96,-1030.58 -30.43,-1034.82 41.8,-348.73 41.8,-702.22 0,-1050.96l-125.41 -795.36c-43.92,-360.37 -164.05,-1277.71 -213.53,-1655.55 -1.32,-10.58 -10.05,-11.11 -12.96,-11.11 -1.85,0 -11.64,1.06 -12.44,11.91 -25.93,411.7 20.37,1286.18 20.9,1294.91l31.49 1164.47c30.96,472.56 -516.22,2510.18 -539.51,2596.7l-2.91 10.58 0 0.54zm-553.79 -63.77l533.68 35.98c43.39,-162.2 565.43,-2126.79 535.8,-2578.18l-31.49 -1164.74c-0.53,-8.47 -46.83,-884.27 -20.64,-1297.56 1.32,-20.9 16.93,-35.98 37.84,-36.78 21.96,-1.06 37.57,13.23 40.22,34.13 49.74,377.84 169.87,1295.44 213.53,1655.28l125.41 795.36c42.07,351.11 42.07,706.72 0,1057.57 -0.53,3.97 -44.19,428.9 30.43,1028.73l55.83 484.74 570.73 0.02 62.18 -1635.44 23.81 -1824.1c0.79,-53.71 -2.38,-107.69 -9.53,-160.88 -44.19,-332.06 -273.32,-1999.52 -466.47,-2412.82 -17.2,1.85 -59.53,7.14 -113.51,13.76 -298.99,37.04 -1080.85,133.35 -1327.72,133.35 -2.38,0 -5.03,0 -7.41,0 -25.66,100.81 -229.67,980.31 15.35,2654.64 73.55,370.43 88.64,749.32 44.71,1125.05 -3.18,11.91 -268.03,1002.01 -312.75,2091.6l0.01 0.27z"/>
   </g>
   <path class="fil2" d="M17436.21 5804.61c0,0 3.7,17.99 41.28,10.05 9.26,-6.88 17.99,-14.55 26.46,-22.49 -23.02,-8.73 -49.21,-3.97 -67.73,12.44l-0.01 0z"/>
   <g>
    <path class="fil7" d="M17436.21 5804.61c0,0 3.7,17.99 41.28,10.05 9.26,-6.88 17.99,-14.55 26.46,-22.49 -23.02,-8.73 -49.21,-3.97 -67.73,12.44l-0.01 0z"/>
   </g>
   <g>
    <path class="fil8" d="M16145.53 3992.43c0,0 -150.28,26.46 -400.85,161.14 0,0 -156.63,65.62 -112.98,1074.5 0,0 -73.29,891.15 -119.33,1186.96 -4.5,29.63 15.61,57.41 45.24,61.91 3.7,0.53 7.41,0.79 11.38,0.53 270.41,-15.61 1263.69,-77.52 1621.68,-165.9 36.51,-9 60.06,-44.19 54.24,-81.23l-197.39 -1284.33 -188.92 -857.02c-86.78,-44.45 -179.13,-76.99 -274.65,-96.57l-438.42 0.01z"/>
    <path class="fil1" d="M15566.08 6490.7c-3.44,0 -6.88,0 -10.32,-0.79 -36.78,-5.56 -62.18,-40.22 -56.36,-76.99 45.51,-292.11 118.53,-1177.17 119.33,-1185.9 -42.86,-987.98 104.25,-1078.47 121.18,-1085.62 248.45,-133.61 397.41,-160.88 403.76,-161.94l2.38 0c0,0 441.07,0 441.07,0 96.84,19.84 190.25,52.65 278.09,97.9l5.56 2.91 190.25 863.1 197.65 1285.12c6.88,44.19 -20.64,85.46 -64.29,96.04 -355.87,87.84 -1333.01,149.49 -1624.06,166.17 -1.32,0 -2.38,0 -3.7,0l-0.54 0zm580.78 -2485.05c-13.76,2.65 -161.41,33.6 -395.83,159.55 -2.12,1.06 -147.9,91.55 -106.1,1062.33 -0.79,10.58 -73.82,896.7 -119.59,1189.61 -3.44,22.23 11.91,43.39 34.13,46.83 2.91,0.53 5.82,0.53 8.47,0.53 290.52,-16.67 1265.54,-78.32 1619.3,-165.64 29.9,-7.41 49.21,-35.98 44.45,-66.41l-197.39 -1284.33 -187.34 -850.14c-83.61,-42.33 -172.52,-73.29 -264.33,-92.34l-435.77 0.01z"/>
   </g>
   <g>
    <path class="fil9" d="M16841.14 3135.15c0,0 93.13,759.64 -256.92,751.97l0 254.8c-17.2,62.71 -62.97,113.77 -123.83,137.05 -79.64,32.81 -170.67,23.55 -242.1,-24.61 -15.88,-10.85 -30.43,-23.55 -43.39,-37.84 -18.79,-21.17 -29.37,-48.42 -29.37,-76.73l0 -579.19 43.92 -174.64 0 -50.27c89.43,-20.9 172.78,-61.65 244.49,-119.06 0,0 356.93,-350.85 407.2,-81.49l0 0.01z"/>
    <path class="fil1" d="M16362.23 4311.53c-52.92,0 -105.83,-15.61 -151.08,-46.3 -16.67,-11.38 -32.01,-24.87 -45.77,-39.95 -21.17,-23.55 -32.54,-53.98 -32.81,-85.46l0.53 -582.37 43.39 -173.05 0 -59 10.05 -2.38c87.05,-20.37 169.61,-60.59 239.19,-116.68 8.2,-8.2 225.96,-220.41 350.85,-180.99 40.22,12.7 66.15,48.68 77.26,107.42l0 0.79c2.65,20.9 60.59,511.2 -107.16,696.67 -40.22,44.45 -90.49,68 -149.49,69.85l-0.53 245.28c-17.99,66.41 -67.2,120.91 -131.76,145.79 -33.07,13.76 -68,20.37 -102.92,20.37l0.27 0zm-203.74 -749.32l0 577.61c0,25.14 9.26,49.21 25.93,68 12.17,13.49 26.19,25.4 41.01,35.72 68,46.04 153.99,54.77 229.93,23.28 56.36,-21.7 99.48,-69.06 115.89,-126.74l0 -266.45 13.23 0c57.68,1.32 105.04,-19.05 142.88,-61.12 157.96,-174.64 102.66,-659.1 100.81,-675.77 -9,-48.15 -29.1,-77.26 -59.27,-87.05 -109.8,-34.13 -323.86,173.58 -325.98,175.69 -70.91,56.89 -153.46,98.16 -240.52,120.12l-0.53 43.13 -43.39 173.05 0 0.54z"/>
   </g>
   <path class="fil1" d="M16888.77 3034.61c0,0 111.13,507.76 55.83,755.93 -16.93,73.55 -79.64,127.79 -155.05,133.61l-205.33 16.93 0 -53.98c336.82,20.9 262.74,-702.75 262.74,-702.75 -6.88,-101.07 -38.89,-124.35 -38.89,-124.35 -109.54,-106.36 -374.13,156.63 -374.13,156.63 -150.55,119.06 -244.49,119.06 -244.49,119.06l0 50.27 -43.92 174.64 0 405.88c0,0 -135.73,14.02 -263.54,-12.96 -80.7,-16.93 -134.67,-92.87 -125.94,-174.9 42.33,-390.8 212.74,-1561.62 696.4,-993.28 0,0 267.5,-209.3 406.15,139.7 0,0 9.53,30.43 30.16,109.54l0.01 0.01z"/>
   <g>
    <path class="fil8" d="M16858.87 4089l188.66 857.02c0,0 172.78,245.01 376.25,383.39 23.02,15.61 36.25,42.07 34.93,69.85l-22.75 405.35c0,0 213.26,-100.28 219.35,269.36 0,0 350.85,-401.12 137.85,-871.04l-357.46 -519.4c-30.43,-44.45 -63.76,-86.52 -100.01,-126.47 -102.92,-113.24 -323.33,-350.32 -476.79,-468.06l-0.02 0z"/>
    <path class="fil1" d="M17642.59 6108.63l-0.53 -34.4c-2.12,-131.23 -32.01,-218.56 -86.25,-252.42 -53.18,-33.07 -113.77,-5.56 -114.3,-5.03l-20.11 9.53 24.08 -427.58c1.06,-23.02 -10.05,-45.24 -29.1,-58.21 -203.21,-138.11 -377.84,-384.19 -379.69,-386.83l-2.12 -4.76 -196.33 -892.47 28.84 21.96c141.02,108.21 338.15,315.13 478.39,469.65 36.51,40.22 70.64,83.34 101.07,127.79l357.46 519.4c215.12,474.14 -135.2,883.21 -138.91,887.18l-22.49 25.93 0 0.26zm-145.79 -329.68c22.49,0 48.15,4.76 73.03,20.37 57.68,35.98 90.22,115.89 97.37,238.14 72.23,-98.16 289.2,-442.13 114.04,-828.97l-356.4 -517.28c-29.9,-43.66 -63.24,-85.73 -98.95,-125.15 -106.89,-117.74 -301.11,-324.92 -446.1,-443.45l180.19 818.12c17.46,24.34 182.31,249.25 371.49,378.1 26.72,17.99 42.33,49.21 40.75,81.49l-21.7 385.51c11.91,-3.44 28.05,-6.61 46.57,-6.61l-0.29 -0.27z"/>
   </g>
   <g>
    <path class="fil9" d="M16220.68 5829.48c0,0 153.99,-209.3 243.16,-256.13 19.05,-10.58 43.13,-3.7 53.45,15.35 3.44,6.35 5.29,13.49 5.03,20.64 -3.18,25.4 -12.17,49.74 -26.46,70.91 -1.59,2.38 1.32,5.56 3.7,3.97 37.84,-23.81 157.43,-87.05 376.25,-104.25 11.11,-0.79 21.43,6.35 24.34,17.2 7.14,28.58 -7.67,83.61 -208.24,111.39 -7.94,1.06 -13.76,8.2 -13.76,16.14l0 0c0,8.73 7.14,15.88 15.88,15.88 0.53,0 0.79,0 1.32,0l195.8 -12.96c48.42,-3.44 90.49,32.81 93.93,81.23 0.53,6.61 0,13.49 -0.79,20.11 -11.64,65.35 -76.2,148.7 -293.7,213.53 -149.75,65.62 -307.99,110.07 -469.91,132.29l0 -345.29 0 -0.02z"/>
    <path class="fil1" d="M16207.71 6189.86l0 -364.61 2.65 -3.44c6.35,-8.73 156.9,-212.21 247.66,-259.83 25.14,-13.76 57.15,-4.76 70.91,20.64 4.5,8.47 6.88,17.99 6.61,27.52 -1.85,15.88 -5.82,31.22 -11.91,45.77 58.21,-30.16 171.72,-74.61 351.38,-88.64 16.93,-1.06 33.34,10.05 37.84,26.72 3.97,16.4 1.06,32.81 -9,47.36 -25.4,37.57 -96.04,64.56 -210.09,80.43 -1.32,0 -2.65,1.59 -2.65,3.18l2.91 16.14 0 -12.96 196.33 -12.96c26.99,-1.85 52.92,6.61 73.29,24.34 20.37,17.73 32.81,42.07 34.66,69.06 0.53,7.67 0,15.35 -1.06,23.02 -16.67,93.66 -118.53,169.08 -302.69,223.85 -149.49,65.35 -308.78,110.33 -471.76,132.82l-14.82 2.12 -0.26 -0.54zm25.93 -355.88l0 325.98c155.58,-22.75 307.46,-66.15 451.65,-129.12 218.29,-65.09 275.97,-146.84 286.02,-204 0.79,-5.29 1.06,-11.11 0.79,-16.93 -1.32,-19.84 -10.58,-38.1 -25.66,-51.06 -15.08,-12.96 -34.4,-19.58 -54.24,-17.99l-195.8 12.96 0.01 -0.01c-9.79,0 -16.93,-2.91 -22.49,-8.47 -5.56,-5.56 -8.47,-12.7 -8.47,-20.37 0,-14.29 10.58,-26.72 24.87,-28.84 132.82,-18.52 177.81,-47.63 192.36,-69.06 5.82,-8.47 7.41,-17.2 5.29,-26.19 -1.06,-4.5 -5.56,-7.67 -10.58,-7.41 -213.79,16.67 -330.21,76.99 -370.43,102.13 -6.35,3.97 -14.55,2.91 -19.58,-2.38 -5.29,-5.29 -6.09,-13.49 -1.85,-19.84 13.23,-19.58 21.43,-42.07 24.34,-65.35 0,-3.7 -1.06,-8.47 -3.44,-12.7 -7.14,-12.7 -23.28,-17.46 -35.98,-10.32 -79.64,41.8 -216.17,222 -236.55,248.98l-0.26 0zm259.04 -160.61c0,0 0,0 0,0 0,0 0,0 0,0z"/>
   </g>
   <g>
    <path class="fil9" d="M16233.38 13142c-375.98,105.83 -983.75,-62.71 -983.75,-62.71l81.49 -745.62 557.5 37.57 -100.28 426.78c-24.87,175.43 56.36,187.86 56.36,187.86l388.68 156.1 0 0.02z"/>
    <path class="fil1" d="M15937.56 13189.63c-333.91,0 -686.61,-96.57 -691.38,-97.63l-10.58 -2.91 84.14 -768.9 585.28 39.42 -103.72 441.6c-22.23,157.43 45.24,171.99 46.04,171.99l2.65 0.79 424.14 170.4 -36.78 10.32c-90.22,25.4 -193.95,34.93 -299.52,34.93l-0.27 0zm-673.65 -119.86c79.64,20.9 585.81,146.31 927.66,69.59l-350.58 -140.76c-13.23,-3.18 -90.22,-28.31 -65.62,-202.15l97.1 -413.02 -529.72 -35.72 -78.85 722.07 0.01 -0.01z"/>
   </g>
   <g>
    <path class="fil9" d="M17937.61 13160.52c-701.7,37.57 -1040.11,-87.58 -1040.11,-87.58 37.57,-256.92 -43.92,-726.83 -43.92,-726.83l595.33 0.01 -49.48 500.61c-2.91,28.31 4.76,56.62 21.96,79.38 141.02,186.81 455.62,228.61 508.55,234.43l7.68 -0.01z"/>
    <path class="fil1" d="M17684.14 13180.63c-526.28,0 -788.21,-94.19 -791.12,-95.25l-9.79 -3.7 1.59 -10.32c36.78,-251.89 -43.13,-718.1 -43.92,-722.86l-2.65 -15.35 625.22 0 -50.8 514.9c-2.65,25.14 4.23,50.01 19.31,70.38 136.79,180.99 440.01,222.79 499.55,229.4l6.36 0c0,0 0.79,25.93 0.79,25.93 -90.75,4.76 -175.43,6.88 -254.27,6.88l-0.26 0zm-772.08 -116.42c56.36,17.99 352.96,103.45 896.97,88.64 -122.5,-27.78 -300.05,-89.16 -397.94,-218.82 -19.05,-25.4 -27.78,-56.89 -24.61,-88.64l48.15 -486.32 -565.69 0c13.76,82.81 73.55,470.44 42.86,704.87l0.26 0.26z"/>
   </g>
   <g>
    <path class="fil10" d="M18432.66 13367.44l-1579.08 1.59c-9.26,-100.81 5.82,-202.42 43.92,-296.08 0,0 338.41,125.15 1040.11,87.58 607.77,106.63 495.06,206.91 495.06,206.91l-0.01 0z"/>
    <path class="fil1" d="M16841.67 13382.25l-1.06 -11.91c-9.53,-102.39 6.09,-206.91 44.98,-302.16l4.76 -11.91 11.91 4.5c3.44,1.32 344.5,123.56 1034.82,86.78l1.59 0.01c0,0 1.59,0 1.59,0 320.69,56.36 493.2,119.33 512.52,187.34 5.82,20.64 -3.97,36.51 -10.85,42.6l-3.7 3.44 -5.04 -0.01 -1591.25 1.59 -0.27 -0.27zm63.77 -292.9c-32.54,84.4 -46.04,175.96 -39.42,266.45l1560.3 -1.59c1.32,-2.65 2.38,-7.14 0.53,-12.96 -7.94,-25.93 -71.97,-94.19 -490.03,-167.49 -622.58,33.34 -964.44,-62.97 -1031.64,-84.4l0.26 -0.01z"/>
   </g>
   <g>
    <path class="fil10" d="M16741.13 13369.02l-1528.81 0c-24.61,-211.68 37.31,-291.05 37.31,-291.05 0,0 608.56,169.34 983.75,62.71 532.63,51.33 507.76,228.35 507.76,228.35l-0.01 -0.01z"/>
    <path class="fil1" d="M16752.77 13382.25l-1552.09 0 -1.32 -11.64c-24.87,-214.59 37.31,-297.4 39.95,-300.84l5.56 -6.88 8.47 2.38c6.09,1.59 609.36,166.96 976.61,62.71l2.38 -0.79 2.37 0c321.48,31.22 444.51,108.48 491.35,167.76 32.54,41.28 28.31,74.35 28.05,75.67l-1.59 11.38 0.26 0.25zm-1528.54 -26.45l1502.88 0c-1.85,-10.32 -7.41,-26.72 -23.28,-46.04 -44.19,-54.5 -161.67,-125.68 -469.38,-155.58 -348.73,97.9 -899.88,-39.95 -978.99,-60.85 -12.96,22.75 -47.89,102.13 -31.49,262.48l0.27 0z"/>
   </g>
   <g>
    <ellipse class="fil9" cx="16151.88" cy="3453.98" rx="97.63" ry="134.67"/>
    <path class="fil1" d="M16151.88 3601.62c-61.12,0 -110.6,-66.15 -110.6,-147.64 0,-81.49 49.74,-147.64 110.6,-147.64 60.86,0 110.6,66.15 110.6,147.64 0,81.49 -49.74,147.64 -110.6,147.64zm0 -269.35c-46.57,0 -84.67,54.5 -84.67,121.71 0,67.21 37.84,121.71 84.67,121.71 46.83,0 84.67,-54.5 84.67,-121.71 0,-67.21 -37.84,-121.71 -84.67,-121.71z"/>
   </g>
   <g>
    <path class="fil8" d="M16220.68 5829.48l0 346.35c0,0 -1547.86,-1.59 -1544.69,-346.35 0,0 -40.48,-43.66 122.5,-332.06 0,0 645.34,-1591.52 983.75,-1322.96 0,0 250.57,126.47 -37.57,714.4l-298.46 629.73c0,0 -102.66,121.97 52.92,156.37 1.06,1.32 295.55,60.59 721.54,154.52l0 -0.01z"/>
    <path class="fil1" d="M16233.91 6189.06l-13.23 0c-51.33,0 -1261.57,-4.23 -1511.35,-256.66 -30.16,-30.43 -45.77,-63.76 -46.57,-99.22 -10.58,-20.9 -15.88,-94.46 124.09,-342.38 20.11,-50.01 514.9,-1261.31 868.39,-1354.44 49.74,-12.96 94.72,-3.97 134.14,26.72 21.96,11.91 250.04,153.72 -33.07,731.33l-300.31 632.37c0,0 -40.75,49.21 -27.52,87.84 7.67,22.23 32.28,38.1 73.29,47.1l4.76 1.06c10.58,2.38 41.54,8.73 82.29,17.46 120.91,25.4 345.82,72.23 634.49,136l10.32 2.38 0 370.16 0.27 0.27zm-536.07 -2032.06c-11.64,0 -23.55,1.59 -35.98,5.03 -340.53,89.69 -846.17,1327.72 -851.19,1340.42 -150.02,265.65 -124.35,318.83 -124.09,319.36l3.44 3.97 -1.06 3.97c-0.26,29.9 12.44,57.41 38.89,84.14 228.61,230.99 1344.65,247.66 1479.34,248.72l0 -322.54c-283.64,-62.44 -504.58,-108.74 -623.91,-133.61 -56.62,-11.91 -78.05,-16.4 -87.05,-19.05l0 0.53c-50.8,-11.11 -82.02,-32.81 -92.6,-64.56 -16.67,-48.95 23.55,-102.39 31.22,-111.92l297.67 -628.41c277.82,-567.02 45.77,-695.61 43.39,-696.93 -25.14,-19.58 -50.54,-29.1 -78.32,-29.1l0.26 -0.01z"/>
   </g>
   <path class="fil1" d="M16728.43 5830.01c-6.35,0 -11.91,-4.5 -12.96,-10.85 -1.32,-7.14 3.44,-14.02 10.85,-15.35l163.26 -28.84c7.14,-1.32 14.02,3.44 15.35,10.85 1.32,7.14 -3.44,14.02 -10.85,15.35l-163.26 28.84c0,0 -1.59,0 -2.38,0l-0.01 0z"/>
   <path class="fil11" d="M16984.28 5828.95c-79.38,42.07 -166.43,67.73 -255.86,74.88 79.38,-42.07 166.43,-67.47 255.86,-74.88z"/>
   <g>
    <path class="fil0" d="M16915.23 5433.92l-52.92 2.38c-11.11,0.53 -20.37,8.2 -23.02,19.05l-196.33 812.3c-2.12,9.26 3.44,18.52 12.7,20.64 1.32,0.26 2.65,0.53 4.23,0.53l68.27 0 187.07 -854.9z"/>
    <path class="fil1" d="M16659.37 6302.05c-2.12,0 -4.5,-0.26 -6.88,-0.79 -7.67,-1.85 -14.55,-6.61 -18.79,-13.49 -4.24,-6.88 -5.56,-15.08 -3.7,-23.02l196.33 -812.3c3.97,-16.4 18.52,-28.31 35.19,-29.1l70.11 -3.18 -193.16 882.15 -79.37 -0.01 0.27 -0.26zm239.19 -854.11l-35.72 1.59c-5.03,0 -9.53,3.97 -10.85,9l-196.33 812.3c-0.53,1.85 1.06,4.23 2.91,4.76l58.74 0c0,0 180.99,-827.65 180.99,-827.65l0.26 0z"/>
   </g>
   <g>
    <path class="fil12" d="M16697.73 6260.51l201.89 -809.13c2.38,-10.32 11.38,-17.46 21.96,-17.46l348.2 0c12.7,0 22.75,10.58 22.75,23.28 0,1.85 -0.26,3.7 -0.79,5.56l-216.44 809.13c-2.91,10.05 -11.91,16.93 -22.23,16.93l-333.11 0c-12.44,0 -22.75,-10.05 -23.02,-22.49 0,-1.85 0,-3.97 0.79,-5.82z"/>
    <path class="fil1" d="M16719.7 6302.05c-19.58,0 -35.72,-15.88 -35.98,-35.72 0,-2.91 0.26,-6.09 1.06,-9l0 0c0,0 201.89,-809.13 201.89,-809.13 3.7,-16.14 17.99,-27.52 34.66,-27.52l348.19 0.01c9.79,0 18.79,3.97 25.66,10.85 6.61,6.88 10.32,16.14 10.32,25.66 0,2.91 -0.53,5.82 -1.06,8.73l-216.44 809.13c-4.5,15.61 -18.79,26.72 -34.93,26.72l-333.37 0 0 0.27zm-9.26 -38.37l0 0c0,0 -0.26,1.59 -0.26,2.38 0,5.29 4.23,9.53 9.53,9.53l333.11 0c4.23,0 8.2,-2.91 9.53,-7.41l216.44 -808.86c0.26,-5.03 -0.53,-7.41 -2.38,-9.26 -1.85,-1.85 -4.23,-2.91 -6.88,-2.91l-348.21 0c-4.5,0 -7.94,2.91 -9,7.14l-201.89 809.39 0.01 0z"/>
   </g>
   <g>
    <path class="fil9" d="M17656.08 6073.97c0,0 -43.66,156.63 -469.91,200.56 0,0 -195.01,58.21 -175.96,-58.74 0,0 -193.69,-3.97 -118.53,-110.6 -24.61,2.38 -49.48,0 -73.03,-7.14 -19.58,-6.61 -30.16,-27.78 -23.55,-47.1 3.18,-9.53 9.79,-17.2 18.79,-21.7 20.64,-8.73 42.86,-12.96 65.35,-11.64l196.6 0.01c13.76,0 24.87,-11.38 24.61,-25.14 0,-0.53 0,-0.79 0,-1.32l0 0c-1.06,-13.49 -12.96,-23.55 -26.46,-22.75l-287.61 10.32c-24.61,0.79 -45.24,-18.26 -46.04,-42.86 0,-0.53 0,-1.06 0,-1.59l0 0c0,-24.08 18.79,-43.66 42.6,-44.71l440.81 -28.58c-18.52,-43.39 -46.3,-81.76 -81.49,-112.98 0,0 -50.01,-43.66 -12.44,-87.58 0,0 18.79,-50.27 144.2,81.49 0,0 127,163.52 229.67,50.27 -0.53,0 145.79,-19.05 152.4,281.79l-0.01 0.01z"/>
    <path class="fil1" d="M17092.24 6302.31c-28.31,0 -56.89,-5.29 -75.41,-21.7 -14.55,-12.7 -21.43,-30.43 -20.9,-52.39 -32.54,-2.38 -107.42,-12.17 -128.85,-54.5 -8.2,-16.14 -7.67,-34.4 1.59,-54.77 -17.99,-0.53 -35.98,-3.18 -53.71,-8.47 -13.23,-4.5 -23.55,-13.49 -29.63,-25.4 -6.09,-12.17 -6.88,-25.66 -2.65,-38.36 4.23,-12.7 13.49,-23.28 25.4,-29.1 23.02,-10.05 47.63,-14.29 71.7,-12.96l195.81 0c6.35,0 11.64,-5.56 11.64,-11.91 -0.53,-6.88 -6.35,-11.38 -12.7,-11.38l-288.14 10.32c-32.01,1.06 -58.47,-23.81 -59.53,-55.3 0,-33.07 24.08,-58.47 55.03,-59.8l421.49 -27.25c-17.2,-34.66 -41.28,-65.88 -70.38,-91.55 -20.37,-17.73 -49.48,-62.44 -14.82,-104.51 3.18,-5.82 10.05,-12.44 20.64,-14.55 30.96,-6.35 77.79,24.61 143.93,94.19 1.59,1.85 65.88,83.61 135.47,85.99 26.72,0.53 51.86,-10.58 74.08,-34.4 2.12,-3.18 6.61,-5.56 14.82,-5.82 25.93,-0.79 155.31,12.17 161.67,294.76l0 1.85c0,0 -0.53,1.85 -0.53,1.85 -1.85,6.61 -51.06,165.64 -481.03,210.09 -6.35,2.12 -50.8,14.82 -95.25,14.82l0.26 0.27zm-173.57 -212.47l-16.14 23.02c-14.29,20.37 -18.26,36.78 -12.17,49.21 16.14,31.75 94.19,40.22 120.12,40.75l15.08 0c0,0 -2.38,15.08 -2.38,15.08 -3.18,19.84 0.26,33.87 10.85,43.13 31.49,27.78 118,10.05 148.7,1.06 388.95,-40.22 454.3,-174.37 460.65,-190.25 -3.7,-149.23 -42.6,-214.06 -74.61,-242.1 -24.87,-21.96 -49.21,-24.61 -58.74,-24.87 -26.99,27.78 -57.41,41.01 -91.81,39.95 -81.76,-3.18 -151.08,-91.55 -153.99,-95.25 -78.58,-82.55 -110.33,-86.78 -118,-85.73 -3.18,0.26 -3.97,1.59 -4.23,1.85l-1.85 2.91c-28.84,33.87 9.53,68 11.11,69.32 36.51,32.28 65.88,73.03 84.93,117.74l7.14 16.93 -459.06 29.63c-17.46,0.79 -30.69,14.55 -30.43,31.75 0.53,18.52 14.82,31.49 32.54,31.49l287.61 -10.32c19.84,-1.85 38.1,14.29 39.95,34.66 0,23.28 -16.67,40.48 -37.57,40.48l-196.6 0.01c-20.9,-1.32 -41.54,2.65 -60.33,10.58 -5.03,2.65 -9.53,7.67 -11.64,13.76 -4.23,12.7 2.65,26.46 15.35,30.69 21.7,6.35 44.71,8.73 67.73,6.61l28.05 -2.65 -0.26 0.54z"/>
   </g>
   <path class="fil1" d="M16558.29 3902.2c-44.19,0 -130.18,-13.49 -190.77,-108.74 -3.97,-6.09 -2.12,-14.29 3.97,-18.26 6.09,-3.97 14.29,-2.12 18.26,3.97 74.61,117.48 190.51,95.25 191.57,94.99 6.88,-1.59 14.29,3.18 15.61,10.32 1.32,7.14 -3.18,14.29 -10.32,15.61 -0.26,0 -11.38,2.12 -28.58,2.12l0.26 -0.01z"/>
   <path class="fil1" d="M17120.03 6118.42l-228.35 0c-7.41,0 -13.23,-5.82 -13.23,-13.23 0,-7.41 5.82,-13.23 13.23,-13.23l228.35 0c7.41,0 13.23,5.82 13.23,13.23 0,7.41 -5.82,13.23 -13.23,13.23z"/>
   <path class="fil1" d="M17198.34 6229.02l-187.86 0c-7.41,0 -13.23,-5.82 -13.23,-13.23 0,-7.41 5.82,-13.23 13.23,-13.23l187.86 0.01c7.41,0 13.23,5.82 13.23,13.23 0,7.41 -5.82,13.23 -13.23,13.23l0 -0.01z"/>
  </g>
  <g id="_2246456872080">
   <g>
    <path class="fil0" d="M13184.48 349l-5821.01 0c-357.99,0 -648.25,290.26 -648.25,648.25 0,357.99 290.26,648.25 648.25,648.25l5821.01 0c357.99,0 648.25,-289.99 648.25,-648.25 0,-358.26 -290.26,-648.25 -648.25,-648.25z"/>
    <path class="fil1" d="M13184.48 1658.73l-5821.01 0c-364.87,0 -661.48,-296.61 -661.48,-661.48 0,-364.87 296.61,-661.48 661.48,-661.48l5821.01 0c364.87,0 661.48,296.61 661.48,661.48 0,364.87 -296.61,661.48 -661.48,661.48zm-5821.01 -1296.5c-350.05,0 -635.02,284.97 -635.02,635.02 0,350.05 284.97,635.02 635.02,635.02l5821.01 0c350.05,0 635.02,-284.97 635.02,-635.02 0,-350.05 -284.97,-635.02 -635.02,-635.02l-5821.01 0z"/>
   </g>
   <g>
    <path class="fil2" d="M8664.73 349l0 1296.5 -1301.26 0c-357.99,0 -648.25,-289.99 -648.25,-648.25 0,-358.26 290.26,-648.25 648.25,-648.25l1301.26 0z"/>
    <path class="fil1" d="M8677.96 1658.46l-1314.49 0c-364.61,0 -661.48,-296.61 -661.48,-661.48 0,-364.87 296.61,-661.48 661.48,-661.48l1314.49 0 0 1322.69 0 0.27zm-1314.49 -1296.5c-350.32,0 -635.02,284.97 -635.02,635.02 0,350.05 284.97,635.02 635.02,635.02l1288.3 0 0 -1270.3 -1288.3 0 0 0.26z"/>
   </g>
   <g>
    <path class="fil1" d="M7614.83 1260.78c-153.19,0 -277.82,-124.62 -277.82,-277.82 0,-153.19 124.62,-277.82 277.82,-277.82 153.19,0 277.82,124.62 277.82,277.82 0,153.19 -124.62,277.82 -277.82,277.82zm0 -529.18c-138.64,0 -251.36,112.71 -251.36,251.36 0,138.64 112.71,251.36 251.36,251.36 138.64,0 251.36,-112.71 251.36,-251.36 0,-138.64 -112.71,-251.36 -251.36,-251.36z"/>
    <path class="fil1" d="M8029.97 1289.09c-2.91,0 -5.82,-1.06 -8.2,-2.91l-184.16 -145.26c-5.82,-4.5 -6.61,-12.96 -2.12,-18.52 4.5,-5.82 12.96,-6.61 18.52,-2.12l184.16 145.26c5.82,4.5 6.61,12.96 2.12,18.52 -2.65,3.18 -6.61,5.03 -10.32,5.03z"/>
   </g>
  </g>
  <g id="_2246456876064">
   <g>
    <path class="fil0" d="M12196.23 12630.29c-65.09,416.2 -260.89,702.49 -518.87,897.76 -571.26,432.6 -1447.85,418.58 -1881.51,379.16 -117.48,-9.79 -233.64,-30.96 -347.14,-63.24 -317.51,-93.13 -687.94,-5.03 -687.94,-5.03 -1053.6,192.63 -1574.32,0 -1574.32,0 -914.43,-291.05 -1194.9,-957.56 -1267.39,-1472.46l0 0.01c-33.07,-226.23 -30.96,-456.42 6.09,-682.12 192.89,-1786.53 1145.42,-2113.3 1145.42,-2113.3l1561.09 -446.63 1366.35 728.68c937.45,410.64 1503.41,1005.45 1503.41,1005.45 1022.91,577.61 694.82,1771.71 694.82,1771.71l-0.01 0.01z"/>
    <path class="fil1" d="M10199.36 13938.96c-152.14,0 -290.52,-8.2 -404.56,-18.52 -118,-10.05 -235.49,-31.22 -349.52,-63.76 -310.37,-91.02 -677.62,-5.82 -681.32,-5.03 -1045.66,191.3 -1576.7,1.59 -1581.99,-0.53 -923.16,-293.96 -1203.37,-968.67 -1275.86,-1483.04 -33.07,-227.82 -31.22,-458.8 6.09,-686.08 100.01,-925.54 407.47,-1453.41 647.98,-1733.07 261.68,-304.28 496.11,-387.1 506.17,-390.54l1566.91 -448.21 4.76 2.38 1366.35 728.68c905.96,396.89 1473.25,973.43 1505.26,1006.51 1007.3,570.2 709.1,1748.68 699.58,1784.94 -60.06,383.39 -236.28,687.94 -523.9,905.43 -427.84,323.86 -1021.59,400.32 -1486.21,400.32l0.26 0.53zm-1080.58 -150.55c106.1,0 223.32,10.58 333.65,42.86 112.18,31.75 228.35,52.92 344.5,62.71 458.8,41.8 1311.58,48.15 1872.52,-376.51 282.06,-213.53 454.83,-512.78 513.84,-889.29l0 -1.59c3.44,-11.91 313.81,-1190.93 -688.2,-1756.63l-3.18 -2.38c-5.56,-5.82 -575.22,-597.71 -1499.18,-1002.54l-1362.64 -726.57 -1556.06 445.04c-8.73,3.18 -946.18,345.82 -1135.9,2101.92 -37.04,225.44 -38.89,453.51 -6.09,678.68 71.44,506.96 347.67,1171.88 1258.4,1461.87 5.82,2.12 530.77,189.19 1567.97,-0.53 2.12,-0.53 161.67,-37.57 360.37,-37.57l0 0.53z"/>
   </g>
   <g>
    <path class="fil8" d="M8061.99 8778.89l-608.56 224.11c0,0 -262.74,87.58 -350.32,455.36l-245.54 826.85c-48.42,162.99 54.5,332.59 221.47,364.34 222,41.8 506.96,76.46 654.33,17.73l17.73 613.06 1208.66 158.75c0,0 118.8,-26.46 155.58,-354.02l19.58 -608.56 87.58 175.16c0,0 577.87,-122.77 893.26,-648.25l-560.67 -700.64c0,0 -260.36,-334.71 -524.95,-422.29l-233.11 -66.15 -735.3 -35.19 0.25 -0.25z"/>
    <path class="fil1" d="M8960.54 11452.32l-2.38 0c0,0 -1219.77,-160.61 -1219.77,-160.61l-17.46 -605.92c-155.58,51.33 -434.19,16.4 -644.28,-23.28 -83.08,-15.61 -156.1,-66.15 -200.04,-138.38 -44.19,-72.5 -55.83,-160.88 -31.75,-242.63l245.54 -826.85c88.11,-369.9 347.67,-460.39 358.79,-464.09l610.68 -224.91 740.85 35.72 233.11 66.15c265.92,88.11 520.98,413.02 531.83,426.78l566.23 707.78 -4.76 7.94c-314.6,524.42 -895.91,653.28 -901.73,654.33l-10.05 2.12 -68.79 -137.58 -17.99 556.44c-37.57,334.18 -160.61,365.4 -165.9,366.46l-2.38 0.53 0.25 -0.01zm-1196.22 -183.89l1194.63 156.9c14.02,-5.29 111.13,-52.65 143.67,-342.12l21.17 -659.63 106.36 212.47c76.99,-19.31 582.9,-161.41 869.98,-631.85l-554.85 -693.49c-2.65,-3.44 -261.15,-332.86 -518.87,-418.05l-230.99 -65.62 -731.06 -34.93 -605.92 223.05c-2.91,1.06 -257.45,90.22 -342.12,446.1l-245.81 827.38c-21.96,74.35 -11.64,155.05 28.84,221.2 40.22,65.88 106.63,111.92 182.57,126.21 214.85,40.48 501.41,76.46 647.19,18.26l17.73 -7.14 17.99 620.73 -0.52 0.54z"/>
   </g>
   <g>
    <path class="fil9" d="M10085.06 10051.84l732.65 755.41 -833.2 248.72 -495.58 -502.73c0,0 319.1,-118 596.13,-501.41l-0.01 0z"/>
    <path class="fil1" d="M9980.81 11070.78l-515.16 -522.57 18.79 -6.88c3.18,-1.06 318.83,-121.44 590.04,-496.91l9 -12.7 758.32 781.86 -861.25 257.19 0.25 0zm-469.12 -512.78l476.52 483.41 805.16 -240.25 -706.99 -728.95c-236.28,320.95 -503.52,454.3 -574.7,485.8l0.01 0z"/>
   </g>
   <g>
    <path class="fil6" d="M7483.6 11373.21c0,0 -484.47,1010.47 -116.68,1343.33l1804.25 -105.83 945.92 -691.11 175.16 -412.5 -1052.81 -84.93 -68.26 -71.44c0,0 -992.75,150.81 -1687.56,22.49z"/>
    <path class="fil1" d="M7362.15 12730.04l-4.23 -3.7c-370.96,-335.5 93.66,-1317.14 113.51,-1358.94l4.5 -9.26 10.05 1.85c684.76,126.47 1673.28,-21.17 1683.06,-22.49l6.88 -1.06 69.59 72.76 1066.04 85.99 -183.9 432.6 -2.91 2.12 -949.09 693.49 -3.98 0c0,0 -1809.81,106.36 -1809.81,106.36l0.27 0.27zm129.11 -1342.01c-46.57,101.07 -450.07,1005.45 -119.59,1315.02l1794.73 -105.3 939.83 -686.61 166.43 -392.39 -1039.58 -83.87 -66.94 -70.11c-88.9,12.96 -1016.56,141.82 -1675.13,23.28l0.27 -0.01z"/>
   </g>
   <g>
    <path class="fil1" d="M8333.46 7281.83c0,0 -236.02,-186.81 -551.41,111.13 0,0 -149.23,116.95 -175.96,473.88 0,0 -122.5,1097.79 -524.42,706.72 -23.02,-22.49 -61.91,-1.85 -56.36,29.63 24.87,142.61 98.16,385.24 309.57,470.17 0,0 16.93,-26.46 153.19,-83.08l573.9 -211.68 122.77 -34.93 70.11 -367.78c0,0 -47.63,-28.31 -58.74,-59 0,0 -274.91,-61.12 -248.19,-378.89 5.56,-78.58 29.37,-155.05 69.32,-223.05l44.71 -167.23 271.47 -266.18 0.02 0.27z"/>
    <path class="fil1" d="M7339.66 9089.26l-9.53 -3.18c-218.56,-87.84 -292.9,-338.68 -317.51,-480.24 -3.44,-20.11 6.09,-39.42 24.34,-49.21 18.26,-9.79 39.69,-6.61 54.24,7.67 71.44,69.59 137.85,94.19 197.39,72.76 224.91,-80.7 304.02,-764.93 304.81,-771.81 26.72,-358.26 174.64,-477.86 180.99,-482.88 319.1,-301.64 565.43,-112.98 567.82,-111.13l11.64 9.26 -279.67 274.12 -45.24 166.96c-38.63,65.88 -62.18,141.02 -67.47,217.23 -25.4,302.96 235.22,364.34 237.87,365.14l7.14 1.59 2.38 6.88c7.67,21.43 41.01,44.98 53.18,52.12l7.94 4.76 -73.29 384.98 -130.7 37.04 -572.84 211.41c-125.68,52.12 -146.31,77.26 -147.11,78.32l-6.09 7.94 -0.27 0.27zm-280.74 -511.72c-3.7,0 -7.14,1.06 -9.79,2.38 -6.35,3.44 -12.44,10.58 -10.58,21.17 23.55,134.41 92.87,370.96 293.43,456.95 14.29,-12.7 52.39,-38.63 151.34,-79.64l574.43 -211.94 115.89 -33.07 66.94 -350.85c-14.02,-9.26 -41.54,-29.9 -53.71,-54.24 -43.13,-12.44 -276.76,-93.93 -251.89,-391.06 5.82,-79.38 29.9,-157.96 70.11,-227.02l45.24 -169.08 262.74 -257.45c-51.86,-32.81 -255.6,-132.29 -521.78,119.06 -2.38,1.85 -145.79,119.33 -171.72,465.15 -3.18,29.37 -81.76,708.05 -322.27,794.03 -69.85,24.87 -145.26,-1.59 -224.64,-78.85 -4.23,-4.23 -9,-5.82 -13.49,-5.82l-0.27 0.26z"/>
   </g>
   <g>
    <path class="fil6" d="M8622.93 12262.51c0,0 761.49,562.52 1454.2,881.09 42.07,19.31 92.08,2.12 112.71,-39.42l417.26 -841.41 -1528.81 -770.75c0,0 -718.1,-420.43 -998.57,-227.82 0,0 -825.53,603.53 -850.67,1168.97 0,0 -7.67,267.5 377.84,460.12 39.95,15.08 81.49,25.66 123.83,31.49 186.54,26.19 373.6,-45.77 494.26,-190.51l397.94 -471.5 0 -0.26z"/>
    <path class="fil1" d="M10113.64 13165.02c-14.02,0 -28.31,-2.91 -41.8,-9.26 -643.22,-295.81 -1354.18,-807.8 -1446.53,-875.27l-390.01 461.97c-124.35,149.23 -313.81,222 -506.17,195.01 -43.13,-6.09 -85.73,-16.93 -126.74,-32.28 -389.74,-194.74 -386.83,-461.71 -386.3,-472.82 25.14,-565.43 822.09,-1154.42 855.96,-1179.29 284.44,-195.54 983.49,209.82 1013.12,227.02l1539.93 776.31 -423.08 853.31c-17.2,34.93 -51.86,55.03 -88.11,55.03l-0.26 0.27zm-1492.83 -920.25l10.05 7.41c7.67,5.56 768.37,565.43 1451.82,879.77 35.98,16.67 77.79,1.85 95.25,-33.34l411.44 -829.76 -1517.17 -764.93c-7.94,-4.5 -714.92,-414.35 -985.07,-228.61 -7.94,5.82 -820.24,606.18 -844.84,1158.65 0,2.38 -1.85,261.68 370.43,447.69 37.84,14.02 78.58,24.61 119.86,30.16 183.37,25.93 363.55,-43.66 482.36,-186.01l405.88 -481.03 -0.02 -0.01z"/>
   </g>
   <g>
    <path class="fil9" d="M10607.1 12337.38c83.08,-34.4 169.61,-59.53 257.98,-74.88 0,0 280.2,-87.58 280.2,210.09 0,297.67 -256.66,350.05 -820.24,359.05l225.7 -455.36 56.36 -38.89z"/>
    <path class="fil1" d="M10303.87 12845.13l236.81 -477.59 61.65 -42.07c83.87,-34.66 171.46,-60.06 260.62,-75.67 3.7,-1.32 129.12,-39.42 216.44,24.87 52.39,38.63 79.11,105.3 79.11,198.18 0,306.93 -256.92,362.75 -832.94,372.01l-21.42 0.01 -0.27 0.26zm256.92 -459.59l-214.59 433.13c543.47,-9.79 786.1,-64.29 786.1,-345.56 0,-84.14 -23.02,-143.67 -68.26,-177.02 -76.73,-56.36 -193.69,-20.9 -195.01,-20.64 -88.64,15.61 -174.11,40.22 -255.6,73.82l-52.39 36.25 -0.26 0.01z"/>
   </g>
   <g>
    <polygon class="fil12" points="9462.48,10159.26 9276.2,11556.83 11279.42,11556.83 11442.95,10155.82 "/>
    <path class="fil1" d="M11291.33 11570.06l-2030.21 0 189.72 -1424.03 2006.92 -3.7 -1.59 14.82 -164.85 1412.92 0.01 -0.01zm-1999.78 -26.46l1976.23 0 160.61 -1374.55 -1954.01 3.44 -182.84 1371.11 0.01 0z"/>
   </g>
   <g>
    <polygon class="fil0" points="9462.48,10159.26 9375.95,10160.59 9235.99,11474.28 9047.06,11474.28 9123.27,11515.56 9276.2,11556.83 "/>
    <path class="fil1" d="M9287.31 11573.5l-170.4 -46.3 -121.97 -66.15 229.14 0 139.96 -1313.43 113.51 -1.85 -190.25 1427.73zm-159.01 -70.38l136.79 37.04 182.31 -1367.41 -59.53 0.79 -139.96 1313.96 -148.7 0.01 28.84 15.61 0.26 0z"/>
   </g>
   <g>
    <path class="fil13" d="M11676.32 13528.05c-431.28,740.85 -1989.2,577.34 -1989.2,577.34 -388.95,3.97 -1772.77,126.74 -1772.77,126.74 -2182.62,181.51 -1998.19,-1838.91 -1995.55,-1865.64 72.5,514.9 352.96,1181.14 1267.39,1472.46 0,0 520.72,192.63 1574.32,0 0,0 370.43,-88.11 687.94,5.03 113.51,32.28 229.67,53.45 347.14,63.24 433.93,39.42 1310.52,53.45 1880.72,-379.16l0.01 -0.01z"/>
    <path class="fil1" d="M7646.05 14257c-547.71,0 -975.81,-153.19 -1274.8,-456.95 -545.33,-553.79 -466.21,-1425.88 -465.41,-1434.62l10.85 -110.07 15.35 109.54c71.44,506.7 347.67,1171.62 1258.4,1461.61 5.82,2.12 530.77,189.19 1567.97,-0.53 3.18,-0.79 376.78,-87.58 694.02,5.29 112.18,31.75 228.35,52.92 344.5,62.71 458.8,41.54 1311.84,48.15 1871.72,-376.51l52.65 -39.95 -33.34 57.15c-430.49,739.8 -1986.29,585.54 -2001.9,583.96 -382.6,3.97 -1756.36,125.41 -1770.12,126.74 -92.87,7.67 -182.84,11.64 -269.62,11.64l-0.27 -0.01zm-1718.25 -1761.13c0.26,261.42 49.74,866.28 462.24,1285.39 340.79,346.09 853.31,493.2 1523.52,437.63 13.76,-1.32 1388.84,-122.77 1773.83,-126.74 16.4,1.59 1471.66,145.79 1940.25,-512.25 -566.23,388.42 -1385.4,381.27 -1832.83,340.53 -118,-9.79 -235.49,-31.22 -349.52,-63.76 -310.37,-91.02 -677.62,-5.82 -681.32,-5.03 -1045.66,191.3 -1576.7,1.59 -1581.99,-0.53 -848.55,-270.41 -1153.89,-862.31 -1254.17,-1355.5l-0.01 0.26z"/>
   </g>
   <g>
    <path class="fil12" d="M8061.99 8778.89l-151.08 57.94c0,0 264.59,271.21 619.94,236.81 0,0 264.59,-38.36 405.62,-220.14l-138.64 -39.42 -735.83 -35.19z"/>
    <path class="fil1" d="M8469.47 9089.79c-326.24,0 -565.43,-241.05 -568.08,-243.69l-14.02 -14.29 172.52 -66.15 2.64 0c0,0 738.74,35.72 738.74,35.72l157.43 44.71 -11.91 15.35c-142.61,183.9 -403.24,223.58 -414.08,225.17 -21.43,2.12 -42.6,3.18 -63.24,3.18zm-534.22 -248.19c60.33,54.5 296.34,247.4 594.27,218.82 1.85,-0.26 245.28,-37.57 383.92,-199.77l-117.74 -33.6 -731.59 -34.93 -128.85 49.48z"/>
   </g>
   <g>
    <path class="fil2" d="M8333.46 7554.1c-236.55,-14.02 -317.51,161.14 -317.51,161.14 0,0 -95.51,-124.62 44.71,-275.97 0,0 259.04,-312.48 453.77,-56.89 -58.47,24.34 -109.01,64.56 -145.79,116.15l-35.19 55.56 0.01 0.01z"/>
    <path class="fil1" d="M8018.86 7740.63l-13.23 -17.2c0,0 -100.54,-135.2 45.51,-292.9 5.03,-6.09 135.73,-161.67 285.5,-161.67 1.59,0 2.91,0 4.5,0 69.85,1.32 131.76,37.04 184.16,105.57l10.32 13.76 -15.88 6.61c-56.36,23.28 -104.78,61.91 -139.96,111.65l-38.89 61.65 -7.67 -0.53c-224.38,-12.7 -301.64,146.58 -304.81,153.46l-9.26 19.84 -0.28 -0.26zm317.78 -445.57c-137.32,0 -264.33,151.08 -265.65,152.66 -101.34,109.27 -73.55,203.21 -55.03,241.31 30.69,-46.83 123.03,-156.1 310.37,-148.7l30.96 -48.95c35.19,-49.48 81.76,-88.64 136,-114.3 -44.71,-53.45 -96.04,-80.96 -152.93,-82.02 -1.32,0 -2.65,0 -3.97,0l0.25 0.01z"/>
   </g>
   <g>
    <path class="fil9" d="M8679.02 7546.16c-233.9,0 -423.34,189.45 -423.34,423.34l0 264.59c0,33.87 4.5,66.68 11.91,98.16l-83.87 411.97 -122.77 34.93c11.38,13.49 23.55,26.19 36.51,37.84 133.88,120.91 319.36,166.43 494,121.71 154.52,-39.95 205.33,-124.35 205.33,-124.35l-70.11 -37.04 2.38 -122.77c210.09,-24.87 373.34,-203.21 373.34,-420.17l0 -264.59c0,-233.9 -189.45,-423.34 -423.34,-423.34l-0.02 -0.28z"/>
    <path class="fil1" d="M8457.3 8968.6c-134.67,0 -265.92,-49.48 -368.57,-142.08 -13.49,-12.17 -26.19,-25.4 -37.84,-39.16l-12.96 -15.35 134.41 -38.36 81.76 -401.38c-7.67,-33.34 -11.64,-66.15 -11.64,-98.16l0 -264.59c0,-240.52 195.8,-436.31 436.31,-436.31 240.52,0 436.31,195.8 436.31,436.31l0 264.59c0,217.23 -159.82,400.85 -373.6,431.55l-1.85 103.72 75.14 39.69 -7.14 11.91c-2.12,3.7 -55.3,89.43 -213.26,130.18 -45.51,11.64 -91.81,17.46 -137.58,17.46l0.5 -0.02zm-372.81 -182.84c6.88,7.41 14.29,14.55 21.7,21.43 130.97,118.27 311.16,162.73 482.09,118.8 113.77,-29.37 169.34,-83.87 188.92,-107.42l-63.76 -33.6 2.65 -142.35 11.38 -1.32c206.39,-24.34 361.96,-199.24 361.96,-407.2l0 -264.59c0,-226.23 -184.16,-410.38 -410.38,-410.38 -226.23,0 -410.38,184.16 -410.38,410.38l0 264.59c0,30.96 3.97,62.97 11.64,94.99l0.79 2.91 -0.53 2.91 -85.46 419.64 -110.33 31.49 -0.27 -0.28z"/>
   </g>
   <g>
    <path class="fil6" d="M9008.17 12454.07c0,0 -105.83,87.58 -52.92,192.63 0,0 69.59,524.69 350.05,560.14l-297.14 -752.76 0.01 0z"/>
    <path class="fil1" d="M9325.94 13222.71l-22.23 -2.91c-280.73,-35.45 -355.35,-527.07 -361.17,-569.4 -54.77,-112.18 56.09,-205.86 57.41,-206.65l14.02 -11.64 311.95 790.6 0.02 -0.01zm-322.8 -745.62c-25.14,26.46 -72.76,90.49 -35.98,163.52l1.32 4.23c0.53,5.03 67.47,485.8 315.92,544.53l-281.26 -712.28 0 0.01z"/>
   </g>
   <g>
    <path class="fil9" d="M9042.04 12541.11c0,0 -279.15,89.16 -926.07,89.16 0,0 -332.86,-17.46 -140.23,368.05 0,0 35.19,157.43 437.9,105.83 0,0 406.94,-68.53 755.14,-244.49l-126.74 -318.57 0 0.01z"/>
    <path class="fil1" d="M8264.67 13127.45c-256.13,0 -296.61,-108.48 -301.11,-124.62 -67.2,-134.67 -78.58,-237.34 -34.4,-304.81 56.62,-86.52 182.31,-80.96 187.6,-80.7 636.08,0 918.66,-87.58 921.57,-88.64l11.64 -3.7 135.73 340.79 -10.58 5.29c-346.09,174.9 -754.88,245.01 -758.85,245.81 -57.15,7.41 -107.42,10.58 -151.08,10.58l-0.51 0.01zm-154.25 -484.21c-23.55,0 -117.21,4.23 -159.82,69.32 -38.89,59.53 -26.46,153.72 36.51,280.2l1.06 2.91c0,0 40.22,144.73 423.61,95.78 3.44,-0.53 400.32,-68.79 740.32,-237.87l-118 -296.61c-59.53,16.4 -348.73,86.52 -918.4,86.52 0,0 -2.12,0 -5.56,0l0.27 -0.26z"/>
   </g>
   <g>
    <path class="fil9" d="M9289.7 10970.76l-38.89 366.19 -11.38 84.67 -68.26 -71.44c-332.86,87.58 -1173.73,70.11 -1173.73,70.11 -472.82,-17.46 -700.64,-85.46 -700.64,-85.46 -297.67,-50.27 -215.65,-685.29 -215.65,-685.29 467.26,105.83 653.54,17.46 653.54,17.46l5.82 199.77 1292.79 189.19c67.47,-67.2 162.2,-98.69 256.39,-85.2l0.01 0.01z"/>
    <path class="fil1" d="M9248.69 11450.21l-81.76 -85.46c-335.77,84.93 -1161.56,68.79 -1169.76,68.53 -469.38,-17.2 -701.7,-85.2 -704.08,-85.99 -304.81,-51.33 -228.35,-672.86 -224.91,-699.31l1.85 -14.29 14.02 3.18c455.89,103.19 643.22,19.31 645.07,18.26l17.99 -8.47 6.09 208.5 1275.6 186.81c69.59,-66.41 167.23,-98.16 262.74,-84.14l12.44 1.85 -40.22 378.63 -15.08 111.92 0.01 -0.01zm-2156.16 -784.78c-9.53,93.13 -51.33,613.06 206.39,656.72 3.7,1.06 233.64,68 699.05,85.2 8.2,0 842.73,16.4 1170.03,-69.59l7.41 -1.85 54.77 57.41 7.67 -57.94 37.57 -352.96c-85.73,-8.47 -171.72,22.23 -232.84,83.08l-4.5 4.5 -6.35 -1.06 -1303.64 -190.77 -5.56 -192.36c-56.36,19.05 -247.66,64.03 -629.73,-20.37l-0.27 -0.02z"/>
   </g>
   <g>
    <path class="fil9" d="M11416.49 10393.96c0,0 71.7,-64.56 136.79,-35.72 24.34,10.85 32.28,41.8 17.73,64.29 -16.4,25.14 -47.1,61.91 -105.04,104.25l-52.92 37.04c0,0 122.5,68.26 52.92,190.77 40.75,43.13 47.89,107.95 17.46,158.75 -2.38,54.5 -36.78,102.66 -87.58,122.5 0,0 17.46,105.83 -87.58,122.77 0,0 -192.63,52.92 -192.63,-35.19 0,0 9.79,-41.54 47.63,-66.41 0,0 -30.16,-73.55 57.41,-73.55 0,0 -140.23,-17.73 -17.46,-122.77 0,0 -133.88,-15.61 -52.65,-76.73 16.93,-12.7 36.51,-21.7 56.89,-28.05l170.93 -52.92 38.1 -309.04 0 0.01z"/>
    <path class="fil1" d="M11199.78 11187.47c-28.84,0 -57.15,-4.5 -75.41,-18.52 -14.29,-10.85 -21.7,-26.46 -21.7,-45.51l0 -2.91c0.79,-1.85 10.32,-41.01 45.51,-68.53 -3.18,-12.96 -6.09,-35.72 6.35,-54.5 4.5,-6.61 10.05,-11.91 17.2,-16.14 -13.23,-7.41 -25.4,-17.99 -29.9,-33.6 -6.88,-23.02 3.97,-48.95 33.6,-78.85 -24.34,-5.82 -56.36,-17.73 -62.71,-41.01 -4.76,-17.46 5.56,-35.72 30.16,-54.24 16.93,-12.7 37.31,-22.75 60.85,-29.9l162.99 -50.54 37.84 -305.6 3.7 -3.18c3.18,-2.91 78.85,-69.85 150.81,-37.84 14.55,6.61 25.66,19.05 30.43,34.93 4.76,16.4 2.38,33.87 -6.88,48.42 -15.88,24.61 -47.63,63.24 -108.48,107.69l-37.57 26.46c18.79,14.29 48.15,42.33 59.53,83.34 9.53,33.87 4.76,69.32 -14.02,105.83 38.1,46.04 44.19,111.92 14.55,164.32 -3.7,55.03 -37.04,103.72 -86.52,126.74 1.06,17.2 0,53.18 -21.7,83.08 -17.2,23.81 -43.39,38.63 -77.79,44.19 -7.94,2.12 -60.33,16.14 -110.6,16.14l-0.23 -0.27zm-71.17 -62.45c0.26,10.05 3.97,17.46 11.38,23.02 34.13,25.93 130.44,7.41 164.85,-2.12 92.08,-14.82 78.85,-104.25 78.05,-108.21l-1.59 -10.32 9.79 -3.97c46.04,-17.99 77.26,-61.65 79.38,-110.86l0 -3.18c0,0 1.85,-2.91 1.85,-2.91 27.25,-45.77 20.9,-104.51 -15.88,-143.14l-6.61 -6.88 4.76 -8.47c18.79,-33.07 24.08,-64.56 15.88,-93.93 -13.23,-47.63 -57.94,-75.41 -63.5,-78.58l-16.93 137.32 -178.87 55.56c-20.64,6.35 -38.36,15.08 -52.92,25.93 -17.2,12.96 -21.96,22.23 -20.64,26.72 3.18,11.64 37.31,23.02 67.2,26.72l29.63 3.44 -22.49 19.31c-33.87,28.84 -49.74,53.71 -44.98,69.59 5.82,19.58 43.13,28.58 55.56,30.43l-1.59 25.93c-22.75,0 -37.57,5.29 -44.45,15.35 -10.32,15.61 -0.79,39.95 -0.79,40.22l3.97 10.05 -9 5.82c-29.37,19.31 -39.69,50.27 -41.8,57.15l-0.26 0.01zm300.05 -724.45l-18.52 149.23 48.15 -33.6c57.41,-42.07 87.05,-78.05 101.6,-100.81 5.03,-7.94 6.61,-17.73 3.7,-26.72 -2.65,-8.47 -8.2,-15.08 -15.88,-18.52 -48.95,-21.7 -104.78,18.79 -119.33,30.43l0.28 -0.01z"/>
   </g>
   <g>
    <path class="fil6" d="M10882.54 12140c-166.17,137.05 -1194.1,892.21 -1472.46,1096.73 -35.72,26.19 -86.25,12.44 -103.98,-28.31l0 -0.01c0,0 -297.93,-754.35 -297.93,-754.35l1145.16 -895.64c128.85,-118.27 273.06,-218.56 428.9,-297.93 487.12,-235.22 697.2,60.85 697.2,60.85 343.97,407.47 -396.89,818.65 -396.89,818.65l0 0.01z"/>
    <path class="fil1" d="M9369.6 13263.46c-7.14,0 -14.55,-1.06 -21.7,-2.91 -24.34,-6.61 -43.92,-23.55 -53.98,-46.83l-301.64 -763.87 7.67 -6.09 1145.16 -895.64c128.85,-118.53 274.12,-219.61 431.02,-299.25 491.88,-237.61 711.75,61.91 714.13,65.09 77.26,91.55 107.16,192.1 87.84,297.67 -53.45,291.58 -458.8,523.37 -487.91,539.77 -168.29,138.38 -1168.97,873.95 -1472.19,1096.46 -14.29,10.58 -31.22,15.88 -48.42,15.88l0.01 -0.28zm-345.29 -804.9l294.23 745.09c6.61,15.35 19.84,26.72 36.51,31.22 16.4,4.5 33.6,1.32 47.36,-8.73 303.49,-222.79 1306.82,-960.2 1471.93,-1096.2l2.12 -1.32c4.23,-2.38 423.87,-238.4 476,-522.04 17.73,-97.37 -10.05,-190.51 -82.55,-276.5 -9,-12.44 -210.88,-284.7 -681.32,-57.41 -154.52,78.58 -297.67,178.07 -425.72,295.81l-1138.28 890.35 -0.28 -0.27z"/>
   </g>
   <path class="fil1" d="M11203.22 10873.92c-6.88,0 -12.7,-5.29 -13.23,-12.17 -0.53,-7.41 4.76,-13.76 12.17,-14.29 76.38,0 248.54,-100.16 260.09,-78.84 3.44,6.35 1.32,14.55 -5.03,17.99 -138.64,77.52 -248.45,86.78 -253.22,87.05 -0.26,0 -0.79,0 -1.06,0l0.28 0.26z"/>
   <path class="fil1" d="M11203.22 10998.02c-6.88,0 -12.7,-5.29 -13.23,-12.44 -0.53,-7.41 5.03,-13.49 12.44,-14.02 1.32,0 131.5,-9.26 206.91,-59.53 6.09,-3.97 14.29,-2.38 18.26,3.7 3.97,6.09 2.38,14.29 -3.7,18.26 -81.49,54.24 -214.06,63.5 -219.88,64.03 -0.26,0 -0.53,0 -0.79,0l-0.01 0z"/>
   <path class="fil1" d="M11258.79 11081.63c-52.12,0 -96.04,-11.11 -98.95,-11.64 -7.14,-1.85 -11.38,-9 -9.53,-16.14 1.85,-7.14 9.26,-11.38 16.14,-9.53 1.06,0 98.95,24.61 169.87,-0.79 6.88,-2.38 14.55,1.06 16.93,7.94 2.38,6.88 -1.06,14.55 -7.94,16.93 -27.52,9.79 -58.21,13.23 -86.52,13.23l0.01 0z"/>
   <path class="fil1" d="M7734.69 10680.25c-7.41,0 -13.23,-5.82 -13.23,-13.23l0 -855.16c0,-7.41 5.82,-13.23 13.23,-13.23 7.41,0 13.23,5.82 13.23,13.23l0 855.16c0,7.41 -5.82,13.23 -13.23,13.23z"/>
   <path class="fil1" d="M9135.18 10489.47c-7.41,0 -13.23,-5.82 -13.23,-13.23l0 -234.96c0,-2.65 0.79,-5.29 2.12,-7.41 2.12,-3.18 209.56,-319.36 0.53,-594.54 -4.5,-5.82 -3.18,-14.02 2.65,-18.52 5.82,-4.5 14.02,-3.18 18.52,2.65 208.5,274.38 25.4,585.28 2.65,621.79l0 231.26c0,7.41 -5.82,13.23 -13.23,13.23l-0.01 -0.27z"/>
   <g>
    <path class="fil1" d="M8196.14 8317.18c0,0 -309.31,-63.76 -238.14,-449.8 0,0 52.92,-330.47 376.51,-314.07 0,0 148.96,-298.99 464.35,-158.75 0,0 87.58,17.46 192.63,140.23l158.75 105.83c0,0 215.12,126.47 161.67,347.41 -16.67,69.32 -58.47,129.91 -113.77,174.37 -26.72,21.43 -60.33,47.1 -95.78,71.44l0 -264.59c0,0 0,-211.68 -179.13,-293.96 0,0 -52.92,280.47 -490.29,385.51l-175.16 315.39c-24.87,-14.55 -46.04,-34.93 -61.65,-59.27l0 0.26z"/>
    <path class="fil1" d="M8262.82 8394.7l-11.64 -6.88c-25.14,-14.55 -46.83,-34.93 -63.24,-59 -42.33,-11.38 -310.37,-98.69 -242.9,-463.82 0.53,-3.18 58.21,-335.24 381.8,-325.18 26.99,-46.83 182.84,-287.35 476.26,-157.69 12.96,3.18 97.37,26.72 197.39,142.88l157.16 104.78c1.59,1.06 222.26,133.88 167.23,361.7 -16.67,69.06 -58.74,133.61 -118.27,181.78 -33.34,26.72 -65.88,51.06 -96.84,71.97l-20.64 14.02 0 -289.46c0,-1.85 -2.12,-192.63 -157.16,-274.91 -18.79,62.97 -110.6,284.7 -490.29,377.84l-178.87 322.01 0.01 -0.04zm48.42 -828.71c-287.88,0 -338.15,290.79 -340.26,303.49 -68,368.57 215.65,432.34 227.82,434.72l5.56 1.06 2.91 4.76c11.91,18.79 27.52,34.93 45.77,47.63l171.2 -308.25 5.56 -1.32c423.08,-101.6 479.97,-372.54 480.5,-375.19l3.18 -16.4 15.35 6.88c184.69,84.67 186.81,303.75 186.81,305.87l0 239.19c24.08,-16.93 48.95,-35.98 74.35,-56.36 55.03,-44.45 93.93,-103.98 109.27,-167.23 50.27,-208.5 -147.11,-328.09 -155.58,-332.86l-162.2 -108.74c-100.28,-117.21 -184.42,-135.73 -185.22,-135.73l-2.65 -0.79c-299.78,-133.35 -441.34,140.76 -447.16,152.66l-3.97 7.67 -8.73 -0.53c-7.67,-0.26 -15.08,-0.53 -22.49,-0.53l-0.01 0z"/>
   </g>
   <g>
    <ellipse class="fil9" cx="8297.48" cy="8218.49" rx="130.17" ry="175.16"/>
    <path class="fil1" d="M8297.48 8405.28c-78.32,0 -141.82,-83.87 -141.82,-186.81 0,-102.93 63.5,-186.81 141.82,-186.81 78.32,0 141.82,83.87 141.82,186.81 0,102.93 -63.5,186.81 -141.82,186.81zm0 -350.32c-65.62,0 -118.8,73.29 -118.8,163.52 0,90.22 53.18,163.52 118.8,163.52 65.62,0 118.8,-73.29 118.8,-163.52 0,-90.22 -53.18,-163.52 -118.8,-163.52z"/>
   </g>
   <ellipse class="fil1" cx="8917.15" cy="7863.67" rx="251.36" ry="171.99"/>
   <path class="fil1" d="M8691.72 8670.67c-60.33,0 -177.02,-21.43 -274.91,-166.7 -3.97,-6.09 -2.38,-14.29 3.7,-18.26 6.09,-3.97 14.29,-2.38 18.26,3.7 125.15,185.75 280.73,153.46 287.35,152.14 6.88,-1.59 14.29,2.91 15.88,10.05 1.59,7.14 -2.91,14.29 -10.05,15.88 -2.12,0.53 -16.93,3.7 -40.22,3.7l-0.01 -0.52z"/>
  </g>
  <g id="_2246456846064">
   <g>
    <path class="fil9" d="M1185.26 12175.18l0 270.94c74.61,48.68 122.5,129.38 128.85,218.29 0,0 96.84,-75.41 311.42,-95.78l0 -393.45 -440.27 0.01z"/>
    <path class="fil1" d="M1303 12689.55l-1.85 -24.08c-6.09,-84.4 -52.12,-162.2 -123.03,-208.24l-5.82 -3.97 0 -291.05 466.2 0.01 0 418.32 -11.91 1.06c-207.44,19.84 -303.75,92.34 -304.55,93.13l-19.05 14.82 0.01 -0.01zm-104.78 -250.3c68.26,46.83 114.3,120.91 126.47,202.68 37.04,-22.23 129.65,-68.26 287.88,-84.93l0 -368.57 -414.35 -0.01 0 251.1 0 -0.26z"/>
   </g>
   <g>
    <path class="fil9" d="M1502.77 5194.99c-107.42,272.27 -289.73,508.55 -525.75,681.59 -63.24,46.04 -123.03,96.84 -178.87,151.87l-75.94 75.41c77.79,110.33 201.89,178.6 336.82,185.22 0,0 675.5,-396.89 814.42,-694.82l-370.69 -399.27 0.01 0z"/>
    <path class="fil1" d="M1062.48 6302.31l-3.97 0c-139.96,-6.88 -266.18,-76.46 -346.88,-190.77l-6.35 -9 83.61 -83.08c56.09,-55.3 116.68,-106.63 180.46,-153.19 234.43,-171.72 414.61,-405.35 521.25,-675.77l7.67 -19.31 390.8 420.7 -3.7 7.94c-138.91,298.2 -791.92,684.23 -819.71,700.64l-3.44 1.85 0.26 -0.01zm-323.06 -197.12c75.41,101.6 189.98,163.52 316.45,170.67 51.06,-30.43 663.6,-400.06 801.98,-679.21l-350.58 -377.84c-109.27,266.71 -289.73,497.44 -522.57,668.09 -62.71,45.77 -122.5,96.31 -177.55,150.55l-68 67.47 0.27 0.27z"/>
   </g>
   <g>
    <path class="fil2" d="M3888.32 4758.95l-55.03 635.02 -110.07 -18.26 21.96 1373.76 2.38 160.88c-1118.7,323.86 -1846.32,-18.52 -1846.32,-18.52 7.41,-34.66 16.4,-102.39 26.46,-189.98 44.19,-405.88 102.13,-1240.67 102.13,-1240.67l-116.15 177.28 -446.36 -482.88c108.48,-187.07 229.14,-366.72 360.9,-538.18 164.58,-219.61 449.8,-312.22 582.1,-343.97 44.71,-11.11 71.97,-15.35 71.97,-15.35l435.25 -62.44 110.86 -0.01c934.8,60.33 859.93,563.32 859.93,563.32l-0.01 0z"/>
    <path class="fil1" d="M2805.88 7061.95c-564.64,0 -905.17,-155.84 -910.2,-157.96l-9.53 -4.5 2.12 -10.32c6.61,-31.22 15.35,-92.87 26.19,-188.66 37.31,-343.44 85.2,-1002.27 98.43,-1189.34l-97.63 148.96 -464.35 -502.46 5.03 -8.47c108.48,-186.81 230.2,-368.31 361.96,-539.51 170.93,-228.08 469.12,-319.89 589.51,-348.73 44.71,-11.11 71.97,-15.35 73.03,-15.61l435.51 -62.44 112.71 0.01c379.42,24.34 641.11,122.77 778.16,292.64 112.71,139.44 96.31,274.91 94.99,285.23l-56.36 649.04 -108.48 -17.99 24.34 1528.81 -9.79 2.91c-357.73,103.72 -677.09,138.91 -945.39,138.91l-0.26 -0.53zm-889.56 -177.81c88.64,37.57 790.33,310.9 1818.01,16.4l-2.12 -150.81 -22.23 -1389.63 111.65 18.52 53.98 -621.53c0,0 17.73,-133.09 -89.96,-265.92 -130.7,-161.14 -392.65,-258.77 -757.79,-282.32l-110.05 0.01c0,0 -433.4,62.44 -433.4,62.44 0,0 -27.25,4.23 -70.64,15.08 -117.74,28.31 -408.79,117.74 -574.7,338.94 -129.12,168.02 -248.45,345.82 -355.08,528.39l428.11 463.3 134.67 -205.59 -3.44 50.54c-0.53,8.47 -58.47,839.82 -102.13,1241.2 -10.05,88.37 -17.99,146.31 -24.61,180.72l-0.26 0.26z"/>
   </g>
   <g>
    <path class="fil10" d="M3027.08 4195.63c-97.1,304.81 -306.66,288.14 -306.66,288.14 -175.96,-19.58 -277.56,-156.37 -311.42,-211.68 44.71,-11.11 71.97,-15.35 71.97,-15.35l435.25 -62.44 110.86 1.32 -0.01 0.01z"/>
    <path class="fil1" d="M2724.65 4497.27c-3.18,0 -5.03,0 -5.29,0 -182.31,-20.37 -285.76,-159.29 -321.74,-218.03l-9.53 -15.35 17.46 -4.5c44.71,-11.11 71.97,-15.35 73.03,-15.61l435.51 -62.44 130.7 1.32 -5.56 16.93c-90.49,284.44 -281.26,297.4 -315.13,297.4l0.54 0.28zm-294.22 -216.44c41.01,61.12 135.73,172.52 291.85,189.98 7.41,0.53 192.36,10.85 286.82,-261.95l-92.6 -1.06 -433.13 62.44c0,0 -19.84,3.18 -52.65,10.85l-0.28 -0.26z"/>
   </g>
   <g>
    <path class="fil10" d="M748.41 5755.66l333.39 1092.76 922.63 0c1.59,0 2.91,-1.59 2.38,-3.18l-310.1 -1054.39 -946.71 -37.04c0,0 -1.59,0.79 -1.32,1.85l-0.27 0z"/>
    <path class="fil1" d="M2004.43 6861.66l-932.42 0 -338.15 -1108.63 8.73 -12.17 7.94 0c0,0 956.23,37.04 956.23,37.04l314.86 1069.74 -4.5 7.67c-2.91,3.97 -7.67,6.35 -12.7,6.35l0.01 0zm-912.84 -26.46l898.55 0 -303.49 -1031.38 -920.78 -35.98 325.71 1067.36 0.01 0z"/>
   </g>
   <g>
    <path class="fil0" d="M1753.6 5741.38l-56.89 45.24 309.84 1053.34c0.79,2.38 3.18,3.7 5.56,2.91l64.29 -20.64 -315.66 -1078.47c-0.79,-3.18 -4.76,-4.23 -7.14,-2.38z"/>
    <path class="fil1" d="M2010.78 6856.11c-2.91,0 -5.82,-0.79 -8.2,-2.12 -4.23,-2.12 -7.41,-6.09 -8.73,-10.58l-312.48 -1061.8 64.03 -50.8c4.76,-3.7 10.85,-4.76 16.4,-2.91 5.56,1.85 10.05,6.35 11.64,11.91l319.36 1090.64 -76.46 24.61c-1.85,0.53 -3.44,0.79 -5.29,0.79l-0.27 0.26zm-298.99 -1064.72l304.81 1035.87 43.39 -14.02 -308.51 -1053.6 -39.69 31.49 0 0.26z"/>
   </g>
   <g>
    <path class="fil14" d="M1901.24 6892.62l-1058.36 1687.56c0,0 -415.67,586.87 -299.52,1369.52 0,0 110.07,1394.13 464.62,2225.48l498.49 0 2.91 128.59c23.81,19.58 49.21,37.31 75.67,52.92 114.56,69.59 347.67,171.46 615.18,69.06 27.25,-10.32 53.71,-22.49 79.38,-36.25 0,0 622.85,-2874.79 1062.07,-4385.34 22.75,-78.58 54.24,-153.99 94.19,-225.44 86.25,-153.46 250.31,-483.41 311.95,-867.6 0,0 -966.29,330.47 -1846.59,-18.52zm-95.78 2788.27l-148.7 972.11 -220.14 -1112.87 574.7 -807.01 -205.86 947.77z"/>
    <path class="fil1" d="M1967.92 12482.64c-169.08,0 -308.25,-65.09 -389.74,-114.56 -26.99,-15.88 -52.92,-34.13 -77.26,-53.98l-4.76 -3.97 -2.65 -121.71 -494.26 0 -3.44 -7.94c-351.38,-823.68 -464.62,-2215.69 -465.68,-2229.71 -115.62,-777.9 297.67,-1372.43 301.9,-1378.25l1063.92 -1696.29 10.32 3.97c855.96,339.47 1797.37,31.75 1837.06,18.26l4.5 -0.79 15.61 -0.01 -2.38 15.35c-61.38,382.6 -222.79,710.69 -313.54,872.1 -39.42,70.38 -70.64,145.26 -92.87,222.52 -434.19,1492.83 -1055.72,4355.71 -1061.8,4384.55l-1.32 6.09 -5.29 2.91c-25.93,13.76 -53.18,26.19 -80.96,37.04 -83.08,31.75 -162.99,44.45 -237.08,44.45l-0.27 -0.01zm-445.31 -185.22c21.96,17.46 45.24,33.6 69.32,47.89 112.98,68.53 341.32,168.55 603.8,68 24.87,-9.53 49.21,-20.64 72.5,-32.81 32.28,-148.7 636.34,-2919.5 1061.01,-4380.32 23.02,-79.38 55.03,-156.1 95.25,-228.08 88.11,-156.9 243.69,-472.56 306.93,-841.93 -148.43,46.04 -1021.85,291.85 -1824.63,-21.43l-1052.54 1678.3c-4.5,6.35 -411.7,592.42 -297.67,1360.53 1.32,14.82 113.24,1393.34 460.39,2214.1l502.72 0 3.18 135.47 -0.27 0.26zm136 -1567.7l-235.75 -1192.52 615.44 -864.16 -219.35 1010.47 -160.08 1046.19 -0.27 0.01zm-207.71 -1186.44l204.27 1033.23 137.32 -898.29 192.1 -884.8 -533.95 749.85 0.26 0z"/>
   </g>
   <g>
    <path class="fil2" d="M1760.48 12578.69c27.78,100.28 48.15,202.68 61.12,305.87l-61.12 433.93 -1432.5 0 -169.34 -189.45 404.82 -293.43 479.97 -251.36c29.63,-15.35 54.77,-38.36 73.03,-66.41 19.31,-27.78 29.63,-60.85 30.16,-94.72 95.78,43.92 160.35,136.26 168.81,241.31 132.82,-82.02 291.32,-112.71 445.04,-85.73l0 -0.01z"/>
    <path class="fil1" d="M1772.12 13331.72l-1449.96 0 -183.1 -204.8 416.73 -302.16 481.56 -252.42c27.78,-14.29 51.33,-35.72 68,-61.91 17.99,-26.19 27.52,-56.36 28.05,-87.84l0 -20.37c0,0 18.79,8.47 18.79,8.47 93.66,42.86 159.01,130.44 174.11,231.52 132.03,-75.94 286.02,-103.19 436.57,-76.99l8.2 1.32 2.12 8.2c27.78,100.54 48.42,204 61.38,307.72l0 1.85c0,0 0,1.85 0,1.85l-62.71 445.3 0.25 0.26zm-1438.06 -26.46l1415.04 0 59.27 -420.7c-12.44,-98.95 -32.01,-197.92 -58.21,-294.23 -148.17,-23.81 -299.78,6.35 -427.58,85.46l-18.52 11.38 -1.85 -21.7c-7.41,-93.66 -61.91,-177.02 -143.93,-221.73 -3.7,29.1 -14.29,57.15 -30.96,81.49 -19.05,29.63 -46.04,54.24 -77.79,70.64l-479.97 251.36 -391.33 283.91 155.58 174.11 0.25 0.01z"/>
   </g>
   <g>
    <path class="fil10" d="M582.78 12824.49c0,0 22.23,158.75 279.15,79.38 0,0 433.4,-207.44 926.07,-213.79l-26.46 -110.33c0,0 -177.28,-61.12 -446.36,85.73 -8.2,-105.3 -72.76,-197.65 -168.81,-241.31 0,17.99 -2.91,35.98 -8.73,52.92 -16.14,47.1 -50.01,86.25 -94.19,109.01l-460.65 238.4 -0.01 -0.02z"/>
    <path class="fil1" d="M733.59 12939.33c-41.54,0 -76.2,-9 -103.98,-26.72 -51.86,-33.07 -59.53,-84.14 -59.8,-86.25l-1.32 -9.26 468.85 -242.63c41.54,-21.43 72.76,-57.41 87.84,-101.6 5.29,-15.61 8.2,-32.01 7.94,-48.68l0 -20.64c0,0 18.79,8.47 18.79,8.47 94.46,42.86 159.82,130.7 174.37,232.58 261.42,-136.26 432.34,-79.9 439.75,-77.26l6.88 2.38 32.01 133.61 -16.4 -0.01c-483.94,6.35 -916.28,210.62 -920.52,212.74 -50.54,15.61 -95.25,23.55 -134.14,23.55l-0.27 -0.27zm-135.46 -107.68c4.23,13.76 15.88,40.22 46.3,59.27 46.57,29.1 120.39,29.37 213.79,0.53 2.65,-1.32 430.22,-203.47 913.37,-214.06l-20.9 -86.78c-34.4,-8.73 -197.65,-39.42 -428.9,86.78l-17.99 9.79 -1.59 -20.37c-7.14,-93.93 -61.65,-177.02 -143.67,-221.47 -1.32,12.44 -4.23,24.61 -8.2,36.51 -17.2,50.54 -53.18,91.81 -100.54,116.42l-451.39 233.64 -0.26 -0.27z"/>
   </g>
   <g>
    <path class="fil10" d="M563.47 12835.6c0,0 18.52,79.38 -226.23,195.54 0,0 -97.63,61.12 -79.38,110.07l523.37 0c0,0 228.61,-6.35 326.51,146.58l400.32 0c0,0 -2.91,-380.48 346.61,-396.89 12.96,0 24.08,9 26.46,21.7l58.21 399.27c2.65,14.29 -6.88,28.05 -21.17,30.69 -1.59,0.26 -3.44,0.53 -5.29,0.53l-1795.26 0c-43.39,0 -81.76,-27.78 -95.25,-68.79 -23.02,-70.91 -17.73,-182.57 179.13,-267.5l361.96 -171.2 0.01 -0.01z"/>
    <path class="fil1" d="M1913.41 13356.32l-1795.79 0c-48.95,0 -92.34,-31.22 -107.69,-77.79 -21.7,-66.68 -26.19,-192.1 186.54,-283.91l376.51 -178.07 3.7 15.88c2.12,9.26 13.76,93.13 -233.37,210.62 -19.84,12.44 -73.82,53.71 -74.08,84.93l512.53 0c9.26,0 230.99,-4.76 333.65,146.58l380.48 0c3.7,-69.06 38.63,-381.8 358.79,-396.89 0,0 0.53,0 0.79,0 19.58,0 35.98,13.49 39.42,32.54l58.21 399.8c3.97,21.17 -10.58,41.8 -32.01,45.77 -2.38,0.53 -4.76,0.53 -7.14,0.53l-0.54 0zm-1367.93 -497.7l-338.41 160.08c-184.16,79.38 -195.27,180.46 -172.25,251.36 11.91,35.72 44.98,59.53 82.55,59.53l1795.25 0.01 5.29 12.7 -2.38 -12.96c7.14,-1.32 11.91,-8.2 10.58,-15.35l-58.21 -399.8c-1.06,-5.82 -6.88,-11.64 -13.23,-10.32 -332.06,15.61 -333.65,368.57 -333.65,383.66l0 13.23c0,0 -420.7,0 -420.7,0l-3.97 -6.09c-92.87,-144.99 -312.48,-140.49 -315.13,-140.49l-532.88 0 -3.18 -8.73c-21.43,-57.41 73.82,-119.06 84.67,-125.94 157.16,-74.61 202.42,-132.29 215.12,-161.14l0.53 0.26z"/>
   </g>
   <g>
    <path class="fil9" d="M2463.77 3945.85l18.26 329.95c0,0 85.73,134.67 226.23,116.15 0,0 158.75,-6.09 207.97,-158.75l-21.96 -664.12 -100.28 0 -330.21 376.78 0 -0.01z"/>
    <path class="fil1" d="M2680.46 4406.78c-128.85,0 -206.12,-118.53 -209.56,-124.09l-1.85 -2.91 0 -3.44c0,0 -18.79,-335.24 -18.79,-335.24l3.44 -3.97 334.18 -381.27 118.8 0 22.49 678.94 -0.79 2.12c-51.33,159.55 -218.29,167.76 -219.88,167.76 -9.53,1.32 -19.05,1.85 -28.31,1.85l0.26 0.26zm-185.75 -135.47c12.7,18.26 91.81,123.3 211.68,107.69 7.14,-0.26 150.02,-7.94 196.6,-147.64l-21.43 -649.31 -81.76 0 -322.8 368.31 17.73 320.95 -0.01 0z"/>
   </g>
   <g>
    <path class="fil9" d="M2539.44 3051.54l0 0c204.56,0 370.44,165.89 370.44,370.43l-0.02 238.13c0.02,204.55 -165.87,370.43 -370.41,370.43l-0.01 0c-204.54,0 -370.42,-165.89 -370.42,-370.43l-0.01 -238.13c0.01,-204.55 165.9,-370.43 370.44,-370.43z"/>
    <path class="fil1" d="M2539.44 4043.5c-211.41,0 -383.39,-171.99 -383.39,-383.39l0 -238.14c0,-211.41 171.99,-383.39 383.39,-383.39 211.41,0 383.39,171.99 383.39,383.39l0 238.14c0,211.41 -171.99,383.39 -383.39,383.39zm0 -978.99c-197.12,0 -357.46,160.35 -357.46,357.46l0 238.14c0,197.12 160.35,357.46 357.46,357.46 197.12,0 357.46,-160.35 357.46,-357.46l0 -238.14c0,-197.12 -160.35,-357.46 -357.46,-357.46z"/>
   </g>
   <g>
    <path class="fil1" d="M2178.8 3085.94c0,0 -118.53,-3.18 -94.19,132.29 0,0 28.84,110.86 167.49,28.05 0,0 46.57,45.24 193.42,2.38 0,-0.79 -191.04,-55.3 -266.71,-162.73z"/>
    <path class="fil1" d="M2161.87 3290.2c-12.96,0 -24.87,-2.38 -35.98,-6.88 -41.8,-17.2 -53.45,-60.06 -53.98,-61.91 -8.73,-48.42 -1.59,-85.99 20.9,-112.18 32.54,-37.84 84.14,-36.78 86.52,-36.78l6.61 -0.01c0,0 3.7,5.56 3.7,5.56 60.06,85.2 198.71,137.58 255.86,156.37 5.29,1.85 13.23,4.5 13.23,14.02l0 10.05 -9.53 2.65c-120.12,35.19 -177.81,12.7 -197.92,0.53 -33.34,18.79 -63.5,28.31 -89.69,28.31l0.28 0.27zm-64.03 -74.35c0,0 9,31.49 38.36,43.13 27.25,11.11 64.03,2.91 109.27,-24.08l8.73 -5.29 7.41 7.14c0,0 35.72,30.43 138.11,9.79 -73.29,-27.52 -173.31,-75.67 -227.02,-147.11 -12.44,1.06 -41.28,5.82 -59.8,27.52 -16.93,19.84 -21.96,49.74 -14.82,89.16l0.01 0 -0.26 -0.26z"/>
   </g>
   <g>
    <path class="fil1" d="M2812.5 3260.3l12.17 268.83 71.7 97.1 5.03 155.05c0,0 161.94,-1.32 155.58,-172.52 -6.35,-171.2 0,-156.1 0,-156.1 0,0 134.41,-26.46 21.17,-192.36 0,0 -52.92,-79.38 -107.42,-79.38l-76.48 -0.01 -81.76 79.38 0.01 0z"/>
    <path class="fil1" d="M2888.7 3794.78l-5.29 -163.79 -71.7 -97.1 -12.7 -278.88 89.96 -87.31 81.75 -0.01c60.85,0 116.15,81.76 118.53,85.2 43.66,63.76 57.41,116.42 41.01,156.63 -14.29,34.66 -46.57,48.95 -62.18,53.71 -0.79,12.44 -1.32,47.36 2.12,144.99 2.12,55.83 -12.7,100.81 -43.92,133.35 -49.48,51.86 -121.71,52.92 -124.88,52.92l-12.97 0 0.27 0.27zm-50.8 -270.15l71.7 97.1 4.76 145.26c20.9,-2.65 62.97,-12.17 93.13,-43.92 25.93,-27.25 38.1,-65.62 36.25,-113.77 -6.09,-166.43 -3.18,-166.96 10.05,-169.87l7.14 -1.59c11.38,-3.97 35.19,-14.55 44.98,-38.63 12.44,-30.96 -0.79,-76.46 -38.36,-131.5 -13.76,-20.64 -57.68,-73.55 -96.57,-73.55l-71.17 -0.01 -73.55 71.44 11.64 258.77 0 0.27z"/>
   </g>
   <g>
    <ellipse class="fil15" cx="2864.35" cy="3533.89" rx="76.46" ry="99.22"/>
    <path class="fil1" d="M2864.35 3646.07c-49.48,0 -89.43,-50.27 -89.43,-112.18 0,-61.91 40.22,-112.18 89.43,-112.18 49.21,0 89.43,50.27 89.43,112.18 0,61.91 -40.22,112.18 -89.43,112.18zm0 -198.45c-34.93,0 -63.5,38.63 -63.5,86.25 0,47.62 28.58,86.25 63.5,86.25 34.92,0 63.5,-38.63 63.5,-86.25 0,-47.62 -28.58,-86.25 -63.5,-86.25z"/>
   </g>
   <g>
    <path class="fil9" d="M799.75 6178.21c70.38,66.15 161.67,105.57 258.24,111.39 431.02,26.46 390.8,83.34 390.8,83.34 0,48.95 -336.3,55.03 -336.3,55.03 458.53,55.03 390.27,128.06 390.27,128.06 -15.08,26.46 -196.07,26.46 -340.79,22.23 -7.41,0.26 -13.23,6.61 -12.96,14.02 0,5.82 4.23,10.85 9.79,12.44 135.2,28.58 291.05,69.06 248.72,97.63 -60.85,40.75 -221.2,12.44 -268.83,2.91 -2.12,-0.53 -2.91,2.65 -1.06,3.7 72.23,38.1 105.04,67.73 119.06,89.43 12.44,19.58 0,46.3 -23.28,48.42 -285.76,28.58 -707.78,-266.71 -707.78,-266.71 -152.93,-121.97 0,-343.97 0,-343.97 0,0 90.75,-168.81 196.6,-132.29l77.52 74.35z"/>
    <path class="fil1" d="M1192.67 6861.93c-283.91,0 -658.04,-259.57 -674.44,-271.21 -161.14,-128.59 -4.76,-359.58 -3.18,-361.96 3.18,-6.09 96.57,-177.02 211.68,-137.32l4.76 2.91 77.52 74.35c68,64.03 156.9,102.39 250.04,107.95 247.66,15.35 382.86,42.86 401.65,81.76 3.44,6.88 2.91,13.49 1.06,18.26 -6.61,34.13 -105.3,50.54 -207.97,58.21 160.88,26.99 249.51,60.33 263.54,99.22 5.29,14.82 -0.79,25.4 -3.7,29.37 -7.41,12.7 -28.84,37.57 -351.91,28.05 257.45,55.03 263.01,83.34 265.65,96.84 1.06,5.56 0.79,16.14 -12.44,25.14 -47.36,31.75 -144.99,25.66 -217.5,15.35 34.13,22.23 57.94,43.39 70.38,62.97 8.47,12.96 9.26,29.37 2.38,43.39 -6.88,14.02 -20.11,23.55 -35.45,24.87 -13.76,1.32 -27.78,2.12 -42.07,2.12l0 -0.29zm-500.88 -750.12c-83.34,0 -153.99,129.12 -154.78,130.7 -2.12,3.44 -144.99,214.59 -3.44,327.56 3.44,2.38 420.96,291.58 698.26,264.06 6.35,-0.53 11.64,-4.5 14.55,-10.32 2.91,-6.09 2.65,-12.7 -0.79,-17.99 -10.85,-16.93 -39.42,-45.51 -114.04,-84.93 -6.61,-3.7 -9.79,-11.38 -7.14,-18.52l3.7 -10.58 12.96 1.06c95.78,19.31 214.06,29.37 259.04,-0.79 0,0 0,0 0,0 -7.41,-7.67 -45.24,-32.01 -244.22,-74.08 -11.91,-3.44 -19.58,-13.23 -20.11,-24.61 -0.26,-7.14 2.12,-13.76 7.14,-19.05 5.02,-5.29 11.38,-8.2 18.52,-8.47 292.64,8.47 326.51,-11.91 330.21,-16.14 1.32,-2.12 2.12,-3.7 0.79,-6.88 -6.09,-13.76 -51.86,-61.65 -381.54,-101.34l1.32 -25.93c165.9,-2.91 314.07,-22.49 323.6,-42.86l0 -3.97c-6.35,-8.2 -52.92,-45.51 -378.63,-65.62 -99.22,-5.82 -193.95,-46.83 -266.45,-114.83l0.01 0.02c0,0 -75.41,-72.5 -75.41,-72.5 -7.94,-2.38 -15.88,-3.44 -23.55,-3.44l0.01 -0.53z"/>
   </g>
   <g>
    <path class="fil9" d="M2200.76 12425.49l0 165.64c-214.06,-55.03 -446.36,85.46 -446.36,85.46 -6.09,-165.11 -168.81,-241.31 -168.81,-241.31l0 -79.38c115.62,70.11 347.67,171.99 615.18,69.59l-0.01 0z"/>
    <path class="fil1" d="M1742.22 12699.34l-0.79 -21.96c-5.82,-155.31 -159.82,-229.4 -161.41,-229.93l-7.41 -3.44 0 -110.86 19.84 11.91c113.24,68.53 342.12,168.81 603.8,68.53l17.73 -6.88 0 201.36 -16.14 -4.23c-206.39,-53.18 -434.19,82.55 -436.31,83.87l-19.05 11.38 -0.26 0.25zm-143.67 -272c31.75,16.93 151.34,89.16 167.23,227.82 57.94,-31.22 242.37,-118.8 422.02,-80.43l0 -130.7c-250.31,88.11 -469.12,2.91 -589.25,-65.35l0 48.68 0 -0.01z"/>
   </g>
   <g>
    <path class="fil2" d="M2200.76 12591.13c27.78,100.28 48.15,202.42 61.12,305.6l-61.12 434.19 -1432.5 0 -169.34 -188.92 403.5 -293.43 479.97 -251.36c29.63,-15.35 54.77,-38.1 73.03,-66.15 19.05,-28.05 29.63,-61.12 30.16,-94.99 95.78,43.92 160.35,136.26 168.81,241.31 133.09,-82.81 292.11,-113.51 446.36,-86.25z"/>
    <path class="fil1" d="M2212.4 13344.15l-1449.97 0 -183.1 -204.27 415.41 -302.16 481.56 -252.42c27.52,-14.29 51.06,-35.72 68,-61.65 17.99,-26.19 27.52,-56.62 28.05,-88.11l0 -20.11c0,0 18.79,8.47 18.79,8.47 93.66,42.86 159.01,130.44 174.11,231.52 132.29,-76.46 286.82,-103.98 437.9,-77.26l8.2 1.32 2.12 7.94c27.78,100.54 48.42,204 61.38,307.46l0 1.85c0,0 0,1.85 0,1.85l-62.71 445.57 0.25 0zm-1438.06 -26.45l1415.03 0 59.27 -420.96c-12.44,-98.69 -32.01,-197.65 -58.21,-293.96 -148.7,-24.08 -300.84,6.35 -428.9,85.99l-18.52 11.38 -1.85 -21.7c-7.41,-93.66 -61.91,-177.02 -143.93,-221.73 -3.7,29.37 -14.29,57.15 -30.96,81.76 -19.31,29.63 -46.3,53.98 -77.79,70.38l-479.97 251.36 -390.01 283.64 155.58 173.58 0.26 0.26z"/>
   </g>
   <g>
    <path class="fil10" d="M1002.42 12847.78c0,0 18.26,79.38 -226.23,195.8 0,0 -97.9,61.12 -79.38,110.07l523.11 -0.01c0,0 228.87,-6.61 326.77,146.31l400.32 0.01c0,0 -2.91,-380.22 346.61,-396.89 12.96,0 24.08,9 26.46,21.7l59.27 399c2.65,14.29 -6.88,28.05 -21.17,30.69 -1.59,0.26 -3.44,0.53 -5.29,0.53l-1794.99 0c-43.39,0.26 -81.76,-27.52 -95.25,-68.79 -23.02,-70.91 -17.73,-182.57 179.13,-267.5l360.64 -170.93z"/>
    <path class="fil1" d="M2353.69 13368.23l-1796.58 0c-48.95,0 -91.81,-31.22 -107.16,-78.05 -21.7,-66.68 -26.19,-192.1 186.54,-283.64l375.19 -177.81 3.7 16.14c2.12,9.26 13.49,93.13 -233.37,210.62 -19.84,12.44 -74.08,53.71 -74.08,84.93l512.25 -0.01c9,0 231.26,-5.03 333.91,146.31l380.49 0.01c3.7,-68.79 38.63,-381.54 358.79,-396.89 0,0 0.53,0 0.79,0 19.58,0 35.72,13.49 39.42,32.54l59.27 399.53c3.97,21.17 -10.32,41.8 -32.01,45.77 -2.38,0.53 -4.76,0.53 -6.88,0.53l-0.27 0.01zm-0.53 -26.46l5.29 12.7 -2.38 -12.96c7.14,-1.32 11.91,-8.2 10.58,-15.35l-59.27 -399.53c-1.06,-5.82 -6.61,-10.32 -12.96,-10.32l0 0c-332.06,15.88 -333.65,368.57 -333.65,383.66l0 13.23c0,0 -420.7,0 -420.7,0l-3.97 -6.09c-92.6,-144.73 -313.01,-140.23 -315.39,-140.23l-532.62 0 -3.18 -8.47c-21.7,-57.41 73.82,-119.06 84.67,-125.94 156.63,-74.61 202.15,-132.29 215.12,-161.41l-336.82 159.55c-184.16,79.38 -195.27,180.46 -172.25,251.36 11.64,35.72 44.45,59.53 82.02,59.53l1795.77 0.02 -0.26 0.26z"/>
   </g>
   <g>
    <path class="fil10" d="M1023.06 12836.93c0,0 22.23,158.75 278.88,78.05 0,0 433.66,-207.18 926.07,-213.53l-26.46 -110.33c0,0 -177.28,-61.12 -446.36,85.46 -8.2,-105.3 -72.76,-197.65 -168.81,-241.31 0,17.99 -2.91,35.98 -9,52.92 -16.14,47.1 -49.74,86.25 -93.93,109.27l-460.39 239.46 0.01 0z"/>
    <path class="fil1" d="M1172.56 12951.24c-40.75,0 -75.14,-8.73 -102.66,-26.19 -51.86,-32.81 -59.53,-83.87 -59.8,-86.25l-1.32 -9.26 468.59 -243.69c41.54,-21.43 72.5,-57.68 87.58,-101.86 5.56,-15.88 8.47,-32.01 8.2,-48.68l0 -20.64c0,0 18.79,8.47 18.79,8.47 94.19,42.86 159.82,130.7 174.37,232.58 261.42,-136 432.34,-79.64 439.75,-76.99l6.88 2.38 32.01 133.35 -16.41 -0.02c-483.68,6.35 -916.28,210.35 -920.52,212.47 -51.06,16.14 -96.31,24.08 -135.2,24.08l-0.26 0.26zm-134.15 -107.16c4.23,13.49 15.88,39.95 46.04,59 46.57,29.1 120.12,28.84 213.53,-0.53 2.65,-1.32 430.49,-203.21 913.37,-213.79l-20.9 -86.78c-34.4,-8.73 -197.65,-39.69 -428.9,86.52l-17.99 9.79 -1.59 -20.37c-7.14,-93.93 -61.65,-177.02 -143.67,-221.47 -1.59,12.44 -4.5,24.61 -8.47,36.51 -17.2,50.54 -52.92,92.08 -100.28,116.68l-451.12 234.7 0 -0.27z"/>
   </g>
   <g>
    <polygon class="fil10" points="1467.05,5156.36 1548.01,5020.1 2007.87,5495.3 1913.41,5639.25 "/>
    <path class="fil1" d="M1915.26 5660.68l-464.62 -502.46 94.72 -159.55 479.18 495.32 -109.54 166.96 0.27 -0.27zm-431.81 -505.9l428.11 463.3 79.38 -120.91 -440.54 -455.09 -67.2 112.98 0.25 -0.28z"/>
   </g>
   <g>
    <path class="fil9" d="M3723.22 5376.51l-73.29 476.26c-85.73,538.18 -305.87,538.18 -305.87,538.18 -267.77,18.52 -501.14,-96.31 -679.47,-232.31l0 -0.01c-143.14,-110.6 -268.56,-242.37 -371.75,-391.06 -238.14,-79.38 -448.21,-373.07 -448.21,-373.07l49.21 100.28c3.44,6.61 5.03,14.29 5.03,21.7 0,27.25 -22.49,49.21 -50.01,48.95 -16.67,0 -32.01,-8.73 -41.01,-22.49l-82.29 -125.94c-78.05,-105.83 29.1,-115.09 29.1,-115.09 -18.26,-91.55 66.15,-85.46 66.15,-85.46 -43.66,-128.32 233.37,-67.2 233.37,-67.2l-262.74 -220.14c-103.98,-61.12 -52.92,-100.54 -52.92,-100.54 215.38,-45.77 750.64,620.2 750.64,620.2 140.76,85.73 580.78,299.52 580.78,299.52l112.98 -487.91 540.3 116.15 0.01 -0.02z"/>
    <path class="fil1" d="M3286.11 6406.03c-211.15,0 -422.81,-79.64 -629.2,-237.08 -143.4,-110.6 -268.56,-241.84 -372.01,-390.54 -154.78,-53.18 -295.55,-191.83 -377.31,-285.23 2.91,7.41 4.5,15.35 4.5,23.28 0,16.67 -6.88,32.28 -18.79,44.19 -11.91,11.64 -26.46,18.79 -44.45,17.99 -21.17,0 -40.48,-10.85 -51.86,-28.58l-82.29 -125.94c-28.31,-38.36 -37.04,-70.91 -25.66,-96.04 10.58,-23.28 35.19,-32.81 51.06,-36.78 -2.91,-26.46 2.38,-47.89 16.14,-63.24 14.29,-16.14 34.13,-21.7 48.42,-23.81 -3.44,-20.37 0.79,-37.84 12.96,-51.33 35.72,-39.95 131.5,-33.6 191.04,-24.87l-225.44 -188.92c-44.19,-25.66 -68.26,-53.18 -70.11,-80.43 -1.32,-20.11 10.32,-34.66 17.46,-40.22l5.29 -2.38c217.23,-45.51 724.71,576.81 762.02,623.11 125.94,76.2 485.8,252.95 563.05,290.52l112.18 -484.47 564.91 121.44 -75.14 488.44c-86.52,542.95 -309.31,549.3 -318.83,549.3 -19.31,1.32 -38.63,2.12 -58.21,2.12l0.28 -0.52zm-1430.64 -1018.94c2.12,2.91 210.35,291.05 441.6,368.31l4.23 1.32 2.38 3.44c102.66,147.9 226.76,278.35 369.1,388.15 220.14,168.02 445.83,245.01 670.47,229.67 2.91,0 211.41,-9.26 293.96,-527.33l71.44 -464.09 -515.69 -110.86 -113.77 491.35 -14.55 -7.14c-4.5,-2.12 -442.13,-215.12 -581.84,-300.05l-3.44 -2.91c-5.29,-6.61 -526.01,-652.22 -734.24,-616.23 -2.38,2.65 -6.35,8.47 -5.56,16.67 0.79,10.05 9.53,31.49 59,60.59l305.34 255.6 -51.86 -11.38c-48.15,-10.58 -180.46,-29.63 -214.59,8.2 -8.73,9.79 -9.79,23.55 -3.7,42.07l6.35 18.52 -19.58 -1.32c0,0 -29.1,-1.59 -44.45,15.88 -10.05,11.64 -12.7,29.63 -7.94,53.98l2.91 14.29 -14.29 1.32c-9.53,0.79 -35.45,6.88 -43.13,24.08 -7.14,15.61 1.06,39.95 23.55,70.38l82.81 126.47c6.61,10.32 17.99,16.67 30.43,16.67 0,0 0,0 0.26,0 19.84,0 36.25,-16.14 36.51,-36.25 0,-5.56 -1.32,-10.85 -3.7,-15.88l-49.21 -100.28 22.23 -13.23 -1.04 -0.01z"/>
   </g>
   <g>
    <polygon class="fil10" points="3123.92,5247.91 3148.53,5040.21 3850.49,5195.26 3833.29,5394.76 "/>
    <path class="fil1" d="M3845.19 5410.9l-735.83 -152.4 27.78 -234.17 727.62 160.61 -19.58 225.96 0.01 0.01zm-706.72 -173.31l682.91 141.29 14.82 -173.05 -676.3 -149.49 -21.43 181.25z"/>
   </g>
   <path class="fil1" d="M2047.82 5342.9c-2.12,0 -3.97,-0.53 -5.82,-1.32l-227.02 -113.24c-6.61,-3.18 -9.26,-11.11 -5.82,-17.73 3.18,-6.61 11.11,-9.26 17.73,-5.82l227.02 113.24c6.61,3.18 9.26,11.11 5.82,17.73 -2.38,4.5 -6.88,7.41 -11.91,7.41l0 -0.27z"/>
   <path class="fil1" d="M2011.31 8746.34c0,0 -1.85,0 -2.65,0 -7.14,-1.32 -11.91,-8.47 -10.32,-15.61l250.57 -1234.59c1.59,-7.14 8.47,-11.91 15.61,-10.32 7.14,1.32 11.91,8.47 10.32,15.61l-250.57 1234.59c-1.32,6.35 -6.88,10.58 -12.96,10.58l0 -0.26z"/>
   <path class="fil1" d="M1506.47 12188.41c0,0 -0.79,0 -1.32,0 -7.41,-0.79 -12.7,-7.14 -11.91,-14.55l150.28 -1522.2c0.79,-7.41 7.41,-12.17 14.55,-11.91 7.41,0.79 12.7,7.14 11.91,14.55l-150.28 1522.2c-0.79,6.88 -6.35,11.91 -13.23,11.91z"/>
   <g>
    <path class="fil10" d="M749.47 5747.73l56.89 -63.5 944.33 52.39c2.91,0 3.97,3.7 1.85,5.56l-55.83 44.19 -946.44 -37.04c0,0 -1.32,-1.06 -0.79,-1.85l-0.01 0.25z"/>
    <path class="fil1" d="M1701.21 5799.85l-5.03 0c0,0 -954.91,-37.57 -954.91,-37.57l-7.41 -16.14 5.82 -7.14 61.12 -68.26 6.35 -0.01c0,0 944.33,52.92 944.33,52.92 6.88,0.26 12.7,4.76 14.55,11.38 2.12,6.61 0,13.49 -5.56,17.73l-59.53 47.36 0.27 -0.27zm-924.49 -62.71l915.75 35.72 30.96 -24.61 -911.52 -50.54 -35.45 39.42 0.26 0.01z"/>
   </g>
   <g>
    <ellipse class="fil1" transform="matrix(0.0432707 -0.999063 0.999063 0.0432707 2568.24 3243.67)" rx="132.29" ry="319.36"/>
    <path class="fil1" d="M2596.06 3391.28c-11.38,0 -22.75,0 -34.4,-0.79 -187.34,-8.2 -331,-79.11 -327.56,-161.67 1.85,-41.8 39.95,-78.32 107.16,-102.66 63.24,-23.02 146.05,-33.6 233.11,-29.9 187.34,8.2 331,79.11 327.56,161.67l0 0c-3.44,77.26 -134.94,133.35 -305.87,133.35zm-56.36 -265.92c-70.91,0 -136.79,10.05 -188.39,28.84 -54.5,19.84 -86.52,47.63 -87.58,75.94 -2.38,56.62 117.21,122.5 298.99,130.44 181.78,8.2 306.66,-47.36 309.31,-103.98l0 -0.01c2.38,-56.62 -117.21,-122.5 -298.99,-130.44 -11.11,-0.53 -22.23,-0.79 -33.07,-0.79l-0.27 0z"/>
   </g>
   <g>
    <path class="fil2" d="M2230.39 2952.31c0,0 169.08,-247.13 351.91,-300.05 44.98,-13.23 93.4,-7.67 134.41,14.82 73.03,40.22 188.13,145.52 224.64,412.23l-297.14 118.8 -379.95 -112.18 -33.87 -133.61 0 -0.01z"/>
    <path class="fil1" d="M2645 3212.14l-391.59 -115.62 -37.04 -146.58 3.44 -5.03c7.14,-10.32 173.84,-251.63 359.05,-305.34 47.89,-14.02 100.54,-8.2 144.46,15.88 70.11,38.63 193.42,144.73 231.26,422.02l1.32 10.32 -310.9 124.35zm-369.63 -136.79l368.31 108.74 283.38 -113.24c-37.84,-258.24 -151.61,-356.4 -216.44,-392.12 -37.84,-20.9 -83.08,-25.93 -124.35,-13.76 -162.2,46.83 -316.72,255.6 -341.32,289.99l30.43 120.39 -0.01 0z"/>
   </g>
   <g>
    <path class="fil2" d="M2916.21 3229.08c65.88,-29.63 67.73,-77.52 56.36,-112.71 -11.11,-32.81 -45.77,-51.33 -79.38,-42.33 -349.79,85.46 -565.7,-52.92 -640.05,-111.92 -19.31,-15.35 -47.36,-12.44 -62.97,6.88 -0.53,0.79 -1.06,1.59 -1.59,2.38 -21.7,31.49 -29.37,70.91 -20.9,108.21 4.23,21.43 16.4,40.22 34.13,52.92 86.25,60.85 384.19,246.07 714.4,96.57z"/>
    <path class="fil1" d="M2654 3299.46c-209.3,0 -380.75,-100.54 -459.86,-156.1 -20.64,-14.82 -34.4,-36.51 -39.42,-61.12 -9.26,-40.48 -0.79,-83.87 23.02,-118.27 0.79,-1.06 1.59,-2.12 2.38,-3.18 9.53,-11.91 23.28,-19.58 38.63,-21.17 15.61,-1.85 30.43,2.65 42.6,12.44 76.2,60.59 290.26,192.1 628.67,109.54 39.95,-10.85 81.76,11.38 94.99,50.8 17.99,55.83 -5.03,102.66 -63.5,129.12 -92.87,42.07 -183.37,58.47 -267.77,58.47l0.26 -0.53zm-428.63 -333.92c0,0 -2.38,0 -3.44,0 -8.47,1.06 -15.88,5.03 -21.17,11.64 -20.64,29.9 -27.52,65.62 -20.11,99.22 3.7,18.26 14.02,34.4 28.84,44.98 107.16,75.41 390.01,236.28 701.17,95.25l0 0c46.57,-20.9 63.24,-53.45 49.21,-96.57 -8.73,-25.93 -36.78,-40.75 -63.24,-33.6 -350.32,85.73 -572.58,-51.33 -651.69,-114.3 -5.56,-4.5 -12.44,-6.88 -19.58,-6.88l0.01 0.26z"/>
   </g>
   <path class="fil1" d="M2300.24 3008.93c0,0 -2.12,0 -2.91,-0.26 -7.14,-1.59 -11.64,-8.73 -9.79,-15.88 25.66,-109.54 106.89,-239.72 110.33,-245.28 3.97,-6.09 12.17,-7.94 18.26,-4.23 6.09,3.97 7.94,12.17 4.23,18.26 -0.79,1.32 -82.55,132.03 -106.89,237.34 -1.32,6.09 -6.88,10.32 -12.96,10.32l-0.27 -0.27z"/>
   <path class="fil1" d="M2445.51 3076.68c0,0 -1.32,0 -2.12,0 -7.14,-1.06 -12.17,-7.94 -11.11,-15.08 38.36,-252.42 134.41,-409.59 138.64,-416.2 3.97,-6.09 11.91,-8.2 18.26,-4.23 6.09,3.97 8.2,11.91 4.23,18.26 -1.06,1.59 -97.63,159.55 -134.94,406.15 -1.06,6.61 -6.61,11.11 -12.96,11.11l0 -0.01z"/>
   <path class="fil1" d="M2722.54 3113.19c0,0 -0.79,0 -1.06,0 -7.41,-0.53 -12.7,-6.88 -12.17,-14.29 23.55,-312.48 -60.33,-442.66 -61.12,-443.98 -3.97,-6.09 -2.38,-14.29 3.7,-18.26 6.09,-4.23 14.29,-2.38 18.26,3.7 3.7,5.56 89.96,137.85 65.62,460.65 -0.53,6.88 -6.35,12.17 -13.23,12.17l0 0.01z"/>
   <path class="fil1" d="M2837.9 3099.17c0,0 -1.32,0 -2.12,0 -7.14,-1.06 -12.17,-7.94 -10.85,-15.08 32.54,-196.6 -47.63,-355.08 -48.42,-356.67 -3.44,-6.61 -0.79,-14.55 5.56,-17.73 6.61,-3.44 14.55,-0.79 17.73,5.56 3.44,6.61 85.2,167.49 51.06,373.07 -1.06,6.61 -6.61,11.11 -12.96,11.11l0 -0.26z"/>
  </g>
  <polygon class="fil16" points="9069.01,1256.3 9069.01,794.59 9130.27,794.59 9130.27,984.82 9368.85,984.82 9368.85,794.59 9430.12,794.59 9430.12,1256.3 9368.85,1256.3 9368.85,1038.99 9130.27,1038.99 9130.27,1256.3 "/>
  <path id="_1" class="fil16" d="M9503.74 1088.96c0,-61.8 17.19,-107.58 51.69,-137.35 28.7,-24.72 63.84,-37.07 105.22,-37.07 45.88,0 83.5,15.04 112.73,45.13 29.13,29.99 43.74,71.58 43.74,124.56 0,42.99 -6.45,76.73 -19.34,101.34 -12.9,24.62 -31.71,43.75 -56.42,57.39 -24.62,13.65 -51.59,20.42 -80.71,20.42 -46.86,0 -84.69,-14.94 -113.6,-44.92 -28.91,-29.98 -43.31,-73.19 -43.31,-129.5zm58.03 0.11c0,42.77 9.35,74.8 28.05,95.97 18.81,21.28 42.35,31.92 70.83,31.92 28.15,0 51.58,-10.64 70.39,-32.03 18.7,-21.39 28.05,-53.95 28.05,-97.69 0,-41.27 -9.46,-72.54 -28.27,-93.71 -18.8,-21.28 -42.23,-31.92 -70.17,-31.92 -28.48,0 -52.02,10.53 -70.83,31.7 -18.7,21.17 -28.05,53.09 -28.05,95.76z"/>
  <path id="_2" class="fil16" d="M9943.95 1256.3l-101.24 -334.67 59.33 0 53.41 193.13 18.91 71.9c0.76,-3.55 6.56,-26.55 17.31,-69l52.98 -196.03 58.14 0 50.4 194.31 16.45 63.73 19.23 -64.59 57.82 -193.45 55.13 0 -104.99 334.67 -58.68 0 -53.09 -200.23 -13.44 -57.28 -67.7 257.51 -59.97 0z"/>
  <path id="_3" class="fil16" d="M10651.66 1205.68l7.74 50.08c-15.91,3.33 -30.2,5.05 -42.67,5.05 -20.53,0 -36.43,-3.22 -47.82,-9.78 -11.29,-6.55 -19.24,-15.04 -23.86,-25.68 -4.62,-10.64 -6.88,-32.99 -6.88,-67.06l0 -192.81 -41.91 0 0 -43.85 41.91 0 0 -82.75 56.74 -34.07 0 116.82 56.75 0 0 43.85 -56.75 0 0 196.03c0,16.23 0.97,26.65 3.01,31.28 1.94,4.62 5.16,8.27 9.68,11.06 4.51,2.69 10.96,4.09 19.34,4.09 6.23,0 14.51,-0.75 24.72,-2.26z"/>
  <path id="_4" class="fil16" d="M10686.38 1088.96c0,-61.8 17.19,-107.58 51.69,-137.35 28.7,-24.72 63.84,-37.07 105.22,-37.07 45.88,0 83.5,15.04 112.73,45.13 29.13,29.99 43.74,71.58 43.74,124.56 0,42.99 -6.45,76.73 -19.34,101.34 -12.9,24.62 -31.71,43.75 -56.42,57.39 -24.62,13.65 -51.59,20.42 -80.71,20.42 -46.86,0 -84.69,-14.94 -113.6,-44.92 -28.91,-29.98 -43.31,-73.19 -43.31,-129.5zm58.03 0.11c0,42.77 9.35,74.8 28.05,95.97 18.81,21.28 42.35,31.92 70.83,31.92 28.15,0 51.58,-10.64 70.39,-32.03 18.7,-21.39 28.05,-53.95 28.05,-97.69 0,-41.27 -9.46,-72.54 -28.27,-93.71 -18.8,-21.28 -42.23,-31.92 -70.17,-31.92 -28.48,0 -52.02,10.53 -70.83,31.7 -18.7,21.17 -28.05,53.09 -28.05,95.76z"/>
  <polygon id="_5" class="fil16" points="11082.42,1256.3 11082.42,1191.82 11146.9,1191.82 11146.9,1256.3 "/>
  <polygon id="_6" class="fil16" points="11261.57,1256.3 11261.57,1191.82 11326.06,1191.82 11326.06,1256.3 "/>
  <polygon id="_7" class="fil16" points="11440.73,1256.3 11440.73,1191.82 11505.21,1191.82 11505.21,1256.3 "/>
 </g>
</svg>
