<svg fill="currentColor" xmlns="http://www.w3.org/2000/svg" width="100px" height="100px" viewBox="0 0 6.5 6.5" enable-background="new 0 0 52 52" xml:space="preserve">
  <g>
    <path d="M3.925 1.913h1.025c0.075 0 0.138 -0.063 0.138 -0.138 0 -0.037 -0.013 -0.063 -0.037 -0.1L3.775 0.412c-0.037 -0.025 -0.063 -0.037 -0.1 -0.037 -0.075 0 -0.138 0.063 -0.138 0.138v1.012c0 0.212 0.175 0.388 0.388 0.388"/>
    <path d="m6.188 3.212 -0.113 -0.113c-0.075 -0.075 -0.188 -0.075 -0.275 0L4.313 4.588c-0.013 0.013 0 0.025 0 0.037v0.313c0 0.025 0 0.05 0.025 0.05h0.325c0.013 0 0.025 -0.013 0.037 -0.013L6.188 3.5c0.087 -0.1 0.087 -0.212 0 -0.287"/>
    <path d="M4.987 5.55h-0.887c-0.2 0 -0.362 -0.163 -0.362 -0.362v-0.675c0 -0.1 0.025 -0.2 0.113 -0.263l1.188 -1.188c0.037 -0.037 0.063 -0.087 0.063 -0.138v-0.25c0 -0.1 -0.087 -0.188 -0.188 -0.188h-1.375c-0.325 0 -0.575 -0.263 -0.575 -0.575V0.563c0 -0.1 -0.087 -0.188 -0.2 -0.188H0.825C0.512 0.375 0.25 0.637 0.25 0.95v4.6C0.25 5.862 0.512 6.125 0.825 6.125H4.5c0.275 0 0.525 -0.2 0.575 -0.463 0.013 -0.05 -0.037 -0.113 -0.087 -0.113M1.025 2.1c0 -0.1 0.087 -0.188 0.188 -0.188h0.775c0.113 0 0.188 0.087 0.188 0.188v0.188c0 0.1 -0.087 0.188 -0.188 0.188H1.212c-0.113 0 -0.188 -0.087 -0.188 -0.188zm1.938 2.487c0 0.1 -0.087 0.188 -0.188 0.188H1.212c-0.113 0 -0.188 -0.087 -0.188 -0.188v-0.188c0 -0.1 0.087 -0.188 0.188 -0.188h1.55c0.113 0 0.188 0.087 0.188 0.188v0.188zm0.388 -1.15c0 0.1 -0.087 0.188 -0.188 0.188H1.212c-0.113 0 -0.188 -0.087 -0.188 -0.188V3.25c0 -0.1 0.087 -0.188 0.188 -0.188h1.938c0.113 0 0.188 0.087 0.188 0.188v0.188z"/>
  </g>
</svg>
