<?xml version="1.0" encoding="UTF-8"?>
<!DOCTYPE svg PUBLIC "-//W3C//DTD SVG 1.1//EN" "http://www.w3.org/Graphics/SVG/1.1/DTD/svg11.dtd">
<!-- Creator: CorelDRAW -->
<svg xmlns="http://www.w3.org/2000/svg" xml:space="preserve" width="135.468mm" height="107.95mm" version="1.1" style="shape-rendering:geometricPrecision; text-rendering:geometricPrecision; image-rendering:optimizeQuality; fill-rule:evenodd; clip-rule:evenodd"
viewBox="0 0 13546.78 10795"
 xmlns:xlink="http://www.w3.org/1999/xlink"
 xmlns:xodm="http://www.corel.com/coreldraw/odm/2003">
 <defs>
  <!-- <style type="text/css">
   <![CDATA[
    .fil0 {fill:currentColor;fill-rule:nonzero}
   ]]>
  </style> -->
 </defs>
 <g id="Layer_x0020_1">
  <metadata id="CorelCorpID_0Corel-Layer"/>
  <g id="_2377244212736">
   <g>
    <g>
     <path class="fil0" d="M9160.2 4643.01c-19.47,0 -38.74,0.42 -58,1.16 -234.95,-504.4 -735.97,-826.14 -1297.41,-826.14 -229.34,0 -453.81,54.72 -655.96,159.28 -237.17,-487.68 -740.41,-807.61 -1288.42,-807.61 -789.31,0 -1431.4,642.2 -1431.4,1431.61 0,14.08 0.21,28.15 0.64,42.33 -14.18,-0.53 -28.36,-0.74 -42.23,-0.74 -789.31,0 -1431.4,642.09 -1431.4,1431.4 0,767.93 621.14,1411.18 1387.26,1434.57 4.76,0.74 9.63,5.29 14.71,5.29l4831.52 0.01c4.97,0 9.95,-4.55 14.71,-5.19 766.13,-23.39 1387.37,-664.53 1387.37,-1432.56 0,-789.2 -642.09,-1433.41 -1431.39,-1433.41z"/>
    </g>
   </g>
   <g>
    <g>
     <path class="fil0" d="M12585.28 3810l-3301.58 0c68.37,105.83 132.61,143.3 190.82,222.78 636.8,97.58 1177.4,487.26 1483.47,1027.11 73.45,-59.16 165.52,-96.2 266.91,-96.2 236.43,0 428.94,192.3 428.94,428.73 0,236.43 -192.41,428.84 -428.94,428.84 -5.5,0 -10.48,-1.48 -15.77,-1.69 10.37,83.71 17.57,172.61 17.57,258.97 0,322.16 -78.11,588.86 -213.68,906.36l1572.26 -0.01c525.25,0 961.39,-435.72 961.39,-960.97l0 -1263.33c0,-525.14 -436.14,-950.59 -961.39,-950.59zm-300.78 2011.26c-236.43,0 -428.84,-192.41 -428.84,-428.94 0,-236.53 192.3,-428.84 428.84,-428.84 236.54,0 428.94,192.3 428.94,428.84 0,236.54 -192.4,428.94 -428.94,428.94z"/>
    </g>
   </g>
   <g>
    <g>
     <path class="fil0" d="M962.24 3810c-525.25,0 -962.24,425.45 -962.24,950.59l0 1263.44c0,525.25 436.99,960.97 962.24,960.97l1572.26 0c-135.57,-317.5 -213.57,-584.31 -213.57,-906.36 0,-957.79 655.11,-1766.68 1540.83,-1999.83 24.13,-92.08 55.99,-162.98 92.08,-268.82l-2991.6 0.01zm519.22 2210.75c-346.5,0 -628.44,-281.83 -628.44,-628.44 0,-346.39 281.83,-628.44 628.44,-628.44 346.61,0 628.44,281.94 628.44,628.44 0,346.61 -281.94,628.44 -628.44,628.44z"/>
    </g>
   </g>
   <g>
    <g>
     <path class="fil0" d="M5860.42 3169.71c-1.38,0 -2.65,0.21 -4.02,0.21l9.73 0c-1.9,0 -3.81,-0.21 -5.71,-0.21z"/>
    </g>
   </g>
   <g>
    <g>
     <path class="fil0" d="M12585.28 0l-11623.04 0c-525.25,0 -962.24,428.84 -962.24,954.09l0 1263.44c0,525.15 436.99,957.47 962.24,957.47l3410.8 0c376.24,-423.33 903.5,-635.21 1487.49,-635.21 565.89,0 1102.57,211.88 1487.38,635.21l5237.48 0c525.25,0 961.39,-432.33 961.39,-957.58l0 -1263.33c-0.11,-525.25 -436.25,-954.09 -961.5,-954.09zm-11103.82 2214.14c-346.5,0 -628.44,-281.83 -628.44,-628.44 0,-346.61 281.83,-628.44 628.44,-628.44 346.61,0 628.44,281.83 628.44,628.44 0,346.61 -281.94,628.44 -628.44,628.44zm7937.71 -520.81c0,292.31 -236.86,529.17 -529.17,529.17l-5715 0c-292.31,0 -529.17,-236.86 -529.17,-529.17l0 -211.67c0,-292.31 236.86,-529.17 529.17,-529.17l5715 0.01c292.31,0 529.17,236.86 529.17,529.17l0 211.66zm747.29 321.21c-236.43,0 -428.84,-192.3 -428.84,-428.84 0,-236.54 192.3,-428.94 428.84,-428.94 236.54,0 428.84,192.41 428.84,428.94 0,236.53 -192.41,428.84 -428.84,428.84zm1058.44 0c-236.43,0 -428.84,-192.3 -428.84,-428.84 0,-236.54 192.3,-428.94 428.84,-428.94 236.54,0 428.94,192.41 428.94,428.94 0,236.53 -192.51,428.84 -428.94,428.84zm1059.6 0c-236.43,0 -428.84,-192.3 -428.84,-428.84 0,-236.54 192.3,-428.94 428.84,-428.94 236.54,0 428.94,192.41 428.94,428.94 0,236.53 -192.4,428.84 -428.94,428.84z"/>
    </g>
   </g>
   <g>
    <g>
     <path class="fil0" d="M12585.28 7620l-2054.97 0c-346.18,317.5 -794.39,506.94 -1285.24,527.05 -18.52,1.48 -37.04,2.12 -55.56,2.12l-4831.5 0c-18.42,0 -36.94,-0.64 -55.35,-2.12 -490.96,-20 -939.38,-209.55 -1285.45,-527.05l-2054.97 0c-525.25,0 -962.24,418.89 -962.24,944.14l0 1263.44c0,525.15 436.99,967.42 962.24,967.42l11623.04 0c525.25,0 961.39,-442.28 961.39,-967.53l0 -1263.33c0,-525.25 -436.14,-944.14 -961.39,-944.14zm-11103.82 2204.19c-346.5,0 -628.44,-281.83 -628.44,-628.44 0,-346.6 281.83,-628.44 628.44,-628.44 346.61,0 628.44,281.83 628.44,628.44 0,346.61 -281.94,628.44 -628.44,628.44zm7937.71 -510.86c0,292.31 -236.86,529.17 -529.17,529.17l-5715 0c-292.31,0 -529.17,-236.86 -529.17,-529.17l0 -211.67c0,-292.31 236.86,-529.17 529.17,-529.17l5715 0.01c292.31,0 529.17,236.86 529.17,529.17l0 211.66zm747.29 311.26c-236.43,0 -428.84,-192.3 -428.84,-428.84 0,-236.54 192.3,-428.84 428.84,-428.84 236.54,0 428.84,192.3 428.84,428.84 0,236.54 -192.41,428.84 -428.84,428.84zm1058.44 0c-236.43,0 -428.84,-192.3 -428.84,-428.84 0,-236.54 192.3,-428.84 428.84,-428.84 236.54,0 428.94,192.3 428.94,428.84 0,236.54 -192.51,428.84 -428.94,428.84zm1059.6 0c-236.43,0 -428.84,-192.3 -428.84,-428.84 0,-236.54 192.3,-428.84 428.84,-428.84 236.54,0 428.94,192.3 428.94,428.84 0,236.54 -192.4,428.84 -428.94,428.84z"/>
    </g>
   </g>
  </g>
 </g>
</svg>
