<?xml version="1.0" encoding="UTF-8"?>
<!DOCTYPE svg PUBLIC "-//W3C//DTD SVG 1.1//EN" "http://www.w3.org/Graphics/SVG/1.1/DTD/svg11.dtd">
<!-- Creator: CorelDRAW -->
<svg xmlns="http://www.w3.org/2000/svg" xml:space="preserve" width="2707.92mm" height="617.429mm" version="1.1" style="shape-rendering:geometricPrecision; text-rendering:geometricPrecision; image-rendering:optimizeQuality; fill-rule:evenodd; clip-rule:evenodd"
viewBox="0 0 270791.86 61742.91"
 xmlns:xlink="http://www.w3.org/1999/xlink"
 xmlns:xodm="http://www.corel.com/coreldraw/odm/2003">
 <defs>
  <style type="text/css">
   <![CDATA[
    .fil0 {fill:#488EFE}
    .fil4 {fill:#FEFEFE}
    .fil1 {fill:#488EFE;fill-rule:nonzero}
    .fil5 {fill:#488EFE;fill-rule:nonzero}
    .fil2 {fill:#FEFEFE;fill-rule:nonzero}
    .fil3 {fill:#FEFEFE;fill-opacity:0.400000}
   ]]>
  </style>
 </defs>
 <g id="Layer_x0020_1">
  <metadata id="CorelCorpID_0Corel-Layer"/>
  <path class="fil0" d="M0.01 0l270791.83 0 0 288.81c-8238.96,683.36 -17297.52,2231.22 -25589.83,3482.85 -2135.84,322.33 -4106.4,676.26 -5771.38,1071.51 -401.46,95.24 -751.16,308.44 -1099.27,471.62 -1518.69,712.14 -2587,1565.2 -3240.23,2533.91 1867.96,-56.55 3813.37,-447.77 5677.1,-710.54l30023.61 -4234.08 0 2774.49 -28915.77 3948.91c-732.04,106.19 -1482.24,259.77 -2235.06,416.68 -1774.24,369.66 -3339.95,574.68 -5124.74,785.51 -1483.52,175.33 -2954.11,374.46 -4245.34,665.13 -1581.38,356.03 -3072.95,997.17 -4151.37,2204.09 -310.36,347.34 -707.34,764.53 -1202.76,1381.04 -478.79,595.72 -1068.37,1360.12 -1834.05,2358.51 -3927.23,5121.1 -5212.95,7754.16 -8032.6,8887.65 -910.12,365.82 -2107.44,367.61 -3096.05,504.63 -71280.94,9877.53 -140642,19655.84 -211954.1,29519.36l0 -1959.17c71245.95,-9854.37 141062.33,-19536.86 212281.93,-29403.58 1715.71,-237.7 2028.25,-121.28 3484.07,-1249.97 993.85,-770.67 1973.56,-1769.25 1973.56,-2208.77 -72408.55,10032.39 -145318.22,20290.84 -217739.56,30307.82l0 -51836.39 0 -0.01 0.01 -0.01zm226732.05 16827.88c-2223.73,2580.41 -5193.76,6991.61 -6181.09,8428.62 -1581.19,2301.26 -2162.58,2383.46 -5092.76,3651.73 -71817.43,9949.48 -143637.18,19766.44 -215458.19,29700.32l0 3134.36c70774.47,-9789.13 141293.44,-19304.35 212057.92,-29100.19 4900.86,-678.24 8269.34,-640.37 11238.29,-5543.85 357.38,-590.35 610.37,-907.11 836.3,-1075.79 560.28,-418.34 955.08,-148.92 2367.21,-661.42 1268.52,-460.3 2351.54,-854.85 3281.42,-1554.45 1475.39,-1110.14 2565.57,-2429.13 3400.14,-3663.49 498.94,-738.05 906.6,-1445.97 1250.61,-2060.81 1153.07,-2060.94 1488.19,-1610.75 3512.22,-2016.68 1067.73,-214.09 2868.19,-387.51 4074.35,-570.45l28773.38 -4363.67 0 -2849.46 -31024.94 4576.36c-4398.86,464.72 -9981.03,425.51 -13034.86,3968.87zm4465.32 -944.59c773.42,-246.4 1621.17,-404.53 1983.41,-304.48 -893.8,1622.89 -3453.94,4566.25 -5534.71,6299.68 -1253.49,1044.25 -2519.45,1500.14 -3096.24,1194.13 -141.43,-74.97 1910.05,-2961.21 3565.89,-4885.7 931.99,-1083.15 1717.18,-1868.98 3081.65,-2303.63z"/>
  <path class="fil1" d="M171148.87 51222.11l0 3389.26 869.04 0c-5.97,-691.11 -9.65,-1381.72 -9.65,-2072.83 -4.83,-188.29 -19.32,-376.58 -28.97,-564.07l893.18 2651.38 811.11 0c53.1,-149.66 101.38,-298.53 149.66,-448.2 72.42,-202.77 144.84,-399.92 212.44,-602.69 77.24,-226.92 144.84,-457.86 222.08,-679.95 62.77,-178.63 130.36,-356.47 193.13,-535.1 53.1,-154.5 101.38,-318.65 144.84,-477.17l-24.14 2733.46 888.35 0 0 -3389.26 -1390.47 0c-57.93,163.34 -120.7,332.32 -178.63,501.3 -86.91,246.23 -159.33,491.66 -246.23,737.88 -57.94,168.18 -120.7,332.33 -178.64,501.31 -62.76,188.3 -115.87,380.61 -168.98,568.9 -48.28,-188.29 -96.56,-375.78 -154.5,-564.07 -77.24,-246.23 -173.8,-491.65 -260.71,-737.88 -120.7,-337.16 -231.74,-675.12 -342.79,-1012.27l-1400.12 0z"/>
  <polygon id="_1_7" class="fil1" points="176281.05,51226.94 176281.05,54606.54 177208.03,54606.54 177208.03,51226.94 "/>
  <polygon id="_2_8" class="fil1" points="177502.54,51226.94 177502.54,51907.68 178352.27,51907.68 178352.27,54606.54 179269.59,54606.54 179269.59,51902.87 180100.01,51902.87 180100.01,51226.94 "/>
  <path id="_3_9" class="fil1" d="M180505.56 51231.77l0 3374.78 917.32 0 0 -1298.73c468.32,-9.66 589.02,47.47 753.17,494.87l255.89 808.69 955.94 0 -415.21 -1154.7c-62.76,-148.86 -135.18,-327.5 -265.54,-428.89 -48.28,-33.79 -111.04,-67.59 -130.35,-72.42 188.29,-72.42 342.79,-140.01 468.31,-299.33 159.33,-196.34 168.98,-432.11 168.98,-523.04 0,-221.28 -72.42,-384.63 -111.04,-457.05 -202.78,-371.76 -613.16,-415.21 -729.03,-429.69l-231.74 -14.49 -1636.7 0zm893.18 632.47c236.57,4.83 439.35,4.83 516.6,19.31 323.48,42.65 376.58,254.28 376.58,383.83 0,407.97 -463.48,393.48 -526.25,393.48 -120.7,0 -241.4,-4.82 -366.93,-4.82l0 -791.8z"/>
  <path id="_4_10" class="fil1" d="M184730.07 51222.11l-1284.25 3384.43 907.66 0 260.71 -690.4 1289.08 0 255.89 695.23 970.43 0 -1284.25 -3389.26 -1115.27 0zm540.73 708.11l420.04 1358.28 -869.04 0 449 -1358.28z"/>
  <path id="_5_11" class="fil1" d="M189760.85 51222.11l-1284.25 3384.43 907.66 0 260.71 -690.4 1289.08 0 255.89 695.23 970.43 0 -1284.25 -3389.26 -1115.27 0zm540.73 708.11l420.04 1358.28 -869.04 0 449 -1358.28z"/>
  <path id="_6_12" class="fil1" d="M193666.71 54611.37c516.6,-14.48 1038.02,-33.8 1453.23,-357.27 560.05,-428.89 584.19,-1118.49 584.19,-1330.12 0,-568.9 -188.29,-910.88 -328.3,-1093.54 -337.96,-439.35 -786.97,-516.6 -980.09,-550.4 -299.34,-48.28 -574.53,-48.28 -883.53,-53.1l-1033.19 0 0 3384.43 1187.69 0zm120.7 -2708.5c57.94,4.82 241.4,14.48 420.04,81.27 96.56,38.62 197.95,96.56 270.37,168.98 275.19,250.25 289.68,664.65 289.68,775.7 0,313.01 -86.91,568.9 -323.48,770.87 -270.37,221.28 -589.02,230.94 -695.23,240.6l-357.28 0 0 -2037.42 395.9 0z"/>
  <polygon id="_7_13" class="fil1" points="196302.81,51226.94 196302.81,54606.54 197229.79,54606.54 197229.79,51226.94 "/>
  <path id="_8" class="fil1" d="M199204.45 54611.37c516.6,-14.48 1038.02,-33.8 1453.23,-357.27 560.05,-428.89 584.19,-1118.49 584.19,-1330.12 0,-568.9 -188.29,-910.88 -328.3,-1093.54 -337.96,-439.35 -786.97,-516.6 -980.09,-550.4 -299.34,-48.28 -574.53,-48.28 -883.53,-53.1l-1033.19 0 0 3384.43 1187.69 0zm120.7 -2708.5c57.94,4.82 241.4,14.48 420.04,81.27 96.56,38.62 197.95,96.56 270.37,168.98 275.19,250.25 289.68,664.65 289.68,775.7 0,313.01 -86.91,568.9 -323.48,770.87 -270.37,221.28 -589.02,230.94 -695.23,240.6l-357.28 0 0 -2037.42 395.9 0z"/>
  <path id="_9" class="fil1" d="M202540.61 51222.11l-1284.25 3384.43 907.66 0 260.71 -690.4 1289.08 0 255.89 695.23 970.43 0 -1284.25 -3389.26 -1115.27 0zm540.73 708.11l420.04 1358.28 -869.04 0 449 -1358.28z"/>
  <path id="_10" class="fil1" d="M206953.41 51222.11c-91.74,183.46 -183.47,371.75 -280.03,555.22 -202.77,391.07 -226.91,405.55 -376.58,811.1 -43.45,-115.87 -86.91,-236.57 -140.01,-347.61 -67.6,-140.02 -140.02,-275.2 -207.61,-410.38 -106.22,-202.78 -207.6,-405.56 -313.82,-608.33l-1062.16 0 1231.14 2148.46 0 1240.8 922.15 0 0 -1250.45 1226.31 -2138.81 -999.39 0z"/>
  <path id="_11" class="fil1" d="M208778.41 51222.11l-1284.25 3384.43 907.66 0 260.71 -690.4 1289.08 0 255.89 695.23 970.43 0 -1284.25 -3389.26 -1115.27 0zm540.73 708.11l420.04 1358.28 -869.04 0 449 -1358.28z"/>
  <path id="_12" class="fil1" d="M212804.97 51231.77l0 3374.78 917.32 0 0 -1298.73c468.32,-9.66 589.02,47.47 753.17,494.87l255.89 808.69 955.94 0 -415.21 -1154.7c-62.76,-148.86 -135.18,-327.5 -265.54,-428.89 -48.28,-33.79 -111.04,-67.59 -130.35,-72.42 188.29,-72.42 342.79,-140.01 468.31,-299.33 159.33,-196.34 168.98,-432.11 168.98,-523.04 0,-221.28 -72.42,-384.63 -111.04,-457.05 -202.78,-371.76 -613.16,-415.21 -729.03,-429.69l-231.74 -14.49 -1636.7 0zm893.17 632.47c236.57,4.83 439.35,4.83 516.6,19.31 323.48,42.65 376.58,254.28 376.58,383.83 0,407.97 -463.48,393.48 -526.25,393.48 -120.7,0 -241.4,-4.82 -366.93,-4.82l0 -791.8z"/>
  <polygon id="_13" class="fil1" points="216223.2,51226.94 216223.2,54611.37 218670.99,54611.37 218670.99,53959.59 217130.86,53959.59 217130.86,53206.42 218526.16,53206.42 218526.16,52549.82 217130.86,52549.82 217130.86,51878.72 218617.89,51878.72 218617.89,51226.94 "/>
  <path id="_14" class="fil1" d="M220264.25 51226.94l-917.32 0 0 3379.6 912.49 0 0 -1547.38 1081.48 1542.55 1139.41 0c-140.01,-177.83 -280.03,-361.29 -415.21,-539.93 -313.82,-414.4 -617.99,-838.46 -931.81,-1272.98l1216.66 -1566.69 -1081.47 0c-183.47,245.42 -366.93,491.65 -545.57,737.88 -159.32,216.45 -308.99,433.71 -458.66,650.97l0 -1384.02z"/>
  <path id="_15" class="fil1" d="M223774.22 51222.11l-1284.25 3384.43 907.66 0 260.71 -690.4 1289.08 0 255.89 695.23 970.43 0 -1284.25 -3389.26 -1115.27 0zm540.73 708.11l420.04 1358.28 -869.04 0 449 -1358.28z"/>
  <path id="_16" class="fil1" d="M228187.02 51222.11c-91.74,183.46 -183.47,371.75 -280.03,555.22 -202.77,391.07 -226.91,405.55 -376.58,811.1 -43.45,-115.87 -86.91,-236.57 -140.01,-347.61 -67.6,-140.02 -140.02,-275.2 -207.61,-410.38 -106.22,-202.78 -207.6,-405.56 -313.82,-608.33l-1062.16 0 1231.14 2148.46 0 1240.8 922.15 0 0 -1250.45 1226.31 -2138.81 -999.39 0z"/>
  <path id="_17" class="fil1" d="M230012.01 51222.11l-1284.25 3384.43 907.66 0 260.71 -690.4 1289.08 0 255.89 695.23 970.43 0 -1284.25 -3389.26 -1115.27 0zm540.74 708.11l420.04 1358.28 -869.04 0 449 -1358.28z"/>
  <path id="_18" class="fil1" d="M234951.08 51270.4c-352.45,-77.25 -613.16,-135.19 -980.09,-135.19 -569.71,0 -873.87,144.84 -1071.82,318.65 -299.34,255.89 -333.13,574.53 -333.13,724.2 0,405.56 231.74,646.96 342.79,738.69 231.74,183.46 550.39,270.37 806.27,347.62 231.75,72.42 323.48,111.04 395.9,222.08 14.49,24.14 48.28,82.08 48.28,168.98 0,106.22 -62.76,207.61 -154.49,270.37 -43.46,24.14 -96.57,48.28 -202.78,62.77 -33.8,4.82 -130.36,14.48 -226.92,14.48 -342.79,0 -584.19,-86.9 -912.49,-212.43l-82.08 724.2c193.12,53.11 555.22,173.81 1057.34,173.81 545.56,0 844.9,-120.7 1052.5,-265.54 381.42,-275.2 420.04,-637.3 420.04,-815.94 0,-420.03 -226.92,-680.75 -337.96,-777.31 -159.33,-130.35 -395.9,-241.4 -825.59,-366.92 -140.01,-38.63 -280.03,-77.25 -371.76,-202.78 -53.11,-62.76 -57.93,-120.7 -57.93,-149.67 0,-101.39 77.24,-207.6 168.98,-255.88 140.01,-72.42 410.38,-72.42 420.03,-72.42 347.62,0 685.58,140.01 782.14,173.8l62.77 -685.57z"/>
  <path id="_19" class="fil1" d="M236447.75 51222.11l-1284.25 3384.43 907.66 0 260.71 -690.4 1289.08 0 255.89 695.23 970.43 0 -1284.25 -3389.26 -1115.27 0zm540.74 708.11l420.04 1358.28 -869.04 0 449 -1358.28z"/>
  <path id="_20" class="fil1" d="M241662 54611.37c516.6,-14.48 1038.02,-33.8 1453.23,-357.27 560.05,-428.89 584.19,-1118.49 584.19,-1330.12 0,-568.9 -188.29,-910.88 -328.3,-1093.54 -337.96,-439.35 -786.97,-516.6 -980.09,-550.4 -299.34,-48.28 -574.53,-48.28 -883.53,-53.1l-1033.19 0 0 3384.43 1187.69 0zm120.71 -2708.5c57.94,4.82 241.4,14.48 420.04,81.27 96.56,38.62 197.95,96.56 270.37,168.98 275.19,250.25 289.68,664.65 289.68,775.7 0,313.01 -86.91,568.9 -323.48,770.87 -270.37,221.28 -589.02,230.94 -695.23,240.6l-357.28 0 0 -2037.42 395.9 0z"/>
  <polygon id="_21" class="fil1" points="244298.1,51226.94 244298.1,54606.54 245225.08,54606.54 245225.08,51226.94 "/>
  <path id="_22" class="fil1" d="M249000.59 51289.71c-72.42,-24.14 -144.84,-53.11 -217.26,-72.42 -140.02,-33.8 -449.01,-86.91 -844.91,-86.91 -869.04,0 -1356.67,236.58 -1646.35,516.6 -468.31,449.01 -487.63,1071.82 -487.63,1284.25 0,168.98 4.83,589.02 270.37,999.4 130.36,193.12 376.59,487.63 917.32,637.3 226.92,62.76 405.56,82.07 859.39,101.39l526.25 -28.97c395.9,-48.28 477.98,-77.25 700.07,-140.01l0 -1863.62 -1395.3 0 0 642.13 526.25 0 0 651.78c-67.59,19.31 -193.12,62.76 -371.75,62.76 -226.92,0 -791.8,-62.76 -1013.89,-690.4 -48.28,-135.18 -72.42,-260.71 -72.42,-405.55 0,-106.22 14.49,-347.62 173.81,-589.02 154.5,-241.4 463.49,-516.6 1115.27,-521.43 352.45,0 560.05,77.25 878.7,217.26l82.08 -714.54z"/>
  <polygon id="_23" class="fil1" points="249835.84,51226.94 249835.84,54606.54 250762.82,54606.54 250762.82,51226.94 "/>
  <polygon id="_24" class="fil1" points="251057.33,51226.94 251057.33,51907.68 251907.06,51907.68 251907.06,54606.54 252824.38,54606.54 252824.38,51902.87 253654.8,51902.87 253654.8,51226.94 "/>
  <path id="_25" class="fil1" d="M254562.47 51222.11l-1284.25 3384.43 907.66 0 260.71 -690.4 1289.08 0 255.89 695.23 970.43 0 -1284.25 -3389.26 -1115.27 0zm540.74 708.11l420.04 1358.28 -869.04 0 449 -1358.28z"/>
  <polygon id="_26" class="fil1" points="257285.47,51226.94 257285.47,54611.37 259578.77,54611.37 259578.77,53920.96 258207.62,53920.96 258207.62,51226.94 "/>
  <g id="mardsoft">
   <g>
    <polygon class="fil2" points="34409.22,22827.18 36291.36,22827.18 36291.36,17347.19 39018.55,22315.03 41732.94,17347.19 41732.94,22827.18 43627.89,22827.18 43627.89,14031.02 41732.94,14031.02 39018.55,18998.87 36291.36,14031.02 34409.22,14031.02 "/>
    <path id="_1" class="fil2" d="M48339.66 16054.01c-921.87,0 -1830.93,256.08 -2765.61,729.81l627.39 1241.97c524.95,-268.88 1101.12,-473.74 1715.69,-473.74 1088.32,0 1523.65,614.58 1523.65,1318.78l0 128.04c-563.37,-217.67 -1152.34,-332.9 -1690.09,-332.9 -1536.45,0 -2752.8,896.26 -2752.8,2202.24 0,1267.57 1088.31,2112.61 2496.72,2112.61 717.01,0 1472.43,-281.68 1946.17,-819.43l0 665.79 1805.32 0 0 -3956.35c0,-1728.5 -1177.94,-2816.82 -2906.44,-2816.82zm-422.52 5633.64c-640.18,0 -1113.92,-332.9 -1113.92,-870.65 0,-537.76 537.76,-934.68 1216.35,-934.68 512.15,0 998.69,89.63 1421.22,243.28l0 614.57c-128.04,614.58 -806.64,947.48 -1523.65,947.48z"/>
    <path id="_2" class="fil2" d="M54690.3 17436.81l0 -1229.15 -1869.34 0 0 6619.52 1869.34 0 0 -3162.52c0,-1241.96 883.46,-2035.79 2266.26,-2035.79l0 -1574.86c-1011.49,0 -1830.93,524.95 -2266.26,1382.8z"/>
    <path id="_3" class="fil2" d="M62974.3 13877.38l0 3277.75c-524.95,-691.4 -1293.17,-1101.12 -2227.84,-1101.12 -1766.92,0 -3047.29,1434.02 -3047.29,3457.01 0,2035.79 1280.37,3469.8 3047.29,3469.8 934.67,0 1702.89,-409.71 2227.84,-1101.12l0 947.48 1869.35 0 0 -8949.8 -1869.35 0zm-1690.09 7528.6c-1037.1,0 -1766.91,-781.03 -1766.91,-1894.95 0,-1101.12 729.81,-1882.15 1766.91,-1882.15 985.89,0 1690.09,781.03 1690.09,1882.15 0,1113.92 -704.2,1894.95 -1690.09,1894.95z"/>
    <path id="_4" class="fil2" d="M68966.45 22980.82c1626.07,0 2688.78,-832.24 2688.78,-2138.22 0,-1446.82 -1267.57,-1830.93 -2407.1,-2125.41 -896.26,-243.27 -1165.14,-345.7 -1165.14,-704.21 0,-230.47 320.1,-396.91 781.03,-396.91 563.36,0 1254.76,217.66 1856.54,588.97l755.42 -1331.59c-729.81,-486.54 -1664.48,-819.44 -2611.96,-819.44 -1562.05,0 -2599.16,896.26 -2586.35,2151.03 12.8,1305.98 1062.71,1677.28 2419.9,2010.18 678.6,179.25 1165.14,307.29 1165.14,717.01 0,294.49 -358.5,499.34 -857.85,499.34 -883.46,0 -1626.07,-320.09 -2215.04,-742.61l-806.64 1293.17c793.83,640.19 1920.56,998.69 2983.27,998.69z"/>
    <path id="_5" class="fil2" d="M76162.13 22980.82c1958.97,0 3597.85,-1587.66 3597.85,-3469.8 0,-1882.15 -1638.88,-3457.01 -3597.85,-3457.01 -1971.77,0 -3623.45,1574.86 -3623.45,3457.01 0,1882.14 1651.68,3469.8 3623.45,3469.8zm0 -1574.84c-998.69,0 -1830.93,-870.66 -1830.93,-1894.95 0,-1024.3 832.24,-1882.15 1830.93,-1882.15 985.89,0 1818.13,857.85 1818.13,1882.15 0,1024.29 -832.24,1894.95 -1818.13,1894.95z"/>
    <path id="_6" class="fil2" d="M83242.59 15849.15c0,-435.32 281.68,-742.61 627.38,-742.61 256.08,0 512.15,89.62 640.19,217.66l448.13 -1139.53c-384.11,-345.7 -985.89,-576.17 -1523.64,-576.17 -1165.14,0 -1984.58,832.24 -1984.58,2022.99l0 576.17 -909.06 0 0 1510.84 909.06 0 0 5108.68 1792.52 0 0 -5108.68 1434.02 0 0 -1510.84 -1434.02 0 0 -358.51z"/>
    <path id="_7" class="fil2" d="M89362.78 21188.3c-128.04,128.04 -384.11,217.67 -640.19,217.67 -345.7,0 -627.38,-307.29 -627.38,-742.62l0 -2944.85 1434.02 0 0 -1510.84 -1434.02 0 0 -1818.13 -1792.52 0 0 1818.13 -909.06 0 0 1510.84 909.06 0 0 3239.34c0,1190.74 819.44,2022.98 1984.58,2022.98 537.75,0 1139.53,-230.46 1523.64,-576.16l-448.13 -1216.36z"/>
    <g>
     <path class="fil3" d="M16613.79 16716.36c-22.94,-116.97 -46.95,-239.96 -71.36,-367.56 -234.16,-1224.07 -505.43,-2872.57 -232.67,-3711.19 9.37,-28.82 94.66,-255.32 116.67,-256.56 71.06,-4.01 179.67,46.47 300.62,122.48 183.67,115.44 358.51,260.56 526.74,398.09 352.72,288.33 681.2,576.6 1031.62,856.45 348.73,278.51 701.1,521.03 1073.75,763.32 243.33,158.23 537.85,343.08 576.75,333.7 35.52,-8.55 -5.07,28.61 -98.87,95.53 -368.89,263.24 -865.51,570.46 -1260.43,810.16 -620.37,376.52 -1259.73,710.04 -1942.48,955.58l-20.34 0z"/>
     <path class="fil3" d="M19377.37 22570.16c145.58,142.96 396.44,308.51 583.29,378.32 285.42,106.63 551.6,12.85 765.05,-186.09 37.83,-35.25 287.41,-242.52 262.45,-259.02 -270.42,-178.78 -577.29,-450.64 -999.93,-656.3 -254.77,-123.97 -972.3,-375.13 -1281.75,-144.81 -33.44,24.89 -23.03,32.13 -6.82,53.89 278.99,374.48 344.82,487.07 677.71,814.01z"/>
     <path class="fil3" d="M29668.49 18052.73c162.16,-614.82 305.97,-1102.68 242.97,-1742.86 -6.79,-68.8 -8.82,-127.65 -25.82,-123.27 -40.62,10.48 -97,10.34 -163.24,19.77 -123.49,17.59 -285.05,48.59 -467.49,112.47 -609.7,213.51 -1252.52,499.64 -1824.83,798.36 -475.46,248.15 -1019.49,475.01 -1508.19,710.31 -87.22,42 -150.18,72.79 -173.74,85.38 -23.97,12.8 -29.26,60.85 -40.1,102.88 -6.74,26.11 -14.7,54.88 -23.73,85.9 -137.06,470.97 -521.6,1465.24 -662.9,1715.75 1.74,3.71 21.02,18.96 57.83,37.26 617.61,307.09 1596.27,1009.6 2320.53,1209.44 58.22,16.06 200.38,37.34 268.04,46.47 37.51,5.07 76.92,5.23 117.08,9.37 135.07,13.93 272.56,-11.76 402.96,-61.43 154.87,-59 466.15,-249.78 564.3,-391.48 214.53,-309.72 532.3,-1285.92 742.55,-1997.86 74.59,-252.61 135.67,-471.95 173.78,-616.46z"/>
     <path class="fil4" d="M17573.73 12185.72c-4894.2,-3971.85 -310.35,14670.31 3705.31,11108.56 -1328.5,1386.04 -2798.87,3660.37 -4623.15,3660.37 -5035.51,0 -9186.65,-13549.86 -5372.76,-16834.11 2108.56,-1815.74 4480.42,32.13 6290.6,2065.18z"/>
     <path class="fil4" d="M28760.36 11718.99c-3996.19,-582.91 -11102.71,6747.29 -12669.09,5621.59 6178.52,4925.74 14995.97,-5585.69 14580.13,-431.74 404.58,-1887.97 904.3,-4779.2 -1911.04,-5189.85z"/>
     <path class="fil4" d="M18380.88 21000.04c5609.83,-4308.89 8204.5,3352.77 11086.4,-8.4 -3880.56,9004.18 -7520.68,-1457.44 -11086.4,8.4z"/>
    </g>
   </g>
  </g>
  <path class="fil5" d="M165302.33 54628.29l0 -1092.88 511.02 0c774.13,0 1163.72,-531.27 1163.72,-1138.43 0,-612.21 -389.59,-1143.48 -1163.72,-1143.48l-1467.3 0 0 3374.79 956.28 0zm379.47 -1927.73l-379.47 0 0 -612.21 379.47 0c182.15,0 323.82,106.25 323.82,308.63 0,197.33 -141.67,303.58 -323.82,303.58z"/>
  <polygon id="_1_0" class="fil5" points="168803.61,54628.29 168803.61,52088.35 169506.9,52088.35 169506.9,51253.5 167144.04,51253.5 167144.04,52088.35 167847.33,52088.35 167847.33,54628.29 "/>
 </g>
</svg>
