<?xml version="1.0" encoding="UTF-8"?>
<!DOCTYPE svg PUBLIC "-//W3C//DTD SVG 1.1//EN" "http://www.w3.org/Graphics/SVG/1.1/DTD/svg11.dtd">
<!-- Creator: CorelDRAW -->
<svg xmlns="http://www.w3.org/2000/svg" xml:space="preserve" width="796.635mm" height="178.511mm" version="1.1" style="shape-rendering:geometricPrecision; text-rendering:geometricPrecision; image-rendering:optimizeQuality; fill-rule:evenodd; clip-rule:evenodd"
viewBox="0 0 81978.22 18369.83"
 xmlns:xlink="http://www.w3.org/1999/xlink"
 xmlns:xodm="http://www.corel.com/coreldraw/odm/2003">
 <defs>
  <style type="text/css">
   <![CDATA[
    .str0 {stroke:#488EFE;stroke-width:17.42;stroke-miterlimit:22.9256}
    .fil4 {fill:#488EFE}
    .fil0 {fill:#191250;fill-rule:nonzero}
    .fil2 {fill:url(#id0)}
    .fil3 {fill:url(#id1)}
    .fil1 {fill:url(#id2)}
   ]]>
  </style>
  <linearGradient id="id0" gradientUnits="userSpaceOnUse" x1="11444.44" y1="7357.79" x2="6188.17" y2="3246.54">
   <stop offset="0" style="stop-opacity:1; stop-color:#488EFE"/>
   <stop offset="1" style="stop-opacity:1; stop-color:#191250"/>
  </linearGradient>
  <linearGradient id="id1" gradientUnits="userSpaceOnUse" xlink:href="#id0" x1="14562.06" y1="9439.95" x2="21700.44" y2="9439.95">
  </linearGradient>
  <linearGradient id="id2" gradientUnits="userSpaceOnUse" xlink:href="#id0" x1="8557.63" y1="15685.53" x2="11830.32" y2="11497.85">
  </linearGradient>
 </defs>
 <g id="Layer_x0020_1">
  <metadata id="CorelCorpID_0Corel-Layer"/>
  <g id="mardsoft">
   <polygon class="fil0" points="32621.86,13848.74 32621.86,8275.4 30605.97,12333.53 29420.15,12333.53 27404.26,8275.4 27404.26,13848.74 25243.43,13848.74 25243.43,4493.96 27588.73,4493.96 30013.06,9382.17 32450.58,4493.96 34782.68,4493.96 34782.68,13848.74 "/>
   <path id="_1" class="fil0" d="M35876.26 11813.09c0,-450.18 127.37,-845.45 382.1,-1181.43 254.73,-338.18 606.08,-603.89 1054.06,-799.33 447.97,-195.44 961.83,-292.07 1541.56,-292.07 281.09,0 557.78,24.16 830.08,72.47 272.3,48.31 509.45,116.39 711.49,204.23l0 -303.04c0,-364.53 -114.19,-645.62 -342.57,-841.06 -228.38,-195.44 -575.34,-292.06 -1040.88,-292.06 -386.49,0 -748.82,65.87 -1087,197.63 -338.18,131.76 -696.12,320.61 -1073.82,566.56l-632.44 -1343.93c456.76,-298.65 933.28,-522.64 1429.57,-671.96 496.29,-149.33 1021.12,-223.98 1574.51,-223.98 1036.49,0 1842.4,243.75 2417.75,729.06 575.35,487.51 863.01,1190.21 863.01,2112.52l0 1767.74c0,206.42 32.94,351.35 98.82,432.61 65.88,83.45 182.27,131.75 349.16,149.33l0 1752.37c-175.68,35.13 -340.37,61.49 -494.09,79.05 -153.72,17.57 -287.67,26.35 -401.86,26.35 -395.28,0 -696.13,-79.05 -902.54,-237.17 -206.42,-158.1 -335.98,-373.31 -388.68,-645.61l-39.53 -303.05c-307.43,395.28 -674.16,696.13 -1100.17,902.54 -426.02,206.42 -871.8,309.63 -1337.34,309.63 -456.76,0 -867.4,-94.43 -1231.93,-285.48 -364.52,-191.04 -652.2,-450.17 -863.01,-779.56 -210.81,-329.39 -316.22,-696.12 -316.22,-1102.37zm4189.89 245.94c96.63,-76.86 175.68,-160.31 237.17,-254.73 61.49,-92.23 92.23,-180.06 92.23,-265.71l0 -597.3c-175.68,-68.08 -371.12,-120.78 -586.33,-158.11 -215.21,-37.33 -415.03,-57.09 -599.5,-57.09 -386.48,0 -707.1,83.45 -961.83,248.15 -254.73,164.69 -382.1,382.09 -382.1,652.2 0,153.72 43.92,292.07 131.76,419.42 87.84,127.37 208.62,228.39 362.33,305.24 153.72,76.86 335.99,114.19 546.8,114.19 210.81,0 421.63,-37.33 632.44,-114.19 210.81,-76.85 386.48,-173.48 527.02,-292.06z"/>
   <path id="_2" class="fil0" d="M48419.58 8736.56c-509.45,0 -970.61,81.24 -1383.45,243.75 -412.84,162.5 -711.49,401.86 -895.95,718.08l0 4150.36 -2108.13 0 0 -6838.21 1936.84 0 0 1317.57c237.17,-465.55 544.6,-830.07 922.3,-1093.59 377.7,-263.51 772.98,-399.66 1185.82,-408.44 96.62,0 169.08,0 217.4,0 48.3,0 90.03,4.39 125.16,13.17l0 1897.31z"/>
   <path id="_3" class="fil0" d="M48867.56 10436.23c0,-665.38 131.76,-1264.88 395.27,-1798.49 263.52,-531.43 623.66,-953.05 1080.42,-1264.88 456.76,-311.82 983.79,-467.74 1581.09,-467.74 483.11,0 922.3,116.39 1317.57,349.16 395.27,232.77 693.92,538.01 895.95,915.72l0 -3939.56 2108.13 0 0 7273.02c0,210.81 35.13,357.94 105.41,441.38 70.26,83.45 184.46,133.95 342.56,151.53l0 1752.37c-368.92,70.27 -667.57,105.41 -895.95,105.41 -360.14,0 -652.2,-79.05 -876.19,-237.17 -223.98,-158.1 -362.33,-377.7 -415.03,-658.78l-39.54 -355.74c-245.94,430.4 -579.73,751.02 -1001.35,961.83 -421.63,210.81 -865.21,316.22 -1330.74,316.22 -474.33,0 -911.33,-87.84 -1310.99,-265.71 -399.66,-177.87 -746.63,-426.02 -1040.89,-746.63 -294.26,-320.6 -520.45,-696.12 -678.55,-1128.72 -158.1,-434.8 -237.17,-900.34 -237.17,-1403.21zm5283.47 832.26l0 -1407.61c-87.83,-230.57 -213,-430.4 -375.5,-601.69 -162.5,-169.09 -346.97,-307.44 -553.39,-408.45 -206.42,-103.2 -415.03,-153.71 -625.84,-153.71 -228.39,0 -437,46.11 -625.85,140.54 -188.85,94.43 -353.55,223.98 -494.09,390.88 -140.54,164.7 -248.15,355.74 -322.8,568.76 -74.67,213 -111.99,439.19 -111.99,678.55 0,245.94 41.72,474.32 125.16,682.94 83.45,208.61 199.83,393.07 349.16,551.18 149.33,158.1 325.01,278.88 527.03,364.53 202.02,85.64 421.63,127.37 658.79,127.37 149.32,0 294.26,-24.16 434.8,-70.27 140.54,-46.11 274.49,-109.8 401.86,-184.46 127.37,-76.86 243.75,-175.68 349.16,-294.26 105.41,-120.78 193.25,-248.15 263.51,-384.3z"/>
   <path id="_4" class="fil0" d="M60528.09 13980.5c-588.52,0 -1163.85,-96.63 -1726.03,-289.86 -562.16,-193.25 -1036.49,-478.73 -1422.98,-856.43l724.67 -1330.74c421.63,307.43 832.27,540.2 1231.93,698.32 399.66,158.1 775.17,237.16 1126.52,237.16 272.3,0 483.11,-41.72 632.44,-125.16 149.33,-81.25 223.99,-210.81 223.99,-384.3 0,-129.56 -43.92,-232.76 -131.76,-305.23 -87.84,-74.67 -221.79,-140.55 -401.87,-202.03 -180.06,-59.29 -401.86,-125.16 -665.37,-193.25 -527.03,-173.48 -966.22,-342.56 -1317.58,-507.26 -351.35,-164.7 -614.86,-364.53 -790.54,-603.89 -175.67,-237.16 -263.51,-546.79 -263.51,-926.69 0,-458.96 116.39,-860.82 349.16,-1201.2 232.77,-342.56 564.36,-608.28 994.77,-799.33 430.4,-191.04 944.26,-285.47 1541.56,-285.47 474.33,0 937.68,74.66 1390.04,223.98 452.37,149.33 876.19,399.66 1271.46,751.02l-816.9 1317.58c-395.27,-272.3 -746.62,-469.94 -1054.05,-592.91 -307.44,-122.97 -606.09,-184.46 -895.96,-184.46 -149.33,0 -285.47,17.57 -408.44,52.7 -122.97,32.94 -221.79,92.23 -296.46,173.48 -74.66,81.25 -111.99,186.66 -111.99,316.22 0,129.57 37.33,232.77 111.99,311.83 74.67,76.85 193.25,142.73 355.74,199.82 162.51,54.9 366.72,122.98 612.68,199.83 570.94,164.7 1045.27,329.4 1422.98,498.49 377.7,166.89 660.98,375.51 849.84,621.46 188.85,243.75 283.28,570.95 283.28,975.01 0,689.53 -252.54,1229.73 -757.61,1622.81 -505.06,393.08 -1192.4,588.52 -2062,588.52z"/>
   <path id="_5" class="fil0" d="M67708.88 13980.5c-579.73,0 -1100.17,-94.43 -1561.33,-285.48 -461.15,-191.04 -849.84,-452.36 -1166.05,-781.75 -316.22,-329.4 -553.39,-704.9 -711.49,-1130.92 -158.1,-423.82 -237.17,-871.8 -237.17,-1339.53 0,-467.74 79.06,-917.91 237.17,-1346.12 158.1,-428.22 395.27,-808.12 711.49,-1137.51 316.22,-329.4 704.9,-590.72 1166.05,-781.76 461.15,-191.04 981.6,-281.09 1561.33,-272.3 597.31,-8.79 1124.33,81.25 1581.09,272.3 456.76,191.04 843.25,452.36 1159.46,781.76 316.22,329.39 555.58,709.29 718.09,1137.51 162.5,428.21 243.75,878.38 243.75,1346.12 0,467.74 -81.25,915.72 -243.75,1339.53 -162.51,426.02 -401.87,801.52 -718.09,1130.92 -316.21,329.39 -702.7,590.71 -1159.46,781.75 -456.77,191.05 -983.79,285.48 -1581.09,285.48zm-1541.56 -3524.52c8.78,342.57 81.24,645.61 217.4,911.32 136.14,265.71 318.41,469.94 546.79,617.06 228.38,144.93 491.9,217.41 790.54,217.41 289.87,0 551.19,-74.67 783.97,-223.99 232.76,-151.52 415.03,-357.94 546.79,-623.65 131.76,-265.71 202.02,-568.75 210.81,-911.32 -8.79,-351.35 -79.05,-658.79 -210.81,-924.5 -131.76,-265.7 -314.03,-472.13 -546.79,-623.65 -232.77,-149.33 -494.09,-219.59 -783.97,-210.81 -298.64,0 -562.16,72.47 -790.54,217.4 -228.38,147.13 -410.64,351.36 -546.79,617.06 -136.15,265.71 -208.62,577.54 -217.4,937.68z"/>
   <path id="_6" class="fil0" d="M72873.78 13848.74l0 -4756.44 -882.78 0 0 -1594.27 882.78 0 0 -566.56c0,-579.74 98.82,-1080.42 296.45,-1502.04 197.64,-421.63 478.73,-748.82 843.25,-981.59 364.53,-232.77 788.35,-349.16 1271.46,-349.16 298.65,0 597.31,35.13 895.95,105.41 298.65,70.26 601.7,171.29 909.13,303.04l-382.1 1581.09c-131.75,-61.49 -285.47,-111.99 -461.15,-151.52 -175.67,-39.53 -338.18,-59.29 -487.49,-59.29 -254.73,0 -447.98,81.25 -579.74,243.75 -131.76,162.5 -197.63,406.25 -197.63,731.25l0 645.62 1607.44 0 0 1594.27 -1607.44 0 0 4756.44 -2108.13 0z"/>
   <path id="_7" class="fil0" d="M81978.22 13479.83c-193.25,79.05 -406.25,158.1 -639.02,237.16 -232.77,79.06 -476.53,142.74 -731.26,191.05 -254.73,48.3 -505.07,72.47 -751.02,72.47 -351.35,0 -674.16,-59.29 -968.41,-175.68 -294.26,-116.39 -527.03,-309.63 -698.32,-577.54 -171.29,-267.9 -256.92,-623.65 -256.92,-1065.04l0 -3557.45 -882.78 0 0 -1594.27 882.78 0 0 -2200.35 2108.11 0 0 2200.35 1409.81 0 0 1594.27 -1409.81 0 0 2821.81c0,221.79 57.1,384.29 171.29,483.11 114.19,98.82 259.13,147.12 434.8,147.12 149.33,0 309.63,-26.34 480.92,-79.05 171.29,-52.7 318.41,-109.8 441.38,-171.29l408.45 1673.33z"/>
   <g>
    <path class="fil1" d="M10719.21 15363.4c165.06,-174.57 806.79,-770.73 976.05,-929.14 423.25,-421.89 705.35,-683.17 911.71,-862.33 322.97,-280.4 399.16,-399.44 602.23,-578.84l-3238.26 -2092.39c-342.78,301.11 -728.47,652.1 -1085.28,974.85 -96.35,51.72 -145.34,147.07 -212.44,210.95 -169.32,161.18 -341.55,321.1 -506.05,481.73 -212.4,207.4 -363.04,345.59 -428.95,408.33 -49.13,52.71 -124.93,108.53 -239.41,227.91l3220.39 2158.94z"/>
    <path class="fil2" d="M6495.93 8208.08c1003.42,694.66 2788.43,-585.14 3513.95,-1274.56 450.48,-428.08 1828.84,-1050.39 2276.33,-1502.3 -1334.33,11.92 -3340.77,-1659.62 -4287.39,-2531.56 5.7,-11.39 -2106.29,-1926.24 -2589.56,609.39 -190.63,1000.05 68.9,2511.78 557,4072.08 -14.76,2.09 432.95,584.66 529.67,626.95z"/>
    <path class="fil3" d="M20162.52 12145.33c-136.82,328.07 -272.93,640.64 -408.28,938.48 -2114.11,654.32 -3761.79,-207.18 -5192.18,-1774.89 939.51,-1746.66 1518.93,-3983.54 1742.59,-5733.61l5395.79 0c-39.35,1986.23 -598.25,4316.76 -1537.92,6570.01l0 0.01z"/>
    <path class="fil4 str0" d="M2608.32 188.32c2431.79,-701.17 4189.39,733.98 5389.51,2709.76 -4619.31,-3748.78 -1127.56,12968.21 3270.75,11696.29 33.78,-9.77 71.08,-21.9 110.1,-35.96 152.26,-54.88 331.07,-139.37 432.12,-229 -71.7,168.87 -161.55,290.07 -248,436.17 -13.3,22.47 -26.73,45.02 -40.29,67.64 -947.89,1581.27 -2533.07,3527.89 -4402.95,3527.89 -5181.82,0 -9519.81,-14208.51 -5595.11,-17588.22 308.9,-266 668.98,-464.93 1083.87,-584.57l0 -0.01z"/>
    <path class="fil4 str0" d="M8521.35 12230.32c189.74,-475.33 1691.16,-2015.79 2783.99,-2310.89 402.96,-108.8 888.06,-95.14 1274.93,24.67 792.73,245.46 1407.99,845.09 2044.04,1348.32 1659.24,1312.8 3763.89,3272.44 5528.13,893.69 -132.2,719.86 -712.86,1668.74 -1166.95,2197.07 -2230.51,2879.33 -4588.66,1093.96 -6543.99,-731.45 -895.8,-836.26 -2745.18,-2635.51 -3920.15,-1421.4z"/>
    <path class="fil4 str0" d="M21779.41 6143.51c110.72,-1730.51 -232.41,-3428.52 -2269.91,-3725.72 -4112.31,-599.85 -11425.32,6943.34 -13037.21,5784.93 658.35,968.42 4963.61,1637.39 6095.47,1337.22 741.49,-196.63 1592.88,-676.39 2485.44,-1156.98 906.91,-488.3 6690.02,-3867.01 6428.57,-626.52 138.02,-565.21 276.64,-1088.12 297.63,-1612.93l0.01 0z"/>
   </g>
  </g>
 </g>
</svg>
