<?xml version="1.0" encoding="UTF-8"?>
<!DOCTYPE svg PUBLIC "-//W3C//DTD SVG 1.1//EN" "http://www.w3.org/Graphics/SVG/1.1/DTD/svg11.dtd">
<!-- Creator: CorelDRAW -->
<svg xmlns="http://www.w3.org/2000/svg" xml:space="preserve" width="800.137mm" height="178.511mm" version="1.1" style="shape-rendering:geometricPrecision; text-rendering:geometricPrecision; image-rendering:optimizeQuality; fill-rule:evenodd; clip-rule:evenodd"
viewBox="0 0 82700.51 18450.58"
 xmlns:xlink="http://www.w3.org/1999/xlink"
 xmlns:xodm="http://www.corel.com/coreldraw/odm/2003">
 <defs>
  <style type="text/css">
   <![CDATA[
    .str1 {stroke:#488EFE;stroke-width:17.5;stroke-miterlimit:22.9256}
    .str0 {stroke:#FEFEFE;stroke-width:7.88;stroke-miterlimit:22.9256}
    .fil1 {fill:none;fill-rule:nonzero}
    .fil5 {fill:#488EFE}
    .fil0 {fill:#191250;fill-rule:nonzero}
    .fil3 {fill:url(#id0)}
    .fil4 {fill:url(#id1)}
    .fil2 {fill:url(#id2)}
   ]]>
  </style>
  <linearGradient id="id0" gradientUnits="userSpaceOnUse" x1="11494.74" y1="7390.14" x2="6215.37" y2="3260.81">
   <stop offset="0" style="stop-opacity:1; stop-color:#488EFE"/>
   <stop offset="1" style="stop-opacity:1; stop-color:#191250"/>
  </linearGradient>
  <linearGradient id="id1" gradientUnits="userSpaceOnUse" xlink:href="#id0" x1="14626.08" y1="9481.44" x2="21795.83" y2="9481.44">
  </linearGradient>
  <linearGradient id="id2" gradientUnits="userSpaceOnUse" xlink:href="#id0" x1="8595.25" y1="15754.48" x2="11882.32" y2="11548.4">
  </linearGradient>
 </defs>
 <g id="Layer_x0020_1">
  <metadata id="CorelCorpID_0Corel-Layer"/>
  <g id="mardsoft">
   <polygon class="fil0" points="25433.81,13909.62 27379.15,13909.62 27379.15,8245.61 30197.92,13380.27 33003.46,8245.61 33003.46,13909.62 34962.04,13909.62 34962.04,4818.08 33003.46,4818.08 30197.92,9952.75 27379.15,4818.08 25433.81,4818.08 "/>
   <path id="_1" class="fil0" d="M39832.04 6909.01c-952.83,0 -1892.41,264.68 -2858.48,754.32l648.46 1283.68c542.58,-277.91 1138.1,-489.65 1773.3,-489.65 1124.87,0 1574.81,635.22 1574.81,1363.06l0 132.34c-582.29,-224.98 -1191.04,-344.08 -1746.84,-344.08 -1588.04,0 -2845.24,926.36 -2845.24,2276.19 0,1310.13 1124.86,2183.55 2580.56,2183.55 741.09,0 1521.87,-291.14 2011.52,-846.95l0 688.15 1865.94 0 0 -4089.2c0,-1786.54 -1217.5,-2911.41 -3004.04,-2911.41zm-436.72 5822.82c-661.68,0 -1151.33,-344.08 -1151.33,-899.89 0,-555.82 555.82,-966.07 1257.19,-966.07 529.35,0 1032.23,92.64 1468.94,251.45l0 635.21c-132.34,635.22 -833.73,979.3 -1574.81,979.3z"/>
   <path id="_2" class="fil0" d="M46395.94 8338.24l0 -1270.42 -1932.11 0 0 6841.8 1932.11 0 0 -3268.72c0,-1283.66 913.13,-2104.15 2342.36,-2104.15l0 -1627.74c-1045.46,0 -1892.41,542.58 -2342.36,1429.23z"/>
   <path id="_3" class="fil0" d="M54958.11 4659.29l0 3387.82c-542.58,-714.62 -1336.59,-1138.1 -2302.65,-1138.1 -1826.25,0 -3149.62,1482.17 -3149.62,3573.1 0,2104.15 1323.36,3586.32 3149.62,3586.32 966.06,0 1760.07,-423.47 2302.65,-1138.1l0 979.3 1932.12 0 0 -9250.33 -1932.12 0zm-1746.84 7781.4c-1071.93,0 -1826.24,-807.26 -1826.24,-1958.58 0,-1138.1 754.32,-1945.35 1826.24,-1945.35 1019,0 1746.84,807.26 1746.84,1945.35 0,1151.33 -727.85,1958.58 -1746.84,1958.58z"/>
   <path id="_4" class="fil0" d="M61151.48 14068.42c1680.67,0 2779.07,-860.19 2779.07,-2210.02 0,-1495.4 -1310.13,-1892.41 -2487.93,-2196.78 -926.36,-251.44 -1204.27,-357.31 -1204.27,-727.86 0,-238.21 330.85,-410.24 807.26,-410.24 582.28,0 1296.89,224.97 1918.88,608.75l780.79 -1376.3c-754.32,-502.88 -1720.37,-846.96 -2699.67,-846.96 -1614.5,0 -2686.44,926.36 -2673.2,2223.26 13.23,1349.83 1098.4,1733.6 2501.16,2077.68 701.39,185.27 1204.27,317.61 1204.27,741.09 0,304.38 -370.54,516.11 -886.66,516.11 -913.13,0 -1680.67,-330.84 -2289.42,-767.55l-833.73 1336.59c820.49,661.69 1985.05,1032.23 3083.45,1032.23z"/>
   <path id="_5" class="fil0" d="M68588.8 14068.42c2024.75,0 3718.67,-1640.97 3718.67,-3586.32 0,-1945.35 -1693.91,-3573.1 -3718.67,-3573.1 -2037.98,0 -3745.13,1627.74 -3745.13,3573.1 0,1945.34 1707.14,3586.32 3745.13,3586.32zm0 -1627.73c-1032.23,0 -1892.41,-899.9 -1892.41,-1958.58 0,-1058.7 860.19,-1945.35 1892.41,-1945.35 1019,0 1879.18,886.66 1879.18,1945.35 0,1058.69 -860.19,1958.58 -1879.18,1958.58z"/>
   <path id="_6" class="fil0" d="M75907.02 6697.27c0,-449.94 291.14,-767.55 648.45,-767.55 264.68,0 529.35,92.63 661.69,224.97l463.18 -1177.8c-397.01,-357.31 -1019,-595.52 -1574.8,-595.52 -1204.27,0 -2051.22,860.19 -2051.22,2090.92l0 595.52 -939.59 0 0 1561.57 939.59 0 0 5280.23 1852.71 0 0 -5280.23 1482.17 0 0 -1561.57 -1482.17 0 0 -370.55z"/>
   <path id="_7" class="fil0" d="M82232.71 12215.71c-132.34,132.34 -397.01,224.98 -661.69,224.98 -357.31,0 -648.45,-317.61 -648.45,-767.56l0 -3043.74 1482.17 0 0 -1561.57 -1482.17 0 0 -1879.18 -1852.71 0 0 1879.18 -939.59 0 0 1561.57 939.59 0 0 3348.12c0,1230.72 846.96,2090.91 2051.22,2090.91 555.81,0 1177.8,-238.2 1574.8,-595.51l-463.18 -1257.21z"/>
   <polygon id="_8" class="fil1 str0" points="25433.81,13909.62 27379.15,13909.62 27379.15,8245.61 30197.92,13380.27 33003.46,8245.61 33003.46,13909.62 34962.04,13909.62 34962.04,4818.08 33003.46,4818.08 30197.92,9952.75 27379.15,4818.08 25433.81,4818.08 "/>
   <path id="_9" class="fil1 str0" d="M39832.04 6909.01c-952.83,0 -1892.41,264.68 -2858.48,754.32l648.46 1283.68c542.58,-277.91 1138.1,-489.65 1773.3,-489.65 1124.87,0 1574.81,635.22 1574.81,1363.06l0 132.34c-582.29,-224.98 -1191.04,-344.08 -1746.84,-344.08 -1588.04,0 -2845.24,926.36 -2845.24,2276.19 0,1310.13 1124.86,2183.55 2580.56,2183.55 741.09,0 1521.87,-291.14 2011.52,-846.95l0 688.15 1865.94 0 0 -4089.2c0,-1786.54 -1217.5,-2911.41 -3004.04,-2911.41zm-436.72 5822.82c-661.68,0 -1151.33,-344.08 -1151.33,-899.89 0,-555.82 555.82,-966.07 1257.19,-966.07 529.35,0 1032.23,92.64 1468.94,251.45l0 635.21c-132.34,635.22 -833.73,979.3 -1574.81,979.3z"/>
   <path id="_10" class="fil1 str0" d="M46395.94 8338.24l0 -1270.42 -1932.11 0 0 6841.8 1932.11 0 0 -3268.72c0,-1283.66 913.13,-2104.15 2342.36,-2104.15l0 -1627.74c-1045.46,0 -1892.41,542.58 -2342.36,1429.23z"/>
   <path id="_11" class="fil1 str0" d="M54958.11 4659.29l0 3387.82c-542.58,-714.62 -1336.59,-1138.1 -2302.65,-1138.1 -1826.25,0 -3149.62,1482.17 -3149.62,3573.1 0,2104.15 1323.36,3586.32 3149.62,3586.32 966.06,0 1760.07,-423.47 2302.65,-1138.1l0 979.3 1932.12 0 0 -9250.33 -1932.12 0zm-1746.84 7781.4c-1071.93,0 -1826.24,-807.26 -1826.24,-1958.58 0,-1138.1 754.32,-1945.35 1826.24,-1945.35 1019,0 1746.84,807.26 1746.84,1945.35 0,1151.33 -727.85,1958.58 -1746.84,1958.58z"/>
   <path id="_12" class="fil1 str0" d="M61151.48 14068.42c1680.67,0 2779.07,-860.19 2779.07,-2210.02 0,-1495.4 -1310.13,-1892.41 -2487.93,-2196.78 -926.36,-251.44 -1204.27,-357.31 -1204.27,-727.86 0,-238.21 330.85,-410.24 807.26,-410.24 582.28,0 1296.89,224.97 1918.88,608.75l780.79 -1376.3c-754.32,-502.88 -1720.37,-846.96 -2699.67,-846.96 -1614.5,0 -2686.44,926.36 -2673.2,2223.26 13.23,1349.83 1098.4,1733.6 2501.16,2077.68 701.39,185.27 1204.27,317.61 1204.27,741.09 0,304.38 -370.54,516.11 -886.66,516.11 -913.13,0 -1680.67,-330.84 -2289.42,-767.55l-833.73 1336.59c820.49,661.69 1985.05,1032.23 3083.45,1032.23z"/>
   <path id="_13" class="fil1 str0" d="M68588.8 14068.42c2024.75,0 3718.67,-1640.97 3718.67,-3586.32 0,-1945.35 -1693.91,-3573.1 -3718.67,-3573.1 -2037.98,0 -3745.13,1627.74 -3745.13,3573.1 0,1945.34 1707.14,3586.32 3745.13,3586.32zm0 -1627.73c-1032.23,0 -1892.41,-899.9 -1892.41,-1958.58 0,-1058.7 860.19,-1945.35 1892.41,-1945.35 1019,0 1879.18,886.66 1879.18,1945.35 0,1058.69 -860.19,1958.58 -1879.18,1958.58z"/>
   <path id="_14" class="fil1 str0" d="M75907.02 6697.27c0,-449.94 291.14,-767.55 648.45,-767.55 264.68,0 529.35,92.63 661.69,224.97l463.18 -1177.8c-397.01,-357.31 -1019,-595.52 -1574.8,-595.52 -1204.27,0 -2051.22,860.19 -2051.22,2090.92l0 595.52 -939.59 0 0 1561.57 939.59 0 0 5280.23 1852.71 0 0 -5280.23 1482.17 0 0 -1561.57 -1482.17 0 0 -370.55z"/>
   <path id="_15" class="fil1 str0" d="M82232.71 12215.71c-132.34,132.34 -397.01,224.98 -661.69,224.98 -357.31,0 -648.45,-317.61 -648.45,-767.56l0 -3043.74 1482.17 0 0 -1561.57 -1482.17 0 0 -1879.18 -1852.71 0 0 1879.18 -939.59 0 0 1561.57 939.59 0 0 3348.12c0,1230.72 846.96,2090.91 2051.22,2090.91 555.81,0 1177.8,-238.2 1574.8,-595.51l-463.18 -1257.21z"/>
   <g>
    <path class="fil2" d="M10766.33 15430.93c165.79,-175.34 810.34,-774.12 980.34,-933.22 425.11,-423.75 708.45,-686.17 915.72,-866.12 324.39,-281.63 400.92,-401.19 604.88,-581.39l-3252.49 -2101.59c-344.29,302.44 -731.67,654.97 -1090.05,979.13 -96.77,51.95 -145.98,147.72 -213.37,211.87 -170.07,161.89 -343.06,322.51 -508.27,483.85 -213.33,208.31 -364.64,347.11 -430.84,410.12 -49.34,52.94 -125.48,109.01 -240.46,228.91l3234.55 2168.43z"/>
    <path class="fil3" d="M6524.48 8244.16c1007.83,697.72 2800.69,-587.71 3529.4,-1280.16 452.46,-429.96 1836.88,-1055.01 2286.34,-1508.9 -1340.19,11.97 -3355.46,-1666.92 -4306.24,-2542.69 5.73,-11.44 -2115.55,-1934.71 -2600.94,612.07 -191.47,1004.44 69.2,2522.82 559.45,4089.98 -14.82,2.1 434.86,587.23 531.99,629.71z"/>
    <path class="fil4" d="M20251.15 12198.71c-137.42,329.52 -274.13,643.46 -410.07,942.6 -2123.41,657.19 -3778.32,-208.09 -5215,-1782.69 943.64,-1754.34 1525.61,-4001.05 1750.25,-5758.82l5419.5 0c-39.52,1994.96 -600.88,4335.73 -1544.69,6598.89l0 0.01z"/>
    <path class="fil5 str1" d="M2619.78 189.15c2442.48,-704.25 4207.81,737.21 5413.2,2721.67 -4639.62,-3765.26 -1132.51,13025.22 3285.13,11747.7 33.93,-9.81 71.39,-21.99 110.58,-36.11 152.93,-55.12 332.52,-139.98 434.02,-230 -72.02,169.61 -162.26,291.35 -249.09,438.08 -13.35,22.57 -26.85,45.22 -40.46,67.94 -952.06,1588.22 -2544.21,3543.4 -4422.31,3543.4 -5204.6,0 -9561.66,-14270.97 -5619.71,-17665.53 310.26,-267.17 671.92,-466.97 1088.64,-587.14l0 -0.01z"/>
    <path class="fil5 str1" d="M8558.81 12284.08c190.57,-477.42 1698.6,-2024.65 2796.23,-2321.05 404.73,-109.28 891.96,-95.55 1280.53,24.77 796.22,246.54 1414.18,848.81 2053.02,1354.25 1666.53,1318.57 3780.43,3286.83 5552.43,897.62 -132.78,723.02 -715.99,1676.07 -1172.08,2206.72 -2240.32,2891.99 -4608.83,1098.77 -6572.75,-734.67 -899.74,-839.94 -2757.25,-2647.09 -3937.38,-1427.65z"/>
    <path class="fil5 str1" d="M21875.15 6170.51c111.2,-1738.12 -233.43,-3443.59 -2279.89,-3742.1 -4130.38,-602.48 -11475.54,6973.86 -13094.52,5810.36 661.24,972.68 4985.43,1644.59 6122.27,1343.1 744.75,-197.5 1599.88,-679.36 2496.36,-1162.06 910.89,-490.44 6719.43,-3884.01 6456.83,-629.27 138.62,-567.69 277.86,-1092.91 298.94,-1620.02l0.01 0z"/>
   </g>
  </g>
 </g>
</svg>
