<?xml version="1.0" encoding="UTF-8"?>
<!DOCTYPE svg PUBLIC "-//W3C//DTD SVG 1.1//EN" "http://www.w3.org/Graphics/SVG/1.1/DTD/svg11.dtd">
<!-- Creator: CorelDRAW -->
<svg xmlns="http://www.w3.org/2000/svg" xml:space="preserve" width="800.092mm" height="178.511mm" version="1.1" style="shape-rendering:geometricPrecision; text-rendering:geometricPrecision; image-rendering:optimizeQuality; fill-rule:evenodd; clip-rule:evenodd"
viewBox="0 0 82691.27 18449.55"
 xmlns:xlink="http://www.w3.org/1999/xlink"
 xmlns:xodm="http://www.corel.com/coreldraw/odm/2003">
 <defs>
  <style type="text/css">
   <![CDATA[
    .str0 {stroke:#488EFE;stroke-width:17.5;stroke-miterlimit:22.9256}
    .fil4 {fill:#488EFE}
    .fil0 {fill:#191250;fill-rule:nonzero}
    .fil2 {fill:url(#id0)}
    .fil3 {fill:url(#id1)}
    .fil1 {fill:url(#id2)}
   ]]>
  </style>
  <linearGradient id="id0" gradientUnits="userSpaceOnUse" x1="11494.1" y1="7389.72" x2="6215.02" y2="3260.63">
   <stop offset="0" style="stop-opacity:1; stop-color:#488EFE"/>
   <stop offset="1" style="stop-opacity:1; stop-color:#191250"/>
  </linearGradient>
  <linearGradient id="id1" gradientUnits="userSpaceOnUse" xlink:href="#id0" x1="14625.26" y1="9480.91" x2="21794.62" y2="9480.91">
  </linearGradient>
  <linearGradient id="id2" gradientUnits="userSpaceOnUse" xlink:href="#id0" x1="8594.77" y1="15753.6" x2="11881.66" y2="11547.75">
  </linearGradient>
 </defs>
 <g id="Layer_x0020_1">
  <metadata id="CorelCorpID_0Corel-Layer"/>
  <g id="mardsoft">
   <polygon class="fil0" points="25432.39,13908.84 27377.62,13908.84 27377.62,8245.15 30196.23,13379.52 33001.61,8245.15 33001.61,13908.84 34960.09,13908.84 34960.09,4817.82 33001.61,4817.82 30196.23,9952.2 27377.62,4817.82 25432.39,4817.82 "/>
   <path id="_1" class="fil0" d="M39829.82 6908.62c-952.77,0 -1892.31,264.66 -2858.32,754.27l648.42 1283.6c542.55,-277.89 1138.03,-489.62 1773.2,-489.62 1124.8,0 1574.73,635.18 1574.73,1362.99l0 132.33c-582.26,-224.97 -1190.97,-344.06 -1746.75,-344.06 -1587.96,0 -2845.08,926.3 -2845.08,2276.06 0,1310.06 1124.79,2183.43 2580.42,2183.43 741.05,0 1521.79,-291.12 2011.41,-846.9l0 688.11 1865.84 0 0 -4088.98c0,-1786.44 -1217.43,-2911.25 -3003.87,-2911.25zm-436.69 5822.49c-661.64,0 -1151.26,-344.06 -1151.26,-899.84 0,-555.79 555.79,-966.01 1257.12,-966.01 529.32,0 1032.17,92.63 1468.86,251.44l0 635.17c-132.33,635.18 -833.68,979.24 -1574.73,979.24z"/>
   <path id="_2" class="fil0" d="M46393.34 8337.77l0 -1270.35 -1932 0 0 6841.42 1932 0 0 -3268.53c0,-1283.59 913.08,-2104.03 2342.23,-2104.03l0 -1627.65c-1045.4,0 -1892.31,542.55 -2342.23,1429.15z"/>
   <path id="_3" class="fil0" d="M54955.04 4659.03l0 3387.63c-542.55,-714.58 -1336.52,-1138.03 -2302.52,-1138.03 -1826.15,0 -3149.44,1482.09 -3149.44,3572.9 0,2104.03 1323.29,3586.12 3149.44,3586.12 966,0 1759.97,-423.44 2302.52,-1138.03l0 979.24 1932.01 0 0 -9249.82 -1932.01 0zm-1746.75 7780.96c-1071.87,0 -1826.14,-807.21 -1826.14,-1958.47 0,-1138.03 754.27,-1945.24 1826.14,-1945.24 1018.94,0 1746.75,807.21 1746.75,1945.24 0,1151.26 -727.81,1958.47 -1746.75,1958.47z"/>
   <path id="_4" class="fil0" d="M61148.06 14067.63c1680.58,0 2778.91,-860.14 2778.91,-2209.9 0,-1495.32 -1310.06,-1892.31 -2487.79,-2196.66 -926.3,-251.42 -1204.2,-357.29 -1204.2,-727.82 0,-238.2 330.83,-410.22 807.21,-410.22 582.25,0 1296.82,224.96 1918.78,608.71l780.74 -1376.23c-754.27,-502.85 -1720.28,-846.91 -2699.52,-846.91 -1614.41,0 -2686.29,926.3 -2673.05,2223.14 13.23,1349.76 1098.33,1733.51 2501.02,2077.57 701.35,185.26 1204.2,317.59 1204.2,741.05 0,304.36 -370.52,516.08 -886.61,516.08 -913.08,0 -1680.58,-330.82 -2289.29,-767.5l-833.68 1336.52c820.44,661.65 1984.94,1032.17 3083.28,1032.17z"/>
   <path id="_5" class="fil0" d="M68584.97 14067.63c2024.64,0 3718.46,-1640.88 3718.46,-3586.12 0,-1945.24 -1693.82,-3572.9 -3718.46,-3572.9 -2037.87,0 -3744.92,1627.65 -3744.92,3572.9 0,1945.23 1707.05,3586.12 3744.92,3586.12zm0 -1627.64c-1032.17,0 -1892.31,-899.85 -1892.31,-1958.47 0,-1058.64 860.14,-1945.24 1892.31,-1945.24 1018.94,0 1879.08,886.61 1879.08,1945.24 0,1058.63 -860.14,1958.47 -1879.08,1958.47z"/>
   <path id="_6" class="fil0" d="M75902.78 6696.89c0,-449.91 291.12,-767.5 648.41,-767.5 264.66,0 529.32,92.62 661.65,224.96l463.15 -1177.73c-396.99,-357.29 -1018.94,-595.48 -1574.72,-595.48 -1204.2,0 -2051.11,860.14 -2051.11,2090.81l0 595.48 -939.53 0 0 1561.49 939.53 0 0 5279.93 1852.61 0 0 -5279.93 1482.09 0 0 -1561.49 -1482.09 0 0 -370.53z"/>
   <path id="_7" class="fil0" d="M82228.12 12215.02c-132.33,132.33 -396.99,224.97 -661.65,224.97 -357.29,0 -648.41,-317.59 -648.41,-767.51l0 -3043.57 1482.09 0 0 -1561.49 -1482.09 0 0 -1879.08 -1852.61 0 0 1879.08 -939.53 0 0 1561.49 939.53 0 0 3347.93c0,1230.66 846.91,2090.79 2051.11,2090.79 555.78,0 1177.73,-238.19 1574.72,-595.47l-463.15 -1257.14z"/>
   <g>
    <path class="fil1" d="M10765.73 15430.07c165.78,-175.33 810.29,-774.08 980.29,-933.17 425.09,-423.72 708.41,-686.13 915.67,-866.07 324.37,-281.61 400.89,-401.17 604.85,-581.36l-3252.31 -2101.47c-344.27,302.42 -731.63,654.93 -1089.99,979.08 -96.77,51.94 -145.97,147.71 -213.36,211.86 -170.06,161.88 -343.04,322.49 -508.24,483.82 -213.32,208.3 -364.62,347.09 -430.81,410.1 -49.34,52.94 -125.47,109.01 -240.45,228.89l3234.37 2168.31z"/>
    <path class="fil2" d="M6524.12 8243.7c1007.78,697.68 2800.54,-587.68 3529.2,-1280.09 452.43,-429.93 1836.78,-1054.95 2286.21,-1508.82 -1340.12,11.97 -3355.27,-1666.82 -4305.99,-2542.55 5.73,-11.44 -2115.43,-1934.6 -2600.8,612.03 -191.46,1004.39 69.19,2522.68 559.41,4089.75 -14.82,2.1 434.83,587.2 531.96,629.67z"/>
    <path class="fil3" d="M20250.02 12198.03c-137.42,329.5 -274.11,643.42 -410.05,942.55 -2123.29,657.15 -3778.11,-208.08 -5214.71,-1782.59 943.59,-1754.24 1525.52,-4000.83 1750.16,-5758.5l5419.2 0c-39.52,1994.85 -600.85,4335.49 -1544.6,6598.52l0 0.01z"/>
    <path class="fil4 str0" d="M2619.64 189.13c2442.35,-704.21 4207.57,737.17 5412.9,2721.52 -4639.36,-3765.05 -1132.45,13024.49 3284.95,11747.04 33.93,-9.81 71.39,-21.99 110.58,-36.11 152.92,-55.12 332.5,-139.97 434,-229.99 -72.02,169.6 -162.25,291.33 -249.08,438.06 -13.35,22.57 -26.85,45.22 -40.46,67.93 -952.01,1588.13 -2544.07,3543.2 -4422.06,3543.2 -5204.31,0 -9561.12,-14270.17 -5619.39,-17664.55 310.24,-267.16 671.88,-466.95 1088.58,-587.1l0 -0.01z"/>
    <path class="fil4 str0" d="M8558.33 12283.39c190.56,-477.39 1698.5,-2024.54 2796.07,-2320.92 404.71,-109.27 891.91,-95.55 1280.46,24.77 796.17,246.53 1414.1,848.76 2052.91,1354.17 1666.44,1318.5 3780.22,3286.64 5552.12,897.57 -132.78,722.98 -715.95,1675.98 -1172.01,2206.6 -2240.19,2891.83 -4608.57,1098.71 -6572.38,-734.63 -899.69,-839.89 -2757.1,-2646.94 -3937.16,-1427.57z"/>
    <path class="fil4 str0" d="M21873.93 6170.17c111.2,-1738.02 -233.42,-3443.4 -2279.76,-3741.89 -4130.15,-602.45 -11474.9,6973.47 -13093.79,5810.04 661.21,972.63 4985.15,1644.5 6121.92,1343.02 744.7,-197.49 1599.79,-679.32 2496.22,-1162 910.84,-490.42 6719.05,-3883.79 6456.46,-629.24 138.62,-567.66 277.84,-1092.85 298.93,-1619.93l0.01 0z"/>
   </g>
  </g>
 </g>
</svg>
