<?xml version="1.0" encoding="UTF-8"?>
<!DOCTYPE svg PUBLIC "-//W3C//DTD SVG 1.1//EN" "http://www.w3.org/Graphics/SVG/1.1/DTD/svg11.dtd">
<!-- Creator: CorelDRAW -->
<svg xmlns="http://www.w3.org/2000/svg" xml:space="preserve" width="773.994mm" height="178.511mm" version="1.1" style="shape-rendering:geometricPrecision; text-rendering:geometricPrecision; image-rendering:optimizeQuality; fill-rule:evenodd; clip-rule:evenodd"
viewBox="0 0 77384.62 17847.74"
 xmlns:xlink="http://www.w3.org/1999/xlink"
 xmlns:xodm="http://www.corel.com/coreldraw/odm/2003">
 <defs>
  <style type="text/css">
   <![CDATA[
    .str0 {stroke:#488EFE;stroke-width:16.93;stroke-miterlimit:22.9256}
    .fil4 {fill:#488EFE}
    .fil0 {fill:#191250;fill-rule:nonzero}
    .fil2 {fill:url(#id0)}
    .fil3 {fill:url(#id1)}
    .fil1 {fill:url(#id2)}
   ]]>
  </style>
  <linearGradient id="id0" gradientUnits="userSpaceOnUse" x1="11119.17" y1="7148.68" x2="6012.3" y2="3154.27">
   <stop offset="0" style="stop-opacity:1; stop-color:#488EFE"/>
   <stop offset="1" style="stop-opacity:1; stop-color:#191250"/>
  </linearGradient>
  <linearGradient id="id1" gradientUnits="userSpaceOnUse" xlink:href="#id0" x1="14148.2" y1="9171.65" x2="21083.69" y2="9171.65">
  </linearGradient>
  <linearGradient id="id2" gradientUnits="userSpaceOnUse" xlink:href="#id0" x1="8314.42" y1="15239.73" x2="11494.09" y2="11171.07">
  </linearGradient>
 </defs>
 <g id="Layer_x0020_1">
  <metadata id="CorelCorpID_0Corel-Layer"/>
  <g id="mardsoft">
   <path class="fil0" d="M30751.68 4974.29l2760.8 0 0 9216.92 -1779.37 0 0 -6234.22c0,-179.22 2.13,-430.98 6.4,-753.15 4.27,-324.3 6.4,-571.79 6.4,-746.74l-1753.78 7734.11 -1881.79 0 -1740.97 -7734.11c0,174.95 2.13,422.44 6.4,746.74 4.27,322.17 6.4,573.93 6.4,753.15l0 6234.22 -1779.37 0 0 -9216.92 2790.68 0 1685.5 7247.66 1672.7 -7247.66z"/>
   <path id="_1" class="fil0" d="M38933.84 10879.95c-113.08,70.41 -228.29,128.02 -345.63,170.69 -115.21,44.8 -275.23,85.34 -477.91,123.75l-405.38 74.68c-379.77,66.14 -650.73,147.21 -817.14,243.22 -279.5,164.28 -418.18,416.04 -418.18,759.55 0,305.09 85.34,524.85 256.03,661.39 170.69,134.41 379.77,202.69 625.13,202.69 388.31,0 746.74,-113.08 1073.18,-339.24 326.43,-224.03 497.12,-635.8 509.91,-1233.2l0 -663.53zm-1088.11 -829.94c330.71,-42.67 567.53,-93.88 710.47,-157.89 256.03,-106.67 384.04,-277.36 384.04,-505.64 0,-279.5 -98.14,-471.52 -294.42,-578.19 -196.29,-106.68 -484.32,-160.02 -864.09,-160.02 -426.71,0 -727.54,104.54 -904.63,311.5 -128.02,153.61 -211.22,360.56 -253.89,622.99l-1715.37 0c38.4,-595.26 204.82,-1085.97 501.38,-1467.88 473.65,-599.53 1284.4,-900.36 2432.25,-900.36 748.87,0 1412.4,149.35 1994.86,445.92 580.33,296.56 870.49,855.55 870.49,1674.83l0 3121.39c0,217.62 4.26,480.05 12.8,787.27 12.8,232.57 49.07,390.45 106.68,473.65 59.74,83.21 147.21,151.48 264.56,204.82l0 268.83 -1937.26 0c-53.34,-136.54 -91.74,-264.56 -113.08,-386.18 -19.21,-119.48 -36.27,-256.02 -49.07,-409.63 -247.49,266.69 -531.26,494.98 -853.42,682.73 -386.18,219.76 -821.42,330.7 -1305.73,330.7 -620.86,0 -1132.91,-177.08 -1536.16,-529.12 -403.24,-352.03 -605.92,-851.28 -605.92,-1497.74 0,-838.49 324.3,-1444.41 975.02,-1819.91 356.3,-204.82 879.02,-349.9 1570.29,-437.39l610.19 -74.67z"/>
   <path id="_2" class="fil0" d="M45951.07 7214.52c32,0 61.88,0 83.21,2.14 23.47,2.13 74.67,6.4 153.61,10.67l0 1830.58c-113.08,-14.94 -213.36,-25.61 -300.83,-29.87 -87.47,-6.4 -157.88,-8.53 -211.22,-8.53 -716.87,0 -1199.05,232.56 -1444.41,699.8 -138.67,262.43 -206.95,667.8 -206.95,1213.99l0 3257.93 -1779.38 0 0 -6823.08 1689.78 0 0 1192.65c275.23,-452.31 514.18,-761.67 716.86,-928.09 332.84,-279.5 765.94,-418.18 1299.33,-418.18z"/>
   <path id="_3" class="fil0" d="M49763.71 7214.52c411.78,0 778.75,91.74 1098.78,273.1 320.03,181.35 580.33,433.11 780.88,755.28l0 -3255.79 1804.98 0 0 9204.12 -1728.17 0 0 -938.76c-253.89,405.37 -544.06,697.67 -868.35,881.15 -324.3,183.49 -727.54,275.23 -1211.85,275.23 -795.82,0 -1463.62,-322.16 -2007.67,-966.5 -544.06,-644.33 -815.01,-1472.15 -815.01,-2481.32 0,-1162.78 266.69,-2078.07 802.21,-2745.87 535.52,-667.8 1250.26,-1000.64 2144.21,-1000.64zm386.18 5696.58c503.51,0 887.55,-187.75 1149.98,-563.26 262.43,-375.5 394.7,-861.95 394.7,-1457.21 0,-834.21 -211.22,-1429.47 -633.66,-1790.04 -258.16,-215.49 -556.85,-324.3 -900.36,-324.3 -520.58,0 -902.49,196.28 -1147.85,590.99 -243.22,394.7 -364.83,883.29 -364.83,1467.88 0,629.4 123.75,1132.91 371.24,1510.55 249.62,377.64 625.12,565.39 1130.77,565.39z"/>
   <path id="_4" class="fil0" d="M56441.72 12015c38.4,317.9 119.48,544.06 245.35,678.46 221.9,238.96 631.53,358.44 1231.07,358.44 349.89,0 629.39,-53.34 836.35,-157.88 206.95,-104.55 311.49,-260.3 311.49,-469.38 0,-200.55 -83.2,-354.17 -249.62,-458.71 -166.42,-104.55 -787.28,-283.77 -1862.59,-537.66 -774.48,-192.02 -1320.67,-430.98 -1636.43,-719 -317.9,-281.63 -475.79,-691.27 -475.79,-1222.53 0,-629.39 247.49,-1169.18 742.48,-1621.49 494.99,-450.18 1190.52,-676.33 2088.74,-676.33 851.29,0 1546.83,168.55 2082.34,507.78 535.52,339.23 844.88,925.95 923.82,1758.04l-1779.38 0c-25.6,-230.42 -89.6,-411.77 -194.15,-546.19 -196.28,-241.09 -531.25,-362.7 -1004.9,-362.7 -388.31,0 -665.66,59.74 -832.08,181.36 -164.28,121.61 -247.49,262.42 -247.49,426.71 0,204.82 87.47,352.03 264.56,443.78 174.96,96.01 795.82,260.29 1860.46,492.85 708.34,168.55 1241.72,420.31 1598.03,757.42 352.03,341.36 526.99,768.07 526.99,1280.13 0,674.2 -251.76,1226.79 -755.28,1653.5 -503.52,426.71 -1280.13,640.07 -2334.11,640.07 -1073.18,0 -1864.71,-226.16 -2376.77,-678.47 -512.05,-452.31 -768.07,-1028.37 -768.07,-1728.17l1804.98 0z"/>
   <path id="_5" class="fil0" d="M65249 12936.7c518.45,0 917.43,-185.62 1196.91,-554.72 279.5,-371.24 418.18,-898.23 418.18,-1580.96 0,-680.6 -138.68,-1207.59 -418.18,-1574.56 -279.49,-369.1 -678.46,-552.58 -1196.91,-552.58 -520.59,0 -921.69,183.49 -1203.32,552.58 -279.5,366.97 -420.31,893.96 -420.31,1574.56 0,682.73 140.81,1209.72 420.31,1580.96 281.63,369.1 682.73,554.72 1203.32,554.72zm3484.08 -2142.08c0,998.5 -288.03,1854.05 -861.95,2562.38 -576.06,710.47 -1448.68,1064.65 -2620,1064.65 -1171.32,0 -2043.94,-354.17 -2619.99,-1064.65 -573.93,-708.34 -861.96,-1563.88 -861.96,-2562.38 0,-981.43 288.03,-1832.72 861.96,-2551.72 576.05,-719 1448.67,-1079.57 2619.99,-1079.57 1171.32,0 2043.94,360.57 2620,1079.57 573.92,719 861.95,1570.29 861.95,2551.72z"/>
   <path id="_6" class="fil0" d="M72507.33 4884.69c110.94,0 213.35,2.13 305.09,6.4 91.74,4.27 215.49,10.67 373.37,19.2l0 1446.54c-100.27,0 -268.82,-2.13 -503.51,-8.53 -236.82,-6.4 -398.97,44.8 -488.58,155.75 -89.61,110.94 -134.41,232.56 -134.41,364.83 0,134.41 0,326.44 0,576.06l1164.92 0 0 1254.52 -1164.92 0 0 5491.75 -1753.78 0 0 -5491.75 -998.5 0 0 -1254.52 972.89 0 0 -441.65c0,-736.07 121.62,-1241.72 364.84,-1519.08 258.15,-398.97 876.88,-599.53 1862.59,-599.53z"/>
   <path id="_7" class="fil0" d="M73569.84 8699.46l0 -1254.52 947.29 0 0 -1920.19 1766.58 0 0 1920.19 1100.91 0 0 1254.52 -1100.91 0 0 3609.96c0,279.5 36.26,454.45 106.67,524.86 70.41,68.27 285.9,102.41 646.47,102.41 53.34,0 110.95,-2.14 170.69,-6.41 59.74,-4.26 119.48,-10.67 177.09,-19.2l0 1331.33 -842.76 38.41c-842.75,29.86 -1416.67,-117.35 -1723.9,-437.38 -200.55,-204.82 -300.83,-520.59 -300.83,-945.17l0 -4198.82 -947.29 0z"/>
   <g>
    <path class="fil1" d="M10414.56 14926.76c160.37,-169.61 783.86,-748.83 948.31,-902.73 411.22,-409.9 685.3,-663.75 885.8,-837.82 313.79,-272.43 387.82,-388.09 585.12,-562.39l-3146.22 -2032.92c-333.04,292.55 -707.77,633.57 -1054.44,947.14 -93.61,50.25 -141.21,142.89 -206.4,204.95 -164.51,156.6 -331.85,311.97 -491.67,468.04 -206.36,201.5 -352.72,335.77 -416.76,396.72 -47.73,51.21 -121.38,105.45 -232.61,221.43l3128.86 2097.58z"/>
    <path class="fil2" d="M6311.31 7974.8c974.9,674.92 2709.18,-568.51 3414.08,-1238.33 437.68,-415.91 1776.86,-1020.54 2211.64,-1459.6 -1296.4,11.58 -3245.82,-1612.45 -4165.54,-2459.61 5.54,-11.07 -2046.43,-1871.49 -2515.96,592.07 -185.21,971.62 66.94,2440.4 541.17,3956.35 -14.34,2.03 420.65,568.04 514.61,609.13z"/>
    <path class="fil3" d="M19589.48 11800.14c-132.93,318.75 -265.17,622.43 -396.67,911.81 -2054.03,635.72 -3654.87,-201.29 -5044.61,-1724.44 912.81,-1697.02 1475.76,-3870.32 1693.07,-5570.66l5242.43 0c-38.23,1929.78 -581.25,4194.07 -1494.22,6383.28l0 0.01z"/>
    <path class="fil4 str0" d="M2534.19 182.97c2362.68,-681.24 4070.32,713.12 5236.33,2632.75 -4488.03,-3642.24 -1095.51,12599.64 3177.79,11363.87 32.82,-9.49 69.06,-21.28 106.97,-34.93 147.93,-53.32 321.66,-135.4 419.84,-222.49 -69.67,164.07 -156.96,281.83 -240.95,423.77 -12.92,21.84 -25.98,43.74 -39.14,65.72 -920.95,1536.33 -2461.08,3427.63 -4277.82,3427.63 -5034.55,0 -9249.25,-13804.69 -5436.09,-17088.35 300.12,-258.44 649.97,-451.71 1053.07,-567.95l0 -0.01z"/>
    <path class="fil4 str0" d="M8279.16 11882.72c184.34,-461.82 1643.1,-1958.5 2704.86,-2245.21 391.51,-105.71 862.82,-92.43 1238.69,23.97 770.2,238.48 1367.97,821.07 1985.94,1310 1612.08,1275.49 3656.91,3179.43 5371.02,868.29 -128.45,699.4 -692.6,1621.31 -1133.78,2134.62 -2167.12,2797.5 -4458.24,1062.87 -6358,-710.66 -870.34,-812.5 -2667.16,-2560.6 -3808.73,-1381.01z"/>
    <path class="fil4 str0" d="M21160.42 5968.9c107.57,-1681.33 -225.81,-3331.08 -2205.4,-3619.83 -3995.43,-582.8 -11100.6,6746.01 -12666.68,5620.52 639.64,940.9 4822.54,1590.86 5922.23,1299.21 720.41,-191.04 1547.61,-657.16 2414.8,-1124.1 881.13,-474.42 6499.88,-3757.1 6245.86,-608.71 134.09,-549.15 268.78,-1057.2 289.17,-1567.09l0.01 0z"/>
   </g>
  </g>
 </g>
</svg>
