<?xml version="1.0" encoding="UTF-8"?>
<!DOCTYPE svg PUBLIC "-//W3C//DTD SVG 1.1//EN" "http://www.w3.org/Graphics/SVG/1.1/DTD/svg11.dtd">
<!-- Creator: CorelDRAW -->
<svg xmlns="http://www.w3.org/2000/svg" xml:space="preserve" width="800.631mm" height="189.429mm" version="1.1" style="shape-rendering:geometricPrecision; text-rendering:geometricPrecision; image-rendering:optimizeQuality; fill-rule:evenodd; clip-rule:evenodd"
viewBox="0 0 72427.93 17136.46"
 xmlns:xlink="http://www.w3.org/1999/xlink"
 xmlns:xodm="http://www.corel.com/coreldraw/odm/2003">
 <defs>
  <style type="text/css">
   <![CDATA[
    .str1 {stroke:#488EFE;stroke-width:90.46;stroke-miterlimit:22.9256}
    .str0 {stroke:#488EFE;stroke-width:1356.95;stroke-miterlimit:22.9256}
    .fil1 {fill:#FEFEFE}
    .fil2 {fill:#FEFEFE}
    .fil0 {fill:#FEFEFE;fill-rule:nonzero}
   ]]>
  </style>
 </defs>
 <g id="Layer_x0020_1">
  <metadata id="CorelCorpID_0Corel-Layer"/>
  <g id="mardsoft">
   <g>
    <polygon class="fil0" points="22309.6,12209.54 24012.25,12209.54 24012.25,7252.15 26479.37,11746.23 28934.9,7252.15 28934.9,12209.54 30649.14,12209.54 30649.14,4252.23 28934.9,4252.23 26479.37,8746.32 24012.25,4252.23 22309.6,4252.23 "/>
    <path id="_1" class="fil0" d="M34911.58 6082.3c-833.96,0 -1656.32,231.66 -2501.87,660.21l567.56 1123.53c474.89,-243.24 996.11,-428.56 1552.07,-428.56 984.53,0 1378.35,555.97 1378.35,1193.01l0 115.83c-509.64,-196.91 -1042.45,-301.15 -1528.91,-301.15 -1389.93,0 -2490.28,810.79 -2490.28,1992.22 0,1146.69 984.52,1911.14 2258.62,1911.14 648.63,0 1332.01,-254.82 1760.57,-741.29l0 602.3 1633.16 0 0 -3579.05c0,-1563.66 -1065.61,-2548.19 -2629.27,-2548.19zm-382.23 5096.39c-579.13,0 -1007.69,-301.15 -1007.69,-787.62 0,-486.48 486.48,-845.54 1100.35,-845.54 463.31,0 903.45,81.08 1285.69,220.08l0 555.96c-115.83,555.97 -729.71,857.12 -1378.35,857.12z"/>
    <path id="_2" class="fil0" d="M40656.59 7333.23l0 -1111.93 -1691.07 0 0 5988.25 1691.07 0 0 -2860.93c0,-1123.52 799.21,-1841.65 2050.14,-1841.65l0 -1424.67c-915.03,0 -1656.32,474.89 -2050.14,1250.93z"/>
    <path id="_3" class="fil0" d="M48150.59 4113.24l0 2965.17c-474.89,-625.46 -1169.85,-996.11 -2015.38,-996.11 -1598.42,0 -2756.69,1297.26 -2756.69,3127.33 0,1841.65 1158.27,3138.9 2756.69,3138.9 845.54,0 1540.49,-370.64 2015.38,-996.11l0 857.12 1691.08 0 0 -8096.3 -1691.08 0zm-1528.91 6810.64c-938.2,0 -1598.41,-706.55 -1598.41,-1714.24 0,-996.11 660.21,-1702.66 1598.41,-1702.66 891.87,0 1528.91,706.55 1528.91,1702.66 0,1007.69 -637.04,1714.24 -1528.91,1714.24z"/>
    <path id="_4" class="fil0" d="M53571.3 12348.53c1471,0 2432.36,-752.87 2432.36,-1934.31 0,-1308.84 -1146.69,-1656.32 -2177.55,-1922.72 -810.79,-220.07 -1054.03,-312.73 -1054.03,-637.05 0,-208.49 289.57,-359.06 706.55,-359.06 509.64,0 1135.1,196.9 1679.49,532.8l683.38 -1204.6c-660.21,-440.14 -1505.75,-741.29 -2362.87,-741.29 -1413.09,0 -2351.29,810.79 -2339.7,1945.9 11.58,1181.44 961.36,1517.33 2189.13,1818.48 613.89,162.16 1054.03,277.99 1054.03,648.63 0,266.41 -324.31,451.72 -776.04,451.72 -799.21,0 -1471,-289.56 -2003.8,-671.79l-729.71 1169.85c718.13,579.14 1737.41,903.45 2698.77,903.45z"/>
    <path id="_5" class="fil0" d="M60080.76 12348.53c1772.15,0 3254.74,-1436.25 3254.74,-3138.9 0,-1702.66 -1482.59,-3127.33 -3254.74,-3127.33 -1783.73,0 -3277.9,1424.67 -3277.9,3127.33 0,1702.65 1494.17,3138.9 3277.9,3138.9zm0 -1424.66c-903.45,0 -1656.32,-787.63 -1656.32,-1714.24 0,-926.62 752.87,-1702.66 1656.32,-1702.66 891.87,0 1644.74,776.04 1644.74,1702.66 0,926.61 -752.87,1714.24 -1644.74,1714.24z"/>
    <path id="_6" class="fil0" d="M66486 5896.97c0,-393.81 254.82,-671.79 567.55,-671.79 231.66,0 463.31,81.07 579.14,196.9l405.39 -1030.86c-347.48,-312.73 -891.87,-521.22 -1378.34,-521.22 -1054.03,0 -1795.32,752.87 -1795.32,1830.07l0 521.22 -822.37 0 0 1366.76 822.37 0 0 4621.49 1621.58 0 0 -4621.49 1297.26 0 0 -1366.76 -1297.26 0 0 -324.32z"/>
    <path id="_7" class="fil0" d="M72022.53 10726.96c-115.83,115.83 -347.48,196.91 -579.14,196.91 -312.73,0 -567.55,-277.99 -567.55,-671.8l0 -2664.01 1297.26 0 0 -1366.76 -1297.26 0 0 -1644.74 -1621.58 0 0 1644.74 -822.37 0 0 1366.76 822.37 0 0 2930.42c0,1077.19 741.29,1830.06 1795.32,1830.06 486.47,0 1030.86,-208.48 1378.34,-521.21l-405.39 -1100.36z"/>
    <g>
     <path class="fil1 str0" d="M5759.32 7250.89c26.82,18.56 54.3,35.46 82.34,50.89 796.69,333.1 2738.95,-1066.89 4925.07,-2493.9 -1171.76,-55.78 -2873.39,-1474.86 -3686.23,-2223.58 0.07,-0.14 -0.35,-0.71 -0.98,-1.47l-0.14 -0.11c-68.32,-55.44 -134.54,-105.87 -198.8,-151.71 -2.54,-1.82 -4.98,-3.39 -7.53,-5.19 -61.8,-43.82 -121.76,-83.37 -179.86,-118.57 -3.89,-2.35 -7.64,-4.4 -11.52,-6.71 -56.33,-33.72 -111,-63.6 -163.88,-89.41 -4.81,-2.34 -9.47,-4.35 -14.26,-6.64 -51.47,-24.57 -101.4,-45.63 -149.63,-62.86 -5.24,-1.87 -10.34,-3.44 -15.53,-5.23 -47.17,-16.21 -92.86,-29.1 -136.93,-38.45 -5.36,-1.13 -10.59,-2.02 -15.9,-3.06 -43.25,-8.43 -85.06,-13.7 -125.34,-15.64 -5.24,-0.25 -10.39,-0.33 -15.58,-0.47 -39.62,-1.1 -77.81,0.83 -114.54,5.9 -4.99,0.69 -9.94,1.47 -14.88,2.27 -36.23,5.86 -71.05,14.71 -104.47,26.46 -4.56,1.6 -9.12,3.24 -13.63,4.95 -33.1,12.57 -64.78,28.05 -95.1,46.3 -4.03,2.42 -8.1,4.8 -12.08,7.33 -30.11,19.08 -58.79,41.04 -86.15,65.61 -3.46,3.09 -6.97,6.09 -10.37,9.27 -27.25,25.47 -53.04,53.77 -77.55,84.57 -2.84,3.56 -5.77,6.97 -8.57,10.61 -24.53,31.84 -47.58,66.52 -69.36,103.6 -2.15,3.66 -4.41,7.14 -6.54,10.86 -21.91,38.31 -42.34,79.41 -61.43,122.9 -1.48,3.37 -3.07,6.56 -4.53,9.96 -19.33,44.91 -37.14,92.56 -53.6,142.62 -0.88,2.67 -1.85,5.18 -2.71,7.87 -16.8,51.9 -32.1,106.44 -45.9,163.52 -0.28,1.16 -0.61,2.23 -0.88,3.39 -13.91,57.87 -26.27,118.38 -37.18,181.26 -0.5,2.89 -0.92,5.93 -1.41,8.82 -10.36,60.69 -19.39,123.56 -27.04,188.61 -0.6,5.08 -1.07,10.34 -1.65,15.44 -7.21,63.38 -13.23,128.63 -17.96,195.84 -0.5,7.15 -0.86,14.49 -1.34,21.68 -4.34,65.88 -7.6,133.41 -9.63,202.68 -0.26,8.99 -0.4,18.17 -0.62,27.2 -1.7,68.39 -2.38,138.26 -1.91,209.68 0.07,10.44 0.24,21.03 0.35,31.54 0.77,70.79 2.54,142.91 5.37,216.42 0.45,11.84 1,23.8 1.5,35.71 3.12,73.13 7.21,147.49 12.29,223.06 0.87,12.95 1.81,25.98 2.73,39.01 5.38,75.43 11.72,151.97 18.99,229.58l3.88 40.77c7.61,78.13 16.18,157.32 25.64,237.4 1.6,13.61 3.2,27.2 4.86,40.86 9.76,80.37 20.48,161.71 32.03,243.83 2.01,14.3 3.99,28.57 6.05,42.92 11.91,82.75 24.79,166.37 38.46,250.65 2.22,13.67 4.37,27.29 6.63,41 14.13,85.59 29.23,171.95 45.11,258.88 2.38,13.04 4.69,26.04 7.11,39.12 16.33,88.13 33.64,176.93 51.71,266.19 2.44,12.07 4.79,24.09 7.26,36.18 18.7,91.35 38.39,183.28 58.86,275.57 2.22,10.01 4.33,19.97 6.57,29.99 21.32,95.38 43.64,191.2 66.78,287.32l6.13 25.59c23.86,98.49 48.64,197.27 74.35,296.26l0.24 0.91c49.69,54.59 91.21,94.71 112.81,104.15z"/>
     <path class="fil1 str0" d="M10385.85 12668.68c253.88,-252.46 532.31,-525.11 808.4,-784.71 -1140.36,-950.26 -2266.38,-1786.84 -3384.31,-1327.37 -88.45,65.15 -177.47,138.41 -266.11,222.95 -105.88,100.99 -211.05,202.48 -315.33,304.3l-18.73 18.26c935.11,1595.13 2077.11,2489.59 3176.07,1566.57z"/>
     <path class="fil1 str0" d="M12924.41 9809.04c411.43,-827.07 736.24,-1666.32 983.36,-2534.05 2983.82,-1317.67 5223.92,-2940.94 5020.47,-419.39 6.77,-31.56 13.56,-63.54 20.36,-95.7 -217.31,1286.87 -615.73,2563.41 -1102.2,3770.67 -2.53,6.3 -5.16,12.58 -7.81,18.86 -1526.97,1780.4 -2965.12,140.73 -4914.19,-740.4zm4909.67 750.93c-3.26,7.51 -6.6,15.02 -10.02,22.5 3.35,-7.72 6.68,-14.75 10.02,-22.5z"/>
     <path class="fil2 str1" d="M7079.63 2582.91c-4427.47,-3593.08 -280.75,13271.28 3351.95,10049.19 -1201.81,1253.86 -2531.96,3311.3 -4182.26,3311.3 -4555.3,0 -8310.57,-12257.68 -4860.39,-15228.73 1907.48,-1642.58 4053.15,29.07 5690.7,1868.23z"/>
     <path class="fil2 str1" d="M17199.45 2160.68c-3615.09,-527.32 -10043.9,6103.84 -11460.9,5085.49 5589.31,4456 13565.88,-5053.01 13189.7,-390.57 366,-1707.92 818.06,-4323.43 -1728.79,-4694.92z"/>
     <path class="fil2 str1" d="M7809.81 10556.65c5074.85,-3897.97 7422.08,3033.03 10029.15,-7.6 -3510.49,8145.5 -6803.47,-1318.45 -10029.15,7.6z"/>
    </g>
   </g>
  </g>
 </g>
</svg>
