<?xml version="1.0" encoding="UTF-8"?>
<!DOCTYPE svg PUBLIC "-//W3C//DTD SVG 1.1//EN" "http://www.w3.org/Graphics/SVG/1.1/DTD/svg11.dtd">
<!-- Creator: CorelDRAW -->
<svg xmlns="http://www.w3.org/2000/svg" xml:space="preserve" width="800.216mm" height="175.911mm" version="1.1" style="shape-rendering:geometricPrecision; text-rendering:geometricPrecision; image-rendering:optimizeQuality; fill-rule:evenodd; clip-rule:evenodd"
viewBox="0 0 82690.41 18177.74"
 xmlns:xlink="http://www.w3.org/1999/xlink"
 xmlns:xodm="http://www.corel.com/coreldraw/odm/2003">
 <defs>
  <style type="text/css">
   <![CDATA[
    .str0 {stroke:#488EFE;stroke-width:17.49;stroke-miterlimit:22.9256}
    .str1 {stroke:#488EFE;stroke-width:17.49;stroke-miterlimit:22.9256}
    .fil4 {fill:#488EFE}
    .fil5 {fill:#488EFE}
    .fil0 {fill:#FEFEFE;fill-rule:nonzero}
    .fil2 {fill:url(#id0)}
    .fil3 {fill:url(#id1)}
    .fil1 {fill:url(#id2)}
   ]]>
  </style>
  <linearGradient id="id0" gradientUnits="userSpaceOnUse" x1="11505.03" y1="7385.82" x2="6226.83" y2="3257.41">
   <stop offset="0" style="stop-opacity:1; stop-color:#488EFE"/>
   <stop offset="1" style="stop-opacity:1; stop-color:#191250"/>
  </linearGradient>
  <linearGradient id="id1" gradientUnits="userSpaceOnUse" xlink:href="#id0" x1="14458.1" y1="9734.91" x2="21803.84" y2="9734.91">
  </linearGradient>
  <linearGradient id="id2" gradientUnits="userSpaceOnUse" xlink:href="#id0" x1="8746.73" y1="15828.79" x2="11751.98" y2="11703.8">
  </linearGradient>
 </defs>
 <g id="Layer_x0020_1">
  <metadata id="CorelCorpID_0Corel-Layer"/>
  <g id="mardsoft">
   <polygon class="fil0" points="25441.01,13903.86 27385.92,13903.86 27385.92,8241.11 30204.07,13374.63 33008.98,8241.11 33008.98,13903.86 34967.13,13903.86 34967.13,4814.34 33008.98,4814.34 30204.07,9947.87 27385.92,4814.34 25441.01,4814.34 "/>
   <path id="_1" class="fil0" d="M39836.06 6904.8c-952.62,0 -1891.99,264.62 -2857.85,754.15l648.31 1283.39c542.46,-277.85 1137.84,-489.54 1772.91,-489.54 1124.62,0 1574.47,635.08 1574.47,1362.76l0 132.31c-582.16,-224.93 -1190.77,-344 -1746.46,-344 -1587.69,0 -2844.61,926.15 -2844.61,2275.69 0,1309.84 1124.61,2183.07 2579.99,2183.07 740.92,0 1521.54,-291.07 2011.08,-846.76l0 687.99 1865.53 0 0 -4088.3c0,-1786.15 -1217.23,-2910.76 -3003.37,-2910.76zm-436.62 5821.53c-661.53,0 -1151.07,-344 -1151.07,-899.69 0,-555.69 555.69,-965.85 1256.92,-965.85 529.23,0 1032,92.62 1468.62,251.39l0 635.07c-132.31,635.08 -833.54,979.08 -1574.47,979.08z"/>
   <path id="_2" class="fil0" d="M46398.5 8333.72l0 -1270.14 -1931.68 0 0 6840.29 1931.68 0 0 -3267.99c0,-1283.38 912.92,-2103.69 2341.84,-2103.69l0 -1627.38c-1045.22,0 -1891.99,542.46 -2341.84,1428.92z"/>
   <path id="_3" class="fil0" d="M54958.78 4655.58l0 3387.07c-542.46,-714.46 -1336.3,-1137.84 -2302.14,-1137.84 -1825.85,0 -3148.92,1481.85 -3148.92,3572.3 0,2103.69 1323.07,3585.52 3148.92,3585.52 965.84,0 1759.68,-423.37 2302.14,-1137.84l0 979.08 1931.69 0 0 -9248.29 -1931.69 0zm-1746.46 7779.68c-1071.69,0 -1825.84,-807.08 -1825.84,-1958.15 0,-1137.84 754.15,-1944.92 1825.84,-1944.92 1018.77,0 1746.46,807.08 1746.46,1944.92 0,1151.07 -727.69,1958.15 -1746.46,1958.15z"/>
   <path id="_4" class="fil0" d="M61150.77 14062.63c1680.3,0 2778.45,-860 2778.45,-2209.53 0,-1495.07 -1309.84,-1891.99 -2487.38,-2196.29 -926.15,-251.38 -1204,-357.23 -1204,-727.7 0,-238.16 330.78,-410.15 807.08,-410.15 582.15,0 1296.61,224.92 1918.46,608.61l780.61 -1376c-754.15,-502.77 -1719.99,-846.77 -2699.07,-846.77 -1614.15,0 -2685.84,926.15 -2672.61,2222.77 13.23,1349.54 1098.15,1733.22 2500.61,2077.22 701.23,185.23 1204,317.54 1204,740.92 0,304.31 -370.46,515.99 -886.46,515.99 -912.92,0 -1680.3,-330.77 -2288.91,-767.38l-833.54 1336.3c820.31,661.54 1984.61,1032 3082.77,1032z"/>
   <path id="_5" class="fil0" d="M68586.44 14062.63c2024.3,0 3717.84,-1640.61 3717.84,-3585.52 0,-1944.92 -1693.54,-3572.3 -3717.84,-3572.3 -2037.53,0 -3744.3,1627.38 -3744.3,3572.3 0,1944.91 1706.77,3585.52 3744.3,3585.52zm0 -1627.37c-1032,0 -1891.99,-899.7 -1891.99,-1958.15 0,-1058.46 860,-1944.92 1891.99,-1944.92 1018.77,0 1878.77,886.46 1878.77,1944.92 0,1058.45 -860,1958.15 -1878.77,1958.15z"/>
   <path id="_6" class="fil0" d="M75903.04 6693.11c0,-449.84 291.07,-767.38 648.3,-767.38 264.62,0 529.23,92.61 661.54,224.92l463.08 -1177.53c-396.92,-357.23 -1018.77,-595.39 -1574.45,-595.39 -1204,0 -2050.77,860 -2050.77,2090.46l0 595.39 -939.38 0 0 1561.23 939.38 0 0 5279.06 1852.3 0 0 -5279.06 1481.85 0 0 -1561.23 -1481.85 0 0 -370.47z"/>
   <path id="_7" class="fil0" d="M82227.34 12210.32c-132.31,132.31 -396.92,224.93 -661.54,224.93 -357.23,0 -648.3,-317.54 -648.3,-767.39l0 -3043.06 1481.85 0 0 -1561.23 -1481.85 0 0 -1878.77 -1852.3 0 0 1878.77 -939.38 0 0 1561.23 939.38 0 0 3347.38c0,1230.45 846.77,2090.45 2050.77,2090.45 555.68,0 1177.53,-238.15 1574.45,-595.38l-463.08 -1256.93z"/>
   <g>
    <path class="fil1" d="M10776.78 15424.84c165.75,-175.3 810.16,-773.95 980.12,-933.01 470.27,-468.76 1022.75,-1007.65 1520.27,-1447.19l-3173.12 -1797.45c-396.01,347.88 -969.88,489.2 -1529.75,1023.21 -120.94,115.36 -241.08,231.28 -360.2,347.6 -213.27,208.26 -364.56,347.03 -430.74,410.03 -49.33,52.93 -125.45,108.99 -240.41,228.86l3233.83 2167.95z"/>
    <path class="fil2" d="M6535.87 8239.66c1007.61,697.56 2800.07,-587.58 3528.61,-1279.88 452.36,-429.86 1836.47,-1054.77 2285.83,-1508.57 -1339.89,11.97 -3354.71,-1666.55 -4305.28,-2542.13 5.72,-11.44 -2115.08,-1934.28 -2600.37,611.93 -191.43,1004.22 69.18,2522.27 559.32,4089.07 -14.82,2.1 434.76,587.1 531.88,629.57z"/>
    <path class="fil3" d="M19651.92 13118.79c-2327.65,1553.33 -3919.92,532.59 -5193.82,-1450.09 1036.2,-1926.53 1649.41,-3897.44 1927.44,-6072.81l5418.3 0c-42.76,2158.33 -643.03,4359.97 -1461.08,6390.11 -157.17,390.07 -519.99,756.9 -690.85,1132.79z"/>
    <path class="fil4 str0" d="M8044.04 2907.5c-5057.43,-4104.32 -320.7,15159.58 3828.89,11479.04 -1372.81,1432.27 -2892.22,3782.45 -4777.34,3782.45 -5203.45,0 -9493.03,-14001.76 -5551.95,-17395.55 2178.88,-1876.3 4629.85,33.2 6500.4,2134.06z"/>
    <path class="fil4 str0" d="M19603.75 2425.2c-4129.47,-602.35 -11473,6972.32 -13091.62,5809.08 6384.58,5090.02 15496.1,-5771.98 15066.39,-446.14 418.07,-1950.94 934.46,-4938.59 -1974.78,-5362.94z"/>
    <path class="fil5 str1" d="M8878.11 12015.79c5796.92,-4452.6 8478.13,3464.59 11456.14,-8.68 -4009.98,9304.48 -7771.5,-1506.05 -11456.14,8.68z"/>
   </g>
  </g>
 </g>
</svg>
