<svg fill="currentColor" height="100px" width="100px" version="1.1" id="Icons" xmlns="http://www.w3.org/2000/svg" xmlns:xlink="http://www.w3.org/1999/xlink" viewBox="0 0 4 4" xml:space="preserve">
  <path d="M1.875 0.25H0.625C0.412 0.25 0.25 0.412 0.25 0.625v2.5c0 0.212 0.163 0.375 0.375 0.375h0.25c0.075 0 0.125 -0.05 0.125 -0.125s-0.05 -0.125 -0.125 -0.125H0.625c-0.075 0 -0.125 -0.05 -0.125 -0.125V0.625c0 -0.075 0.05 -0.125 0.125 -0.125h0.125v0.037C0.75 0.725 0.9 0.875 1.087 0.875h0.325C1.6 0.875 1.75 0.725 1.75 0.537V0.5h0.125c0.075 0 0.125 0.05 0.125 0.125v1.125c0 0.075 0.05 0.125 0.125 0.125s0.125 -0.05 0.125 -0.125V0.625c0 -0.212 -0.163 -0.375 -0.375 -0.375"/>
  <g>
    <path d="M3.875 2.125v-0.125c0 -0.212 -0.163 -0.375 -0.375 -0.375H1.125c-0.212 0 -0.375 0.163 -0.375 0.375v0.125z"/>
    <path d="M0.75 2.375v1c0 0.212 0.163 0.375 0.375 0.375h2.375c0.212 0 0.375 -0.163 0.375 -0.375v-1zm2.35 0.875c-0.063 0 -0.125 -0.025 -0.175 -0.075 -0.05 0.05 -0.113 0.075 -0.175 0.075 -0.138 0 -0.25 -0.113 -0.25 -0.25s0.113 -0.25 0.25 -0.25c0.063 0 0.125 0.025 0.175 0.075 0.05 -0.05 0.113 -0.075 0.175 -0.075 0.138 0 0.25 0.113 0.25 0.25s-0.113 0.25 -0.25 0.25"/>
  </g>
</svg>
