<svg width="50px" height="50px" viewBox="0 0 1.5 1.5" id="meteor-icon-kit__solid-whatsapp" fill="none" xmlns="http://www.w3.org/2000/svg"><path fill-rule="evenodd" clip-rule="evenodd" d="M1.282 0.218A0.738 0.738 0 0 0 0.756 0C0.347 0 0.013 0.333 0.013 0.743a0.741 0.741 0 0 0 0.099 0.371L0.007 1.5l0.394 -0.103a0.744 0.744 0 0 0 0.355 0.09h0c0.41 0 0.743 -0.333 0.743 -0.743a0.739 0.739 0 0 0 -0.217 -0.526m-0.187 0.681c-0.019 -0.009 -0.11 -0.054 -0.127 -0.061s-0.029 -0.009 -0.042 0.009c-0.012 0.019 -0.048 0.06 -0.059 0.073 -0.011 0.012 -0.022 0.014 -0.04 0.005s-0.078 -0.029 -0.149 -0.092c-0.055 -0.049 -0.093 -0.11 -0.103 -0.129s-0.001 -0.029 0.008 -0.038c0.008 -0.008 0.019 -0.022 0.028 -0.033s0.012 -0.019 0.019 -0.031c0.006 -0.012 0.003 -0.023 -0.002 -0.033s-0.042 -0.101 -0.057 -0.138c-0.015 -0.036 -0.03 -0.031 -0.042 -0.032 -0.011 -0.001 -0.023 -0.001 -0.036 -0.001a0.069 0.069 0 0 0 -0.05 0.023c-0.017 0.019 -0.065 0.064 -0.065 0.155s0.067 0.18 0.076 0.192c0.009 0.012 0.131 0.2 0.317 0.28q0.052 0.022 0.106 0.039c0.044 0.014 0.085 0.012 0.117 0.007 0.036 -0.005 0.11 -0.045 0.125 -0.088 0.015 -0.043 0.015 -0.081 0.011 -0.088 -0.005 -0.008 -0.017 -0.012 -0.035 -0.021z" fill="#758CA3"/></svg>