<?xml version="1.0" encoding="UTF-8"?>
<!DOCTYPE svg PUBLIC "-//W3C//DTD SVG 1.1//EN" "http://www.w3.org/Graphics/SVG/1.1/DTD/svg11.dtd">
<!-- Creator: CorelDRAW -->
<svg xmlns="http://www.w3.org/2000/svg" xml:space="preserve" width="210mm" height="297mm" version="1.1" style="shape-rendering:geometricPrecision; text-rendering:geometricPrecision; image-rendering:optimizeQuality; fill-rule:evenodd; clip-rule:evenodd"
viewBox="0 0 21000 29700"
 xmlns:xlink="http://www.w3.org/1999/xlink"
 xmlns:xodm="http://www.corel.com/coreldraw/odm/2003">
 <defs>
  <style type="text/css">
   <![CDATA[
    .str0 {stroke:#BFC8D0;stroke-width:10;stroke-miterlimit:22.9256}
    .str1 {stroke:#A1A1A1;stroke-width:7.62;stroke-miterlimit:22.9256}
    .fil7 {fill:none;fill-rule:nonzero}
    .fil5 {fill:#FEFEFE}
    .fil0 {fill:#BFC8D0}
    .fil4 {fill:#BFC8D0}
    .fil2 {fill:white}
    .fil6 {fill:#332C2B;fill-rule:nonzero}
    .fil3 {fill:white;fill-rule:nonzero}
    .fil1 {fill:url(#id0);fill-rule:nonzero}
   ]]>
  </style>
  <linearGradient id="id0" gradientUnits="userSpaceOnUse" x1="10913.41" y1="14477.93" x2="10003.91" y2="15346.09">
   <stop offset="0" style="stop-opacity:1; stop-color:#5BD066"/>
   <stop offset="1" style="stop-opacity:1; stop-color:#27B43E"/>
  </linearGradient>
 </defs>
 <g id="Layer_x0020_1">
  <metadata id="CorelCorpID_0Corel-Layer"/>
  <g id="_2760710284016">
   <path class="fil0" d="M10500 15470.12c319.65,0 578.78,-259.13 578.78,-578.78 0,-319.65 -259.13,-578.77 -578.78,-578.77 -319.65,0 -578.78,259.12 -578.78,578.77 0,103.8 27.33,201.23 75.18,285.46l-75.18 293.32 302.41 -70.13c82.12,44.72 176.28,70.13 276.37,70.13zm0 -89.04c270.47,0 489.74,-219.26 489.74,-489.74 0,-270.47 -219.27,-489.73 -489.74,-489.73 -270.47,0 -489.73,219.26 -489.73,489.73 0,104.43 32.68,201.23 88.38,280.72l-43.86 164.49 167.39 -41.85c78.94,54.48 174.66,86.38 277.82,86.38z"/>
   <path class="fil1" d="M10996.09 14850c0,273.98 -222.11,496.09 -496.09,496.09 -104.5,0 -201.46,-32.31 -281.42,-87.49l-169.57 42.39 44.43 -166.63c-56.42,-80.52 -89.53,-178.57 -89.53,-284.36 0,-273.99 222.1,-496.09 496.09,-496.09 273.98,0 496.09,222.1 496.09,496.09z"/>
   <path class="fil2" d="M10500 15428.78c319.65,0 578.78,-259.13 578.78,-578.78 0,-319.65 -259.13,-578.78 -578.78,-578.78 -319.65,0 -578.78,259.13 -578.78,578.78 0,103.8 27.33,201.22 75.18,285.46l-75.18 293.32 302.41 -70.13c82.12,44.72 176.28,70.13 276.37,70.13zm0 -89.04c270.47,0 489.74,-219.27 489.74,-489.74 0,-270.47 -219.27,-489.73 -489.74,-489.73 -270.47,0 -489.73,219.26 -489.73,489.73 0,104.43 32.68,201.23 88.38,280.71l-43.86 164.5 167.39 -41.85c78.94,54.48 174.66,86.38 277.82,86.38z"/>
   <path class="fil3" d="M10355.31 14581.28c-13.76,-27.64 -34.88,-25.19 -56.2,-25.19 -38.11,0 -97.54,45.65 -97.54,130.61 0,69.63 30.68,145.85 134.07,259.88 99.79,110.04 230.89,166.96 339.74,165.02 108.84,-1.93 131.23,-95.6 131.23,-127.23 0,-14.02 -8.7,-21.01 -14.69,-22.91 -37.09,-17.81 -105.5,-50.97 -121.07,-57.2 -15.56,-6.23 -23.69,2.2 -28.74,6.78 -14.11,13.45 -42.09,53.09 -51.68,62.01 -9.57,8.92 -23.86,4.4 -29.8,1.04 -21.88,-8.78 -81.18,-35.16 -128.45,-80.99 -58.46,-56.67 -61.9,-76.17 -72.91,-93.52 -8.81,-13.89 -2.34,-22.41 0.88,-26.13 12.6,-14.53 29.99,-36.97 37.79,-48.12 7.8,-11.16 1.61,-28.09 -2.11,-38.63 -15.98,-45.35 -29.51,-83.31 -40.52,-105.42z"/>
  </g>
  <g id="_2760710284496">
   <path class="fil4 str0" d="M9628.44 14870.67c0.37,6.62 0.58,13.28 0.58,19.99l0 0.02c0,194.59 -159.21,353.8 -353.8,353.8l-2476.7 0c-194.59,0 -353.8,-159.21 -353.8,-353.8l0 -0.02c0,-6.71 0.21,-13.37 0.58,-19.99 10.46,185.39 165.34,333.81 353.22,333.81l2476.7 0c187.88,0 342.76,-148.42 353.22,-333.81z"/>
   <path class="fil5 str0" d="M6798.52 14496.86l2476.7 0c194.59,0 353.8,159.21 353.8,353.8l0 0.02c0,194.59 -159.21,353.8 -353.8,353.8l-2476.7 0c-194.59,0 -353.8,-159.21 -353.8,-353.8l0 -0.02c0,-194.59 159.21,-353.8 353.8,-353.8z"/>
   <path class="fil6" d="M6857.23 14846.83c0,-19.64 3.54,-38.89 10.64,-57.77 7.1,-18.88 17.45,-36.09 31.04,-51.65 13.59,-15.56 30.2,-27.94 49.84,-37.15 19.63,-9.22 41.98,-13.82 67.05,-13.82 29.6,0 55.2,6.49 76.8,19.48 21.6,12.99 37.68,29.9 48.25,50.75l-48.02 33.07c-5.44,-12.08 -12.54,-21.67 -21.3,-28.77 -8.76,-7.1 -18.12,-12.08 -28.09,-14.95 -9.97,-2.87 -19.78,-4.31 -29.45,-4.31 -15.71,0 -29.37,3.18 -41,9.52 -11.63,6.34 -21.37,14.65 -29.23,24.92 -7.85,10.27 -13.66,21.75 -17.44,34.43 -3.78,12.69 -5.66,25.37 -5.66,38.06 0,14.2 2.26,27.86 6.79,41 4.53,13.14 10.95,24.77 19.26,34.89 8.31,10.12 18.27,18.12 29.9,24.01 11.63,5.89 24.39,8.84 38.29,8.84 9.97,0 20.08,-1.66 30.35,-4.98 10.27,-3.33 19.79,-8.61 28.55,-15.86 8.76,-7.25 15.55,-16.61 20.39,-28.09l51.19 29.45c-6.34,16.01 -16.68,29.6 -31.03,40.77 -14.35,11.18 -30.43,19.64 -48.25,25.38 -17.83,5.74 -35.5,8.61 -53.02,8.61 -22.95,0 -43.94,-4.76 -62.97,-14.28 -19.03,-9.51 -35.42,-22.2 -49.16,-38.06 -13.75,-15.85 -24.47,-33.67 -32.17,-53.46 -7.7,-19.78 -11.55,-39.79 -11.55,-60.03z"/>
   <path id="_1" class="fil6" d="M7289.92 15014.92c-19.03,0 -36.25,-3.25 -51.65,-9.66 -15.41,-6.42 -28.47,-15.26 -39.19,-26.66 -10.73,-11.33 -18.88,-24.24 -24.47,-38.74 -5.59,-14.5 -8.38,-29.9 -8.38,-46.36 0,-16.47 2.79,-31.95 8.38,-46.6 5.59,-14.65 13.74,-27.63 24.47,-38.96 10.72,-11.4 23.78,-20.24 39.19,-26.66 15.4,-6.42 32.62,-9.66 51.65,-9.66 19.63,0 37.08,3.24 52.33,9.66 15.25,6.42 28.32,15.26 39.19,26.66 10.88,11.33 19.11,24.31 24.7,38.96 5.58,14.65 8.38,30.13 8.38,46.6 0,16.46 -2.8,31.86 -8.38,46.36 -5.59,14.5 -13.75,27.41 -24.47,38.74 -10.72,11.4 -23.79,20.24 -39.19,26.66 -15.41,6.41 -32.93,9.66 -52.56,9.66zm-62.07 -120.97c0.3,13.29 3.17,25.22 8.61,35.79 5.43,10.5 12.83,18.73 22.2,24.62 9.36,5.96 19.78,9.06 31.26,9.36 11.78,-0.3 22.35,-3.47 31.72,-9.59 9.36,-6.04 16.84,-14.34 22.42,-24.84 5.59,-10.57 8.54,-22.58 8.84,-36.25 -0.3,-13.29 -3.25,-25.29 -8.84,-36.02 -5.58,-10.64 -12.99,-19.03 -22.2,-25.07 -9.21,-6.11 -19.71,-8.98 -31.49,-8.68 -11.78,0 -22.35,2.94 -31.71,8.91 -9.37,5.89 -16.77,14.2 -22.2,24.84 -5.44,10.73 -8.31,22.96 -8.61,36.93z"/>
   <path id="_2" class="fil6" d="M7675.95 15010.39l-60.71 0 0 -131.32c0,-18.72 -3.33,-32.39 -9.97,-41.08 -6.65,-8.61 -15.86,-12.91 -27.64,-12.91 -8.16,0 -16.39,2.04 -24.69,6.19 -8.31,4.16 -15.79,9.82 -22.43,17.07 -6.65,7.17 -11.48,15.55 -14.5,24.99l0 137.06 -60.71 0 0 -235.15 54.82 0 0 43.87c6.04,-10.19 13.74,-18.72 23.11,-25.75 9.36,-7.02 20.16,-12.38 32.39,-16.16 12.24,-3.7 25.15,-5.58 38.74,-5.58 14.8,0 26.96,2.64 36.47,7.85 9.52,5.21 16.77,12.23 21.75,21.07 4.99,8.76 8.46,18.73 10.42,29.75 1.97,11.03 2.95,22.28 2.95,33.6l0 146.5z"/>
   <path id="_3" class="fil6" d="M7869.86 14998.61c-5.13,2.11 -11.32,4.53 -18.57,7.25 -7.25,2.72 -15.03,4.91 -23.33,6.57 -8.31,1.66 -16.69,2.49 -25.15,2.49 -11.18,0 -21.45,-1.96 -30.81,-5.81 -9.36,-3.93 -16.84,-10.12 -22.43,-18.66 -5.59,-8.53 -8.38,-19.7 -8.38,-33.45l0 -135.09 -31.26 0 0 -46.67 31.26 0 0 -77.02 60.71 0 0 77.02 49.84 0 0 46.67 -49.84 0 0 114.48c0.31,8.08 2.57,13.89 6.8,17.44 4.23,3.55 9.51,5.36 15.86,5.36 6.34,0 12.53,-1.06 18.57,-3.17 6.04,-2.11 10.88,-3.93 14.5,-5.44l12.23 48.03z"/>
   <path id="_4" class="fil6" d="M7885.27 14941.07c0,-15.25 4.3,-28.62 12.91,-40.1 8.61,-11.48 20.61,-20.31 36.02,-26.66 15.4,-6.19 33.07,-9.36 53.01,-9.36 9.97,0 20.09,0.76 30.36,2.27 10.27,1.51 19.18,3.92 26.73,7.25l0 -12.61c0,-14.88 -4.46,-26.28 -13.37,-34.29 -8.91,-8 -22.12,-12 -39.64,-12 -12.99,0 -25.37,2.26 -37.15,6.79 -11.78,4.53 -24.17,11.18 -37.16,19.94l-19.48 -39.87c15.71,-10.27 31.79,-17.98 48.25,-23.11 16.47,-5.14 33.76,-7.7 51.88,-7.7 33.83,0 60.18,8.3 79.06,24.99 18.88,16.69 28.32,40.55 28.32,71.51l0 74.53c0,6.27 1.13,10.73 3.4,13.45 2.26,2.64 5.96,4.3 11.1,4.9l0 49.39c-5.44,0.91 -10.35,1.66 -14.73,2.27 -4.38,0.6 -8.08,0.9 -11.1,0.9 -12.08,0 -21.22,-2.72 -27.41,-8.15 -6.19,-5.44 -10.04,-12.09 -11.55,-19.94l-1.36 -12.23c-10.27,13.29 -23.11,23.56 -38.51,30.81 -15.41,7.25 -31.11,10.87 -47.12,10.87 -15.71,0 -29.83,-3.17 -42.37,-9.59 -12.53,-6.42 -22.35,-15.25 -29.45,-26.43 -7.09,-11.18 -10.64,-23.79 -10.64,-37.83zm147.7 11.78c3.32,-3.55 6.04,-7.1 8.16,-10.57 2.11,-3.55 3.17,-6.8 3.17,-9.74l0 -23.41c-7.25,-2.95 -15.1,-5.21 -23.56,-6.88 -8.46,-1.58 -16.46,-2.41 -24.02,-2.41 -15.7,0 -28.61,3.32 -38.73,9.97 -10.12,6.57 -15.18,15.33 -15.18,26.27 0,5.89 1.66,11.48 4.98,16.77 3.32,5.28 8.16,9.59 14.5,12.84 6.34,3.24 13.9,4.83 22.65,4.83 9.07,0 17.98,-1.66 26.74,-5.06 8.76,-3.4 15.85,-7.63 21.29,-12.61z"/>
   <path id="_5" class="fil6" d="M8272.2 15014.92c-19.33,0 -36.7,-3.25 -52.1,-9.66 -15.41,-6.42 -28.55,-15.33 -39.42,-26.89 -10.88,-11.48 -19.26,-24.54 -25.15,-39.19 -5.89,-14.65 -8.83,-29.98 -8.83,-46.14 0,-22.12 5.06,-42.36 15.17,-60.71 10.12,-18.35 24.55,-33.08 43.27,-44.1 18.73,-11.1 40.93,-16.61 66.61,-16.61 25.67,0 47.72,5.58 66.15,16.76 18.42,11.18 32.16,25.83 41.23,43.95l-59.36 18.12c-5.13,-8.76 -11.93,-15.48 -20.39,-20.16 -8.45,-4.68 -17.82,-7.02 -28.09,-7.02 -11.47,0 -21.97,2.87 -31.49,8.68 -9.51,5.74 -16.99,13.9 -22.42,24.39 -5.44,10.57 -8.16,22.81 -8.16,36.7 0,13.67 2.8,25.68 8.38,36.25 5.59,10.5 13.07,18.8 22.43,24.84 9.36,6.12 19.79,9.14 31.26,9.14 7.25,0 14.12,-1.21 20.62,-3.62 6.49,-2.42 12.31,-5.74 17.44,-9.97 5.14,-4.23 8.91,-9.06 11.33,-14.5l59.35 18.12c-5.43,11.78 -13.36,22.35 -23.78,31.72 -10.43,9.36 -22.66,16.69 -36.7,21.97 -14.05,5.29 -29.83,7.93 -47.35,7.93z"/>
   <path id="_6" class="fil6" d="M8559.45 14998.61c-5.13,2.11 -11.32,4.53 -18.57,7.25 -7.25,2.72 -15.03,4.91 -23.33,6.57 -8.31,1.66 -16.69,2.49 -25.15,2.49 -11.18,0 -21.45,-1.96 -30.81,-5.81 -9.36,-3.93 -16.84,-10.12 -22.43,-18.66 -5.59,-8.53 -8.38,-19.7 -8.38,-33.45l0 -135.09 -31.26 0 0 -46.67 31.26 0 0 -77.02 60.71 0 0 77.02 49.84 0 0 46.67 -49.84 0 0 114.48c0.31,8.08 2.57,13.89 6.8,17.44 4.23,3.55 9.51,5.36 15.86,5.36 6.34,0 12.53,-1.06 18.57,-3.17 6.04,-2.11 10.88,-3.93 14.5,-5.44l12.23 48.03z"/>
   <path id="_7" class="fil6" d="M8842.17 15012.66c-25.67,0 -47.49,-4.31 -65.47,-12.92 -17.97,-8.61 -32.47,-20.46 -43.49,-35.56 -11.03,-15.11 -19.11,-32.25 -24.24,-51.43 -5.14,-19.18 -7.7,-39.19 -7.7,-60.03l0 -164.02 62.52 0 0 164.02c0,13.29 1.29,26.2 3.85,38.74 2.57,12.53 6.88,23.78 12.92,33.75 6.04,9.97 14.04,17.82 24.01,23.56 9.97,5.74 22.35,8.61 37.15,8.61 15.1,0 27.72,-2.95 37.83,-8.84 10.12,-5.89 18.13,-13.81 24.02,-23.78 5.89,-9.97 10.19,-21.22 12.91,-33.76 2.72,-12.53 4.08,-25.29 4.08,-38.28l0 -164.02 62.07 0 0 164.02c0,22.05 -2.64,42.74 -7.93,62.07 -5.29,19.33 -13.59,36.32 -24.92,50.97 -11.33,14.65 -25.9,26.13 -43.72,34.44 -17.82,8.3 -39.12,12.46 -63.89,12.46z"/>
   <path id="_8" class="fil6" d="M9121.27 15014.92c-20.24,0 -39.57,-3.32 -57.99,-9.97 -18.43,-6.64 -34.28,-16.46 -47.58,-29.45l21.75 -39.42c14.2,11.48 28.17,19.94 41.91,25.38 13.75,5.43 26.96,8.15 39.65,8.15 11.78,0 21.22,-2.04 28.31,-6.11 7.1,-4.08 10.65,-10.2 10.65,-18.35 0,-5.67 -1.96,-10.05 -5.89,-13.22 -3.92,-3.09 -9.59,-5.89 -16.99,-8.23 -7.4,-2.42 -16.39,-5.06 -26.96,-8.08 -17.52,-5.66 -32.17,-11.18 -43.95,-16.54 -11.78,-5.36 -20.61,-12.15 -26.5,-20.39 -5.89,-8.15 -8.84,-18.65 -8.84,-31.48 0,-15.48 4.01,-28.85 12.01,-40.03 8.01,-11.17 19.18,-19.93 33.53,-26.2 14.35,-6.27 31.19,-9.36 50.52,-9.36 16.91,0 32.92,2.64 48.02,7.93 15.11,5.28 28.85,13.81 41.23,25.59l-24.46 38.52c-12.08,-9.37 -23.56,-16.24 -34.44,-20.62 -10.87,-4.38 -21.9,-6.57 -33.07,-6.57 -6.34,0 -12.31,0.76 -17.9,2.27 -5.59,1.43 -10.12,3.92 -13.59,7.32 -3.47,3.4 -5.21,8.23 -5.21,14.5 0,5.66 1.58,10.04 4.76,13.14 3.17,3.1 8,5.89 14.49,8.23 6.5,2.42 14.43,5.06 23.79,8.08 19.03,5.36 35.12,10.8 48.25,16.46 13.14,5.67 23.04,12.61 29.68,20.77 6.65,8.15 9.97,19.41 9.97,33.68 0,23.18 -8.61,41.3 -25.83,54.37 -17.21,13.06 -40.32,19.63 -69.32,19.63z"/>
   <path id="_9" class="fil7 str1" d="M6857.23 14846.83c0,-19.64 3.54,-38.89 10.64,-57.77 7.1,-18.88 17.45,-36.09 31.04,-51.65 13.59,-15.56 30.2,-27.94 49.84,-37.15 19.63,-9.22 41.98,-13.82 67.05,-13.82 29.6,0 55.2,6.49 76.8,19.48 21.6,12.99 37.68,29.9 48.25,50.75l-48.02 33.07c-5.44,-12.08 -12.54,-21.67 -21.3,-28.77 -8.76,-7.1 -18.12,-12.08 -28.09,-14.95 -9.97,-2.87 -19.78,-4.31 -29.45,-4.31 -15.71,0 -29.37,3.18 -41,9.52 -11.63,6.34 -21.37,14.65 -29.23,24.92 -7.85,10.27 -13.66,21.75 -17.44,34.43 -3.78,12.69 -5.66,25.37 -5.66,38.06 0,14.2 2.26,27.86 6.79,41 4.53,13.14 10.95,24.77 19.26,34.89 8.31,10.12 18.27,18.12 29.9,24.01 11.63,5.89 24.39,8.84 38.29,8.84 9.97,0 20.08,-1.66 30.35,-4.98 10.27,-3.33 19.79,-8.61 28.55,-15.86 8.76,-7.25 15.55,-16.61 20.39,-28.09l51.19 29.45c-6.34,16.01 -16.68,29.6 -31.03,40.77 -14.35,11.18 -30.43,19.64 -48.25,25.38 -17.83,5.74 -35.5,8.61 -53.02,8.61 -22.95,0 -43.94,-4.76 -62.97,-14.28 -19.03,-9.51 -35.42,-22.2 -49.16,-38.06 -13.75,-15.85 -24.47,-33.67 -32.17,-53.46 -7.7,-19.78 -11.55,-39.79 -11.55,-60.03z"/>
   <path id="_10" class="fil7 str1" d="M7289.92 15014.92c-19.03,0 -36.25,-3.25 -51.65,-9.66 -15.41,-6.42 -28.47,-15.26 -39.19,-26.66 -10.73,-11.33 -18.88,-24.24 -24.47,-38.74 -5.59,-14.5 -8.38,-29.9 -8.38,-46.36 0,-16.47 2.79,-31.95 8.38,-46.6 5.59,-14.65 13.74,-27.63 24.47,-38.96 10.72,-11.4 23.78,-20.24 39.19,-26.66 15.4,-6.42 32.62,-9.66 51.65,-9.66 19.63,0 37.08,3.24 52.33,9.66 15.25,6.42 28.32,15.26 39.19,26.66 10.88,11.33 19.11,24.31 24.7,38.96 5.58,14.65 8.38,30.13 8.38,46.6 0,16.46 -2.8,31.86 -8.38,46.36 -5.59,14.5 -13.75,27.41 -24.47,38.74 -10.72,11.4 -23.79,20.24 -39.19,26.66 -15.41,6.41 -32.93,9.66 -52.56,9.66zm-62.07 -120.97c0.3,13.29 3.17,25.22 8.61,35.79 5.43,10.5 12.83,18.73 22.2,24.62 9.36,5.96 19.78,9.06 31.26,9.36 11.78,-0.3 22.35,-3.47 31.72,-9.59 9.36,-6.04 16.84,-14.34 22.42,-24.84 5.59,-10.57 8.54,-22.58 8.84,-36.25 -0.3,-13.29 -3.25,-25.29 -8.84,-36.02 -5.58,-10.64 -12.99,-19.03 -22.2,-25.07 -9.21,-6.11 -19.71,-8.98 -31.49,-8.68 -11.78,0 -22.35,2.94 -31.71,8.91 -9.37,5.89 -16.77,14.2 -22.2,24.84 -5.44,10.73 -8.31,22.96 -8.61,36.93z"/>
   <path id="_11" class="fil7 str1" d="M7675.95 15010.39l-60.71 0 0 -131.32c0,-18.72 -3.33,-32.39 -9.97,-41.08 -6.65,-8.61 -15.86,-12.91 -27.64,-12.91 -8.16,0 -16.39,2.04 -24.69,6.19 -8.31,4.16 -15.79,9.82 -22.43,17.07 -6.65,7.17 -11.48,15.55 -14.5,24.99l0 137.06 -60.71 0 0 -235.15 54.82 0 0 43.87c6.04,-10.19 13.74,-18.72 23.11,-25.75 9.36,-7.02 20.16,-12.38 32.39,-16.16 12.24,-3.7 25.15,-5.58 38.74,-5.58 14.8,0 26.96,2.64 36.47,7.85 9.52,5.21 16.77,12.23 21.75,21.07 4.99,8.76 8.46,18.73 10.42,29.75 1.97,11.03 2.95,22.28 2.95,33.6l0 146.5z"/>
   <path id="_12" class="fil7 str1" d="M7869.86 14998.61c-5.13,2.11 -11.32,4.53 -18.57,7.25 -7.25,2.72 -15.03,4.91 -23.33,6.57 -8.31,1.66 -16.69,2.49 -25.15,2.49 -11.18,0 -21.45,-1.96 -30.81,-5.81 -9.36,-3.93 -16.84,-10.12 -22.43,-18.66 -5.59,-8.53 -8.38,-19.7 -8.38,-33.45l0 -135.09 -31.26 0 0 -46.67 31.26 0 0 -77.02 60.71 0 0 77.02 49.84 0 0 46.67 -49.84 0 0 114.48c0.31,8.08 2.57,13.89 6.8,17.44 4.23,3.55 9.51,5.36 15.86,5.36 6.34,0 12.53,-1.06 18.57,-3.17 6.04,-2.11 10.88,-3.93 14.5,-5.44l12.23 48.03z"/>
   <path id="_13" class="fil7 str1" d="M7885.27 14941.07c0,-15.25 4.3,-28.62 12.91,-40.1 8.61,-11.48 20.61,-20.31 36.02,-26.66 15.4,-6.19 33.07,-9.36 53.01,-9.36 9.97,0 20.09,0.76 30.36,2.27 10.27,1.51 19.18,3.92 26.73,7.25l0 -12.61c0,-14.88 -4.46,-26.28 -13.37,-34.29 -8.91,-8 -22.12,-12 -39.64,-12 -12.99,0 -25.37,2.26 -37.15,6.79 -11.78,4.53 -24.17,11.18 -37.16,19.94l-19.48 -39.87c15.71,-10.27 31.79,-17.98 48.25,-23.11 16.47,-5.14 33.76,-7.7 51.88,-7.7 33.83,0 60.18,8.3 79.06,24.99 18.88,16.69 28.32,40.55 28.32,71.51l0 74.53c0,6.27 1.13,10.73 3.4,13.45 2.26,2.64 5.96,4.3 11.1,4.9l0 49.39c-5.44,0.91 -10.35,1.66 -14.73,2.27 -4.38,0.6 -8.08,0.9 -11.1,0.9 -12.08,0 -21.22,-2.72 -27.41,-8.15 -6.19,-5.44 -10.04,-12.09 -11.55,-19.94l-1.36 -12.23c-10.27,13.29 -23.11,23.56 -38.51,30.81 -15.41,7.25 -31.11,10.87 -47.12,10.87 -15.71,0 -29.83,-3.17 -42.37,-9.59 -12.53,-6.42 -22.35,-15.25 -29.45,-26.43 -7.09,-11.18 -10.64,-23.79 -10.64,-37.83zm147.7 11.78c3.32,-3.55 6.04,-7.1 8.16,-10.57 2.11,-3.55 3.17,-6.8 3.17,-9.74l0 -23.41c-7.25,-2.95 -15.1,-5.21 -23.56,-6.88 -8.46,-1.58 -16.46,-2.41 -24.02,-2.41 -15.7,0 -28.61,3.32 -38.73,9.97 -10.12,6.57 -15.18,15.33 -15.18,26.27 0,5.89 1.66,11.48 4.98,16.77 3.32,5.28 8.16,9.59 14.5,12.84 6.34,3.24 13.9,4.83 22.65,4.83 9.07,0 17.98,-1.66 26.74,-5.06 8.76,-3.4 15.85,-7.63 21.29,-12.61z"/>
   <path id="_14" class="fil7 str1" d="M8272.2 15014.92c-19.33,0 -36.7,-3.25 -52.1,-9.66 -15.41,-6.42 -28.55,-15.33 -39.42,-26.89 -10.88,-11.48 -19.26,-24.54 -25.15,-39.19 -5.89,-14.65 -8.83,-29.98 -8.83,-46.14 0,-22.12 5.06,-42.36 15.17,-60.71 10.12,-18.35 24.55,-33.08 43.27,-44.1 18.73,-11.1 40.93,-16.61 66.61,-16.61 25.67,0 47.72,5.58 66.15,16.76 18.42,11.18 32.16,25.83 41.23,43.95l-59.36 18.12c-5.13,-8.76 -11.93,-15.48 -20.39,-20.16 -8.45,-4.68 -17.82,-7.02 -28.09,-7.02 -11.47,0 -21.97,2.87 -31.49,8.68 -9.51,5.74 -16.99,13.9 -22.42,24.39 -5.44,10.57 -8.16,22.81 -8.16,36.7 0,13.67 2.8,25.68 8.38,36.25 5.59,10.5 13.07,18.8 22.43,24.84 9.36,6.12 19.79,9.14 31.26,9.14 7.25,0 14.12,-1.21 20.62,-3.62 6.49,-2.42 12.31,-5.74 17.44,-9.97 5.14,-4.23 8.91,-9.06 11.33,-14.5l59.35 18.12c-5.43,11.78 -13.36,22.35 -23.78,31.72 -10.43,9.36 -22.66,16.69 -36.7,21.97 -14.05,5.29 -29.83,7.93 -47.35,7.93z"/>
   <path id="_15" class="fil7 str1" d="M8559.45 14998.61c-5.13,2.11 -11.32,4.53 -18.57,7.25 -7.25,2.72 -15.03,4.91 -23.33,6.57 -8.31,1.66 -16.69,2.49 -25.15,2.49 -11.18,0 -21.45,-1.96 -30.81,-5.81 -9.36,-3.93 -16.84,-10.12 -22.43,-18.66 -5.59,-8.53 -8.38,-19.7 -8.38,-33.45l0 -135.09 -31.26 0 0 -46.67 31.26 0 0 -77.02 60.71 0 0 77.02 49.84 0 0 46.67 -49.84 0 0 114.48c0.31,8.08 2.57,13.89 6.8,17.44 4.23,3.55 9.51,5.36 15.86,5.36 6.34,0 12.53,-1.06 18.57,-3.17 6.04,-2.11 10.88,-3.93 14.5,-5.44l12.23 48.03z"/>
   <path id="_16" class="fil7 str1" d="M8842.17 15012.66c-25.67,0 -47.49,-4.31 -65.47,-12.92 -17.97,-8.61 -32.47,-20.46 -43.49,-35.56 -11.03,-15.11 -19.11,-32.25 -24.24,-51.43 -5.14,-19.18 -7.7,-39.19 -7.7,-60.03l0 -164.02 62.52 0 0 164.02c0,13.29 1.29,26.2 3.85,38.74 2.57,12.53 6.88,23.78 12.92,33.75 6.04,9.97 14.04,17.82 24.01,23.56 9.97,5.74 22.35,8.61 37.15,8.61 15.1,0 27.72,-2.95 37.83,-8.84 10.12,-5.89 18.13,-13.81 24.02,-23.78 5.89,-9.97 10.19,-21.22 12.91,-33.76 2.72,-12.53 4.08,-25.29 4.08,-38.28l0 -164.02 62.07 0 0 164.02c0,22.05 -2.64,42.74 -7.93,62.07 -5.29,19.33 -13.59,36.32 -24.92,50.97 -11.33,14.65 -25.9,26.13 -43.72,34.44 -17.82,8.3 -39.12,12.46 -63.89,12.46z"/>
   <path id="_17" class="fil7 str1" d="M9121.27 15014.92c-20.24,0 -39.57,-3.32 -57.99,-9.97 -18.43,-6.64 -34.28,-16.46 -47.58,-29.45l21.75 -39.42c14.2,11.48 28.17,19.94 41.91,25.38 13.75,5.43 26.96,8.15 39.65,8.15 11.78,0 21.22,-2.04 28.31,-6.11 7.1,-4.08 10.65,-10.2 10.65,-18.35 0,-5.67 -1.96,-10.05 -5.89,-13.22 -3.92,-3.09 -9.59,-5.89 -16.99,-8.23 -7.4,-2.42 -16.39,-5.06 -26.96,-8.08 -17.52,-5.66 -32.17,-11.18 -43.95,-16.54 -11.78,-5.36 -20.61,-12.15 -26.5,-20.39 -5.89,-8.15 -8.84,-18.65 -8.84,-31.48 0,-15.48 4.01,-28.85 12.01,-40.03 8.01,-11.17 19.18,-19.93 33.53,-26.2 14.35,-6.27 31.19,-9.36 50.52,-9.36 16.91,0 32.92,2.64 48.02,7.93 15.11,5.28 28.85,13.81 41.23,25.59l-24.46 38.52c-12.08,-9.37 -23.56,-16.24 -34.44,-20.62 -10.87,-4.38 -21.9,-6.57 -33.07,-6.57 -6.34,0 -12.31,0.76 -17.9,2.27 -5.59,1.43 -10.12,3.92 -13.59,7.32 -3.47,3.4 -5.21,8.23 -5.21,14.5 0,5.66 1.58,10.04 4.76,13.14 3.17,3.1 8,5.89 14.49,8.23 6.5,2.42 14.43,5.06 23.79,8.08 19.03,5.36 35.12,10.8 48.25,16.46 13.14,5.67 23.04,12.61 29.68,20.77 6.65,8.15 9.97,19.41 9.97,33.68 0,23.18 -8.61,41.3 -25.83,54.37 -17.21,13.06 -40.32,19.63 -69.32,19.63z"/>
  </g>
 </g>
</svg>
